<svg width="24" height="24" viewBox="0 0 24 24" fill="none" xmlns="http://www.w3.org/2000/svg">
<path d="M9.34391 0.0100849C8.68478 0.0617163 8.08865 0.146204 7.55068 0.263548C3.69764 1.11312 0.813917 3.77448 0.130548 7.11175C-0.0633155 8.0552 -0.0390825 9.36006 0.188707 10.4678C0.532815 12.1341 1.36158 13.6173 2.61685 14.8189L3.09181 15.2742L3.10151 17.3817L3.11605 19.4939L5.28732 18.2735L7.46344 17.0578L7.88509 17.1095C8.61693 17.1986 10.0709 17.2644 10.6283 17.2362C13.7155 17.0625 16.2939 15.6826 17.8836 13.3591C19.2067 11.4253 19.6865 8.9517 19.1534 6.78788C18.344 3.48347 15.1162 0.685987 11.4279 0.0945726C11.016 0.02886 9.75103 -0.0227714 9.34391 0.0100849ZM11.4279 1.62474C14.5879 2.24432 17.1178 4.60997 17.714 7.50133C17.8254 8.03642 17.8254 9.28966 17.714 9.86229C17.4232 11.4065 16.735 12.6926 15.6639 13.6924C14.3117 14.9503 12.6347 15.6168 10.5071 15.7342C9.91581 15.7624 8.41337 15.6966 7.70577 15.6075L7.27927 15.5511L5.96099 16.4054L4.64272 17.255V15.9407V14.6265L3.94966 13.9553C3.14513 13.1808 2.72832 12.641 2.32121 11.8337C1.77839 10.7729 1.56999 9.90923 1.56999 8.71232C1.56514 7.9003 1.61845 7.49194 1.80747 6.85829C2.65077 3.9857 5.51996 1.8829 9.07735 1.53086C9.75587 1.46515 10.8415 1.5074 11.4279 1.62474Z" fill="black"/>
<path d="M4.57025 7.60476C3.64455 8.0272 3.64455 9.21003 4.57025 9.63247C4.7108 9.69818 4.89982 9.74512 5.03068 9.74512C5.29239 9.74512 5.68012 9.57614 5.86429 9.38839C6.19386 9.04575 6.27625 8.57637 6.07754 8.17271C5.79159 7.58599 5.14215 7.34191 4.57025 7.60476Z" fill="black"/>
<path d="M9.22259 7.60476C8.2969 8.0272 8.2969 9.21003 9.22259 9.63247C9.36315 9.69818 9.55216 9.74512 9.68302 9.74512C9.94474 9.74512 10.3325 9.57614 10.5166 9.38839C10.8462 9.04575 10.9286 8.57637 10.7299 8.17271C10.4439 7.58599 9.79449 7.34191 9.22259 7.60476Z" fill="black"/>
<path d="M13.8753 7.60476C13.5845 7.73619 13.4051 7.91455 13.2743 8.19618C13.095 8.58106 13.187 9.05983 13.5021 9.38839C13.6862 9.57614 14.074 9.74512 14.3357 9.74512C14.5974 9.74512 14.9851 9.57614 15.1693 9.38839C15.4989 9.04575 15.5813 8.57637 15.3826 8.17271C15.0966 7.58599 14.4472 7.34191 13.8753 7.60476Z" fill="black"/>
<path d="M20.9126 7.25735C20.9272 7.46387 20.9126 7.91917 20.8787 8.26651L20.8206 8.90016L21.0144 9.14893C21.5427 9.82014 21.8723 10.4162 22.1388 11.1954C22.924 13.4766 22.2939 15.8986 20.4425 17.7244C19.9966 18.1657 19.2987 18.7007 18.8335 18.9636L18.6008 19.095V20.428V21.7611L17.2874 20.9115L15.9691 20.0619L15.4554 20.1417C14.3891 20.3013 13.1726 20.2825 12.3245 20.0948C11.5006 19.907 10.6039 19.494 9.6831 18.8791L9.465 18.7336H8.36482H7.26465L7.46821 18.9401C8.05949 19.5268 9.14512 20.2919 10.003 20.7144C11.3406 21.3809 12.94 21.6578 14.6605 21.5311C15.1113 21.4982 15.5523 21.4607 15.6444 21.4513C15.7995 21.4278 16.0127 21.5452 17.9708 22.7139L20.1275 24L20.1517 21.869L20.176 19.7381L20.4522 19.5409C22.0031 18.4191 23.0839 17.0016 23.6316 15.3776C23.9224 14.5233 23.9951 14.0398 23.9999 13.0541C23.9999 12.0497 23.9466 11.6695 23.6607 10.7777C23.302 9.66994 22.7156 8.68894 21.8674 7.77366C21.5475 7.43102 20.9611 6.88185 20.9126 6.88185C20.8933 6.88185 20.8933 7.05082 20.9126 7.25735Z" fill="black"/>
</svg>
