<svg width="26" height="27" viewBox="0 0 26 27" fill="none" xmlns="http://www.w3.org/2000/svg">
<path d="M10.3439 1.01047C9.68478 1.06378 9.08865 1.15102 8.55068 1.27219C4.69764 2.14942 1.81392 4.89743 1.13055 8.34336C0.936685 9.31752 0.960917 10.6649 1.18871 11.8087C1.53281 13.5292 2.36158 15.0607 3.61685 16.3015L4.09181 16.7716L4.10151 18.9477L4.11605 21.1287L6.28732 19.8685L8.46344 18.6133L8.88509 18.6666C9.61693 18.7587 11.0709 18.8265 11.6283 18.7975C14.7155 18.6181 17.2939 17.1932 18.8836 14.7942C20.2067 12.7974 20.6865 10.2432 20.1534 8.00895C19.344 4.59695 16.1162 1.70838 12.4279 1.09771C12.016 1.02986 10.751 0.976544 10.3439 1.01047ZM12.4279 2.6777C15.5879 3.31745 18.1178 5.76013 18.714 8.74563C18.8254 9.29814 18.8254 10.5922 18.714 11.1835C18.4232 12.778 17.735 14.106 16.6639 15.1383C15.3117 16.4372 13.6347 17.1254 11.5071 17.2465C10.9158 17.2756 9.41337 17.2078 8.70577 17.1157L8.27927 17.0575L6.96099 17.9396L5.64272 18.8168V17.4598V16.1027L4.94966 15.4097C4.14513 14.61 3.72832 14.0526 3.32121 13.219C2.77839 12.1237 2.56999 11.2319 2.56999 9.99605C2.56514 9.15759 2.61845 8.73593 2.80747 8.08164C3.65077 5.11553 6.51996 2.94426 10.0774 2.58077C10.7559 2.51291 11.8415 2.55653 12.4279 2.6777Z" fill="black" stroke="black" stroke-width="0.4"/>
<path d="M5.57025 8.85246C4.64455 9.28865 4.64455 10.51 5.57025 10.9462C5.7108 11.014 5.89982 11.0625 6.03068 11.0625C6.29239 11.0625 6.68012 10.888 6.86429 10.6942C7.19386 10.3404 7.27625 9.8557 7.07754 9.43889C6.79159 8.83307 6.14215 8.58105 5.57025 8.85246Z" fill="black" stroke="black" stroke-width="0.4"/>
<path d="M10.2226 8.85246C9.2969 9.28865 9.2969 10.51 10.2226 10.9462C10.3631 11.014 10.5522 11.0625 10.683 11.0625C10.9447 11.0625 11.3325 10.888 11.5166 10.6942C11.8462 10.3404 11.9286 9.8557 11.7299 9.43889C11.4439 8.83307 10.7945 8.58105 10.2226 8.85246Z" fill="black" stroke="black" stroke-width="0.4"/>
<path d="M14.8753 8.85246C14.5845 8.98816 14.4051 9.17233 14.2743 9.46313C14.095 9.86055 14.187 10.3549 14.5021 10.6942C14.6862 10.888 15.074 11.0625 15.3357 11.0625C15.5974 11.0625 15.9851 10.888 16.1693 10.6942C16.4989 10.3404 16.5813 9.8557 16.3826 9.43889C16.0966 8.83307 15.4472 8.58105 14.8753 8.85246Z" fill="black" stroke="black" stroke-width="0.4"/>
<path d="M21.9126 8.49371C21.9272 8.70696 21.9126 9.17708 21.8787 9.53573L21.8206 10.19L22.0144 10.4469C22.5427 11.1399 22.8723 11.7555 23.1388 12.56C23.924 14.9154 23.2939 17.4163 21.4425 19.3016C20.9966 19.7572 20.2987 20.3097 19.8335 20.5811L19.6008 20.7168V22.0932V23.4697L18.2874 22.5924L16.9691 21.7152L16.4554 21.7976C15.3891 21.9624 14.1726 21.943 13.3245 21.7491C12.5006 21.5553 11.6039 21.1288 10.6831 20.4939L10.465 20.3436H9.36482H8.26465L8.46821 20.5569C9.05949 21.1627 10.1451 21.9527 11.003 22.3889C12.3406 23.0771 13.94 23.363 15.6605 23.2322C16.1113 23.1983 16.5523 23.1595 16.6444 23.1498C16.7995 23.1256 17.0127 23.2467 18.9708 24.4535L21.1275 25.7815L21.1517 23.5811L21.176 21.3808L21.4522 21.1772C23.0031 20.0189 24.0839 18.5552 24.6316 16.8783C24.9224 15.9962 24.9951 15.497 24.9999 14.4792C24.9999 13.4421 24.9466 13.0495 24.6607 12.1287C24.302 10.9849 23.7156 9.97192 22.8674 9.02684C22.5475 8.67303 21.9611 8.10598 21.9126 8.10598C21.8933 8.10598 21.8933 8.28046 21.9126 8.49371Z" fill="black" stroke="black" stroke-width="0.4"/>
</svg>
