<svg width="8" height="8" viewBox="0 0 24 25" fill="none" xmlns="http://www.w3.org/2000/svg">
<path d="M0.755952 0.198799C0.443075 0.342201 0.241008 0.550787 0.104124 0.870184C-0.019724 1.17654 -0.019724 1.38513 0.104124 1.69149C0.175825 1.86096 1.72066 3.44491 5.27313 6.99738L10.3378 12.0686L5.24053 17.1659C-0.247864 22.6673 -0.0718703 22.4718 0.0324223 23.0389C0.11716 23.5017 0.566922 23.9514 1.02972 24.0362C1.59681 24.1405 1.40126 24.3165 6.9027 18.8281L12 13.7308L17.1038 18.8281C22.5987 24.3165 22.4032 24.1405 22.9703 24.0362C23.4331 23.9514 23.8828 23.5017 23.9676 23.0389C24.0719 22.4718 24.2479 22.6673 18.7595 17.1659L13.6622 12.0686L18.7595 6.96478C24.2479 1.46987 24.0719 1.66541 23.9676 1.09832C23.8828 0.635525 23.4331 0.185762 22.9703 0.101025C22.4032 -0.00326729 22.5987 -0.17926 17.0973 5.30914L12 10.4064L6.92877 5.34173C3.3763 1.78926 1.79236 0.244427 1.62288 0.172726C1.30349 0.0423603 1.07535 0.0488796 0.755952 0.198799Z" fill="black"/>
</svg>
