<svg width="8" height="8" viewBox="0 0 8 8" fill="none" xmlns="http://www.w3.org/2000/svg">
<path d="M0.251984 0.0433984C0.147692 0.0911989 0.0803359 0.160728 0.0347078 0.267193C-0.00657466 0.369313 -0.00657466 0.438841 0.0347078 0.540961C0.0586082 0.597453 0.573553 1.12543 1.75771 2.30959L3.44595 4L1.74685 5.6991C-0.0826214 7.53291 -0.0239568 7.46773 0.0108074 7.65676C0.0390534 7.81103 0.188974 7.96095 0.34324 7.98919C0.532271 8.02396 0.467088 8.08262 2.3009 6.25315L4 4.55405L5.70127 6.25315C7.53291 8.08262 7.46773 8.02396 7.65676 7.98919C7.81103 7.96095 7.96095 7.81103 7.98919 7.65676C8.02396 7.46773 8.08262 7.53291 6.25316 5.6991L4.55406 4L6.25316 2.29873C8.08262 0.467087 8.02396 0.53227 7.98919 0.343239C7.96095 0.188973 7.81103 0.0390525 7.65676 0.0108066C7.46773 -0.0239573 7.53291 -0.0826225 5.6991 1.74684L4 3.44594L2.30959 1.75771C1.12543 0.573552 0.597453 0.0586076 0.540962 0.0347071C0.434496 -0.00874805 0.35845 -0.00657558 0.251984 0.0433984Z" fill="black"/>
</svg>
