<svg width="24" height="24" viewBox="0 0 24 24" fill="none" xmlns="http://www.w3.org/2000/svg">
<path d="M0.755952 0.130196C0.443075 0.273598 0.241008 0.482184 0.104124 0.80158C-0.019724 1.10794 -0.019724 1.31652 0.104124 1.62288C0.175825 1.79236 1.72066 3.3763 5.27313 6.92877L10.3378 12L5.24053 17.0973C-0.247864 22.5987 -0.0718703 22.4032 0.0324223 22.9703C0.11716 23.4331 0.566922 23.8828 1.02972 23.9676C1.59681 24.0719 1.40126 24.2479 6.9027 18.7595L12 13.6622L17.1038 18.7595C22.5987 24.2479 22.4032 24.0719 22.9703 23.9676C23.4331 23.8828 23.8828 23.4331 23.9676 22.9703C24.0719 22.4032 24.2479 22.5987 18.7595 17.0973L13.6622 12L18.7595 6.89618C24.2479 1.40126 24.0719 1.59681 23.9676 1.02972C23.8828 0.566921 23.4331 0.11716 22.9703 0.0324218C22.4032 -0.0718708 22.5987 -0.247865 17.0973 5.24053L12 10.3378L6.92877 5.27313C3.3763 1.72066 1.79236 0.175824 1.62288 0.104123C1.30349 -0.0262428 1.07535 -0.0197245 0.755952 0.130196Z" fill="white"/>
</svg>
