<svg width="26" height="24" viewBox="0 0 26 24" fill="none" xmlns="http://www.w3.org/2000/svg">
<path d="M5.84307 0.0306101C5.74648 0.0415725 5.42619 0.0963848 5.13133 0.156678C2.39112 0.710282 0.606681 2.6616 0.128797 5.6379C-0.125397 7.21649 -0.00846756 8.49362 0.525339 9.98451C0.825288 10.8177 0.987972 11.1575 1.46586 11.9249C2.24877 13.1855 2.72666 13.7172 7.69868 18.886C10.3016 21.5883 12.4979 23.841 12.5792 23.9013C12.7826 24.0329 13.2401 24.0329 13.4435 23.9013C13.6214 23.7808 22.0301 15.0766 22.8639 14.1448C24.5721 12.2373 25.4872 10.5655 25.9091 8.59776C26.0311 8.01675 26.0311 6.41624 25.904 5.66531C25.7668 4.85409 25.5939 4.25115 25.3143 3.63726C24.4704 1.77912 22.991 0.611619 20.9117 0.151196C20.1745 -0.00775898 18.7307 -0.0516086 18.1206 0.0689783C17.5156 0.195046 16.8497 0.436222 16.2904 0.737689C15.4414 1.19811 14.0891 2.24503 13.3316 3.02336L13.0113 3.35223L12.6961 3.02336C11.9335 2.23954 10.5711 1.19263 9.73223 0.743169C8.70021 0.189565 7.90204 -0.0132384 6.77342 0.0032053C6.36163 0.0032053 5.93966 0.0196476 5.84307 0.0306101Z" fill="#FF6174"/>
</svg>
