<svg width="28" height="28" viewBox="0 0 28 28" fill="none" xmlns="http://www.w3.org/2000/svg">
<path d="M12.9223 1.07161C9.55912 1.52885 6.86653 4.10967 6.24165 7.47286C6.10956 8.17903 6.10956 9.56089 6.24165 10.2671C6.49566 11.6286 6.94273 12.5888 8.03501 14.0773C8.84279 15.1848 9.5642 16.8461 9.8487 18.2483L9.93506 18.6649L9.78265 18.8986C9.32542 19.6251 9.38131 20.7377 9.91982 21.4438C10.0875 21.6623 10.4025 21.9468 10.6158 22.0637C10.6768 22.0992 10.6717 22.1551 10.5904 22.4294C10.3212 23.2779 10.5854 24.2482 11.2407 24.8223C11.6421 25.1779 12.0282 25.3354 12.6683 25.3964L13.2322 25.4522V25.9247C13.2322 26.509 13.3338 26.7477 13.6386 26.9052C13.8927 27.0322 14.0959 27.0322 14.3499 26.9052C14.6547 26.7477 14.7563 26.509 14.7563 25.9247V25.4522L15.3152 25.3964C15.9553 25.3354 16.3566 25.1728 16.7427 24.8324C17.4032 24.2431 17.6674 23.2829 17.3981 22.4244C17.3321 22.211 17.3168 22.0992 17.3524 22.084C17.4997 22.0382 17.9519 21.6115 18.1246 21.3676C18.6174 20.6615 18.6428 19.5387 18.1805 18.863L18.0484 18.67L18.1297 18.2686C18.2465 17.6945 18.4701 16.9427 18.6936 16.3889C19.0797 15.4185 19.4252 14.8191 20.4514 13.3661C21.0814 12.477 21.5284 11.4152 21.752 10.2671C21.8891 9.57105 21.8739 8.0571 21.7266 7.36618C21.564 6.61428 21.3964 6.13165 21.0306 5.38992C20.3041 3.91153 19.0645 2.6516 17.5912 1.88447C16.1483 1.13766 14.5277 0.853157 12.9223 1.07161ZM14.924 2.59572C16.57 2.84466 18.0941 3.76928 19.1051 5.1359C19.8722 6.17737 20.2736 7.31537 20.3295 8.61594C20.3904 10.1197 19.9891 11.4203 19.0899 12.6548C17.8858 14.3161 17.1238 15.8707 16.7631 17.4151L16.6665 17.8114H13.9943H11.3169L11.2001 17.3389C10.8495 15.9113 10.0519 14.2247 9.16285 13.0359C8.69546 12.411 8.33475 11.8166 8.15694 11.3949C7.42029 9.62185 7.48125 7.66084 8.32967 5.99956C9.57436 3.56607 12.2365 2.18929 14.924 2.59572ZM16.7681 19.5489C17.1136 19.8893 17.0476 20.4684 16.6411 20.7174L16.4582 20.8342H13.9943H11.5303L11.3474 20.7174C11.0934 20.5649 10.9765 20.3058 11.0121 19.9807C11.0324 19.7572 11.0629 19.6962 11.2458 19.5286L11.4541 19.3304L14.0197 19.3457L16.5853 19.3609L16.7681 19.5489ZM15.7521 22.5971C16.0975 22.9375 16.0315 23.5166 15.6251 23.7656C15.4473 23.8824 15.4117 23.8824 13.9943 23.8824C12.5769 23.8824 12.5413 23.8824 12.3635 23.7656C12.1095 23.6132 11.9926 23.3541 12.0282 23.0289C12.0485 22.8054 12.079 22.7444 12.2619 22.5768L12.4702 22.3786L14.0197 22.3939L15.5692 22.4091L15.7521 22.5971Z" fill="black" stroke="black" stroke-width="0.3"/>
<path d="M13.6085 5.44059C13.2173 5.67429 13.2275 5.60316 13.2427 8.54977C13.258 11.0849 13.2631 11.1509 13.3647 11.2881C13.5526 11.5421 13.7203 11.6335 13.9946 11.6335C14.269 11.6335 14.4366 11.5421 14.6246 11.2881C14.7262 11.1509 14.7313 11.0849 14.7465 8.53453C14.7567 5.99435 14.7567 5.91814 14.6551 5.72001C14.5382 5.49139 14.2486 5.31358 13.9845 5.31358C13.893 5.31358 13.7254 5.36946 13.6085 5.44059Z" fill="black" stroke="black" stroke-width="0.3"/>
<path d="M13.6181 13.2594C13.2523 13.4779 13.1406 13.8792 13.3336 14.2552C13.4505 14.4838 13.74 14.6616 13.9941 14.6616C14.3802 14.6616 14.7561 14.2857 14.7561 13.8945C14.7561 13.6608 14.558 13.3458 14.3395 13.234C14.0855 13.107 13.8569 13.1121 13.6181 13.2594Z" fill="black" stroke="black" stroke-width="0.3"/>
<path d="M2.76667 2.45338C2.30944 2.69216 2.21291 3.36277 2.59394 3.69299C2.76667 3.84032 4.65657 4.81575 4.8293 4.84115C5.06299 4.8818 5.22557 4.82591 5.43386 4.6481C5.759 4.3636 5.77932 3.86572 5.4745 3.57614C5.39322 3.49994 4.89026 3.20528 4.34666 2.92078C3.26963 2.35686 3.07149 2.29589 2.76667 2.45338Z" fill="black" stroke="black" stroke-width="0.3"/>
<path d="M24.587 2.43811C24.1653 2.621 22.6361 3.45926 22.5142 3.57611C22.2043 3.86569 22.2246 4.3534 22.5549 4.64806C22.7632 4.83096 22.9257 4.88176 23.1645 4.84112C23.3372 4.81063 25.222 3.84537 25.3948 3.69296C25.5421 3.56087 25.6285 3.35257 25.6285 3.11379C25.6285 2.58036 25.0747 2.22473 24.587 2.43811Z" fill="black" stroke="black" stroke-width="0.3"/>
<path d="M1.41532 8.20958C0.86156 8.48392 0.86156 9.28662 1.41532 9.55079C1.55757 9.61684 1.78619 9.63208 2.78702 9.63208C3.88437 9.63208 4.0063 9.62192 4.18411 9.53047C4.39241 9.42379 4.59562 9.09864 4.59562 8.87003C4.59562 8.62617 4.39749 8.32135 4.16887 8.21466C3.97074 8.11813 3.85897 8.10797 2.78702 8.10797C1.72014 8.10797 1.60837 8.11813 1.41532 8.20958Z" fill="black" stroke="black" stroke-width="0.3"/>
<path d="M23.8147 8.21466C23.5861 8.32643 23.3931 8.63125 23.3931 8.87511C23.3981 9.11896 23.576 9.41871 23.7944 9.52539C23.9824 9.62192 24.0891 9.63208 25.2068 9.63208C26.2889 9.63208 26.4362 9.62192 26.5937 9.53555C26.8071 9.42379 27.0001 9.11388 27.0001 8.87511C27.0001 8.62109 26.8121 8.32643 26.5683 8.20958C26.3752 8.11813 26.2533 8.10797 25.1915 8.10797C24.1145 8.10797 24.0129 8.11813 23.8147 8.21466Z" fill="black" stroke="black" stroke-width="0.3"/>
<path d="M3.74177 13.4219C3.16261 13.7217 2.64949 14.0011 2.59361 14.0468C2.42088 14.1992 2.34975 14.4075 2.37007 14.6971C2.39547 14.9867 2.51232 15.1645 2.7765 15.3017C3.07116 15.4541 3.24389 15.4033 4.38697 14.7987C5.44877 14.245 5.48433 14.2246 5.60118 13.9909C5.69771 13.803 5.71803 13.7115 5.68755 13.5439C5.62658 13.1882 5.27604 12.8834 4.92549 12.8834C4.84929 12.8834 4.32093 13.1273 3.74177 13.4219Z" fill="black" stroke="black" stroke-width="0.3"/>
<path d="M22.7579 12.9545C22.5344 13.0511 22.3413 13.3051 22.3007 13.5439C22.2702 13.7115 22.2905 13.803 22.3871 13.9909C22.5039 14.2246 22.5395 14.245 23.6013 14.7987C24.7443 15.4033 24.9171 15.4541 25.2117 15.3017C25.481 15.1594 25.5928 14.9867 25.6182 14.6717C25.6487 14.245 25.5267 14.0976 24.8917 13.7572C23.2406 12.8783 23.0627 12.8123 22.7579 12.9545Z" fill="black" stroke="black" stroke-width="0.3"/>
</svg>
