<svg width="18" height="18" viewBox="0 0 24 28" fill="none" xmlns="http://www.w3.org/2000/svg">
<path d="M11.5949 0.111435C11.2402 0.325385 11.1614 0.567486 11.1614 1.48522C11.1614 2.189 11.1783 2.29035 11.2909 2.49304C11.6118 3.06732 12.4563 3.05043 12.7491 2.46489C12.8899 2.189 12.8955 0.747655 12.7604 0.460511C12.5577 0.0382417 12.0003 -0.130666 11.5949 0.111435Z" fill="black"/>
<path d="M2.5118 4.07091C2.10079 4.25108 1.89247 4.74654 2.05575 5.14629C2.16835 5.41091 3.05793 6.32865 3.33945 6.47503C3.6097 6.61016 3.84054 6.61016 4.11642 6.4694C4.48239 6.2836 4.65693 5.81629 4.51054 5.42217C4.42046 5.19133 3.44642 4.2173 3.18743 4.09906C2.92281 3.97519 2.74264 3.96956 2.5118 4.07091Z" fill="black"/>
<path d="M20.3957 4.09011C20.1029 4.21398 19.1233 5.2218 19.0388 5.48079C18.8474 6.08323 19.3935 6.68567 20.0354 6.5618C20.2099 6.52802 20.3619 6.40978 20.8743 5.89743C21.5386 5.23306 21.6175 5.08667 21.5499 4.70381C21.4823 4.34348 21.0657 3.9944 20.7166 4.00003C20.6434 4.00566 20.5027 4.03944 20.3957 4.09011Z" fill="black"/>
<path d="M11.3586 4.11674C7.58633 4.41515 4.5291 7.22465 3.92666 10.9519C3.81406 11.6275 3.81969 12.9563 3.93229 13.6319C4.0449 14.2963 4.38271 15.3266 4.68675 15.9403C5.21599 16.9932 6.16188 18.1305 7.04583 18.7892C7.2823 18.9637 7.49062 19.1214 7.51314 19.1383C7.54692 19.1664 8.0086 22.7585 8.0086 22.9781C8.0086 23.0063 7.896 23.0288 7.76087 23.0288C7.29356 23.0288 6.9107 23.4173 6.91633 23.879C6.92196 24.3857 7.24852 24.6728 7.8397 24.7066L8.22818 24.7291L8.31827 25.0444C8.5097 25.7032 8.99953 26.4633 9.50062 26.8799C11.0658 28.1805 13.3123 28.096 14.7086 26.6941C15.1985 26.1986 15.5025 25.7032 15.6827 25.1289L15.8065 24.7179H16.1049C16.4934 24.7179 16.7411 24.6109 16.9382 24.3519C17.3379 23.8227 16.9889 23.1076 16.2907 23.0401C16.0374 23.0175 16.0092 23.0006 16.0317 22.8937C16.043 22.8317 16.15 21.9647 16.2626 20.9738L16.4765 19.1664L16.8932 18.8624C18.4809 17.7026 19.6295 15.8727 20.0686 13.8289C20.2319 13.0632 20.2432 11.5994 20.0911 10.8111C19.5901 8.20995 17.9291 6.03103 15.5813 4.89935C14.7086 4.48271 13.7571 4.20683 12.9351 4.13927C12.1412 4.0717 11.9104 4.0717 11.3586 4.11674ZM13.104 5.86776C15.3111 6.19994 17.3098 7.85524 18.1262 10.0229C18.7005 11.5318 18.6442 13.3222 17.9854 14.8593C17.5069 15.9572 16.6004 17.0382 15.57 17.7307C15.2604 17.9334 15.0127 18.1417 14.962 18.2431C14.8888 18.3782 14.7086 19.4648 14.7086 19.7464C14.7086 19.8083 14.2188 19.8195 12.023 19.8083L9.33735 19.7914L9.24163 19.0707C9.17407 18.5471 9.11777 18.305 9.03894 18.198C8.97701 18.1136 8.71802 17.8996 8.45902 17.7251C6.91633 16.6722 5.94793 15.2084 5.61011 13.4123C5.46935 12.6691 5.52566 11.3066 5.72272 10.5915C6.02675 9.49928 6.5391 8.58154 7.27667 7.80457C8.78558 6.21683 10.8631 5.52994 13.104 5.86776ZM14.4834 21.5762C14.4834 21.6156 14.444 21.9534 14.399 22.325C14.3539 22.691 14.3145 23.0063 14.3145 23.0119C14.3145 23.0232 13.2785 23.0288 12.0117 23.0288H9.71457L9.64701 22.3926C9.6076 22.0491 9.56256 21.7057 9.54567 21.6325L9.51751 21.5086H12.0005C13.9485 21.5086 14.4834 21.5255 14.4834 21.5762ZM14.033 24.7685C14.033 24.8755 13.5769 25.4836 13.3855 25.6356C13.2729 25.7257 13.0421 25.8608 12.8619 25.9453C12.4227 26.148 11.6908 26.1592 11.2066 25.9622C10.8068 25.8045 10.3395 25.3879 10.1256 25.005L9.97357 24.7179H12.0005C13.1434 24.7179 14.033 24.7404 14.033 24.7685Z" fill="black"/>
<path d="M11.6343 7.77059C11.4936 7.83816 11.3584 7.96765 11.2852 8.10278C11.167 8.31673 11.1614 8.37303 11.1614 10.3324C11.1614 12.0721 11.1726 12.3705 11.2515 12.5338C11.5442 13.1531 12.4338 13.1531 12.7322 12.5338C12.8505 12.2917 12.8561 12.2354 12.8392 10.2592C12.8223 8.3111 12.8167 8.22101 12.7041 8.07463C12.4169 7.68051 12.0228 7.57353 11.6343 7.77059Z" fill="black"/>
<path d="M11.5499 14.2624C11.2515 14.4595 11.1614 14.696 11.1614 15.3097C11.1614 15.9571 11.274 16.2105 11.6512 16.3907C12.0453 16.5821 12.4113 16.4751 12.7041 16.081C12.873 15.8614 12.9068 14.8761 12.7547 14.5834C12.6084 14.3018 12.3268 14.1329 12.0059 14.1329C11.8257 14.1329 11.6794 14.1724 11.5499 14.2624Z" fill="black"/>
<path d="M0.681262 11.0926C0.298404 11.1826 0 11.543 0 11.909C0 12.1511 0.168908 12.4495 0.388488 12.5958C0.568657 12.7197 0.63622 12.7253 1.49765 12.7253H2.41538L2.60681 12.5564C2.86017 12.3369 2.95026 12.1116 2.91085 11.7907C2.87706 11.4642 2.60118 11.1658 2.27463 11.0926C2.01 11.0306 0.945884 11.0306 0.681262 11.0926Z" fill="black"/>
<path d="M21.7089 11.0869C21.6075 11.1151 21.4274 11.2277 21.3148 11.3403C21.1233 11.5317 21.1121 11.5655 21.1121 11.9146C21.1121 12.2749 21.1177 12.2862 21.3485 12.5058L21.585 12.7253H22.5084C23.3754 12.7253 23.443 12.7197 23.6232 12.5958C24.1524 12.2411 24.1186 11.5092 23.5556 11.177C23.3979 11.0869 23.2459 11.0644 22.6322 11.0532C22.2325 11.0475 21.8158 11.0644 21.7089 11.0869Z" fill="black"/>
</svg>
