<svg width="24" height="16" viewBox="0 0 24 16" fill="none" xmlns="http://www.w3.org/2000/svg">
<path d="M15.2354 0.0663765C15.0244 0.15531 14.9165 0.248691 14.8087 0.448792C14.7055 0.644447 14.6961 0.920142 14.7852 1.12024C14.8228 1.20028 16.1686 2.50761 17.9505 4.19736C19.6574 5.81151 21.0501 7.14552 21.0501 7.1633C21.0501 7.18554 16.464 7.19888 10.8603 7.19888H0.670564L0.464237 7.2967C-0.154746 7.59463 -0.154746 8.40393 0.464237 8.69741L0.670564 8.79969H10.8603C16.464 8.79969 21.0501 8.81303 21.0501 8.83081C21.0501 8.8486 19.6715 10.1559 17.9833 11.7434C15.7934 13.7978 14.8884 14.6782 14.8181 14.8161C14.6961 15.0562 14.6915 15.3319 14.8087 15.5498C14.9165 15.7543 15.0244 15.8477 15.2495 15.9366C15.4652 16.0211 15.6621 16.0211 15.8825 15.9366C16.1217 15.8388 23.7792 8.58625 23.9105 8.32834C24.0231 8.11045 24.0278 7.91924 23.934 7.69691C23.8308 7.47013 16.1826 0.208671 15.9107 0.0841633C15.6856 -0.0225574 15.4605 -0.0270041 15.2354 0.0663765Z" fill="#7ED287"/>
</svg>
