<svg width="28" height="26" viewBox="0 0 28 26" fill="none" xmlns="http://www.w3.org/2000/svg">
<path d="M0.908688 7.62981L0.908587 7.63054C0.830531 8.22265 0.83035 9.52837 0.908769 10.085L0.908863 10.0857C1.27191 12.5815 2.58475 14.8 5.28988 17.5598L5.28994 17.5599C6.36857 18.6592 7.28896 19.513 10.7112 22.5805L0.908688 7.62981ZM0.908688 7.62981C1.40017 4.03845 3.85316 1.36474 7.07934 0.961338L0.908688 7.62981ZM10.7265 22.5942L10.7113 22.5805L7.07964 0.9613C8.06621 0.836035 9.32502 0.992786 10.186 1.34896C11.648 1.94859 12.9964 3.20792 13.8661 4.76424L13.8661 4.76423L13.8674 4.76669C13.9139 4.85363 13.9601 4.93375 14 4.99859C14.0399 4.93375 14.0861 4.85363 14.1326 4.76669L14.1326 4.76667L14.1342 4.76382C14.8277 3.53192 15.9817 2.31919 17.0434 1.71865L17.0445 1.71802C18.0549 1.15807 18.8946 0.938992 20.0606 0.933556H20.0613C21.2441 0.933556 22.0666 1.11898 23.0662 1.60814C25.1967 2.64931 26.7241 4.95181 27.0913 7.62977L27.0914 7.63054C27.1695 8.22265 27.1696 9.52837 27.0912 10.085L27.0911 10.0857C26.7281 12.5815 25.4153 14.8 22.7101 17.5598L22.7101 17.5599C21.6314 18.6592 20.711 19.513 17.2887 22.5805L17.1886 22.4688L17.2887 22.5805C16.2268 23.5322 15.5138 24.1647 15.0475 24.564C14.8146 24.7635 14.6415 24.9064 14.5164 25.0023C14.4539 25.0501 14.4015 25.0878 14.3582 25.1154C14.3203 25.1396 14.2766 25.1646 14.2339 25.1762L14.2276 25.178C14.132 25.2062 14.0234 25.2383 13.8811 25.203C13.7465 25.1696 13.595 25.0798 13.3822 24.9186C12.9545 24.5945 12.2053 23.9219 10.7265 22.5942ZM8.80893 2.87855L8.80793 2.87833C8.64216 2.84177 8.31965 2.81531 7.98042 2.80602C7.64254 2.79678 7.30851 2.80511 7.12053 2.83233C6.88793 2.86779 6.40507 2.9975 6.11948 3.11059L6.11777 3.11125C4.04419 3.90304 2.63859 6.20344 2.63859 8.87307C2.63859 10.7109 3.31214 12.3751 4.91881 14.4109L4.91912 14.4113C5.416 15.0453 7.29865 16.9954 8.3461 17.9668C8.96647 18.5401 10.3943 19.826 11.6729 20.9693C12.312 21.5407 12.9135 22.0762 13.3576 22.4688C13.5797 22.6651 13.7622 22.8254 13.8903 22.9365C13.9334 22.9739 13.9701 23.0056 14 23.031C14.0299 23.0056 14.0666 22.9739 14.1097 22.9365C14.2378 22.8254 14.4203 22.6651 14.6424 22.4688C15.0865 22.0762 15.688 21.5407 16.3271 20.9693C17.6055 19.8261 19.0332 18.5403 19.6537 17.9669C20.7011 16.9956 22.584 15.0453 23.0809 14.4113L23.0812 14.4109C24.6879 12.3751 25.3614 10.7109 25.3614 8.87307C25.3614 7.07749 24.7465 5.45238 23.6514 4.31957L23.6513 4.31946C22.9512 3.59385 22.3423 3.22472 21.3689 2.93961C21.1219 2.86775 20.7228 2.82047 20.3103 2.80666C19.898 2.79286 19.4917 2.81315 19.2314 2.86799C17.449 3.24744 15.9472 4.73943 15.0364 7.09804L15.0308 7.11266C14.887 7.48919 14.8063 7.70066 14.7311 7.82898C14.6897 7.89961 14.6464 7.95216 14.5912 7.99634C14.5399 8.03736 14.4825 8.0673 14.4264 8.0966L14.426 8.09683C14.2839 8.17096 14.1454 8.21355 14 8.21355C13.8546 8.21355 13.7161 8.17096 13.574 8.09683L13.5736 8.0966C13.5175 8.0673 13.4601 8.03736 13.4088 7.99634C13.3536 7.95216 13.3103 7.89961 13.2689 7.82898C13.1937 7.70066 13.113 7.48919 12.9692 7.11266L12.9636 7.09793C12.9635 7.09785 12.9635 7.09776 12.9635 7.09767C12.0624 4.75956 10.5603 3.25238 8.80893 2.87855Z" fill="#FF6174" stroke="#FF6174" stroke-width="0.3"/>
</svg>
