<svg width="26" height="24" viewBox="0 0 26 24" fill="none" xmlns="http://www.w3.org/2000/svg">
<path d="M6.62915 1.03808C3.72348 1.39875 1.49956 3.79188 1.05289 7.03308C0.982368 7.56434 0.982368 8.74872 1.05289 9.24587C1.38202 11.4928 2.57155 13.5009 5.05877 16.0207C6.05084 17.0248 6.89715 17.8046 10.0567 20.6169C12.8119 23.0734 12.8119 23.0734 13.1787 22.9661C13.315 22.932 13.9827 22.3618 15.9433 20.6169C19.1029 17.8046 19.9492 17.0248 20.9412 16.0207C23.4284 13.5009 24.618 11.4928 24.9471 9.24587C25.0176 8.74872 25.0176 7.56434 24.9471 7.03308C24.6133 4.61558 23.2263 2.54901 21.308 1.61808C20.4052 1.17942 19.6671 1.01371 18.5951 1.01371C17.5419 1.01858 16.7896 1.21354 15.8775 1.71556C14.923 2.2517 13.8745 3.34347 13.2445 4.45474C13.1316 4.66432 13.0188 4.83491 13 4.83491C12.9812 4.83491 12.8684 4.66432 12.7555 4.45474C11.9656 3.05103 10.7432 1.92027 9.42668 1.38413C8.6556 1.06732 7.51778 0.925974 6.62915 1.03808ZM8.23714 2.52464C9.91566 2.88044 11.3309 4.30852 12.1725 6.47745C12.4499 7.1988 12.4546 7.20854 12.6709 7.32064C12.906 7.44249 13.094 7.44249 13.3291 7.32064C13.5454 7.20854 13.5501 7.1988 13.8275 6.47745C14.6785 4.28903 16.0937 2.87557 17.8005 2.51489C18.313 2.40766 19.352 2.44178 19.841 2.58313C20.7626 2.8512 21.3456 3.20213 22.0085 3.88448C23.0476 4.95189 23.6259 6.47745 23.6259 8.1541C23.6259 9.87949 22.9865 11.4343 21.4913 13.3156C21.0259 13.9054 19.2815 15.699 18.313 16.591C17.1657 17.6437 13.0376 21.309 13 21.309C12.9624 21.309 8.83426 17.6437 7.68704 16.591C6.71848 15.699 4.97414 13.9054 4.50867 13.3156C3.01352 11.4343 2.37408 9.87949 2.37408 8.1541C2.37408 5.66349 3.69527 3.49456 5.6747 2.74397C5.9474 2.63674 6.40347 2.5149 6.62915 2.48078C7.00059 2.42716 7.90332 2.45153 8.23714 2.52464Z" fill="#B5B5B5" stroke="#B5B5B5"/>
</svg>
