<svg width="24" height="30" viewBox="0 0 24 30" fill="none" xmlns="http://www.w3.org/2000/svg">
<path d="M2.33131 0.117441C2.12559 0.180559 1.83073 0.32082 1.67987 0.419002C1.31644 0.650432 0.802148 1.2255 0.617003 1.59719C0.274141 2.28447 0.274141 2.23538 0.274141 11.1349C0.274141 16.0791 0.30157 19.6137 0.342714 19.8521C0.473001 20.6656 0.939292 21.4441 1.54959 21.8579C2.15302 22.2646 2.54388 22.3698 3.65475 22.4189L4.66962 22.461L2.33131 25.7431C-0.0961489 29.1654 -0.123578 29.2075 0.0752817 29.6003C0.205569 29.8668 0.425 30 0.740433 30C1.09701 30 1.19987 29.9088 1.83759 28.9971L2.26274 28.387H12H21.7373L22.1624 28.9971C22.8001 29.9088 22.903 30 23.2596 30C23.575 30 23.7944 29.8668 23.9247 29.6003C24.1236 29.2075 24.0961 29.1654 21.6687 25.7431L19.3304 22.461L20.3452 22.4189C21.4561 22.3698 21.847 22.2646 22.4504 21.8579C23.0607 21.4441 23.527 20.6656 23.6573 19.8521C23.6984 19.6137 23.7259 16.0791 23.7259 11.1349C23.7259 2.08811 23.7327 2.25642 23.335 1.52005C23.0744 1.02212 22.3887 0.383937 21.895 0.180559L21.4973 0.0192583L12.1029 0.0052321C3.27075 -0.00879398 2.68789 -0.00178025 2.33131 0.117441ZM21.3121 1.56914C21.6344 1.70239 21.9156 1.9759 22.087 2.31252C22.2173 2.572 22.2173 2.81746 22.2036 11.2612L22.183 19.9433L22.0116 20.2028C21.9156 20.3501 21.7167 20.5534 21.5727 20.6586L21.3053 20.848H12H2.7016L2.44788 20.6727C2.30388 20.5745 2.10502 20.3711 2.00216 20.2238L1.81702 19.9503L1.79645 11.2612C1.78273 2.81746 1.78273 2.572 1.91302 2.31252C1.98845 2.17226 2.13245 1.96888 2.24217 1.86369C2.68103 1.43589 2.07073 1.46394 11.9863 1.45693C20.0367 1.45693 21.0858 1.47096 21.3121 1.56914ZM18.0206 23.1483L18.5144 23.8636L15.2572 23.8846C13.4674 23.8916 10.5326 23.8916 8.74282 23.8846L5.48563 23.8636L5.97935 23.1483L6.47993 22.4329H12H17.5201L18.0206 23.1483ZM20.119 26.1078C20.407 26.5145 20.6401 26.8582 20.6401 26.8792C20.6401 26.9002 16.7521 26.9143 12 26.9143C7.24794 26.9143 3.35989 26.9002 3.35989 26.8792C3.35989 26.8582 3.59304 26.5145 3.88104 26.1078L4.40219 25.3714H12H19.5978L20.119 26.1078Z" fill="black"/>
<path d="M8.04285 3.03492C7.81656 3.1331 7.61084 3.44869 7.61084 3.70116C7.61084 3.96064 7.81656 4.26921 8.05656 4.37441C8.40628 4.52168 15.5927 4.52168 15.9424 4.37441C16.1824 4.26921 16.3881 3.96064 16.3881 3.70116C16.3881 3.44167 16.1824 3.1331 15.9424 3.0279C15.5995 2.88063 8.37199 2.88764 8.04285 3.03492Z" fill="black"/>
<path d="M4.19638 6.02256C3.88095 6.12075 3.38723 6.63971 3.29809 6.96932C3.25009 7.13764 3.22266 8.18258 3.22266 9.73947V12.2431L3.41466 12.6148C3.5518 12.8883 3.69581 13.0496 3.94267 13.2039L4.27181 13.4143H11.9999H19.728L20.0572 13.2039C20.304 13.0496 20.448 12.8883 20.5852 12.6148L20.7772 12.2431V9.7535C20.7772 7.9792 20.7497 7.1727 20.6949 6.96932C20.5852 6.59763 20.1394 6.14179 19.776 6.02958C19.4194 5.92438 4.55982 5.91737 4.19638 6.02256ZM19.3234 9.67636L19.3371 11.9065H11.9999H4.66267V9.71142C4.66267 8.49817 4.68325 7.48829 4.71067 7.46725C4.73125 7.4392 8.02957 7.42517 12.0273 7.43218L19.3029 7.45322L19.3234 9.67636Z" fill="black"/>
<path d="M4.90256 14.9854C4.27169 15.1537 3.71626 15.6166 3.42825 16.2197C3.19511 16.7036 3.18825 17.6083 3.41454 18.0781C3.64769 18.5761 3.92883 18.8776 4.40198 19.1371C4.7997 19.3545 4.88199 19.3755 5.41685 19.3685C5.91057 19.3685 6.05457 19.3405 6.34943 19.1862C6.86373 18.9057 7.08316 18.6953 7.34373 18.2044C7.55631 17.7976 7.57688 17.7135 7.57688 17.1664C7.57688 16.6194 7.55631 16.5353 7.34373 16.1285C6.95287 15.3992 6.35629 15.0064 5.56085 14.9573C5.31399 14.9433 5.01913 14.9503 4.90256 14.9854ZM5.72543 16.5072C5.938 16.6054 6.17115 16.956 6.17115 17.1664C6.17115 17.2155 6.12315 17.3558 6.06143 17.482C5.93114 17.7696 5.56085 17.9659 5.27971 17.9028C5.02599 17.8467 4.7517 17.5662 4.69684 17.3067C4.63513 17.0262 4.82713 16.6405 5.09456 16.5072C5.36885 16.367 5.44428 16.367 5.72543 16.5072Z" fill="black"/>
<path d="M18.0698 14.9854C17.4389 15.1537 16.8835 15.6166 16.5955 16.2197C16.3692 16.7036 16.3623 17.6153 16.5818 18.0781C16.8218 18.5761 17.0961 18.8776 17.5692 19.1371C17.9669 19.3545 18.0492 19.3755 18.5841 19.3685C19.0778 19.3685 19.2218 19.3405 19.5167 19.1862C20.0309 18.9057 20.2504 18.6953 20.511 18.2044C20.7235 17.7976 20.7441 17.7135 20.7441 17.1664C20.7441 16.6194 20.7235 16.5353 20.511 16.1285C20.1201 15.3992 19.5235 15.0064 18.7281 14.9573C18.4812 14.9433 18.1864 14.9503 18.0698 14.9854ZM18.8926 16.5072C19.1052 16.6054 19.3384 16.956 19.3384 17.1664C19.3384 17.2155 19.2904 17.3558 19.2287 17.482C19.0984 17.7696 18.7281 17.9659 18.4469 17.9028C18.1932 17.8467 17.9189 17.5662 17.8641 17.3067C17.8024 17.0262 17.9944 16.6405 18.2618 16.5072C18.5361 16.367 18.6115 16.367 18.8926 16.5072Z" fill="black"/>
</svg>
