<svg width="22" height="27" viewBox="0 0 22 27" fill="none" xmlns="http://www.w3.org/2000/svg">
<path d="M2.94276 1.09787C2.77133 1.15047 2.52561 1.26735 2.39989 1.34917C2.09703 1.54203 1.66846 2.02125 1.51417 2.33099C1.22845 2.90373 1.22845 2.86282 1.22845 10.2791C1.22845 14.3993 1.25131 17.3447 1.28559 17.5434C1.39417 18.2214 1.78274 18.8701 2.29132 19.2149C2.79418 19.5538 3.1199 19.6415 4.04563 19.6824L4.89135 19.7175L2.94276 22.4526C0.919876 25.3045 0.897018 25.3396 1.06273 25.6669C1.17131 25.889 1.35417 26 1.61703 26C1.91417 26 1.99989 25.924 2.53132 25.1643L2.88561 24.6558H11H19.1144L19.4687 25.1643C20.0001 25.924 20.0858 26 20.383 26C20.6458 26 20.8287 25.889 20.9373 25.6669C21.103 25.3396 21.0801 25.3045 19.0572 22.4526L17.1086 19.7175L17.9544 19.6824C18.8801 19.6415 19.2058 19.5538 19.7087 19.2149C20.2173 18.8701 20.6058 18.2214 20.7144 17.5434C20.7487 17.3447 20.7716 14.3993 20.7716 10.2791C20.7716 2.74009 20.7773 2.88035 20.4458 2.26671C20.2287 1.85177 19.6573 1.31995 19.2458 1.15047L18.9144 1.01605L11.0857 1.00436C3.72562 0.992672 3.2399 0.998516 2.94276 1.09787ZM18.7601 2.30762C19.0287 2.41866 19.263 2.64658 19.4058 2.9271C19.5144 3.14334 19.5144 3.34788 19.503 10.3843L19.4858 17.6194L19.343 17.8357C19.263 17.9584 19.0972 18.1279 18.9772 18.2155L18.7544 18.3733H11H3.25133L3.0399 18.2272C2.9199 18.1454 2.75418 17.9759 2.66847 17.8532L2.51418 17.6253L2.49704 10.3843C2.48561 3.34788 2.48561 3.14334 2.59418 2.9271C2.65704 2.81022 2.77704 2.64074 2.86847 2.55307C3.23419 2.19658 2.72561 2.21995 10.9886 2.21411C17.6972 2.21411 18.5715 2.2258 18.7601 2.30762ZM16.0172 20.2902L16.4286 20.8863L13.7143 20.9039C12.2229 20.9097 9.77713 20.9097 8.28568 20.9039L5.57136 20.8863L5.9828 20.2902L6.39994 19.6941H11H15.6001L16.0172 20.2902ZM17.7658 22.7565C18.0058 23.0954 18.2001 23.3818 18.2001 23.3993C18.2001 23.4169 14.96 23.4286 11 23.4286C7.03995 23.4286 3.79991 23.4169 3.79991 23.3993C3.79991 23.3818 3.9942 23.0954 4.2342 22.7565L4.66849 22.1428H11H17.3315L17.7658 22.7565Z" fill="black" stroke="black" stroke-width="0.3"/>
<path d="M7.70278 3.52902C7.5142 3.61084 7.34277 3.87382 7.34277 4.08422C7.34277 4.30045 7.5142 4.5576 7.71421 4.64526C8.00564 4.76799 13.9943 4.76799 14.2857 4.64526C14.4857 4.5576 14.6572 4.30045 14.6572 4.08422C14.6572 3.86798 14.4857 3.61084 14.2857 3.52317C14 3.40044 7.97707 3.40629 7.70278 3.52902Z" fill="black" stroke="black" stroke-width="0.3"/>
<path d="M4.49699 6.01868C4.23413 6.1005 3.82269 6.53297 3.7484 6.80765C3.7084 6.94791 3.68555 7.81869 3.68555 9.11611V11.2025L3.84555 11.5122C3.95984 11.7402 4.07984 11.8746 4.28555 12.0031L4.55984 12.1785H10.9999H17.44L17.7143 12.0031C17.92 11.8746 18.04 11.7402 18.1543 11.5122L18.3143 11.2025V9.12779C18.3143 7.64921 18.2914 6.97713 18.2457 6.80765C18.1543 6.49791 17.7829 6.11803 17.48 6.02453C17.1829 5.93686 4.79985 5.93102 4.49699 6.01868ZM17.1029 9.06351L17.1143 10.922H10.9999H4.88556V9.09273C4.88556 8.08168 4.9027 7.24012 4.92556 7.22259C4.94271 7.19921 7.69131 7.18752 11.0228 7.19336L17.0857 7.2109L17.1029 9.06351Z" fill="black" stroke="black" stroke-width="0.3"/>
<path d="M5.08547 13.4878C4.55974 13.6281 4.09688 14.0138 3.85688 14.5164C3.66259 14.9196 3.65688 15.6736 3.84545 16.0651C4.03974 16.4801 4.27403 16.7314 4.66832 16.9476C4.99975 17.1288 5.06832 17.1463 5.51404 17.1404C5.92548 17.1404 6.04548 17.1171 6.29119 16.9885C6.71977 16.7547 6.90263 16.5794 7.11978 16.1703C7.29692 15.8313 7.31406 15.7612 7.31406 15.3054C7.31406 14.8495 7.29692 14.7794 7.11978 14.4404C6.79406 13.8326 6.29691 13.5054 5.63404 13.4644C5.42833 13.4528 5.18261 13.4586 5.08547 13.4878ZM5.77119 14.756C5.94833 14.8378 6.14262 15.13 6.14262 15.3054C6.14262 15.3463 6.10262 15.4632 6.05119 15.5684C5.94262 15.808 5.63404 15.9716 5.39976 15.919C5.18832 15.8723 4.95975 15.6385 4.91403 15.4222C4.86261 15.1885 5.02261 14.8671 5.24547 14.756C5.47404 14.6391 5.5369 14.6391 5.77119 14.756Z" fill="black" stroke="black" stroke-width="0.3"/>
<path d="M16.0577 13.4878C15.532 13.6281 15.0692 14.0138 14.8292 14.5164C14.6406 14.9196 14.6349 15.6794 14.8177 16.0651C15.0177 16.4801 15.2463 16.7314 15.6406 16.9476C15.972 17.1288 16.0406 17.1463 16.4863 17.1404C16.8978 17.1404 17.0178 17.1171 17.2635 16.9885C17.6921 16.7547 17.8749 16.5794 18.0921 16.1703C18.2692 15.8313 18.2863 15.7612 18.2863 15.3054C18.2863 14.8495 18.2692 14.7794 18.0921 14.4404C17.7663 13.8326 17.2692 13.5054 16.6063 13.4644C16.4006 13.4528 16.1549 13.4586 16.0577 13.4878ZM16.7435 14.756C16.9206 14.8378 17.1149 15.13 17.1149 15.3054C17.1149 15.3463 17.0749 15.4632 17.0235 15.5684C16.9149 15.808 16.6063 15.9716 16.372 15.919C16.1606 15.8723 15.932 15.6385 15.8863 15.4222C15.8349 15.1885 15.9949 14.8671 16.2177 14.756C16.4463 14.6391 16.5092 14.6391 16.7435 14.756Z" fill="black" stroke="black" stroke-width="0.3"/>
</svg>
