<svg width="30" height="30" viewBox="0 0 30 30" fill="none" xmlns="http://www.w3.org/2000/svg">
<path d="M8.58 21.6948L11.2215 20.9328L27.126 4.83776C27.2514 4.7092 27.3213 4.53646 27.3205 4.35683C27.3196 4.17721 27.2481 4.00513 27.1215 3.87776L26.169 2.91476C26.1074 2.85151 26.0339 2.80116 25.9527 2.76664C25.8715 2.73212 25.7842 2.71413 25.6959 2.71371C25.6077 2.71329 25.5202 2.73046 25.4387 2.7642C25.3572 2.79795 25.2831 2.8476 25.221 2.91026L9.3585 18.9633L8.58 21.6948ZM28.0545 1.00676L29.007 1.97126C30.321 3.30176 30.333 5.44826 29.031 6.76526L12.642 23.3523L6.996 24.9783C6.65129 25.0747 6.28239 25.0305 5.97024 24.8553C5.65809 24.6801 5.4282 24.3883 5.331 24.0438C5.25867 23.7961 5.25763 23.533 5.328 23.2848L6.9705 17.5248L23.316 0.981256C23.6268 0.668293 23.9968 0.420348 24.4045 0.251884C24.8121 0.0834203 25.2492 -0.00219137 25.6903 4.26193e-05C26.1313 0.0022766 26.5676 0.0923115 26.9735 0.264896C27.3794 0.437481 27.7469 0.69066 28.0545 1.00676ZM10.776 2.73626C11.52 2.73626 12.123 3.34676 12.123 4.09976C12.1242 4.27776 12.0903 4.45425 12.0232 4.61913C11.9561 4.78402 11.8572 4.93407 11.7321 5.0607C11.607 5.18734 11.4582 5.28807 11.2941 5.35714C11.1301 5.42622 10.954 5.46227 10.776 5.46326H5.388C3.9 5.46326 2.694 6.68426 2.694 8.18876V24.5478C2.694 26.0538 3.9 27.2748 5.388 27.2748H21.552C23.04 27.2748 24.2475 26.0538 24.2475 24.5478V19.0953C24.2475 18.3423 24.8505 17.7318 25.5945 17.7318C26.3385 17.7318 26.9415 18.3423 26.9415 19.0968V24.5478C26.9415 27.5598 24.528 30.0018 21.552 30.0018H5.388C2.412 30.0018 0 27.5598 0 24.5478V8.18876C0 5.17826 2.412 2.73626 5.388 2.73626H10.776Z" fill="white"/>
</svg>
