<?xml version="1.0" encoding="utf-8"?>
<!-- Generator: Adobe Illustrator 27.5.0, SVG Export Plug-In . SVG Version: 6.00 Build 0)  -->
<svg version="1.1" xmlns="http://www.w3.org/2000/svg" xmlns:xlink="http://www.w3.org/1999/xlink" x="0px" y="0px"
	 viewBox="0 0 750 500" style="enable-background:new 0 0 750 500;" xml:space="preserve">
<g id="BACKGROUND">
	<polygon style="fill:#FFFFFF;" points="0,0 0,124.501 0,235.856 0,402.725 0,500 221.024,500 750,500 750,232.207 750,140.873 
		750,81.61 750,12.454 750,0 	"/>
</g>
<g id="OBJECTS">
	<g>
		<g>
			<path style="fill:#003E6B;" d="M581.695,424.359c1.474-2.171,3.108-4.232,4.885-6.163c1.844-2.004,3.86-3.828,5.914-5.614
				c1.948-1.694,4.002-3.337,5.657-5.331c1.661-2,3.121-4.627,2.205-7.273c-0.158-0.457,0.141-0.898,0.607-0.965l12.831-1.824
				c0.609-0.087,0.867,0.519,0.702,0.97c0.026,0.023,0.052,0.047,0.077,0.075c4.027,4.557,3.91,12.199-0.317,16.598
				c-1.39,1.446-3.112,2.523-4.763,3.639c-1.708,1.155-3.424,2.3-5.163,3.409c-3.373,2.15-6.845,4.17-10.496,5.815
				c-4.14,1.866-8.522,3.201-13.052,3.646c-0.321,0.032-0.615-0.171-0.735-0.462C579.092,428.566,580.414,426.245,581.695,424.359z"
				/>
			<g>
				<path style="fill:#003E6B;" d="M632.485,429.083c-0.097-1.393-0.155-2.788-0.174-4.184c-0.037-2.768,0.077-5.541,0.34-8.296
					c0.595-6.236,1.983-12.373,4.088-18.271c0.274-0.767,1.319-0.375,1.342,0.323c3.39-1.221,7.008-1.65,10.605-1.278
					c0.916,0.095,0.659,1.504-0.255,1.41c-0.125-0.013-0.25-0.022-0.374-0.033c0.008,0.025,0.015,0.05,0.021,0.075
					c0.109-0.024,0.226-0.028,0.349-0.003c0.159,0.031,0.292,0.101,0.397,0.195c0.064-0.817,1.375-0.903,1.425-0.018
					c0.171,3.038,0.342,6.076,0.512,9.114c0.155,2.779,0.308,5.611-0.268,8.354c-1.031,4.91-4.219,8.968-7.321,12.764
					c-1.567,1.919-3.18,3.932-5.333,5.225c-0.986,0.592-2.254,1.269-3.414,0.771c-0.954-0.409-1.359-1.406-1.552-2.359
					C632.625,431.638,632.573,430.338,632.485,429.083z"/>
			</g>
			<path style="fill:#EDBA98;" d="M589.768,184.95c0.125-0.081,0.28-0.127,0.461-0.114c1.174,0.081,2.347,0.163,3.521,0.245
				c9.64-0.487,19.311-0.309,28.927,0.538c3.139,0.277,6.272,0.627,9.395,1.044c0.656,0.088,0.709,0.841,0.348,1.212
				c0.002,0.043,0.002,0.087-0.003,0.134c-0.423,3.853-0.653,7.724-0.671,11.6c-0.009,1.9,0.031,3.8,0.119,5.698
				c0.083,1.787-0.007,3.811,0.679,5.491c0.008,0.019,0.014,0.038,0.02,0.056c0.344,0.278,0.462,0.816-0.022,1.098
				c-9.879,5.756-21.905,7.554-33.042,4.952c-1.553-0.363-3.085-0.814-4.589-1.342c-1.283-0.451-3.418-0.4-3.358-0.236
				c0.06,0.164-1.548-0.084-1.508-0.215c-0.112-0.104-0.207-2.196-0.216-2.398c-0.33-7.361,0.242-18.214-1.357-27.323
				C588.333,184.606,589.377,184.408,589.768,184.95z"/>
			<path style="fill:#EDBA98;" d="M645.055,252.663c0.415-2.254,1.03-4.481,1.561-6.71c0.046-0.194,0.15-0.335,0.28-0.426
				c0-0.986,0.004-1.972,0.018-2.958c0.005-0.399,0.231-0.724,0.649-0.777c3.794-0.487,7.505-1.401,11.094-2.726
				c0.272-0.1,0.507-0.037,0.676,0.107c0.179,0.056,0.337,0.187,0.425,0.412c1.16,2.951,2.279,5.917,3.351,8.901
				c0.535,1.488,1.07,2.978,1.571,4.479c0.473,1.417,0.867,2.892,0.728,4.399c-0.217,2.34-2.027,4.328-4.455,4.166
				c-0.808-0.054-1.307-0.121-1.963,0.415c-0.496,0.405-1.026,0.732-1.637,0.934c-1.234,0.408-2.555,0.37-3.831,0.234
				c-2.383-0.255-6.104-0.888-6.347-3.84c-0.2,0.014-0.4,0.029-0.6,0.043c-0.34,0.334-0.984,0.356-1.163-0.225
				C644.759,256.983,644.657,254.828,645.055,252.663z"/>
			<path style="fill:#EDBA98;" d="M574.497,257.179c-0.097-1.558,0.024-3.124,0.111-4.68c0.098-1.768,0.197-3.535,0.296-5.303
				c0.018-0.327,0.21-0.504,0.446-0.555c0.09-0.198,0.276-0.349,0.564-0.365c1.198-0.07,2.396-0.133,3.594-0.21
				c1.165-0.075,2.293-0.206,3.351-0.734c0.682-0.34,1.138,0.519,0.815,1.058c0.121,0.138,0.194,0.323,0.176,0.548
				c-0.471,6.152-0.953,12.305-1.507,18.451c-0.046,0.509-0.122,0.998-0.594,1.291c-0.479,0.297-1.106,0.208-1.604,0.011
				c-1.054-0.418-1.794-1.465-2.502-2.302C575.843,262.26,574.672,259.999,574.497,257.179z"/>
			<g>
				<path style="fill:#006A5B;" d="M580.929,364.646c0.056-0.189,0.165-0.325,0.3-0.415c3.122-10.291,5.185-20.887,6.144-31.6
					c0.023-0.257,0.15-0.421,0.319-0.505c-0.886-11.193-1.772-22.386-2.658-33.579c-0.454-5.74-0.909-11.481-1.363-17.221
					c-0.121-1.525-0.243-3.05-0.352-4.574c-0.792-3.512-1.428-7.069-1.352-10.677c0.048-2.301,0.361-4.583,0.654-6.863
					c0.224-1.748,0.448-3.496,0.673-5.244c0.063-5.151,0.124-10.303,0.274-15.451c0.188-6.455,0.699-12.99,2.899-19.113
					c0.557-1.551,1.15-3.374,2.229-4.651c0.936-1.108,2.581-1.607,3.787-0.616c0.003,0.002,0.005,0.005,0.008,0.007
					c9.682,3.316,20.417,3.459,30.181,0.382c2.74-0.864,5.82-1.845,7.899-3.924c0.206-0.206,0.459-0.254,0.687-0.202
					c0.232-0.409,0.862-0.604,1.212-0.103c1.166,1.669,1.398,3.734,2.097,5.605c0.751,2.013,1.769,3.933,2.901,5.756
					c2.165,3.486,4.861,6.608,7.985,9.267c0.22,0.187,0.281,0.424,0.24,0.642c0.072,0.125,0.105,0.28,0.075,0.461
					c-0.08,0.496-0.161,0.993-0.241,1.489c0.33,2.165,0.689,4.348,1.563,6.371c0.429,0.992,0.858,1.688,0.671,2.801
					c-0.188,1.122-0.431,2.238-0.642,3.356c-0.805,4.278-1.502,8.602-1.404,12.964c0.259-0.091,0.555-0.033,0.743,0.278
					c0.069,0.113,0.141,0.222,0.215,0.331c0.256-0.032,0.529,0.048,0.665,0.283c0.187,0.323,0.374,0.645,0.562,0.968
					c0.041,0.07,0.07,0.146,0.09,0.225c0.372,0.313,0.779,0.586,1.222,0.812c0.445,0.226,0.926,0.385,1.277,0.757
					c0.435,0.461,0.524,1.1,0.667,1.695c0.704,2.932,1.331,5.883,1.874,8.85c1.095,5.992,1.853,12.045,2.267,18.122
					c0.224,3.298,0.344,6.602,0.369,9.907c0.081,0.1,0.132,0.233,0.136,0.403c0.266,11.378-0.951,22.766-3.638,33.825
					c-0.01,0.042-0.024,0.081-0.039,0.117c0.477,5.407,3.512,10.582,5.724,15.391c1.488,3.235,2.915,6.497,4.281,9.786
					c1.154,2.779,2.389,5.667,2.532,8.714c0.066,1.404-0.124,2.818-0.668,4.12c-0.569,1.362-1.545,2.486-2.463,3.622
					c-0.466,0.577-0.994,1.176-1.293,1.862c-0.395,0.904,0.18,1.616,0.58,2.404c0.651,1.282,0.968,2.74,0.966,4.175
					c-0.003,2.939-1.19,5.727-3.175,7.877c-0.96,1.039-2.074,1.938-3.28,2.675c-0.568,0.347-1.157,0.662-1.759,0.947
					c-0.731,0.345-1.539,0.582-2.214,1.034c-0.703,0.471-1.103,1.224-1.644,1.853c-0.426,0.496-0.919,0.946-1.451,1.325
					c-1.129,0.805-2.444,1.312-3.805,1.552c-2.551,0.451-5.282-0.163-7.299-1.802c-1.553,0.41-3.147,0.325-4.731,0.055
					c-1.7-0.29-3.419-0.651-5.071-1.149c-2.427-0.73-4.722-1.931-6.212-3.955c-0.224-0.029-0.429-0.166-0.528-0.446
					c-0.978-2.775-1.624-5.668-1.886-8.6c-0.012-0.135-0.022-0.272-0.031-0.408c-0.4,0.387-0.852,0.715-1.324,1.008
					c-0.425,0.264-1.184,0.491-1.503,0.865c-0.366,0.428,0.041,1.359,0.114,1.878c0.096,0.684,0.14,1.375,0.132,2.066
					c-0.014,1.263-0.166,2.535-0.519,3.75c-0.336,1.152-0.953,1.955-2.057,2.442c-1.302,0.575-2.751,0.926-4.123,1.29
					c-2.588,0.687-5.222,1.184-7.88,1.497c-0.177,0.25-0.491,0.388-0.845,0.204c-1.313-0.68-2.468-1.595-3.413-2.735
					c-0.471-0.568-0.865-1.187-1.206-1.841c-0.354-0.678-0.647-1.373-1.341-1.769c-0.616-0.351-1.341-0.481-2.013-0.68
					c-0.638-0.189-1.272-0.396-1.887-0.65c-1.181-0.488-2.318-1.164-3.147-2.154c-0.398-0.475-0.714-1.041-0.897-1.633
					c-0.246-0.793-0.242-1.638-0.492-2.427c-0.454-1.433-1.663-2.473-2.687-3.507c-2.211-2.234-3.546-4.929-4.016-8.042
					C579.009,372.29,579.834,368.364,580.929,364.646z"/>
				<path style="fill:#FFBC44;" d="M606.775,222.689c0.019-0.461,0.167-0.914,0.474-1.286c0.746-0.908,2.055-1.025,2.815-0.324
					c0.155,0.076,0.306,0.171,0.448,0.289c1.026,0.852,1.296,2.446,0.429,3.504c-0.901,1.1-2.631,1.331-3.647,0.263
					C606.659,224.468,606.473,223.489,606.775,222.689z"/>
				<path style="fill:#0D0E1B;" d="M602.704,251.803c2.447,0.805,4.999,1.21,7.552,1.231c-0.053-0.55-0.084-1.105-0.133-1.653
					l-0.37-4.129c-0.247-2.753-0.494-5.505-0.741-8.258c-0.123-1.376-0.247-2.753-0.37-4.129c-0.105-1.168-0.394-2.489-0.141-3.654
					c0.264-1.214,1.189-1.765,2.332-2.015c1.247-0.273,2.502-0.513,3.755-0.761c-0.424-3.649-0.638-7.316-0.635-10.99
					c0.001-0.914,1.427-1.051,1.427-0.128c-0.004,3.887,0.233,7.766,0.708,11.624c0.051,0.414-0.279,0.703-0.649,0.778
					c-1.151,0.232-2.303,0.465-3.454,0.697c-0.512,0.103-1.305,0.142-1.73,0.485c-0.364,0.293-0.402,0.776-0.402,1.211
					c0.001,1.155,0.191,2.331,0.294,3.481c0.111,1.234,0.221,2.468,0.332,3.702c0.221,2.468,0.443,4.936,0.664,7.404
					c0.111,1.234,0.221,2.468,0.332,3.702c0.051,0.569,0.102,1.139,0.153,1.708c0.026,0.285,0.051,0.57,0.077,0.854
					c0.001,0.014,0.003,0.028,0.004,0.043c3.31-0.162,6.589-0.968,9.609-2.387c0.836-0.393,1.332,0.952,0.503,1.342
					c-2.982,1.402-6.189,2.21-9.437,2.431c-0.167,0.685-1.028,0.932-1.588,0.396c-0.104-0.099-0.182-0.212-0.245-0.334
					c-2.856,0-5.715-0.45-8.455-1.352C601.221,252.812,601.837,251.517,602.704,251.803z"/>
				<path style="fill:#0D0E1B;" d="M628.451,357.474c5.294,2.796,10.596,5.577,15.882,8.388c0.877,0.466,1.954,1.112,2.078,2.206
					c0.12,1.068-0.748,1.767-1.692,2.011c-2.573,0.664-5.352,0.138-7.876-0.483c-0.727-0.179-1.45-0.372-2.175-0.56
					c-0.382-0.099-0.764-0.197-1.148-0.29c-0.23-0.056-0.892-0.325-1.121-0.223c-0.458,0.204-0.514,1.701-0.602,2.145
					c-0.157,0.79-0.313,1.58-0.47,2.37c-0.179,0.902-1.59,0.652-1.41-0.255c0.261-1.316,0.499-2.639,0.784-3.95
					c0.217-1.003,0.758-1.803,1.891-1.728c1.202,0.079,2.447,0.556,3.61,0.856c1.27,0.328,2.547,0.641,3.847,0.824
					c1.257,0.178,2.527,0.219,3.784,0.02c0.325-0.052,1.176-0.141,1.143-0.604c-0.034-0.472-0.908-0.857-1.252-1.04
					c-2.475-1.316-4.958-2.619-7.437-3.928c-2.815-1.487-5.63-2.974-8.445-4.46C627.029,358.342,627.632,357.042,628.451,357.474z"
					/>
				<path style="fill:#0D0E1B;" d="M624.252,388.134c0.699-0.391,1.116-1.121,1.577-1.752c0.526-0.721,1.053-1.442,1.579-2.163
					c1.081-1.48,2.161-2.96,3.242-4.439c0.545-0.746,1.641,0.176,1.099,0.918c-1.136,1.556-2.272,3.111-3.408,4.667
					c-0.554,0.759-1.108,1.518-1.663,2.277c-0.459,0.629-0.903,1.272-1.596,1.66C624.285,389.747,623.448,388.584,624.252,388.134z"
					/>
				<path style="fill:#0D0E1B;" d="M617.464,374.435c0.611-3.835,2.322-7.591,2.082-11.532c-0.143-2.348-1.241-4.452-1.845-6.693
					c-0.599-2.223-0.885-4.513-0.942-6.813c-0.119-4.809,0.654-9.577,1.187-14.341c0.555-4.962,0.591-9.906,0.255-14.885
					c-0.339-5.026-0.919-10.036-1.431-15.046c-0.523-5.107-1.045-10.214-1.568-15.321c-1.035-10.119-2.071-20.239-3.106-30.358
					c-0.131-1.277-0.261-2.554-0.392-3.83c-0.094-0.917,1.333-1.046,1.427-0.128c1.026,10.025,2.052,20.05,3.077,30.075
					c1.018,9.953,2.111,19.901,3.042,29.862c0.458,4.905,0.77,9.829,0.537,14.756c-0.226,4.771-1.07,9.482-1.445,14.24
					c-0.186,2.355-0.246,4.725-0.029,7.08c0.215,2.332,0.769,4.541,1.556,6.742c0.72,2.016,1.211,3.966,1.101,6.119
					c-0.099,1.945-0.562,3.843-1.044,5.723c-0.956,3.728-2.05,7.579-0.228,11.224c0.475,0.949,1.028,1.867,1.306,2.9
					c0.285,1.062,0.255,2.154,0.1,3.234c-0.271,1.885-0.958,3.83-0.249,5.703c0.278,0.736,0.749,1.294,1.489,1.582
					c0.859,0.334,0.248,1.63-0.609,1.297c-1.586-0.617-2.362-2.22-2.572-3.825c-0.269-2.056,0.569-4.006,0.631-6.041
					c0.071-2.302-1.559-4.021-2.155-6.147C617.128,378.188,617.169,376.29,617.464,374.435z"/>
				<path style="fill:#0D0E1B;" d="M645.313,376.929c5.188-1.202,10.201-3.045,14.932-5.49c0.818-0.423,1.312,0.923,0.503,1.342
					c-4.73,2.445-9.744,4.288-14.932,5.49C644.929,378.475,644.417,377.136,645.313,376.929z"/>
				<path style="fill:#0D0E1B;" d="M648.014,385.351c4.941-2.15,9.311-5.445,12.753-9.59c0.59-0.71,1.689,0.208,1.1,0.918
					c-3.601,4.336-8.183,7.764-13.35,10.013C647.669,387.061,647.171,385.718,648.014,385.351z"/>
				<path style="fill:#0D0E1B;" d="M603.124,368.146c-2.712-2.978-5.487-5.898-8.315-8.766c-0.642-0.651,0.27-1.757,0.918-1.1
					c3.495,3.543,6.906,7.169,10.227,10.876c0.649,0.725,1.709,1.604,1.486,2.705c-0.169,0.837-0.987,1.234-1.76,1.339
					c-2.198,0.299-4.679-0.332-6.729-1.074c-0.866-0.314-0.253-1.609,0.609-1.297c1.786,0.646,3.811,1.085,5.721,0.971
					c0.149-0.009,0.686-0.023,0.751-0.215c0.099-0.291-0.717-1.007-0.878-1.188C604.481,369.644,603.805,368.893,603.124,368.146z"
					/>
				<path style="fill:#0D0E1B;" d="M582.928,373.916c9.235,4.59,18.995,8.059,29.058,10.316c0.525,0.118,0.771,0.733,0.422,1.164
					c-1.715,2.117-4.54,2.341-7.074,2.407c-3.394,0.088-6.649,0.508-9.867,1.643c-0.87,0.307-1.373-1.035-0.503-1.341
					c3.029-1.068,6.186-1.633,9.396-1.709c1.947-0.046,4.327,0.048,6.012-1.07c-9.7-2.285-19.127-5.678-28.052-10.113
					C581.494,374.803,582.099,373.504,582.928,373.916z"/>
			</g>
			<path style="fill:#0D0E1B;" d="M594.374,393.31c2.43,0.254,4.865,0.141,7.266-0.304c0.906-0.168,1.029,1.26,0.128,1.427
				c-2.529,0.469-5.092,0.554-7.65,0.287C593.203,394.624,593.46,393.214,594.374,393.31z"/>
			<g>
				<path style="fill:#003E6B;" d="M634.09,316.52c-0.125-2.151,0.119-4.382,0.191-6.535c0.03-0.883,0.042-1.782,0.125-2.67
					c-0.417,0.039-0.909-0.273-0.858-0.824c0.196-2.1,1.631-3.488,3.301-4.539c0.207-2.803,0.369-5.608,0.485-8.415
					c-0.096-4.416-0.192-8.832-0.282-13.248c-0.125-6.171-0.09-12.669,2.899-18.252c1.26-2.354,3.001-4.488,5.233-5.98
					c0.526-0.351,0.889-0.566,1.478-0.209c0.51,0.309,0.813,0.877,0.883,1.462c0.173,1.44-0.952,2.348-1.916,3.207
					c-4.742,4.229-5.547,11.017-5.591,16.999c-0.057,7.833,0.047,15.652-0.217,23.484c3.049-0.521,6.342,0.417,9.329,0.783
					c4.468,0.549,8.976,0.725,13.474,0.53c2.435-0.106,4.871-0.31,7.286-0.641c1.863-0.256,3.737-0.646,5.335-1.631
					c0.049-0.094,0.119-0.174,0.215-0.226c0.167-0.09,0.334-0.181,0.501-0.271c0.043-0.034,0.088-0.066,0.131-0.101
					c0.113-0.093,0.229-0.141,0.342-0.155c0.477-0.259,0.955-0.517,1.432-0.776c-0.75-5.427-1.699-10.825-2.853-16.182
					c-1.448-6.721-2.927-13.819-6.518-19.778c-1.509-2.505-5.24-5.89-3.439-9.088c0.188-0.335,0.583-0.522,0.953-0.344
					c5.639,2.711,8.422,8.763,10.316,14.391c2.481,7.374,3.947,15.05,5.03,22.74c0.616,4.375,1.109,8.766,1.6,13.156
					c0.008,0.068,0.006,0.131-0.002,0.19c0.438,2.919,0.876,5.837,1.314,8.756c0.423,2.819,0.977,5.652,1.213,8.495
					c0.189,2.268,0.031,4.701-1.38,6.587c-1.482,1.981-3.995,2.666-6.314,3.074c-6.023,1.06-12.171,1.591-18.28,1.775
					c-6.049,0.182-12.193,0.066-18.207-0.65c-2.505-0.299-5.109-1.241-5.773-3.96c-0.696-2.846,0.911-5.447,1.032-8.224
					C635.122,319.493,634.171,317.918,634.09,316.52z"/>
				<path style="fill:#0D0E1B;" d="M665.29,256.961c2.325,1.729,3.776,4.276,4.982,6.854c1.378,2.945,2.506,6.005,3.435,9.12
					c1.862,6.241,2.937,12.688,3.716,19.144c0.446,3.695,0.795,7.401,1.14,11.107c0.086,0.918-1.341,1.048-1.427,0.129
					c-1.172-12.578-2.378-25.45-7.397-37.186c-1.27-2.97-2.708-6.09-5.368-8.068C663.63,257.509,664.552,256.412,665.29,256.961z"/>
				<path style="fill:#0D0E1B;" d="M639.527,282.17c0.18-3.056,0.44-6.107,0.781-9.15c0.318-2.843,0.533-5.819,1.413-8.556
					c0.85-2.642,2.672-5.182,5.498-5.877c0.886-0.218,1.397,1.122,0.503,1.342c-2.45,0.602-3.953,2.757-4.674,5.057
					c-0.83,2.649-1.023,5.544-1.33,8.29c-0.649,5.791-1.006,11.613-1.064,17.44c-0.033,3.293,0.03,6.587,0.182,9.877
					c0.042,0.918-1.384,1.051-1.427,0.128C639.123,294.54,639.164,288.347,639.527,282.17z"/>
				<path style="fill:#0D0E1B;" d="M633.566,306.771c-0.014-0.916,1.413-1.052,1.427-0.128c0.055,3.701,0.331,7.393,0.821,11.061
					c7.144,0.542,14.31,0.746,21.474,0.605c3.604-0.071,7.206-0.229,10.803-0.473c1.822-0.123,3.642-0.269,5.46-0.437
					c0.664-0.061,1.608,0.009,2.224-0.293c0.64-0.315,0.63-1.336,0.744-1.945c0.656-3.519,2.046-6.846,4.006-9.833
					c0.505-0.77,1.6,0.155,1.099,0.918c-1.844,2.81-3.117,5.985-3.718,9.291c-0.261,1.433-0.585,2.75-2.209,3.069
					c-1.744,0.343-3.606,0.367-5.376,0.503c-7.468,0.576-14.965,0.78-22.453,0.612c-4.276-0.096-8.55-0.314-12.814-0.647
					c-0.321-0.025-0.545-0.351-0.586-0.641C633.925,314.569,633.624,310.675,633.566,306.771z"/>
			</g>
			<path style="fill:#0D0E1B;" d="M609.341,207.829l0.263,2.921c0.083,0.918-1.344,1.048-1.427,0.128l-0.263-2.921
				C607.832,207.04,609.258,206.91,609.341,207.829z"/>
			<g>
				<path style="fill:#EDBA98;" d="M590.771,110.021c0.003-0.017,0.008-0.033,0.012-0.049c0.033-0.65,0.233-1.276,0.44-1.912
					c0.358-1.099,0.535-2.194,0.534-3.351c-0.002-1.97-0.285-3.926-0.236-5.898c0.09-3.599,1.047-7.216,4.101-9.425
					c1.645-1.189,3.648-1.991,5.592-2.534c2.139-0.597,4.301-0.731,6.49-0.337c3.526,0.635,6.875,2.205,9.706,4.387
					c3.074,2.369,5.522,5.496,7.077,9.05c1.557-0.085,3.041,0.859,3.827,2.194c1.046,1.778,0.829,3.979,0.209,5.861
					c-0.571,1.734-1.627,3.218-3.377,3.888c-1.077,0.412-2.28,0.483-3.39,0.194c-1.631,3.251-3.918,6.295-6.786,8.559
					c0.292,2.519,0.633,5.041,0.849,7.567c0.11,1.283-0.362,2.211-1.032,3.268c-0.582,0.918-1.195,1.825-1.977,2.586
					c-1.654,1.609-4.173,2.471-6.474,2.341c-2.148-0.121-3.675-1.608-4.219-3.636c-0.715-2.664,0.324-5.436-0.42-8.075
					c-0.035-0.123-0.038-0.239-0.018-0.345c-3.516-0.552-6.768-2.315-8.912-5.41C590.974,116.358,590.146,113.129,590.771,110.021z"
					/>
				<path style="fill:#0D0E1B;" d="M581.113,132.024c0.051-6.137,2.148-9.643,2.148-9.643s-2.486-7.517-0.833-11.486
					s2.733-5.373,2.733-5.373s-0.251-11.724,5.32-17.963c5.571-6.239,12.54-9.983,27.28-5.178c0.725,0.236,8.114-1.434,11.678,7.996
					c3.563,9.431,4.229,25.757,4.229,25.757s5.537,2.316,4.914,8.806c-0.622,6.49-5.792,8.387-5.792,8.387
					s-11.208-3.107-16.973-3.408l-0.846-9.273c0,0,5.356-5.607,6.786-8.559c0,0,4.112,1.045,6.181-2.718
					c2.049-3.727,0.906-8.981-4.19-9.015c-0.753,0.456-1.383,1.085-1.836,1.86c-0.244,0.418-0.453,0.847-0.988,0.922
					c-0.562,0.079-1.103-0.412-1.522-0.711c-0.501-0.358-1.08-0.739-1.451-1.219c-0.238,0.037-0.487-0.041-0.649-0.291
					c-1.25-1.935-1.946-4.117-2.063-6.378c-1.326-0.47-6.46-2.531-6.085-6.156c0,0-9.723,5.902-14.88,5.562
					c0,0-1.351,3.546-2.722,4.169l0.085,8.225c0,0-5.012,13.642,10.06,18.36c0,0,0.725,3.888,0.277,6.749
					c0,0-11.505,3.614-16.93,7.189C585.042,138.636,581.062,138.161,581.113,132.024z"/>
				<path style="fill:#0D0E1B;" d="M609.464,101.782c0.416-0.306,1.009-0.29,1.433-0.019c0.421,0.268,0.648,0.802,0.522,1.293
					c-0.031,0.121-0.08,0.237-0.143,0.343c-0.07,0.166-0.181,0.319-0.339,0.442c-0.764,0.596-1.956,0.104-2.021-0.88
					C608.885,102.503,609.094,102.054,609.464,101.782z"/>
				<path style="fill:#0D0E1B;" d="M593.312,103.785c0.101,0.93,1.257,1.33,1.963,0.757c0.737-0.597,0.501-1.802-0.342-2.174
					c-0.309-0.136-0.642-0.046-0.849,0.195c-0.079,0.029-0.156,0.066-0.23,0.115C593.504,102.911,593.266,103.36,593.312,103.785z"
					/>
				<path style="fill:#0D0E1B;" d="M599.854,103.051c0.346-0.855,1.643-0.245,1.297,0.609c-0.483,1.193-1.16,2.935,0.145,3.857
					c0.754,0.533-0.169,1.629-0.918,1.1C598.486,107.28,599.129,104.842,599.854,103.051z"/>
				<path style="fill:#0D0E1B;" d="M598.882,110.082c2.022,1.295,4.644,0.835,6.187-0.962c0.601-0.7,1.701,0.217,1.1,0.918
					c-2.096,2.442-5.521,2.862-8.204,1.144C597.188,110.685,598.114,109.59,598.882,110.082z"/>
				<path style="fill:#0D0E1B;" d="M623.322,106.048c-0.461,0.789-1.763,0.189-1.297-0.609c1.037-1.775,2.921-2.745,4.969-2.555
					c0.917,0.085,0.658,1.495-0.255,1.41c-0.073-0.007-0.146-0.01-0.219-0.012c0,0.005,0.001,0.01,0.002,0.015
					c0.135,2.262-0.302,5.163-2.884,5.843c-0.884,0.233-1.394-1.107-0.503-1.341c1.884-0.496,2.052-2.624,1.967-4.261
					C624.367,104.828,623.727,105.354,623.322,106.048z"/>
			</g>
			<g>
				<path style="fill:#6ABB79;" d="M565.177,219.602c1.657-9.683,3.326-19.364,4.99-29.046c-0.138-9.462-1.002-18.963,0.672-28.329
					c0.872-4.881,2.414-9.718,4.998-13.975c2.6-4.283,6.207-7.781,10.449-10.43c4.817-3.007,10.212-4.956,15.687-6.375
					c0.533-0.138,0.93,0.293,0.966,0.709c0.309-0.064,0.654,0.049,0.803,0.427c0.405,1.022,0.842,2.175,1.729,2.882
					c1.098,0.876,2.58,0.567,3.789,0.114c2.306-0.865,4.265-2.544,5.493-4.676c0.109-0.189,0.266-0.298,0.435-0.345
					c0.001-0.329,0.201-0.636,0.628-0.638c8.107-0.045,16.149,2.275,23.044,6.532c7.192,4.44,12.771,10.764,16.477,18.345
					c4.147,8.482,6.018,17.823,8.327,26.912c2.465,9.705,6.41,19.432,6.333,29.583c-0.057,7.576-2.719,15.765-8.922,20.521
					c-0.501,0.385-1.025,0.736-1.564,1.063c0.038,0.059,0.069,0.13,0.09,0.212c0.496,1.933,0.929,4.277-0.658,5.842
					c-0.81,0.799-1.922,1.178-2.98,1.52c-1.262,0.409-2.549,0.74-3.849,1.005c-0.619,0.126-1.241,0.235-1.866,0.326
					c-0.576,0.084-1.209,0.225-1.786,0.083c-1.144-0.281-1.457-1.695-1.787-2.652c-0.691-2.005-1.169-4.079-1.445-6.18
					c-0.104-0.023-0.21-0.075-0.31-0.163c-4.333-3.8-7.654-8.713-9.538-14.163c-0.917-2.652-1.412-5.363-1.67-8.103
					c-0.267-0.059-0.5-0.256-0.538-0.607c-0.892-8.196-0.7-16.492,0.559-24.639c-3.829,0.796-7.764,0.404-11.659-0.135
					c-8.949,0.564-17.854-1.3-26.81-1.049c-2.083,0.058-4.167,0.236-6.222,0.59l1.576,9.559c0.023,0.14,0.009,0.261-0.033,0.363
					c0.388,1.615-0.026,3.363-0.131,5.006c-0.15,2.34,0.64,4.61,0.722,6.937c0.075,2.125-0.521,4.146-1.346,6.084
					c-0.861,2.023-1.888,3.965-2.658,6.028c-0.769,2.061-1.357,4.185-1.805,6.338c-0.9,4.32-1.24,8.738-1.292,13.144
					c-0.013,1.101-0.009,2.201,0.009,3.302c0.016,1.02,0.144,2.087,0.025,3.102c-0.258,2.193-2.961,2.287-4.686,2.358
					c-1.84,0.076-3.848-0.406-4.949-2.013c-0.559-0.817-0.652-1.713-0.623-2.678c0.03-0.989-0.054-1.771-0.883-2.389
					c-0.662-0.493-1.47-0.774-2.214-1.117c-0.807-0.372-1.57-0.835-2.246-1.414c-1.39-1.191-2.414-2.771-3.09-4.463
					C563.721,228.658,564.428,223.978,565.177,219.602z"/>
				<path style="fill:#FFBC44;" d="M635.342,212.919c0.125-2.343,0.818-4.602,0.454-6.959c-0.35-2.268-1.278-4.409-1.5-6.702
					c-0.376-3.883,0.971-7.852,3.589-10.732c0.362-0.398,0.887-0.251,1.139,0.076c0.148,0.101,0.25,0.271,0.251,0.516
					c0.006,1.181-0.442,2.182-0.844,3.267c-0.359,0.97-0.518,1.986-0.451,3.02c0.141,2.163,1.139,4.199,2.549,5.819
					c1.427,1.641,3.5,2.589,4.799,4.352c0.217,0.294,0.4,0.603,0.561,0.921c0.315-4.806-1.818-9.262-3.258-13.749
					c-0.734-2.288-1.318-4.658-1.35-7.072c-0.034-2.539,0.458-5.037,1.098-7.483c1.444-5.521,3.821-11.553,1.527-17.185
					c-0.31-0.76,0.783-1.319,1.254-0.667c2.936,4.057,4.31,9.116,3.864,14.101c-0.237,2.651-1.383,5.179-1.455,7.839
					c-0.022,0.83,0.054,3.144,1.31,3.089c1.126-0.05,1.886-1.477,2.289-2.351c1.179-2.562,1.14-5.503,1.096-8.263
					c-0.001-0.067,0.007-0.13,0.02-0.189c-0.432-0.707,0.675-1.451,1.221-0.752c2.656,3.395,2.13,7.99,1.158,11.901
					c-0.559,2.247-1.242,4.482-1.454,6.798c-0.216,2.368,0.297,4.64,1.195,6.821c0.887,2.152,2.058,4.169,3.09,6.252
					c0.972,1.962,1.789,4.001,2.387,6.108c0.3,1.056,0.549,2.133,0.734,3.223c0.89-2.043,2.002-4.054,2.226-6.271
					c0.284-2.8-0.863-5.534-1.92-8.06c-1.059-2.531-1.835-4.992-1.482-7.765c0.301-2.367,1.217-4.602,2.237-6.756
					c0.19-0.514,0.429-1.015,0.726-1.498c0.469-0.765,1.714-0.24,1.297,0.609c-0.217,0.441-0.434,0.884-0.647,1.329
					c-1.029,2.757-0.399,5.869,0.741,8.559c1.473,3.473,3.892,6.45,5.437,9.891c1.598,3.559,1.867,7.406,1.102,11.211
					c-0.728,3.618-2.158,7.304-4.184,10.398c-2,3.054-4.914,4.995-8.549,5.491c-1.004,0.137-2.02,0.17-3.035,0.14
					c-0.885,0.373-1.864,0.558-2.938,0.485c-0.42-0.028-0.593-0.339-0.569-0.662c-0.162-0.053-0.317-0.115-0.468-0.182
					c-1.351-0.178-2.703-0.403-4.022-0.709c-1.784-0.414-3.382-1.159-4.656-2.501c-1.293-1.362-2.282-3.026-3.227-4.639
					C636.718,220.627,635.13,216.889,635.342,212.919z"/>
				<path style="fill:#FFBC44;" d="M564.821,222.576c0.19-1.681,0.56-3.338,1.173-4.989c1.217-3.277,3.068-6.548,2.747-10.158
					c-0.082-0.918,1.337-1.047,1.427-0.129c0.297,3.066,0.595,6.133,0.893,9.199c0.138,1.423,0.151,2.95,0.586,4.321
					c0.306,0.965,0.991,2.038,2.036,2.275c-1.065-3.883-2.05-7.979-1.178-11.985c0.46-2.111,1.503-4.01,2.201-6.041
					c0.706-2.054,0.905-4.247,0.828-6.407c-0.089-2.497-0.511-4.966-0.941-7.422c-0.146-0.836,1.07-1.012,1.384-0.316
					c1.484,3.287,2.965,6.641,3.528,10.231c0.272,1.732,0.29,3.492,0.028,5.226c-0.248,1.641-0.697,3.242-0.974,4.877
					c0.738-1.433,1.683-2.803,2.438-4.085c2.066-3.508,2.644-7.719,1.486-11.636c-0.259-0.875,1.023-1.378,1.341-0.503
					c1.544,4.251,3.207,9.074,1.896,13.607c-0.66,2.284-2.117,4.067-3.331,6.064c-0.877,1.443-1.654,3.304-1.307,4.99
					c0.004,0.003,0.008,0.007,0.011,0.01c1.056,0.906,2.504,1.346,3.398,2.438c1.089,1.33,0.599,3.194,0.431,4.749
					c-0.456,4.212-0.912,8.424-1.368,12.636c-0.065,0.603-0.698,0.697-1.095,0.431c-1.966,1.257-4.4,2.397-6.773,2.348
					c-2.085-0.043-3.768-1.259-5.297-2.556c-3.27-1.897-4.981-5.998-5.669-9.55C564.233,227.682,564.276,225.076,564.821,222.576z"
					/>
				<path style="fill:#0D0E1B;" d="M581.206,187.195c0.028-0.031,0.059-0.058,0.092-0.084c-0.061-0.093-0.101-0.21-0.106-0.354
					c-0.276-8.469,0.627-16.952,2.702-25.168c0.224-0.888,1.636-0.642,1.41,0.255c-2.004,7.935-2.918,16.112-2.697,24.293
					c0.071-0.176,0.155-0.352,0.253-0.525c0.829-1.459,2.338-2.129,3.962-2.26c2.031-0.164,4.141,0.109,6.173,0.206
					c8.677,0.416,17.354,0.831,26.031,1.247c4.615,0.221,9.23,0.442,13.845,0.663c0.225-2.084,0.441-4.164,0.609-6.236
					c0.492-6.071,0.559-12.214-0.715-18.2c-0.191-0.9,1.237-1.02,1.427-0.128c2.201,10.344,0.395,20.904-0.581,31.277
					c-0.898,9.557-1.031,19.588,3.421,28.359c2.099,4.135,5.216,7.81,9.254,10.15c0.791,0.459,0.191,1.76-0.609,1.297
					c-7.379-4.277-11.608-12.287-13.172-20.458c-1.561-8.16-0.679-16.432,0.213-24.646c-7.51-0.36-15.019-0.719-22.529-1.079
					c-3.814-0.183-7.628-0.365-11.442-0.548c-1.907-0.091-3.814-0.183-5.721-0.274c-1.85-0.089-3.729-0.28-5.582-0.228
					c-1.775,0.05-3.578,0.804-3.718,2.812c-0.116,1.652,1.34,3.008,2.96,2.952c0.918-0.032,1.052,1.395,0.128,1.427
					c-1.964,0.067-3.581-1.144-4.217-2.757c-0.102-0.024-0.201-0.068-0.289-0.142c-0.337-0.281-0.674-0.562-1.01-0.843
					C581.009,187.963,580.946,187.481,581.206,187.195z"/>
				<path style="fill:#0D0E1B;" d="M644.581,217.706c0.081-0.917,1.49-0.658,1.41,0.255c-0.435,4.924,1.626,9.904,5.369,13.119
					c0.7,0.601-0.217,1.702-0.918,1.1C646.288,228.612,644.1,223.153,644.581,217.706z"/>
				<path style="fill:#0D0E1B;" d="M655.774,231.874c3.335-3.607,4.923-8.562,4.299-13.436c-0.117-0.915,1.31-1.042,1.427-0.128
					c0.669,5.221-1.052,10.616-4.626,14.482C656.249,233.468,655.147,232.553,655.774,231.874z"/>
				<path style="fill:#0D0E1B;" d="M570.826,230.031c1.973,4.747,6.39,8.256,11.45,9.135c0.907,0.158,0.655,1.568-0.255,1.41
					c-5.557-0.964-10.374-4.837-12.536-10.041C569.13,229.681,570.473,229.181,570.826,230.031z"/>
			</g>
		</g>
		<g>
			<path style="fill:#EDBA98;" d="M333.892,261.839l3.557,24.806c0,0,9.142-6.747,9.452-17.82L333.892,261.839z"/>
			<path style="fill:#EDBA98;" d="M260.073,250.849l5.011,5.351l-13.6,14.108c0,0-3.277-2.47-0.809-11.231L260.073,250.849z"/>
			<g>
				<path style="fill:#E6E1C8;" d="M291.414,416.042c-0.254-0.548-0.472-1.194-0.879-1.653c-0.446-0.504-1.059-0.634-1.705-0.648
					c-1.561-0.034-3.117-0.037-4.677-0.133c-3.57-0.218-7.123-0.704-10.618-1.464c-1.565-0.34-3.125-0.909-4.706-1.139
					c-1.046-0.152-2.283,0.059-2.659,1.169c-0.409-0.09-0.857,0.114-0.805,0.639c0.486,4.923,1.103,10.368,4.706,14.106
					c1.745,1.81,4.026,3.005,6.399,3.771c2.375,0.767,4.943,1.238,7.441,1.307c2.315,0.064,4.758-0.297,6.662-1.706
					c1.985-1.468,2.929-3.875,2.996-6.292C293.645,421.196,292.571,418.542,291.414,416.042z"/>
				<path style="fill:#0D0E1B;" d="M290.841,425.849c-7.247,0.951-15.872,1.101-21.614-4.177c-0.676-0.621-1.725,0.355-1.045,0.98
					c6.172,5.674,15.18,5.616,22.995,4.59C292.09,427.122,291.749,425.73,290.841,425.849z"/>
			</g>
			<g>
				<path style="fill:#E6E1C8;" d="M335.162,421.687c-0.819-0.517-1.683-0.956-2.563-1.361c-0.481-0.221-0.965-0.432-1.454-0.635
					c-0.465-0.193-1.124-0.349-1.376-0.83c-0.217-0.415-0.197-1.014-0.248-1.464c-0.075-0.659-0.15-1.318-0.225-1.978
					c-0.15-1.318-0.3-2.637-0.45-3.955c-0.036-0.318-0.387-0.525-0.673-0.548c-2.422-0.193-4.844-0.386-7.266-0.578
					c-2.386-0.19-4.793-0.319-7.155-0.724c-1.115-0.191-2.192-0.493-3.285-0.774c-0.984-0.253-2.031-0.446-3.041-0.224
					c-1.239,0.273-2.387,1.338-2.554,2.589c-0.185,0.106-0.329,0.289-0.363,0.551c-0.33,2.561-0.409,5.147-0.206,7.722
					c0.168,2.136,0.448,4.328,1.734,6.111c2.306,3.197,6.22,4.016,9.953,4.348c2.088,1.851,4.649,3.097,7.331,3.902
					c1.721,0.516,3.489,0.859,5.266,1.114c1.771,0.254,3.614,0.515,5.406,0.438c1.681-0.072,3.387-0.541,4.543-1.836
					c0.972-1.09,1.443-2.534,1.485-3.981C340.117,426.146,337.94,423.441,335.162,421.687z"/>
				<path style="fill:#0D0E1B;" d="M337.751,429.076c-4.046,1.401-8.459,1.501-12.566,0.284c-2.092-0.62-4.025-1.577-5.821-2.81
					c-0.908-0.623-1.801-1.267-2.801-1.738c-1.031-0.486-2.124-0.778-3.22-1.078c-1.995-0.546-4.965-1.482-5.178-3.974
					c-0.077-0.907-1.51-0.964-1.432-0.046c0.182,2.135,1.741,3.664,3.619,4.523c1.135,0.519,2.354,0.794,3.55,1.135
					c1.252,0.357,2.385,0.837,3.475,1.553c1.998,1.311,3.902,2.579,6.166,3.402c2.172,0.79,4.487,1.228,6.797,1.304
					c2.626,0.087,5.263-0.303,7.746-1.163C338.949,430.17,338.624,428.774,337.751,429.076z"/>
			</g>
			<g>
				<path style="fill:#003E6B;" d="M356.282,214.439c-1.531-6.043-3.379-12-5.247-17.945c-0.04-0.127-0.105-0.229-0.184-0.307
					c-0.001-0.073-0.015-0.152-0.046-0.235c-3.768-10.377-5.855-21.298-10.039-31.533c-3.728-9.118-9.327-17.812-17.972-22.936
					c-4.533-2.687-9.736-4.282-15.027-4.119c-0.166-0.614-1.174-0.803-1.372-0.048c-0.695,2.642-3.014,4.763-5.761,5.065
					c-2.822,0.31-5.596-1.394-6.788-3.921c-0.178-0.377-0.532-0.443-0.831-0.326c-0.08-0.014-0.166-0.016-0.259-0.001
					c-6.702,1.086-13.516,2.26-19.732,5.111c-3.024,1.387-5.872,3.204-8.281,5.509c-2.487,2.379-4.47,5.238-6.097,8.259
					c-1.914,3.554-3.379,7.328-4.822,11.091c-0.045,0.117-0.058,0.226-0.047,0.324c-0.014,0.022-0.027,0.045-0.04,0.07
					c-3.289,6.5-6.578,13.021-9.217,19.819c-1.299,3.346-2.437,6.757-3.318,10.238c-0.894,3.532-1.405,7.099-1.87,10.707
					c-0.25,1.937-0.556,3.865-1.102,5.744c-0.525,1.803-1.213,3.552-1.803,5.333c-0.915,2.76-1.471,5.621-1.612,8.527
					c-0.268,5.523,0.891,11.083,3.197,16.098c2.616,5.689,6.786,10.659,12.073,14.038c0.208,0.133,0.414,0.143,0.59,0.078
					c0.244,0.266,0.664,0.377,1.008,0.063c2.754-2.516,5.464-5.078,8.135-7.682c7.415,7.279,16.175,13.029,25.363,17.82
					c10.104,5.269,20.72,9.45,31.844,11.988c6.257,1.427,12.623,2.365,19.025,2.81c0.03,0.002,0.06,0.002,0.088,0.001
					c0.449,0.294,1.254-0.065,1.123-0.767c-1.336-7.122-2.458-14.283-3.369-21.471c0.42-0.195,0.815-0.441,1.174-0.735
					c3.243,3.507,7.323,6.165,11.835,7.721c-0.095,0.516,0.434,1.123,1.035,0.794c8.031-4.391,10.664-14.287,11.586-22.732
					C360.71,235.989,358.956,224.994,356.282,214.439z"/>
				<path style="fill:#6ABB79;" d="M310.756,152.286c-0.069-0.474-0.66-0.655-1.038-0.462c-3.124,1.599-6.31,3.383-8.515,6.189
					c-1.317,1.675-1.994,3.571-2.335,5.557c-0.735-3.353-1.47-6.707-2.229-10.054c-0.2-0.879-0.674-1.537-1.651-1.527
					c-0.731,0.007-1.849,0.426-2.132,1.161c-0.161,0.419-0.014,0.884,0.078,1.3c0.154,0.699,0.308,1.398,0.461,2.097
					c0.277,1.258,0.554,2.516,0.83,3.774c0.646,2.936,1.292,5.871,1.938,8.807c0.091,0.412,0.431,0.564,0.755,0.523
					c0.024,0.019,0.048,0.038,0.076,0.053c0.551,0.293,1.137,0.478,1.75,0.534c1.582,1.018,3.543,0.712,5.237-0.079
					c2.008-0.938,3.944-2.255,5.22-4.096C312,162.025,311.419,156.867,310.756,152.286z"/>
				<path style="fill:#FFBC44;" d="M319.88,193.172c-0.962-5.064-3.443-10-7.371-13.404c-2.211-1.916-4.728-3.277-7.651-3.677
					c-0.283-0.039-0.567-0.07-0.851-0.098c-0.001-0.002-0.001-0.004-0.002-0.006c-0.63-1.535-1.116-3.431-2.246-4.688
					c-0.904-1.006-2.309-1.479-3.641-1.367c-2.887,0.241-4.615,3.128-4.092,5.848c0.102,0.528,0.619,0.633,0.997,0.449
					c0.264,0.155,0.638,0.159,0.893-0.055c0.064,0.075,0.138,0.134,0.219,0.174c-5.196,0.882-10.354,3.225-13.811,7.297
					c-3.661,4.312-5.498,10.339-3.8,15.857c1.458,7.319,4.467,14.665,10.874,18.951c1.951,1.305,4.119,2.165,6.376,2.701
					c-0.146,0.11-0.244,0.286-0.24,0.531c0.066,3.483,2.867,6.392,6.278,6.849c3.66,0.49,7.263-1.77,8.858-5.006
					c0.632-1.282,1.001-2.664,1.118-4.075c0.339-0.22,0.672-0.457,0.999-0.713c2.233-1.749,3.957-4.075,5.219-6.621
					c0.094-0.078,0.17-0.187,0.216-0.333c0.035-0.112,0.069-0.225,0.104-0.337c0.423-0.926,0.788-1.875,1.095-2.833
					c0.09-0.279,0.012-0.512-0.143-0.672C320.41,203.104,320.813,198.078,319.88,193.172z M297.044,171.854
					c-0.066-0.01-0.132-0.012-0.199-0.007c0.157-0.105,0.323-0.197,0.5-0.271C297.228,171.643,297.122,171.739,297.044,171.854z
					 M301.97,175.878c0.015-0.068,0.029-0.136,0.041-0.205c0.041-0.084,0.065-0.18,0.064-0.287
					c-0.001-0.076-0.005-0.152-0.009-0.227c0.003-0.069,0.005-0.139,0.004-0.208c0.123,0.313,0.244,0.626,0.366,0.938
					C302.28,175.885,302.125,175.881,301.97,175.878z"/>
				<path style="fill:#0D0E1B;" d="M266.166,189.191c-1.799-5.045-4.159-9.863-7.07-14.36c-0.498-0.769-1.762-0.093-1.259,0.683
					c2.841,4.388,5.181,9.089,6.937,14.014C265.08,190.386,266.476,190.061,266.166,189.191z"/>
				<path style="fill:#0D0E1B;" d="M272.984,163.541c-0.01-0.919-1.441-0.97-1.432-0.046c0.047,4.45,0.069,9.013-1.334,13.26
					c-1.548-3.707-2.836-7.515-3.865-11.4c-0.235-0.889-1.63-0.558-1.393,0.336c1.137,4.294,2.593,8.494,4.348,12.573
					c-0.07,0.077-0.125,0.178-0.155,0.308c-1.942,8.356-3.87,16.715-5.782,25.078c-0.932,4.076-1.888,8.148-2.776,12.234
					c-0.808,3.713-1.517,7.472-1.73,11.272c-0.236,4.211,0.21,8.42,1.751,12.366c0.334,0.856,1.591,0.167,1.259-0.683
					c-2.752-7.048-1.559-14.852-0.02-22.032c1.721-8.028,3.632-16.019,5.475-24.02c1.034-4.49,2.074-8.98,3.117-13.468
					c0.213-0.078,0.405-0.241,0.495-0.449C273.044,174.051,273.039,168.704,272.984,163.541z"/>
				<path style="fill:#0D0E1B;" d="M338.961,202.365c-1.585,1.866-3.589,3.288-5.87,4.129c0.616-4.459,2.698-8.645,5.896-11.829
					c0.653-0.65-0.325-1.697-0.98-1.045c-2.669,2.657-4.603,5.945-5.65,9.522c-0.923-5.503-1.724-11.022-2.079-16.597
					c-0.408-6.394-0.203-12.85,1.123-19.133c0.189-0.896-1.178-1.327-1.368-0.425c-0.889,4.217-1.289,8.472-1.346,12.737
					c-1.153-2.805-2.086-5.694-2.79-8.649c-0.214-0.896-1.607-0.563-1.393,0.336c0.905,3.797,2.184,7.492,3.807,11.041
					c0.092,0.201,0.234,0.314,0.392,0.359c0.141,6.06,0.9,12.124,1.853,18.109c0.324,2.036,0.673,4.071,1.03,6.105
					c-0.017,0.156-0.032,0.311-0.045,0.467c-0.018,0.207,0.075,0.399,0.222,0.536c1.573,8.928,3.239,17.861,3.59,26.931
					c0.246,6.375-0.204,12.78-1.814,18.969c-0.232,0.891,1.136,1.318,1.368,0.425c2.875-11.051,2.09-22.534,0.421-33.709
					c-0.632-4.233-1.393-8.452-2.136-12.673c2.614-0.889,4.954-2.448,6.749-4.562C340.532,202.714,339.558,201.663,338.961,202.365z
					"/>
				<path style="fill:#0D0E1B;" d="M309.382,252.241c-9.445,1.131-19.145-0.328-27.879-4.078c-2.488-1.068-4.885-2.338-7.181-3.772
					c-0.784-0.489-1.545,0.725-0.762,1.213c8.319,5.192,18.002,8.113,27.803,8.416c2.792,0.086,5.583-0.054,8.356-0.386
					C310.63,253.524,310.289,252.132,309.382,252.241z"/>
				<path style="fill:#0D0E1B;" d="M289.549,242.529c-3.932-0.868-7.6-2.554-10.819-4.974c-0.738-0.555-1.494,0.663-0.762,1.213
					c3.305,2.485,7.119,4.238,11.156,5.129C290.019,244.095,290.449,242.727,289.549,242.529z"/>
				<path style="fill:#0D0E1B;" d="M348.063,261.662c2.118-2.395,3.674-5.242,4.504-8.333c0.239-0.889-1.129-1.316-1.368-0.425
					c-0.686,2.555-1.88,4.929-3.522,7.005c-0.808,1.022-1.735,1.956-2.735,2.79c-0.403,0.336-2.052,1.828-2.905,1.836
					c-2.346-1.26-4.662-2.578-6.941-3.958c-0.79-0.478-1.552,0.735-0.762,1.213c2.093,1.267,4.215,2.483,6.364,3.649
					c0.275,0.265,0.573,0.413,0.883,0.473c1.84,0.983,3.7,1.931,5.579,2.839c0.823,0.398,1.591-0.812,0.762-1.213
					c-1.44-0.696-2.867-1.416-4.284-2.155c0.325-0.186,0.632-0.395,0.906-0.588C345.834,263.888,347.018,262.843,348.063,261.662z"
					/>
				<path style="fill:#0D0E1B;" d="M260.634,248.671c-3.373,3.458-6.745,6.916-10.118,10.375c-0.643,0.659,0.335,1.706,0.98,1.045
					c3.373-3.458,6.745-6.916,10.118-10.375C262.256,249.056,261.279,248.009,260.634,248.671z"/>
				<path style="fill:#0D0E1B;" d="M317.351,210.303c-1.68,6.964-8.628,11.629-15.627,11.581
					c-8.023-0.054-15.064-5.277-18.903-12.077c-2.235-3.959-3.509-8.381-4.073-12.878c-0.114-0.912-1.507-0.571-1.393,0.337
					c1.048,8.351,4.716,16.688,11.692,21.727c1.678,1.212,3.516,2.195,5.438,2.911c-0.001,0.067,0.007,0.138,0.028,0.214
					c1.165,4.208,5.336,7.275,9.718,7.016c0.913-0.054,0.967-1.486,0.046-1.432c-3.51,0.207-6.915-1.985-8.155-5.258
					c5.139,1.473,10.718,1.042,15.408-1.982c3.485-2.246,6.207-5.667,7.188-9.735C318.935,209.834,317.568,209.406,317.351,210.303z
					"/>
				<path style="fill:#0D0E1B;" d="M304.745,175.851c-3.426-0.913-7.024-0.824-10.365,0.168c-0.473-1.307-0.24-2.858,0.704-3.907
					c1.036-1.153,2.702-1.518,4.152-1.043c0.878,0.288,1.3-1.081,0.425-1.368c-0.974-0.319-2.024-0.345-3.005-0.103
					c-0.733-3.706-1.465-7.413-2.198-11.119c-0.179-0.904-1.571-0.568-1.393,0.336c0.737,3.729,1.474,7.458,2.211,11.188
					c0.009,0.046,0.022,0.087,0.037,0.126c-0.502,0.283-0.961,0.647-1.345,1.095c-1.249,1.456-1.553,3.478-0.936,5.253
					c-1.782,0.675-3.471,1.615-4.995,2.806c-0.727,0.568,0.258,1.609,0.98,1.045c4.274-3.34,10.067-4.502,15.303-3.107
					C305.21,177.457,305.637,176.089,304.745,175.851z"/>
				<path style="fill:#0D0E1B;" d="M308.055,154.161c-2.76,4.581-5.521,9.161-8.281,13.742c-0.476,0.79,0.737,1.553,1.213,0.762
					c2.76-4.581,5.52-9.161,8.281-13.742C309.744,154.133,308.531,153.371,308.055,154.161z"/>
			</g>
			<g>
				<path style="fill:#EDBA98;" d="M311.444,119.447c-0.196-1.602-0.392-3.204-0.589-4.806c-0.392-3.197-0.781-6.394-1.174-9.591
					c-0.349-2.831-0.747-5.717-2.012-8.31c-0.944-1.935-2.397-3.651-4.268-4.698c0.075-0.393-0.138-0.848-0.654-0.86
					c-1.173-0.029-2.345-0.014-3.516,0.058c-0.934,0.057-2.144,0-3.019,0.377c-0.869,0.374-1.087,1.303-1.39,2.117
					c-0.397,1.066-0.794,2.132-1.191,3.198c-0.076,0.054-0.145,0.128-0.202,0.227c-2.575,4.43-6.753,7.81-11.646,9.351
					c-0.19,0.06-0.323,0.173-0.406,0.31c-1.669-0.751-3.65-0.799-5.287,0.098c-1.876,1.028-2.511,2.992-2.228,5.029
					c0.508,3.647,3.835,6.535,7.452,6.787c1.504,5.58,6.517,9.831,12.261,10.437c0.008,0.001,0.015,0.001,0.022,0.001
					c0.067,2.32,0.134,4.64,0.201,6.96c0.032,1.113-0.052,2.289,0.535,3.284c0.499,0.848,1.29,1.536,2.129,2.036
					c3.354,2.001,7.668,0.994,9.862-2.159c0.328-0.024,0.641-0.243,0.661-0.666c0.158-3.268,0.218-6.539,0.181-9.81
					c1.939-1.05,4.175-2.431,4.596-4.784C312.029,122.551,311.625,120.922,311.444,119.447z"/>
				<path style="fill:#0D0E1B;" d="M294.61,91.751c-0.746-0.463-1.821-0.602-2.666-0.793c-0.917-0.207-1.845-0.373-2.779-0.48
					c-3.716-0.423-7.51,0.364-10.046,3.294c-1.443,1.667-2.476,3.689-3.238,5.749c-0.837,2.262-1.219,4.642-0.922,7.044
					c0.046,0.371,0.526,0.63,0.865,0.528c1.838-0.551,3.761-0.38,5.445,0.492c0.404,1.499,2.28,1.739,3.635,1.163
					c1.629-0.693,3.149-1.853,4.434-3.056c2.603-2.438,4.532-5.629,5.446-9.078c0.228-0.86,0.391-1.739,0.495-2.623
					C295.375,93.155,295.42,92.254,294.61,91.751z"/>
				<path style="fill:#0D0E1B;" d="M275.82,116.014c0,0,3.081,2.411,5.495,2.719c0,0,2.856,8.832,12.283,10.438l0.247,9.29
					c0,0-13.888,1.973-17.355,3.378C276.491,141.838,272.406,130.47,275.82,116.014z"/>
				<path style="fill:#0D0E1B;" d="M286.58,90.664c0,0,2.491-4.965,13.681-4.763c11.19,0.202,19.804,8.02,21.059,17.39
					c1.255,9.371,1.638,24.156-0.027,27.602c0,0,0.213,4.665-1.621,8.964c0,0-6.956-1.464-12.624-2.656l0.118-8.387
					c0,0,3.33-1.454,4.678-5.532c0,0-1.028-25.218-9.895-32.114l-6.646,1.693L286.58,90.664z"/>
				<path style="fill:#0D0E1B;" d="M293.767,108.355c-0.446-0.093-0.901,0.018-1.202,0.371c-0.27,0.098-0.495,0.338-0.482,0.644
					c0.021,0.492,0.255,0.972,0.707,1.208c0.463,0.241,1.014,0.21,1.414-0.141C294.899,109.829,294.752,108.561,293.767,108.355z"/>
				<path style="fill:#0D0E1B;" d="M280.98,111.169c-1.057-1.586-2.812-2.554-4.736-2.469c-0.915,0.04-0.968,1.472-0.046,1.432
					c0.303-0.013,0.603,0.007,0.895,0.055c-0.397,1.506,0.091,3.183,1.296,4.2c0.697,0.589,1.749-0.385,1.045-0.98
					c-0.831-0.702-1.195-1.714-0.98-2.739c0.497,0.286,0.933,0.683,1.267,1.184C280.228,112.613,281.493,111.938,280.98,111.169z"/>
				<path style="fill:#0D0E1B;" d="M310.072,109.051c-0.088-0.333-0.336-0.576-0.643-0.672c-0.133-0.068-0.285-0.097-0.443-0.086
					c-0.158-0.091-0.346-0.126-0.521-0.076c-0.383,0.111-0.609,0.471-0.528,0.864c0.02,0.1,0.052,0.197,0.094,0.288
					c-0.007,0.486,0.287,0.946,0.833,1.037C309.595,110.53,310.26,109.763,310.072,109.051z"/>
				<path style="fill:#0D0E1B;" d="M302.292,108.131c-0.344-0.853-1.601-0.165-1.259,0.683c0.551,1.369,0.682,2.878,0.384,4.322
					c-0.185,0.896,1.182,1.327,1.368,0.425C303.168,111.702,303,109.89,302.292,108.131z"/>
				<path style="fill:#0D0E1B;" d="M304.563,116.535c-1.672,1.959-4.539,2.015-6.233,0.047c-0.603-0.7-1.645,0.282-1.045,0.98
					c2.16,2.509,6.095,2.551,8.257,0.017C306.135,116.886,305.161,115.834,304.563,116.535z"/>
			</g>
			<g>
				<path style="fill:#006A5B;" d="M344.067,404.655c-2.305-15.388-3.574-30.909-4.349-46.444
					c-0.778-15.605-1.074-31.228-1.424-46.847c-0.2-8.905-0.4-17.811-0.6-26.716c-0.012-0.531-0.496-0.771-0.898-0.702
					c-0.062-0.051-0.137-0.094-0.225-0.126c-2.184-0.788-4.565-0.678-6.85-0.813c-2.438-0.144-4.871-0.378-7.292-0.702
					c-4.779-0.638-9.509-1.635-14.143-2.964c-2.653-0.761-5.271-1.635-7.852-2.611c-0.305-0.115-0.555-0.019-0.712,0.169
					c-2.011-0.823-4.005-1.69-5.982-2.591c-3.705-1.687-7.354-3.493-10.987-5.33c-0.278-0.14-0.55-0.093-0.756,0.047
					c-3.23-1.989-6.348-4.158-9.409-6.398c-2.146-1.57-4.266-3.177-6.383-4.786c-0.105-0.356-0.487-0.637-0.865-0.54
					c-0.312-0.028-0.581,0.216-0.679,0.523l-12.256,11.546c-0.089,0.084-0.148,0.175-0.184,0.269
					c-0.357-0.01-0.722,0.208-0.738,0.668c-0.642,17.866-0.984,35.743-1.02,53.62c-0.036,17.878,0.232,35.756,0.805,53.624
					c0.323,10.075,0.743,20.146,1.258,30.213c0.027,0.52,0.503,0.762,0.899,0.703c12.424,7.316,27.537,9.674,41.641,6.782
					c4.048-0.83,7.994-2.108,11.766-3.793c0.327-0.146,0.422-0.425,0.369-0.69c8.198,2.82,17.311,2.857,25.55,0.163
					c2.452-0.802,4.821-1.838,7.07-3.1c0.066-0.037,0.122-0.081,0.169-0.128c0.087-0.013,0.177-0.046,0.269-0.103l3.453-2.148
					C344.005,405.271,344.117,404.987,344.067,404.655z"/>
				<g>
					<path style="fill:#008470;" d="M263.572,412.131c-1.086-19.209-2.183-38.418-3.255-57.628
						c-1.065-19.089-2.06-38.185-2.629-57.296c-0.319-10.723-0.503-21.451-0.493-32.18c0.001-0.92-1.431-0.97-1.432-0.046
						c-0.017,19.215,0.591,38.425,1.472,57.618c0.877,19.107,2.006,38.202,3.086,57.298c0.607,10.729,1.213,21.458,1.819,32.188
						C262.191,412.998,263.624,413.052,263.572,412.131z"/>
					<path style="fill:#008470;" d="M274.077,415.15c-1.753-20.037-3.387-40.084-4.899-60.14
						c-1.513-20.056-2.905-40.121-4.177-60.194c-0.716-11.31-1.395-22.623-2.035-33.937c-0.052-0.913-1.484-0.967-1.432-0.046
						c1.136,20.081,2.392,40.155,3.769,60.221c1.377,20.066,2.874,40.124,4.492,60.172c0.912,11.296,1.862,22.589,2.85,33.879
						C272.725,416.011,274.157,416.067,274.077,415.15z"/>
					<path style="fill:#008470;" d="M283.65,415.255c-1.47-19.78-2.897-39.563-4.28-59.35c-1.376-19.686-2.708-39.375-3.998-59.067
						c-0.73-11.152-1.447-22.305-2.149-33.459c-0.057-0.912-1.49-0.967-1.432-0.046c1.247,19.796,2.537,39.588,3.871,59.378
						c1.327,19.689,2.698,39.376,4.112,59.059c0.801,11.147,1.615,22.293,2.444,33.439
						C282.286,416.119,283.719,416.174,283.65,415.255z"/>
					<path style="fill:#008470;" d="M294.618,414.152c-0.889-9.35-1.511-18.724-1.986-28.104
						c-0.475-9.387-0.805-18.781-1.115-28.175c-0.309-9.346-0.599-18.693-0.995-28.036c-0.397-9.377-0.901-18.751-1.638-28.107
						c-0.734-9.321-1.698-18.626-3.014-27.884c-0.163-1.15-0.333-2.3-0.507-3.449c-0.138-0.91-1.53-0.571-1.393,0.336
						c1.403,9.258,2.445,18.567,3.233,27.897c0.785,9.305,1.326,18.628,1.747,27.956c0.422,9.341,0.723,18.687,1.03,28.032
						c0.306,9.348,0.617,18.696,1.057,28.039c0.44,9.336,1.008,18.667,1.831,27.977c0.102,1.158,0.209,2.315,0.319,3.472
						C293.273,415.012,294.705,415.069,294.618,414.152z"/>
					<path style="fill:#008470;" d="M302.133,413.034c-0.955-17.778-1.788-35.562-2.496-53.351
						c-0.704-17.694-1.286-35.393-1.745-53.096c-0.259-9.993-0.479-19.987-0.66-29.982c-0.017-0.918-1.448-0.97-1.432-0.046
						c0.323,17.801,0.769,35.599,1.339,53.393c0.567,17.699,1.257,35.394,2.07,53.084c0.459,9.986,0.957,19.97,1.493,29.952
						C300.75,413.902,302.182,413.956,302.133,413.034z"/>
					<path style="fill:#008470;" d="M317.015,411.097c-1.473-16.823-2.741-33.663-3.802-50.517
						c-1.055-16.759-1.905-33.531-2.551-50.311c-0.365-9.48-0.664-18.963-0.899-28.447c-0.023-0.918-1.454-0.97-1.432-0.046
						c0.418,16.882,1.041,33.759,1.872,50.625c0.826,16.772,1.857,33.534,3.092,50.281c0.698,9.461,1.461,18.918,2.288,28.369
						C315.663,411.958,317.096,412.015,317.015,411.097z"/>
					<path style="fill:#008470;" d="M327.625,410.212c-1.468-16.548-2.935-33.095-4.403-49.643
						c-1.468-16.548-2.935-33.095-4.403-49.643c-0.413-4.66-0.827-9.32-1.24-13.98c-0.403-4.547-0.895-9.132-0.277-13.683
						c0.124-0.913-1.309-0.952-1.432-0.046c-0.554,4.076-0.211,8.18,0.15,12.256c0.362,4.089,0.725,8.179,1.088,12.268
						c0.734,8.274,1.468,16.548,2.201,24.822l4.403,49.643c0.827,9.32,1.653,18.64,2.48,27.96
						C326.274,411.073,327.707,411.13,327.625,410.212z"/>
					<path style="fill:#008470;" d="M335.282,406.882c-1.25-15.786-2.484-31.573-3.704-47.362
						c-1.223-15.836-2.43-31.673-3.622-47.512c-0.669-8.894-1.334-17.789-1.993-26.684c-0.067-0.91-1.5-0.966-1.432-0.046
						c1.171,15.792,2.357,31.583,3.559,47.373c1.205,15.837,2.426,31.674,3.662,47.509c0.694,8.892,1.393,17.784,2.097,26.676
						C333.923,407.745,335.355,407.801,335.282,406.882z"/>
					<path style="fill:#008470;" d="M341.698,403.473c-1.391-15.206-2.604-30.427-3.635-45.661
						c-1.031-15.234-1.881-30.48-2.551-45.735c-0.378-8.622-0.698-17.246-0.961-25.873c-0.028-0.917-1.46-0.969-1.432-0.046
						c0.466,15.262,1.11,30.518,1.937,45.765c0.827,15.247,1.834,30.483,3.022,45.706c0.672,8.604,1.401,17.204,2.188,25.798
						C340.349,404.333,341.782,404.39,341.698,403.473z"/>
				</g>
				<path style="fill:#0D0E1B;" d="M333.685,282.772c-9.838-0.486-19.585-2.275-28.965-5.277
					c-9.38-3.002-18.366-7.202-26.677-12.487c-4.706-2.993-9.191-6.33-13.4-9.99c-0.69-0.6-1.741,0.375-1.045,0.98
					c0.191,0.166,0.385,0.329,0.578,0.494c-4.04,4.271-8.202,8.425-12.485,12.453c-0.672,0.632,0.307,1.677,0.98,1.045
					c4.322-4.065,8.522-8.258,12.597-12.571c7.118,5.955,14.945,11.037,23.288,15.111c4.731,2.31,9.615,4.301,14.61,5.958
					c-0.133,0.11-0.219,0.282-0.209,0.516c0.714,16.936,1.253,33.879,1.613,50.827c0.358,16.852,0.54,33.708,0.547,50.564
					c0.004,9.523-0.049,19.046-0.157,28.569c-0.01,0.921,1.421,0.969,1.432,0.046c0.192-16.95,0.209-33.902,0.046-50.852
					c-0.161-16.855-0.499-33.708-1.011-50.557c-0.29-9.519-0.636-19.036-1.037-28.55c-0.003-0.06-0.012-0.117-0.025-0.17
					c4.12,1.317,8.312,2.405,12.557,3.251c5.514,1.099,11.104,1.795,16.719,2.072C334.56,284.249,334.606,282.817,333.685,282.772z"
					/>
			</g>
		</g>
		<g>
			<path style="fill:#EDBA98;" d="M517.219,196.666c0,0-17.813,5.029-28.081,2.865l14.843,61.855c0,0-4.563,17.358-1.858,17.965
				c2.706,0.607,7.488-6.813,7.488-6.813s-6.865,12.896-4.303,14.635c2.562,1.74,5.878-0.86,8.253-4.562
				c2.375-3.703,7.102-11.787,8.154-14.314c1.052-2.527,0.659-7.72-0.367-11.43c-1.026-3.711-1.786-6.234-1.786-6.234
				L517.219,196.666z"/>
			<g>
				<path style="fill:#EDBA98;" d="M456.998,354.79l1.55-28.672l-28.227-2.297c-3.056,6.986-2.654,27.261-2.59,29.832
					c3.747,1.458,7.64,1.018,11.534,1.317C445.153,355.496,451.115,354.489,456.998,354.79z"/>
				<path style="fill:#E6E1C8;" d="M435.331,398.541c1.967,2.269,3.934,4.387,6.354,6.354c3.177,2.723,6.808,5.295,11.044,4.085
					c1.608-0.508,2.884-1.82,3.855-3.407c-1.26-2.165-2.137-3.603-2.137-3.603l2.551-47.18c-5.882-0.301-11.844,0.707-17.733,0.181
					c-3.893-0.299-7.787,0.141-11.534-1.317c0.004,0.176,0.007,0.271,0.007,0.271l0.434,36.89
					C430.417,393.908,432.947,395.859,435.331,398.541z"/>
				<path style="fill:#6ABB79;" d="M465.248,422.965c-1.171-4.183-5.864-12.581-8.664-17.392c-0.972,1.587-2.248,2.9-3.855,3.407
					c-4.236,1.21-7.867-1.362-11.044-4.085c-2.421-1.967-4.387-4.085-6.354-6.354c-2.384-2.682-4.914-4.633-7.159-7.727l0.049,4.157
					c0,0-3.266,17.263-1.585,19.829c1.681,2.566,21.18,17.263,31.211,20.062C467.879,437.661,466.946,429.03,465.248,422.965z"/>
				<path style="fill:#0D0E1B;" d="M463.763,427.399c-0.227,0.907-1.765,0.585-2.404,0.411c-1.308-0.356-2.599-0.811-3.877-1.261
					c-2.649-0.934-5.25-1.998-7.792-3.192c-5.046-2.371-9.864-5.229-14.36-8.525c-2.578-1.889-5.039-3.931-7.387-6.098
					c-0.715-0.66-1.787,0.408-1.07,1.07c8.96,8.27,19.629,14.627,31.18,18.541c1.838,0.623,6.394,2.553,7.169-0.543
					C465.459,426.857,464,426.454,463.763,427.399z"/>
				<path style="fill:#0D0E1B;" d="M454.745,354.338c-9,0.488-18.026,0.349-27.007-0.414c-0.97-0.083-0.965,1.431,0,1.513
					c0.926,0.079,1.852,0.149,2.779,0.215c-0.006,0.038-0.01,0.077-0.011,0.118c-0.209,10.55-0.242,21.103-0.098,31.654
					c0.013,0.973,1.526,0.975,1.513,0c-0.144-10.551-0.111-21.104,0.098-31.654c0-0.006,0-0.012,0-0.018
					c1.519,0.095,3.04,0.172,4.56,0.232c-0.207,0.111-0.353,0.322-0.334,0.637c0.637,10.541,0.477,21.12-0.479,31.638
					c-0.088,0.969,1.425,0.963,1.513,0c0.957-10.517,1.117-21.096,0.479-31.638c-0.017-0.288-0.164-0.489-0.358-0.607
					c2.151,0.076,4.302,0.115,6.454,0.12c-0.133,0.119-0.23,0.286-0.256,0.502c-1.213,10.217-1.799,20.501-1.752,30.789
					c0.004,0.973,1.517,0.975,1.513,0c-0.047-10.288,0.539-20.572,1.752-30.789c0.026-0.218-0.032-0.386-0.138-0.505
					c1.481-0.005,2.961-0.03,4.441-0.068c-0.897,10.581-1.595,21.178-2.094,31.786c-0.046,0.973,1.467,0.971,1.513,0
					c0.499-10.623,1.199-21.236,2.098-31.833c1.272-0.043,2.544-0.095,3.815-0.164C455.713,355.799,455.72,354.286,454.745,354.338z
					"/>
			</g>
			<g>
				<path style="fill:#E6E1C8;" d="M500.535,406.408c2.503,0.883,5.578,0.906,7.693-1.045c-0.593-0.531-0.932-0.828-0.932-0.828
					l1.608-49.005c-3.286,0.246-6.55,0.852-9.882,0.65c-4.236-0.303-8.472-0.454-12.708-0.908c-1.362-0.151-2.723-0.303-4.085-0.303
					c-0.454,0-0.908,0.303-1.362,0.151c-0.663-0.249-1.417-0.362-2.137-0.587c0.008,4.631,0.038,8.807,0.105,11.509
					c0.136,5.525,0.941,19.506,1.575,30.984c5.187,3.447,11.067,5.51,16.948,7.715C498.418,405.198,499.477,405.954,500.535,406.408
					z"/>
				<path style="fill:#6ABB79;" d="M523.399,420.165c-5.303-5.871-12.61-12.511-15.171-14.802c-2.115,1.951-5.191,1.928-7.693,1.045
					c-1.059-0.454-2.118-1.21-3.177-1.664c-5.881-2.205-11.762-4.268-16.948-7.715c0.49,8.877,0.877,16.257,0.772,17.071
					c-0.24,1.866,4.192,4.899,13.523,10.264c9.331,5.365,24.494,10.264,27.294,9.798
					C524.799,433.695,529.931,427.397,523.399,420.165z"/>
				<path style="fill:#EDBA98;" d="M482.23,354.971c1.362,0,2.723,0.151,4.085,0.303c4.236,0.454,8.472,0.605,12.708,0.908
					c3.331,0.202,6.595-0.404,9.882-0.65l0.965-29.413l-31.034,0.969c0,0-0.126,15.291-0.105,27.448
					c0.72,0.225,1.474,0.338,2.137,0.587C481.322,355.273,481.776,354.971,482.23,354.971z"/>
				<path style="fill:#0D0E1B;" d="M524.063,423.97c-0.72-0.652-1.793,0.415-1.07,1.07c0.461,0.417,0.12,1.04-0.328,1.317
					c-0.618,0.383-1.445,0.407-2.148,0.429c-1.623,0.051-3.225-0.206-4.79-0.623c-3.052-0.813-5.972-2.122-8.889-3.317
					c-5.541-2.268-11.056-4.673-16.191-7.772c-2.891-1.744-5.637-3.712-8.153-5.966c-0.723-0.648-1.797,0.418-1.07,1.07
					c5.039,4.516,10.942,7.88,17.061,10.705c3.053,1.409,6.16,2.697,9.275,3.962c3.361,1.365,6.752,2.878,10.384,3.332
					c1.645,0.206,3.794,0.379,5.285-0.514C524.688,426.909,525.263,425.056,524.063,423.97z"/>
				<path style="fill:#0D0E1B;" d="M506.568,354.338c-9,0.488-18.026,0.349-27.007-0.414c-0.97-0.083-0.964,1.431,0,1.513
					c0.926,0.079,1.852,0.149,2.779,0.215c-0.006,0.038-0.01,0.077-0.011,0.118c-0.209,10.55-0.241,21.103-0.098,31.654
					c0.013,0.973,1.526,0.975,1.513,0c-0.144-10.551-0.111-21.104,0.098-31.654c0-0.006-0.001-0.012-0.001-0.018
					c1.519,0.095,3.04,0.172,4.561,0.232c-0.207,0.111-0.353,0.322-0.334,0.637c0.637,10.541,0.477,21.12-0.479,31.638
					c-0.088,0.969,1.425,0.963,1.513,0c0.956-10.517,1.117-21.096,0.479-31.638c-0.017-0.288-0.164-0.489-0.358-0.607
					c2.151,0.076,4.302,0.115,6.454,0.12c-0.133,0.119-0.23,0.286-0.256,0.502c-1.213,10.217-1.799,20.501-1.752,30.789
					c0.004,0.973,1.517,0.975,1.513,0c-0.047-10.288,0.538-20.572,1.752-30.789c0.026-0.218-0.032-0.386-0.138-0.505
					c1.48-0.005,2.961-0.03,4.441-0.068c-0.897,10.581-1.595,21.178-2.094,31.786c-0.046,0.973,1.467,0.971,1.513,0
					c0.499-10.623,1.199-21.236,2.098-31.833c1.272-0.043,2.544-0.095,3.815-0.164C507.536,355.799,507.542,354.286,506.568,354.338
					z"/>
			</g>
			<g>
				<path style="fill:#003E6B;" d="M519.183,195.071c0.001-0.035,0.001-0.072-0.003-0.11c-0.712-7.265-1.815-14.492-3.322-21.635
					c-1.463-6.935-3.231-13.858-5.555-20.558c-2.075-5.982-4.819-11.856-9.161-16.545c-4.226-4.565-9.726-7.76-15.499-9.961
					c-7.557-2.881-15.624-4.013-23.589-5.135c-0.116-0.016-0.224-0.009-0.322,0.017c-0.253-0.146-0.567-0.135-0.807,0.172
					c-1.994,2.55-4.997,4.272-8.251,4.495c-3.284,0.225-6.527-1.02-8.865-3.319c-0.007-0.491-0.554-1.009-1.151-0.722
					c-6.09,2.926-12.141,5.933-18.15,9.024c-5.297,2.725-10.872,5.32-15.397,9.265c-4.379,3.818-7.008,8.956-8.655,14.456
					c-1.798,6.009-2.797,12.308-3.571,18.521c-0.932,7.484-1.299,15.032-1.116,22.57c0.005,0.225,0.091,0.398,0.219,0.519
					c0.038,0.174,0.156,0.332,0.38,0.433c9.009,4.042,18.83,6.163,28.709,6.15c1.038-0.001,2.075-0.027,3.111-0.077
					c-2.321,12.955-4.305,25.97-5.946,39.028c-0.515,4.098-0.996,8.201-1.444,12.307c-0.064,0.59,0.475,0.816,0.928,0.686
					c0.072,0.047,0.158,0.084,0.261,0.106c10.344,2.192,20.827,3.727,31.365,4.588c10.617,0.867,21.289,1.05,31.929,0.544
					c5.976-0.284,11.941-0.789,17.88-1.505c0.34-0.041,0.559-0.259,0.659-0.518c0.503,0.106,1.11-0.279,0.91-0.91
					c-0.604-1.903-0.893-3.848-0.865-5.844c0.006-0.407-0.255-0.643-0.562-0.71c-0.979-12.967-1.859-25.941-2.635-38.921
					c-0.211-3.531-0.414-7.063-0.61-10.595c6.5-0.633,12.823-2.324,18.772-5.02C519.205,195.697,519.284,195.366,519.183,195.071z"
					/>
				<g>
					<path style="fill:#E6E1C8;" d="M450.191,152.511c-0.11-0.333-0.382-0.537-0.729-0.555c-1.226-0.066-2.435,0.063-3.622,0.375
						c-0.306,0.08-0.574,0.404-0.555,0.729c0.002,0.036,0.004,0.073,0.006,0.109c-0.431-0.082-0.909,0.152-0.865,0.709
						c0.21,2.643,0.475,5.281,0.8,7.911c0.121,0.976,0.183,2.002,1.167,2.5c0.771,0.39,1.9,0.462,2.745,0.362
						c0.882-0.104,1.668-0.519,2.054-1.351c0.452-0.976,0.326-2.299,0.3-3.347C451.428,157.425,450.981,154.913,450.191,152.511z"/>
					<path style="fill:#E6E1C8;" d="M469.648,160.009c-0.122-1.678-0.34-3.352-0.649-5.006c-0.14-0.747-0.299-1.491-0.479-2.23
						c-0.109-0.451-0.191-0.986-0.361-1.461c0.009-0.061,0.012-0.126,0.005-0.198c-0.122-1.253-1.146-1.619-2.267-1.613
						c-1.394,0.008-2.789,0.069-4.183,0.104c-2.28,0.057-5.337-0.246-6.36,2.318c-0.068,0.172-0.071,0.325-0.028,0.454
						c-0.038,0.092-0.058,0.199-0.051,0.323c0.1,1.767,0.249,3.531,0.456,5.289c0.183,1.555,0.273,3.255,0.705,4.763
						c0.438,1.529,1.858,1.687,3.227,1.83c1.598,0.167,3.213,0.185,4.815,0.052c0.774-0.064,1.546-0.161,2.312-0.288
						c0.71-0.117,1.598-0.183,2.233-0.559C470.201,163.091,469.729,161.122,469.648,160.009z"/>
					<path style="fill:#E6E1C8;" d="M476.288,158.313c-0.172-2.502-0.525-4.99-1.037-7.445c-0.037-0.176-0.143-0.316-0.283-0.411
						c0.029-0.52-0.53-1.078-1.136-0.749c-0.08,0.043-0.329,0.004-0.451,0.002c-0.288-0.006-0.567,0.03-0.829,0.153
						c-0.503,0.236-0.81,0.758-0.792,1.313c0.004,0.136,0.039,0.252,0.093,0.35c-0.028,0.08-0.043,0.17-0.042,0.271
						c0.028,2.534,0.19,5.065,0.502,7.58c0.076,0.609,0.158,1.218,0.249,1.825c0.083,0.557,0.084,1.244,0.288,1.765
						c0.314,0.799,1.298,0.991,2.041,0.744C476.972,163.018,476.401,159.95,476.288,158.313z"/>
					<path style="fill:#E6E1C8;" d="M488.291,156.893c-0.101-1.239-0.273-2.475-0.517-3.694c-0.19-0.949-0.317-2.322-0.971-3.093
						c-0.073-0.086-0.152-0.157-0.234-0.222c-0.062-0.103-0.158-0.195-0.296-0.266c-1.422-0.727-3.394-0.478-4.936-0.365
						c-1.232,0.09-3.07,0.025-3.455,1.408c-0.218,0.104-0.367,0.319-0.329,0.647c0.275,2.394,0.55,4.787,0.825,7.181
						c0.021,0.184,0.095,0.333,0.199,0.447c0.133,1.157,0.285,2.313,0.46,3.466c0.054,0.355,0.424,0.516,0.729,0.555
						c1.098,0.14,2.197,0.273,3.297,0.402c0.131,0.056,0.281,0.072,0.426,0.05c0.134,0.016,0.268,0.032,0.403,0.048
						c0.688,0.079,1.376,0.155,2.065,0.229c0.509,0.055,1.05,0.166,1.532-0.07c0.947-0.464,0.82-1.902,0.863-2.776
						C488.419,159.526,488.398,158.206,488.291,156.893z"/>
				</g>
				<g>
					<path style="fill:#6ABB79;" d="M492.823,213.151c-0.237-2.839-0.565-5.669-0.889-8.499c-0.641-5.595-1.272-11.216-1.137-16.857
						c0.121-5.069,0.951-10.378-1.355-15.116c-0.918-1.885-2.337-3.594-4.194-4.611c-2.195-1.202-4.746-1.302-7.189-1.159
						c-5.69,0.333-11.38,0.953-17.045,1.562c-2.779,0.299-5.563,0.587-8.332,0.964c-1.941,0.264-3.992,0.662-5.649,1.77
						c-1.936,1.295-2.716,3.294-2.84,5.563c-0.147,2.71,0.084,5.475,0.447,8.159c0.342,2.528,0.872,5.021,1.578,7.472
						c-0.207,0.214-0.295,0.535-0.102,0.869c2.048,3.551,5.914,6.716,10.259,5.893c1.899-0.36,3.681-1.503,4.751-3.117
						c1.085-1.636,1.141-3.601,0.5-5.416c-0.922-2.612-5.139-7.767-1.082-9.737c1.449-0.704,3.329-0.506,4.669,0.35
						c1.797,1.148,2.605,3.413,2.91,5.422c0.766,5.044-1.267,10.142,0.619,15.081c0.768,2.013,2.109,4.353,3.976,5.541
						c1.799,1.144,3.527-0.177,4.041-1.977c0.647-2.266-0.474-4.67-1.312-6.732c-0.832-2.047-1.703-4.33-1.051-6.558
						c0.308-1.05,0.998-1.715,1.833-2.373c0.712-0.562,1.484-1.185,1.734-2.1c0.311-1.135-0.351-2.027-0.982-2.893
						c-0.745-1.024-1.315-2.171-1.634-3.4c-0.264-1.015-0.079-1.916,1.1-1.999c1.048-0.074,1.812,0.697,2.314,1.533
						c0.618,1.028,1.006,2.2,1.407,3.325c0.435,1.222,0.827,2.459,1.176,3.708c1.389,4.979,2.081,10.138,2.071,15.307
						c-0.01,5.169-0.719,10.324-2.135,15.296c-0.585,2.051-1.673,4.234-1.504,6.418c0.167,2.147,1.822,3.379,3.927,3.269
						c2.08-0.109,4.547-0.611,6.332-1.721c1.959-1.219,2.81-3.261,3.04-5.482C493.336,218.353,493.035,215.697,492.823,213.151z"/>
					<path style="fill:#6ABB79;" d="M487.98,230.913c-0.977,0.252-1.903,0.643-2.897,0.849c-1.042,0.216-2.104,0.314-3.167,0.292
						c-1.997-0.042-4.091-0.544-5.672-1.822c-1.943-1.57-2.355-3.995-3.406-6.129c-0.901-1.828-2.683-3.411-4.848-3.294
						c-0.993,0.053-1.889,0.529-2.439,1.367c-0.567,0.863-0.593,1.919-1.047,2.822c-0.552,1.096-1.604,0.754-2.322,0.03
						c-0.879-0.887-1.162-2.036-1.242-3.249c-0.186-2.8,0.556-5.559,0.526-8.355c-0.05-4.627-2.879-8.757-7.167-10.511
						c-1.025-0.419-2.09-0.654-3.192-0.751c-0.244-0.021-0.427,0.059-0.548,0.192c-0.172-0.058-0.368-0.059-0.571,0.029
						c-4.219,1.831-3.572,7.642-3.296,11.338c0.446,5.97,0.991,11.982,2.519,17.789c0.301,1.146,0.668,2.334,1.503,3.214
						c0.818,0.863,1.989,1.237,3.127,1.446c2.931,0.538,5.92,0.871,8.884,1.165c6.164,0.611,12.369,0.818,18.56,0.618
						c2.32-0.075,4.751-0.131,6.945-0.976c1.711-0.659,4.24-2.323,3.996-4.47C491.997,230.467,489.47,230.529,487.98,230.913z"/>
				</g>
				<path style="fill:#FFBC44;" d="M470.498,211.11c-0.666-1.07-1.762-1.568-2.934-1.903c-1.286-0.368-2.382-0.801-3.337-1.773
					c-1.723-1.754-2.487-4.279-2.878-6.647c-0.477-2.895-0.542-5.904-1.599-8.674c-0.821-2.152-2.766-5.065-5.49-3.996
					c-3.304,1.296-2.645,5.63-2.364,8.405c0.379,3.736,1.04,7.437,1.974,11.074c0.066,0.258,0.223,0.414,0.412,0.488
					c0.324,1.552,1.402,2.912,2.951,3.516c0.31,0.121,0.671,0.2,0.936,0.409c0.279,0.219,0.397,0.54,0.545,0.851
					c0.284,0.597,0.602,1.174,0.979,1.718c0.754,1.086,1.691,2.052,2.838,2.724c2.079,1.218,4.907,1.303,6.855-0.23
					C471.13,215.701,471.688,213.024,470.498,211.11z M469.549,214.085c-0.438,2.159-2.841,2.958-4.795,2.498
					c-1.251-0.295-2.309-1.059-3.154-2.008c-0.423-0.475-0.781-0.999-1.098-1.549c-0.315-0.549-0.524-1.174-0.891-1.691
					c-0.719-1.012-2.068-0.987-2.922-1.827c-0.835-0.821-1.192-2.039-0.906-3.173c0.155-0.616-0.411-1.001-0.89-0.933
					c-0.511-2.203-0.926-4.428-1.225-6.67c-0.188-1.408-0.333-2.823-0.436-4.24c-0.09-1.243-0.243-2.66,0.36-3.806
					c0.518-0.983,1.566-1.604,2.625-1.031c1.053,0.57,1.663,1.789,2.074,2.86c0.905,2.354,1.075,4.906,1.409,7.383
					c0.541,4.005,1.927,8.731,6.081,10.341c1.018,0.394,2.339,0.463,3.134,1.283C469.559,212.185,469.728,213.205,469.549,214.085z"
					/>
				<path style="fill:#FFBC44;" d="M480.47,195.923c-0.785-1.43-1.533-2.802-2.077-4.343c-0.395-1.117-0.849-2.334-1.852-3.049
					c-1.212-0.865-2.796-0.586-3.845,0.404c-0.799,0.754-1.128,1.749-1.194,2.786c-0.425,0.124-0.774,0.6-0.501,1.109
					c1.402,2.625,1.993,5.589,3.354,8.233c1.061,2.061,3.915,5.775,6.434,3.366C483.178,202.143,481.801,198.347,480.47,195.923z
					 M479.719,203.359c-1.005,0.916-2.266-0.44-2.878-1.198c-0.702-0.869-1.23-1.882-1.671-2.904
					c-0.767-1.778-1.305-3.642-2.041-5.427c0.029-0.109,0.035-0.23,0.008-0.362c-0.242-1.186-0.318-2.689,0.719-3.538
					c0.844-0.691,1.797-0.429,2.36,0.442c0.523,0.809,0.75,1.772,1.091,2.662c0.459,1.198,1.104,2.3,1.726,3.418
					c0.619,1.113,1.2,2.249,1.433,3.513C480.667,201.063,480.61,202.547,479.719,203.359z"/>
				<path style="fill:#FFBC44;" d="M485.768,210.766c-0.002-0.016-0.005-0.032-0.008-0.048c-0.021-0.124-0.042-0.247-0.064-0.37
					c-0.067-0.385-0.342-0.549-0.638-0.546c-1.342-1.063-3.276-0.253-4.503,0.858c-1.568,1.422-3.32,3.458-2.773,5.742
					c0.254,1.063,1.206,2.049,0.348,3.065c-0.637,0.755-1.512,1.337-2.346,1.849c-1.731,1.062-3.618,1.841-5.342,2.914
					c-1.515,0.943-3.485,2.405-3.911,4.25c-0.607,2.629,2.784,2.917,4.555,2.725c1.229-0.133,2.36-0.495,3.475-1.021
					c0.5-0.236,1.002-0.496,1.547-0.616c0.713-0.157,1.43,0.017,2.146,0.059c2.328,0.137,4.368-1.4,5.718-3.167
					C487.425,221.939,486.665,216.014,485.768,210.766z M483.866,223.719c-0.791,1.682-2.071,3.346-3.828,4.095
					c-1.039,0.443-1.995,0.226-3.073,0.181c-1.111-0.047-2.071,0.367-3.055,0.83c-0.942,0.444-1.919,0.781-2.962,0.883
					c-0.643,0.063-2.465,0.258-2.9-0.443c-0.396-0.638,0.709-1.722,1.113-2.135c0.634-0.647,1.363-1.176,2.133-1.649
					c1.397-0.858,2.896-1.531,4.329-2.323c1.402-0.775,3.074-1.747,3.968-3.124c0.557-0.858,0.528-1.785,0.161-2.714
					c-0.434-1.097-0.792-1.896-0.241-3.037c0.479-0.992,1.305-1.821,2.113-2.553c0.605-0.548,1.992-1.518,2.685-0.556
					C485.021,215.299,485.711,219.794,483.866,223.719z"/>
				<path style="fill:#0D0E1B;" d="M436.59,166.929c-1.761,11.678-2.943,23.438-3.528,35.233c-0.048,0.973,1.465,0.971,1.513,0
					c0.579-11.66,1.734-23.287,3.474-34.831C438.193,166.379,436.735,165.968,436.59,166.929z"/>
				<path style="fill:#0D0E1B;" d="M504.464,253.296c-0.049-0.837-0.099-1.673-0.148-2.51c-0.09-1.526-0.181-3.052-0.272-4.577
					c-0.186-3.102-0.375-6.203-0.573-9.304c-0.392-6.154-0.816-12.305-1.306-18.452c-0.981-12.297-2.232-24.576-4.017-36.784
					c-1.012-6.92-2.201-13.813-3.606-20.664c-0.195-0.953-1.654-0.55-1.459,0.402c2.431,11.852,4.206,23.828,5.558,35.848
					c1.351,12.005,2.293,24.052,3.087,36.106c0.221,3.347,0.43,6.695,0.633,10.043c0.105,1.723,0.208,3.446,0.31,5.169
					c0.05,0.837,0.099,1.673,0.149,2.51c0.023,0.394,0.047,0.787,0.07,1.181c0.016,0.273,0.12,0.763,0.111,1.121
					c-0.568,0.497,0.143,1.563,0.948,1.187C504.479,254.323,504.495,253.814,504.464,253.296z"/>
			</g>
			<g>
				<path style="fill:#FFBC44;" d="M514.783,321.695c-0.02-0.025-0.04-0.049-0.061-0.071c-2.936-16.346-5.412-32.774-7.409-49.261
					c-0.575-4.743-1.109-9.491-1.607-14.243c-0.071-0.676-0.845-0.88-1.26-0.601c-1.76-0.899-3.808-0.303-5.658-0.037
					c-2.244,0.322-4.494,0.604-6.748,0.848c-4.495,0.487-9.005,0.819-13.521,1.005c-0.226,0.009-0.399,0.099-0.52,0.231
					c-2.182,0.011-4.364-0.004-6.546-0.048c-10.504-0.213-21-1.051-31.401-2.531c-5.838-0.831-11.647-1.863-17.415-3.085
					c-0.67-0.142-1.069,0.542-0.91,1.029c-0.451-0.248-1.158-0.039-1.148,0.63c0.262,17.546-0.211,35.101-1.429,52.606
					c-0.341,4.901-0.741,9.799-1.197,14.691c-0.052,0.553,0.419,0.788,0.85,0.709c0.09,0.106,0.21,0.185,0.357,0.216
					c0.221,0.047,0.443,0.094,0.664,0.141c0.083,0.07,0.191,0.123,0.327,0.149c12.912,2.51,25.924,5.034,39.116,5.323
					c3.759,0.082,7.52-0.026,11.266-0.357c0.318-0.028,0.531-0.212,0.64-0.443c0.214,0.489,1,0.721,1.367,0.121
					c0.552-0.903,1.104-1.807,1.657-2.71c0.266,0.621,0.533,1.241,0.799,1.862c0.161,0.375,0.713,0.459,1.035,0.271
					c0.047-0.027,0.089-0.058,0.126-0.091c0.056,0.039,0.119,0.073,0.191,0.099c4.315,1.571,8.925,0.863,13.404,0.866
					c2.467,0.001,4.906,0.393,7.37,0.459c2.355,0.063,4.711-0.224,7.017-0.687c2.679-0.537,5.3-1.323,7.915-2.109
					c0.136-0.041,0.242-0.107,0.324-0.189c0.032,0.002,0.066,0.002,0.101,0C514.68,326.344,516.2,323.537,514.783,321.695z"/>
				<path style="fill:#0D0E1B;" d="M490.192,272.595c-11.636,1.118-23.347,1.34-35.017,0.665c-0.973-0.056-0.969,1.457,0,1.513
					c5.159,0.299,10.326,0.421,15.491,0.369c0.008,0.043,0.019,0.087,0.035,0.133c1.07,3.004,0.964,6.289,1.089,9.435
					c0.13,3.264,0.26,6.529,0.39,9.793c0.262,6.579,0.524,13.158,0.786,19.737c0.148,3.716,0.296,7.433,0.444,11.149
					c0.039,0.97,1.552,0.975,1.513,0c-0.53-13.309-1.06-26.617-1.59-39.926c-0.136-3.42,0.009-7.057-1.092-10.344
					c5.993-0.102,11.982-0.438,17.951-1.012C491.152,274.015,491.162,272.501,490.192,272.595z"/>
			</g>
			<g>
				<path style="fill:#EDBA98;" d="M474.274,97.103c-0.406-2.972-1.382-5.814-2.484-8.591c-0.192-0.483-0.707-0.591-1.084-0.445
					c-0.087-0.093-0.207-0.167-0.365-0.205c-4.782-1.153-9.695-0.352-14.444,0.566c-4.36,0.843-8.692,1.923-12.769,3.715
					c-2.276,1-4.436,2.24-6.407,3.757c-0.185,0.143-0.28,0.328-0.308,0.52c-2.93-1.226-6.409,0.907-6.117,4.266
					c0.258,2.97,3.612,6.298,6.664,5.064c0.905,2.079,2.117,4.004,3.624,5.713c0.437,0.496,0.899,0.97,1.382,1.422
					c0.467,0.436,1.174,0.84,1.524,1.376c0.378,0.58-0.002,1.68-0.099,2.327c-0.121,0.814-0.246,1.628-0.363,2.443
					c-0.199,1.392-0.133,2.636,0.751,3.784c0.773,1.004,1.885,1.689,3.034,2.187c2.29,0.993,4.811,1.291,7.279,0.949
					c2.767-0.384,5.365-1.595,7.408-3.504c0.21-0.196,0.264-0.426,0.22-0.637c0.011-0.063,0.016-0.131,0.01-0.205
					c-0.14-1.744-0.13-3.494,0.045-5.233c3.543-0.953,6.752-2.986,9.038-5.914C473.787,106.647,474.925,101.864,474.274,97.103z"/>
				<path style="fill:#006A5B;" d="M468.515,78.449c-0.109-0.03-0.21-0.036-0.304-0.024c-1.64-2.499-3.388-4.853-6.191-6.113
					c-2.429-1.091-5.145-1.461-7.802-1.526c-0.829-3.33-4.363-5.613-7.742-4.964c-3.511,0.674-5.77,4.438-5.134,7.853
					c0.004,0.024,0.01,0.046,0.016,0.067c-1.543,0.899-2.959,2.02-4.183,3.39c-2.076,2.323-3.444,5.138-3.828,8.237
					c-0.009,0.076-0.008,0.145,0.002,0.208l-0.266,0.447c-0.135-0.054-0.297-0.063-0.48-0.001c-2.546,0.855-2.671,4.115-1.768,6.218
					c0.869,2.022,2.641,3.514,4.742,4.03c0.147,0.397,0.605,0.706,1.094,0.453c7.125-3.681,14.769-6.309,22.638-7.8
					c0.117,0.098,0.274,0.16,0.471,0.159c3.863-0.014,7.727-0.028,11.59-0.041c0.318-0.001,0.532-0.164,0.642-0.382
					c0.072-0.051,0.139-0.117,0.197-0.202C474.761,84.751,472.823,79.634,468.515,78.449z"/>
				<path style="fill:#0D0E1B;" d="M436.529,94.67c-1.751-1.687-2.647-4.001-2.513-6.427c0.054-0.973-1.459-0.97-1.513,0
					c-0.155,2.801,0.938,5.552,2.956,7.497C436.16,96.416,437.231,95.347,436.529,94.67z"/>
				<path style="fill:#0D0E1B;" d="M441.296,91.792c-1.236-1.812-1.857-3.888-1.802-6.082c0.025-0.974-1.488-0.973-1.513,0
					c-0.061,2.439,0.634,4.829,2.009,6.845C440.534,93.355,441.846,92.599,441.296,91.792z"/>
				<path style="fill:#0D0E1B;" d="M447.636,88.614c-1.323-1.349-1.952-3.135-1.817-5.014c0.07-0.971-1.444-0.967-1.513,0
					c-0.162,2.262,0.676,4.469,2.26,6.084C447.249,90.38,448.318,89.31,447.636,88.614z"/>
				<path style="fill:#0D0E1B;" d="M454.611,87.206c-0.525-1.839-1.051-3.678-1.576-5.518c-0.267-0.935-1.727-0.537-1.459,0.402
					c0.525,1.839,1.051,3.678,1.576,5.518C453.419,88.543,454.879,88.146,454.611,87.206z"/>
				<path style="fill:#0D0E1B;" d="M459.531,81.185c-0.565-0.782-1.878-0.028-1.306,0.763c1.118,1.547,1.467,3.431,0.927,5.266
					c-0.275,0.936,1.184,1.336,1.459,0.402C461.254,85.428,460.87,83.038,459.531,81.185z"/>
				<path style="fill:#0D0E1B;" d="M465.518,79.854c-0.478-0.848-1.786-0.087-1.306,0.763c1.249,2.215,1.956,4.659,2.07,7.2
					c0.044,0.97,1.557,0.975,1.513,0C467.669,85.01,466.899,82.304,465.518,79.854z"/>
				<path style="fill:#0D0E1B;" d="M453.045,68.593c-1.678-2.887-5.487-4.338-8.63-3.08c-3.158,1.263-4.946,4.828-4.229,8.12
					c0.073,0.336,0.409,0.538,0.729,0.555c0.395,0.021,0.79,0.043,1.185,0.064c0.973,0.053,0.97-1.46,0-1.513
					c-0.18-0.01-0.36-0.02-0.539-0.029c-0.263-2.394,1.159-4.951,3.449-5.814c2.472-0.931,5.417,0.203,6.729,2.46
					C452.227,70.198,453.535,69.437,453.045,68.593z"/>
				<path style="fill:#0D0E1B;" d="M437.238,101.534c-1.093-1.942-3.223-3.128-5.454-3.001c-0.968,0.055-0.974,1.568,0,1.513
					c0.347-0.02,0.688,0.001,1.019,0.055c-0.198,1.125,0.041,2.292,0.697,3.248c0.547,0.798,1.859,0.042,1.306-0.764
					c-0.421-0.613-0.607-1.277-0.545-1.97c0.682,0.387,1.262,0.957,1.67,1.682C436.41,103.146,437.717,102.385,437.238,101.534z"/>
				<path style="fill:#0D0E1B;" d="M449.388,95.771c-0.04-0.218-0.189-0.363-0.37-0.451c-0.028-0.041-0.059-0.081-0.094-0.119
					c-0.19-0.205-0.488-0.315-0.763-0.278c-0.115,0.015-0.225,0.061-0.332,0.117c-0.041-0.006-0.084-0.009-0.128-0.007
					c-0.378,0.017-0.797,0.335-0.756,0.756c0.016,0.166,0.055,0.322,0.115,0.465c-0.014,0.146,0.015,0.297,0.102,0.432
					c0.256,0.4,0.695,0.589,1.138,0.536c0.059,0.011,0.118,0.02,0.18,0.026c0.335,0.034,0.635-0.248,0.727-0.56
					C449.381,96.435,449.45,96.118,449.388,95.771z"/>
				<path style="fill:#0D0E1B;" d="M469.01,92.932c-0.301-0.356-0.826-0.467-1.265-0.356c-0.21,0.053-0.419,0.175-0.569,0.331
					c-0.04,0.042-0.11,0.133-0.128,0.16c-0.023,0.03-0.047,0.061-0.065,0.092c-0.087,0.15-0.135,0.328-0.138,0.502
					c-0.01,0.575,0.413,1.035,0.912,1.177c0.457,0.159,0.977-0.025,1.273-0.408C469.383,93.971,469.386,93.378,469.01,92.932z"/>
				<path style="fill:#0D0E1B;" d="M459.856,94.23c-0.417-0.879-1.722-0.112-1.306,0.764c0.704,1.485,1.01,3.081,0.952,4.72
					c-0.034,0.974,1.479,0.972,1.513,0C461.082,97.801,460.675,95.957,459.856,94.23z"/>
				<path style="fill:#0D0E1B;" d="M462.621,101.915c-1.42,1.747-3.871,1.815-5.356,0.108c-0.64-0.736-1.707,0.338-1.07,1.07
					c1.984,2.281,5.582,2.246,7.495-0.108C464.3,102.236,463.236,101.159,462.621,101.915z"/>
			</g>
			<g>
				<path style="fill:#EDBA98;" d="M405.339,199.867c0,0,17.965,4.456,28.159,1.964l-12.853,62.299c0,0,5.117,17.203,2.432,17.896
					c-2.685,0.694-7.702-6.57-7.702-6.57s7.275,12.669,4.77,14.49c-2.505,1.821-5.903-0.671-8.395-4.296
					c-2.492-3.625-7.476-11.554-8.609-14.046s-0.906-7.694,0-11.436c0.906-3.742,1.586-6.288,1.586-6.288L405.339,199.867z"/>
				<path style="fill:#0D0E1B;" d="M417.849,277.34c-1.337-2.342-2.411-4.804-3.213-7.379c-0.289-0.927-1.75-0.531-1.459,0.402
					c0.84,2.695,1.966,5.289,3.366,7.74C417.026,278.949,418.334,278.188,417.849,277.34z"/>
			</g>
		</g>
		<g>
			<path style="fill:#F8F1DA;" d="M157.982,199.796c-4.41-7.789-9.45-15.163-14.447-22.58c-0.035-0.051-0.072-0.097-0.113-0.136
				c0.596-12.607,1.052-25.22,1.364-37.837c0.26-0.285,0.367-0.747,0.067-1.132c-1.42-1.825-2.99-3.517-4.699-5.072
				c-0.387-6.584-0.595-13.177-0.624-19.772c-0.001-0.206-0.067-0.37-0.171-0.493c0.257-0.585-0.407-1.414-1.138-1.021
				c-1.027,0.552-2.147,0.674-3.271,0.375c-0.896-0.239-1.326,1-0.659,1.426c-1.136,2.655-3.43,4.883-5.314,7.014
				c-2.01,2.274-4.086,4.488-6.219,6.648c-0.461,0.467-0.164,1.095,0.298,1.294c-0.012,0.09-0.008,0.187,0.014,0.291
				c0.193,0.875,0.456,1.729,0.748,2.574c2.118,8.457,3.714,17.033,5.111,25.636c0.744,4.581,1.433,9.171,2.12,13.761
				c0.696,4.648,1.321,9.266,0.949,13.976c-0.409,5.181-1.709,10.24-2.988,15.26c-0.203,0.798,0.751,1.226,1.26,0.844
				c0.105,0.069,0.231,0.117,0.379,0.131c8.623,0.857,17.307,0.936,25.944,0.237c0.226-0.018,0.402-0.112,0.527-0.246
				C157.692,201.07,158.357,200.459,157.982,199.796z"/>
			<g>
				<path style="fill:#E6E1C8;" d="M121.274,415.546c-1.199-2.981-2.537-5.902-4.012-8.757c-0.356-0.689-1.229-0.392-1.425,0.186
					c-0.127-0.001-0.261,0.033-0.398,0.112c-3.87,2.23-8.367,2.731-12.759,2.449c-2.244-0.144-4.47-0.486-6.672-0.937
					c-2.299-0.472-4.568-1.099-6.631-2.244c-0.109-0.061-0.217-0.093-0.32-0.103c-0.091-0.048-0.189-0.083-0.29-0.099
					c-0.017-0.085-0.037-0.169-0.054-0.254c-0.198-1-1.726-0.577-1.529,0.422c0.429,2.172,1.07,4.313,1.851,6.411
					c1.979,7.275,6.022,13.938,11.681,18.991c0.257,0.23,0.557,0.253,0.811,0.157c0.478,0.35,0.972,0.681,1.484,0.99
					c4.049,2.444,9.122,3.447,13.585,1.539c3.995-1.708,7.116-5.496,7.091-9.968C123.67,421.349,122.408,418.368,121.274,415.546z"
					/>
				<path style="fill:#0D0E1B;" d="M121.136,422.545c-1.58,1.745-3.65,2.866-5.854,3.633c-2.275,0.792-4.675,1.328-7.078,1.518
					c-4.876,0.384-9.735-0.824-13.074-4.582c-0.679-0.764-1.798,0.36-1.121,1.121c3.594,4.046,8.933,5.461,14.195,5.047
					c4.91-0.387,10.632-1.836,14.054-5.615C122.941,422.912,121.823,421.787,121.136,422.545z"/>
			</g>
			<g>
				<path style="fill:#E6E1C8;" d="M201.932,414.578c0.898-1.168,0.831-2.792,0.177-4.061c-0.712-1.381-2.079-2.292-3.364-3.085
					c-2.972-1.832-6.175-3.278-9.499-4.342c-1.102-0.478-2.241-0.355-3.398-0.065c-1.416,0.355-2.818,0.742-4.247,1.044
					c-2.881,0.608-5.8,1.011-8.738,1.209c-5.9,0.398-11.835-0.02-17.619-1.249c-0.167-0.036-0.318-0.021-0.449,0.027
					c-0.479-0.163-1.083,0.072-1.031,0.711c0.188,2.298,0.376,4.596,0.565,6.894c0.043,0.525,0.492,0.779,0.901,0.759
					c0.057,0.066,0.13,0.127,0.22,0.179c5.766,3.263,12.117,5.362,18.63,6.51c3.292,0.58,6.624,0.936,9.962,1.1
					c3.321,0.163,6.722,0.244,10.036-0.07c3.262-0.309,6.812-1.645,7.822-5.092c0.048-0.163,0.045-0.31,0.006-0.438
					C201.915,414.599,201.924,414.589,201.932,414.578z"/>
				<path style="fill:#0D0E1B;" d="M198.837,411.483c-1.933,1.643-4.59,1.91-7.028,1.97c-2.924,0.073-5.86-0.016-8.78-0.173
					c-6.054-0.327-12.082-1.079-18.03-2.253c-3.332-0.657-6.636-1.448-9.908-2.361c-0.985-0.275-1.405,1.255-0.422,1.529
					c12.008,3.349,24.658,5.154,37.139,4.844c2.903-0.072,5.866-0.494,8.149-2.435C200.737,411.943,199.611,410.826,198.837,411.483
					z"/>
			</g>
			<g>
				<path style="fill:#FFBC44;" d="M189.516,368.77c-1.27-10.522-2.417-21.059-3.422-31.61c-2.001-20.998-3.465-42.048-4.39-63.122
					c-0.511-11.635-0.855-23.278-1.038-34.923c0.305-0.145,0.513-0.461,0.374-0.881c-3.57-10.833-9.616-21.184-16.416-30.343
					c-1.913-2.576-3.181-4.968-5.314-7.365c-0.152-0.171-0.326-0.247-0.496-0.254c-0.09-0.106-0.217-0.192-0.387-0.239
					c-2.132-0.595-4.315-0.425-6.493-0.249c-2.448,0.197-4.902,0.296-7.357,0.33c-2.413,0.033-4.826,0.01-7.239-0.021
					c-2.437-0.031-4.893-0.014-7.311-0.367c-0.469-0.068-0.813,0.233-0.941,0.586c-0.33-0.021-0.659,0.146-0.759,0.564
					c-2.39,9.957-6.437,19.451-11.959,28.071c-0.714-0.52-1.428-1.041-2.142-1.561c-0.002-0.002-0.004-0.003-0.007-0.004
					c-0.054-0.058-0.116-0.109-0.182-0.15c-0.234-0.415-0.814-0.651-1.248-0.212c-4.443,4.487-8.887,8.975-13.331,13.462
					c-0.262,0.264-0.279,0.581-0.161,0.842c-0.992,0.977-1.993,1.955-2.899,3.003c-1.144,1.323-1.666,2.784-1.927,4.497
					c-0.299,1.964-0.556,3.936-0.812,5.906c-0.513,3.94-0.967,7.887-1.363,11.841c-0.448,4.474-0.818,8.955-1.117,13.441
					c-0.017,0.26,0.073,0.453,0.218,0.579c-0.532,15.459-1.17,30.915-1.918,46.365c-0.785,16.214-1.688,32.423-2.711,48.624
					c-0.562,8.911-1.161,17.82-1.795,26.726c-0.434,0.228-0.682,0.815-0.22,1.243c1.71,1.585,3.65,2.871,5.789,3.799
					c0.369,0.16,0.72,0.039,0.949-0.189c3.245,1.526,6.992,1.827,10.592,1.528c2.085-0.173,4.167-0.482,6.234-0.837
					c0.105,0.061,0.232,0.099,0.381,0.103c3.408,0.097,6.719-0.756,9.983-1.634c0.345-0.093,0.517-0.341,0.554-0.613
					c0.009-0.032,0.016-0.065,0.021-0.1c2.967-19.313,6.15-38.592,9.55-57.834c3.382-19.138,6.979-38.239,10.789-57.297
					c0.613-3.067,1.234-6.133,1.858-9.198c0.942,12.289,1.883,24.579,2.825,36.868c1.349,17.602,2.697,35.204,4.046,52.806
					l2.236,29.184c-0.406,0.291-0.555,1.007-0.005,1.379c8.863,6.001,20.16,5.494,30.111,2.995c3.172-0.797,6.291-1.785,9.395-2.81
					c0.318-0.105,0.486-0.342,0.533-0.602c0.39-0.01,0.787-0.264,0.818-0.762C192.066,389.771,190.78,379.239,189.516,368.77z"/>
				<path style="fill:#0D0E1B;" d="M153.121,260.615c-6.353,0.339-12.706,0.678-19.06,1.017c-1.015,0.054-1.021,1.64,0,1.586
					c2.473-0.132,4.945-0.264,7.418-0.396c0,0.007-0.001,0.013-0.001,0.02c0.131,6.091-0.137,12.183-0.804,18.24
					c-0.111,1.013,1.475,1.005,1.586,0c0.666-6.056,0.935-12.148,0.804-18.24c-0.001-0.036-0.004-0.071-0.009-0.104
					c3.355-0.179,6.71-0.358,10.065-0.537C154.136,262.146,154.142,260.56,153.121,260.615z"/>
				<path style="fill:#0D0E1B;" d="M159.689,207.785c-2.668,0.336-5.344,0.593-8.025,0.779c-0.286-2.025-0.573-4.049-0.859-6.074
					c-0.016-0.115-0.051-0.211-0.1-0.29c1.476-0.149,2.946-0.364,4.407-0.667c0.999-0.207,0.576-1.736-0.422-1.529
					c-7.668,1.59-15.651,0.704-23.396,0.275c-1.02-0.056-1.016,1.529,0,1.586c0.619,0.034,1.239,0.071,1.86,0.109
					c0.089,2.14,0.386,4.261,0.895,6.342c0.046,0.188,0.139,0.326,0.257,0.418c-1.813-0.091-3.624-0.214-5.433-0.374
					c-1.016-0.09-1.01,1.497,0,1.586c7.161,0.631,14.359,0.725,21.528,0.289c0.274,0.351,0.858,0.271,1.178-0.077
					c2.709-0.187,5.413-0.448,8.109-0.787C160.688,209.245,160.701,207.657,159.689,207.785z M135.182,208.775
					c0.292-0.155,0.497-0.467,0.396-0.88c-0.468-1.916-0.745-3.854-0.833-5.822c0.644,0.04,1.289,0.081,1.934,0.119
					c0.254,2.221,0.508,4.442,0.762,6.663C136.688,208.833,135.935,208.808,135.182,208.775z M139.03,208.892
					c-0.252-2.203-0.504-4.406-0.755-6.609c1.649,0.09,3.301,0.159,4.951,0.186c-0.062,0.086-0.107,0.195-0.126,0.332
					c-0.281,2.05-0.239,4.083,0.154,6.103C141.846,208.92,140.438,208.917,139.03,208.892z M144.629,203.223
					c0.043-0.311-0.077-0.567-0.265-0.742c1.687,0.006,3.372-0.042,5.05-0.168c-0.111,0.161-0.171,0.363-0.137,0.598
					c0.271,1.918,0.542,3.836,0.814,5.753c-1.741,0.102-3.483,0.173-5.226,0.212C144.462,207.02,144.37,205.11,144.629,203.223z"/>
				<path style="fill:#0D0E1B;" d="M116.799,405.312c-8.869,3.873-19.345,3.753-28.129-0.303c-0.92-0.425-1.727,0.941-0.8,1.369
					c9.353,4.32,20.29,4.425,29.73,0.303C118.533,406.274,117.726,404.907,116.799,405.312z"/>
				<path style="fill:#0D0E1B;" d="M181.648,402.997c-2,1.046-4.234,1.503-6.46,1.765c-2.337,0.276-4.695,0.377-7.048,0.313
					c-4.742-0.131-9.432-0.976-13.936-2.462c-0.971-0.32-1.388,1.211-0.421,1.529c4.724,1.558,9.676,2.418,14.651,2.526
					c2.439,0.052,4.881-0.074,7.3-0.388c2.333-0.302,4.615-0.817,6.714-1.914C183.354,403.893,182.553,402.524,181.648,402.997z"/>
			</g>
			<g>
				<path style="fill:#EDBA98;" d="M144.415,93.199c0.495-4.861,1.001-10.002-0.773-14.678c-1.483-3.911-4.44-7.284-8.653-8.22
					c-8.82-1.961-16.56,5.731-19.112,13.501c-1.247,3.798-1.479,7.922-0.61,11.821c-0.487-0.055-1.068,0.347-0.94,0.987
					c0.954,4.769,4.541,8.043,8.79,9.921c0.006,0.234,0.116,0.467,0.374,0.626c2.4,1.478,4.801,2.955,7.202,4.432
					c1.083,0.667,2.066,1.317,3.355,1.472c1.382,0.166,2.795,0.177,4.185,0.161c0.52-0.006,0.775-0.42,0.765-0.824
					c0.172-0.126,0.287-0.33,0.277-0.613c-0.027-0.8-0.035-1.6-0.026-2.399c0.084-0.062,0.159-0.148,0.22-0.261
					c0.53-0.977,0.945-2.007,1.232-3.081c0.026-0.099,0.034-0.192,0.027-0.279c1.714-1.331,3.012-3.134,3.65-5.261
					c0.668-2.225,0.61-4.656-0.163-6.837C144.321,93.547,144.395,93.392,144.415,93.199z"/>
				<path style="fill:#0D0E1B;" d="M150.604,85.623c-0.247-1.421-1.063-2.657-2.03-3.808c-0.136-0.231-0.281-0.459-0.437-0.681
					c-0.771-1.103-1.516-2.084-1.966-3.366c-0.4-1.139-0.667-2.331-1.203-3.419c-0.538-1.092-1.286-1.973-2.344-2.592
					c-1.138-0.665-2.443-0.975-3.661-1.459c-1.783-0.71-3.47-1.621-5.116-2.605c-0.123-0.117-0.247-0.232-0.374-0.345
					c-1.066-0.952-2.344-1.97-3.698-2.471c-1.367-0.506-2.983-0.241-4.366,0.074c-1.59,0.362-3.069,0.999-4.448,1.865
					c-0.129,0.081-0.217,0.179-0.273,0.285c-0.787-0.204-1.586-0.352-2.396-0.413c-3.088-0.232-6.324,0.835-7.959,3.611
					c-0.108,0.183-0.207,0.374-0.302,0.567c-0.695,0.318-1.401,0.615-2.092,0.946c-1.517,0.728-2.897,1.649-3.992,2.941
					c-2.178,2.568-2.708,5.922-3.07,9.163c-0.411,0.111-0.813,0.249-1.198,0.469c-0.67,0.382-1.245,0.928-1.679,1.564
					c-0.97,1.422-1.251,3.201-0.678,4.832c0.041,0.118,0.1,0.213,0.171,0.287c0.039,0.119,0.12,0.231,0.25,0.327
					c-0.166,0.339-0.14,0.794,0.246,1.076c5.556,4.069,11.952,6.845,18.679,8.192c-0.033,0.05-0.062,0.103-0.089,0.158
					c0.604,0.088,1.196,0.22,1.778,0.387c0.04-0.071,0.07-0.146,0.088-0.225c0.692,0.112,1.387,0.21,2.084,0.291
					c0.269,0.031,0.488-0.109,0.626-0.314c0.116-0.043,0.225-0.112,0.317-0.201c0.302-0.147,0.508-0.462,0.375-0.881
					c-0.572-1.809-0.952-3.654-1.137-5.533c0.025-0.804,0.163-1.59,0.497-2.352c3.517-1.662,5.439-5.81,3.906-9.679
					c-0.48-1.211-1.066-2.21-0.083-3.34c0.803-0.922,2.01-1.381,2.938-2.155c1.034-0.862,1.753-2.023,2.089-3.292
					c1.146,1.414,2.793,2.257,4.49,2.999c1.987,0.869,4.515,1.887,5.057,4.241c0.282,1.224,0.132,2.502,0.468,3.72
					c0.312,1.132,1.044,1.952,1.929,2.69c0.964,0.803,1.829,1.524,2.109,2.808c0.249,1.141,0.104,2.337-0.079,3.486
					c-0.215,0.803-0.291,1.634-0.219,2.466c0.032,0.363,0.258,0.596,0.529,0.699c0.282,0.263,0.725,0.346,1.072-0.01
					c1.645-1.687,3.204-3.556,4.441-5.566C150.862,89.43,151.457,87.403,150.604,85.623z"/>
				<path style="fill:#0D0E1B;" d="M127.485,88.454c-0.214-0.144-0.502-0.193-0.729-0.101c-0.179,0.073-0.309,0.189-0.395,0.329
					c-0.077,0.077-0.144,0.165-0.197,0.264c-0.196,0.374-0.145,0.775-0.019,1.161c0.094,0.288,0.385,0.482,0.685,0.521
					c0.297,0.1,0.632,0,0.862-0.231c0.269-0.269,0.463-0.634,0.435-1.025C128.1,88.97,127.854,88.611,127.485,88.454z"/>
				<path style="fill:#0D0E1B;" d="M140.713,87.946c-0.146-0.207-0.447-0.395-0.712-0.34c-0.134,0.027-0.256,0.061-0.368,0.115
					c-0.128,0.035-0.244,0.103-0.336,0.201c-0.018,0.011-0.036,0.023-0.054,0.037c-0.395,0.304-0.523,0.801-0.293,1.249
					c0.191,0.371,0.585,0.635,1.015,0.598c0.477-0.041,0.827-0.403,0.945-0.85C140.999,88.617,140.912,88.228,140.713,87.946z"/>
				<path style="fill:#0D0E1B;" d="M135.66,89.855c-0.283-0.98-1.776-0.444-1.493,0.535c0.279,0.968,0.327,1.948,0.159,2.94
					c-0.171,1.006,1.385,1.313,1.556,0.306C136.098,92.357,136.019,91.101,135.66,89.855z"/>
				<path style="fill:#0D0E1B;" d="M136.923,96.306c-1.147,0.59-2.503,0.631-3.694,0.156c-0.944-0.376-1.645,1.047-0.696,1.425
					c1.774,0.707,3.598,0.595,5.29-0.275C138.728,97.146,137.821,95.844,136.923,96.306z"/>
			</g>
			<g>
				<path style="fill:#006A5B;" d="M185.87,188.009c0.558-5.941,1.116-11.883,1.675-17.825c0.28-2.976,0.683-5.971,0.769-8.961
					c0.083-2.92-0.656-5.563-1.556-8.31c-0.463-1.413-0.925-2.826-1.388-4.238l-1.128-15.527c-0.007-0.098-0.029-0.187-0.062-0.266
					c-0.468-4.379-2.351-8.551-5.419-11.74c-3.469-3.605-8.203-6.056-12.885-7.682c-2.786-0.967-5.665-1.595-8.592-1.94
					c-0.177-0.021-0.322,0.011-0.437,0.078c-3.144-2.32-6.56-4.208-10.183-5.671c-0.424-0.423-0.975-0.725-1.558-0.854
					c-0.129-0.941-0.257-1.881-0.386-2.822c-0.095-0.694-1.146-0.741-1.449-0.189c-0.656,1.193-1.313,2.386-1.969,3.579
					c-0.593,1.078-1.236,2.161-1.58,3.351c-0.686,2.373-0.329,5.056-0.276,7.49c0.118,5.383,0.235,10.766,0.353,16.149
					c0.009,0.395,0.253,0.637,0.547,0.726c0.627,0.764,1.395,1.327,2.247,1.842c0.913,0.552,1.953,1.057,2.597,1.942
					c0.757,1.041,0.775,2.418,0.737,3.651c-0.047,1.51-0.159,3.021-0.249,4.53c-0.374,6.296-0.833,12.588-1.375,18.872
					c-0.307,3.561-0.642,7.12-1.002,10.676c-0.042,0.413,0.196,0.656,0.499,0.732c8.969,16.32,20.345,31.143,29.843,47.141
					c2.768,4.663,5.247,9.393,6.758,14.624c0.042,0.147,0.113,0.262,0.201,0.348c-0.458,0.709,0.563,1.639,1.244,0.972
					c1.216-1.192,2.433-2.385,3.649-3.577c0.516-0.506,1.016-0.949,1.082-1.705c0.073-0.828-0.11-1.728-0.199-2.551
					c-0.382-3.503-0.952-6.983-1.704-10.425c-0.022-0.102-0.059-0.189-0.106-0.262c0.697-2.759,1.393-5.518,2.089-8.277
					c0.738-2.923,1.587-5.848,1.936-8.85C189.195,197.852,187.664,192.829,185.87,188.009z"/>
				<path style="fill:#0D0E1B;" d="M180.507,235.825c-2.297-8.373-6.989-15.762-11.913-22.814
					c-5.27-7.548-10.546-15.07-15.466-22.855c-2.868-4.538-5.646-9.133-8.339-13.778c-0.157-0.27-0.394-0.382-0.633-0.383
					c0.492-10.922,1.038-21.842,1.64-32.759c0.174-3.148,0.352-6.296,0.535-9.443c0.059-1.02-1.527-1.016-1.586,0
					c-0.052,0.892-0.101,1.784-0.152,2.675c-0.941-1.136-1.95-2.206-3.032-3.205c-0.139-2.951-0.278-5.903-0.416-8.854
					c2.594-2.853,3.82-6.554,4.291-10.333c0.559-4.491,0.29-9.14-0.062-13.638c-0.066-0.845-1.185-0.989-1.504-0.419
					c-0.319-0.125-0.689-0.053-0.877,0.354c-1.147,2.474-2.457,4.932-3.408,7.49c-0.979,2.635-0.545,5.515-0.416,8.258l0.758,16.111
					c-0.57,0.117-0.996,0.828-0.437,1.306c1.568,1.339,3,2.814,4.291,4.422c0.213,0.265,0.478,0.316,0.714,0.238
					c-0.547,9.654-1.055,19.31-1.516,28.969c-0.15,3.149-0.296,6.299-0.437,9.449c-0.027,0.606,0.521,0.851,0.98,0.738
					c4.694,8.09,9.654,16.026,14.879,23.784c4.935,7.326,10.425,14.333,14.868,21.979c2.408,4.145,4.438,8.499,5.709,13.132
					C179.247,237.229,180.777,236.812,180.507,235.825z M140.785,116.752c-0.064-1.365-0.131-2.73-0.192-4.096
					c-0.061-1.361-0.054-2.66,0.379-3.966c0.417-1.254,1.038-2.443,1.593-3.64c0.45-0.97,0.899-1.94,1.349-2.91
					c0.253,3.665,0.378,7.386,0.034,11.034c-0.294,3.117-1.126,6.267-2.916,8.842C140.95,120.261,140.868,118.506,140.785,116.752z"
					/>
				<path style="fill:#0D0E1B;" d="M186.702,231.574c-0.907-6.105-1.814-12.209-2.721-18.314c-0.433-2.915-0.792-5.854-1.347-8.75
					c-0.501-2.615-1.314-5.157-2.83-7.37c-1.439-2.101-3.289-3.888-4.688-6.017c-0.357-0.544-0.655-1.102-0.909-1.674
					c0.026-0.035,0.051-0.072,0.073-0.115c1.897-3.605,5.134-6.356,9.02-7.598c0.968-0.309,0.554-1.841-0.422-1.529
					c-3.878,1.24-7.219,3.83-9.362,7.273c-0.348-1.299-0.527-2.649-0.635-4.034c0.218-0.016,0.426-0.136,0.558-0.4
					c1.828-3.664,6.149-4.938,9.287-7.178c0.739-0.528,1.609-1.122,1.699-2.107c0.085-0.932-0.513-1.802-1.328-2.212
					c-1.907-0.958-4.684,0.433-6.348,1.4c-1.685,0.979-3.152,2.287-4.333,3.826c-0.263-4.029-0.504-8.059-0.767-12.087
					c-0.209-3.196-0.418-6.392-0.627-9.587c0.114-0.138,0.186-0.31,0.186-0.497c0-0.225-0.1-0.43-0.256-0.575l-0.673-10.295
					c-0.066-1.013-1.652-1.021-1.586,0c0.22,3.359,0.439,6.718,0.659,10.077h-0.267c-0.429,0-0.793,0.364-0.793,0.793
					c0,0.43,0.363,0.793,0.793,0.793h0.37c0.313,4.792,0.626,9.585,0.94,14.377h-1.31c-0.429,0-0.793,0.364-0.793,0.793
					c0,0.43,0.363,0.793,0.793,0.793h1.33c0.028,0,0.055-0.006,0.083-0.009c0.215,3.294,0.431,6.587,0.646,9.881
					c0.188,2.87,0.295,5.831,1.431,8.517c0.966,2.285,2.627,4.15,4.193,6.037c1.727,2.08,3.077,4.219,3.807,6.846
					c0.775,2.791,1.082,5.71,1.507,8.568c1.03,6.932,2.06,13.865,3.09,20.797C185.323,233.002,186.851,232.574,186.702,231.574z
					 M172.576,179.153c0.124-0.059,0.238-0.157,0.328-0.303c1.265-2.047,3.049-3.711,5.181-4.829
					c1.019-0.534,2.265-1.092,3.429-1.176c0.432-0.032,1.362,0.077,1.341,0.72c-0.014,0.431-0.813,0.853-1.11,1.06
					c-3.022,2.103-6.878,3.448-9.03,6.538C172.667,180.493,172.621,179.823,172.576,179.153z"/>
				<path style="fill:#0D0E1B;" d="M182.643,164.161c-1.949-0.45-3.935-0.395-5.849,0.192c-0.973,0.299-0.558,1.83,0.421,1.529
					c1.644-0.505,3.329-0.58,5.007-0.192C183.214,165.919,183.638,164.391,182.643,164.161z"/>
			</g>
			<g>
				<g>
					<path style="fill:#006A5B;" d="M133.537,112.975c-1.164-1.035-2.524-1.727-3.902-2.43c-1.475-0.752-2.918-1.564-4.322-2.439
						c-1.367-0.852-2.697-1.762-3.987-2.726c-0.704-0.527-1.395-1.072-2.072-1.634c-0.434-0.36-1.577-1.069-1.428-1.733
						c0.192-0.851-0.902-1.284-1.361-0.764c-0.168,0.048-0.32,0.168-0.421,0.384c-1.613,3.45-2.962,7.012-4.027,10.664
						c-5.813,2.112-11.627,4.286-17.122,7.142c-2.936,1.526-5.775,3.25-8.417,5.246c-2.595,1.96-4.906,4.116-6.226,7.147
						c-1.414,3.248-1.881,6.799-3.167,10.092c-0.006,0.015-0.01,0.03-0.015,0.044c-0.116,0.088-0.213,0.213-0.272,0.382
						c-3.764,10.728-6.239,21.887-7.377,33.199c-0.326,3.246-0.538,6.503-0.643,9.764c-0.001,0.043,0.001,0.083,0.005,0.122
						c-3.032,6.55-4.994,13.789-4.123,21.047c0.42,3.495,1.434,6.92,3.187,9.985c1.664,2.91,3.994,5.351,6.471,7.581
						c0.527,0.474,1.06,0.941,1.596,1.405c-3.907,7.919-6.752,16.345-8.425,25.021c-0.062,0.322,0.056,0.585,0.25,0.759
						c0.776,2.689,2.422,5.01,4.013,7.277c1.712,2.439,3.515,4.816,5.399,7.125c3.414,4.184,7.075,8.489,12.169,10.625
						c0.074,0.031,0.145,0.049,0.212,0.058c0.404,0.169,0.919,0.051,1.039-0.497c2.344-10.697,4.006-21.538,4.983-32.446
						c0-0.001,0-0.002,0-0.003c5.357-6.215,10.902-12.265,16.629-18.141c1.24,1.251,2.48,2.503,3.72,3.754
						c0.39,0.393,0.897,0.244,1.166-0.09c0.201-0.03,0.393-0.145,0.527-0.374c3.514-6.007,6.092-12.501,8.267-19.098
						c1.096-3.325,2.095-6.682,3.078-10.042c1.005-3.435,2.062-6.851,2.336-10.439c0.322-4.234,0.237-8.523,0.318-12.768
						c0.009-0.487-0.346-0.741-0.723-0.763c-0.953-12.412-2.702-24.827-5.509-36.937c-0.819-3.535-1.855-7.023-3.418-10.303
						c0.107-0.06,0.206-0.152,0.285-0.28c1.481-2.385,3.322-4.496,5.203-6.57c1.996-2.2,4-4.394,6-6.59
						c0.218-0.24,0.253-0.517,0.178-0.759C133.84,113.692,133.889,113.287,133.537,112.975z"/>
					<path style="fill:#0D0E1B;" d="M134.245,113.02c-0.281-0.61-0.984-0.809-1.287-1.37c-0.154-0.286-0.398-0.4-0.644-0.393
						c-2.556-1.593-5.122-3.171-7.665-4.785c-1.215-0.771-2.419-1.561-3.587-2.402c-0.567-0.409-1.126-0.828-1.67-1.267
						c-0.235-0.19-1.331-1.284-1.465-1.236c0.204-0.073,0.344-0.202,0.431-0.355c-0.581-0.167-1.174-0.299-1.778-0.387
						c-0.086,0.178-0.137,0.379-0.147,0.603c-0.031,0.735,0.433,1.298,0.953,1.761c0.506,0.449,1.032,0.879,1.571,1.295
						c-0.051,0.055-0.097,0.122-0.135,0.202c-2.027,4.239-3.974,8.515-5.846,12.824c-0.256-0.513-0.495-1.034-0.713-1.565
						c-0.382-0.931-1.917-0.523-1.529,0.422c2.105,5.121,5.735,9.459,10.442,12.387c0.035,0.022,0.07,0.04,0.105,0.056
						c0.813,2.139,1.627,4.277,2.44,6.416c0.359,0.945,1.893,0.535,1.529-0.422c-0.807-2.122-1.614-4.244-2.421-6.366
						c2.633-2.804,5.142-5.721,7.507-8.755c1.189-1.524,2.351-3.072,3.466-4.651C134.234,114.418,134.589,113.766,134.245,113.02z
						 M115.461,121.475c0.123-0.062,0.235-0.167,0.319-0.325c2.308-4.347,4.863-8.556,7.652-12.611
						c0.58-0.843-0.794-1.637-1.369-0.8c-2.748,3.994-5.266,8.139-7.547,12.417c-0.199-0.298-0.394-0.599-0.58-0.906
						c1.997-4.629,4.082-9.218,6.257-13.766c0.011-0.023,0.02-0.046,0.029-0.068c0.521,0.372,1.048,0.734,1.577,1.089
						c1.347,0.906,2.717,1.78,4.094,2.642c-0.296-0.066-0.625,0.021-0.833,0.349c-2.818,4.453-5.635,8.905-8.453,13.358
						C116.208,122.408,115.825,121.949,115.461,121.475z M131.573,115.426c-1.058,1.454-2.148,2.885-3.271,4.291
						c-2.075,2.597-4.258,5.107-6.532,7.532c-0.46-0.292-0.908-0.602-1.346-0.924c2.979-4.368,5.959-8.737,8.939-13.105
						c0.577-0.845-0.797-1.639-1.369-0.8l-8.818,12.927c-0.498-0.418-0.98-0.855-1.443-1.311c2.898-4.58,5.797-9.16,8.695-13.74
						c0.196-0.31,0.145-0.611-0.026-0.831c1.741,1.084,3.492,2.151,5.231,3.234c0.06,0.037,0.12,0.065,0.179,0.085
						c0.089,0.111,0.187,0.214,0.294,0.312c0.164,0.15,0.562,0.317,0.648,0.524C132.877,113.92,131.788,115.131,131.573,115.426z"/>
					<path style="fill:#0D0E1B;" d="M98.259,182.392c-1.823-7.35-4.567-14.852-10.831-19.567c-0.815-0.614-1.607,0.762-0.8,1.369
						c5.895,4.437,8.395,11.734,10.102,18.619C96.975,183.803,98.505,183.384,98.259,182.392z"/>
					<path style="fill:#0D0E1B;" d="M93.857,185.214c-3.249-3.73-7.599-6.397-12.391-7.618c-0.989-0.252-1.411,1.277-0.422,1.529
						c4.548,1.159,8.609,3.672,11.691,7.21C93.407,187.106,94.525,185.981,93.857,185.214z"/>
					<path style="fill:#0D0E1B;" d="M89.595,176.685c-2.641-2.594-6.08-4.143-9.765-4.447c-1.017-0.084-1.012,1.502,0,1.586
						c3.257,0.269,6.316,1.696,8.644,3.983C89.202,178.522,90.325,177.402,89.595,176.685z"/>
					<path style="fill:#0D0E1B;" d="M112.973,224.402c-0.039,0.041-0.079,0.081-0.118,0.122c-0.03-0.111-0.085-0.221-0.172-0.325
						c-4.671-5.531-7.698-12.333-11.824-18.242c0.147-0.09,0.261-0.244,0.306-0.472c0.445-2.263,0.648-4.567,0.552-6.873
						c-0.047-1.112-0.162-2.22-0.333-3.32c-0.184-1.182-0.691-2.439-0.385-3.624c0.536-2.076,0.98-4.064,0.935-6.227
						c-0.044-2.12-0.452-4.22-1.2-6.203c0.01-0.032,0.019-0.065,0.026-0.101c0.852-4.367,0.84-8.851-0.092-13.205
						c-0.457-2.136-1.151-4.237-1.22-6.437c-0.003-0.086-0.005-0.172-0.006-0.258c0.296-0.015,0.575-0.187,0.67-0.563
						c0.86-3.409,1.72-6.817,2.58-10.226c0.428-1.695,0.873-3.387,1.28-5.087c0.341-1.424,0.643-2.921,0.532-4.393
						c-0.081-1.076-0.347-2.984-1.514-3.441c-1.309-0.513-2.125,1.108-2.578,2.033c-1.275,2.603-1.792,5.459-2.074,8.322
						c-0.16,1.627-0.244,3.262-0.354,4.895c-0.998-4.549-1.56-9.179-1.675-13.843c-0.025-1.019-1.611-1.023-1.586,0
						c0.142,5.782,0.954,11.533,2.419,17.128c0.001,0.002,0.001,0.004,0.002,0.006c-0.159,0.217-0.2,0.508-0.005,0.809
						c0.143,0.221,0.255,0.45,0.348,0.685c-0.026,0.16-0.051,0.319-0.08,0.478c-0.069,0.391,0.123,0.693,0.393,0.857
						c0.115,1.034,0.019,2.12,0.09,3.142c0.143,2.053,0.74,4.027,1.187,6.025c0.927,4.146,0.969,8.46,0.16,12.629
						c-0.169,0.167-0.244,0.415-0.125,0.718c0.776,1.973,1.212,4.046,1.239,6.169c0.014,1.089-0.066,2.18-0.263,3.251
						c-0.184,0.998-0.567,1.951-0.738,2.946c-0.178,1.036,0.164,2.047,0.354,3.057c0.208,1.101,0.342,2.214,0.406,3.333
						c0.12,2.099-0.002,4.197-0.36,6.265c-1.944-2.57-4.154-4.924-6.883-6.864c-2.359-1.678-5.033-2.907-7.886-3.44
						c-0.997-0.187-1.425,1.341-0.422,1.529c10.957,2.049,16.331,13.143,21.505,21.764c1.654,2.755,3.422,5.44,5.498,7.899
						c0.095,0.112,0.2,0.184,0.307,0.224c-5.706,5.901-11.413,11.801-17.119,17.702c-6.08-5.594-11.625-11.755-16.524-18.408
						c-0.599-0.813-1.976-0.023-1.369,0.8c4.986,6.771,10.602,13.055,16.791,18.747c-0.169,0.175-0.338,0.349-0.507,0.524
						c-0.71,0.734,0.41,1.857,1.121,1.121c6.611-6.836,13.222-13.672,19.833-20.508C114.804,224.79,113.684,223.667,112.973,224.402
						z M99.104,155.402c0.673-4.718,0.37-9.585,1.63-14.205c0.335-1.228,0.789-2.418,1.41-3.531c0.072-0.13,0.238-0.298,0.263-0.435
						c-0.001,0.004,0.011-0.078,0.01-0.158c0.098,0.212,0.24,0.597,0.267,0.683c0.204,0.656,0.267,1.328,0.253,2.013
						c-0.028,1.353-0.367,2.678-0.695,3.984c-0.372,1.476-0.745,2.951-1.117,4.426c-0.64,2.536-1.28,5.072-1.92,7.608
						C99.176,155.657,99.141,155.529,99.104,155.402z"/>
				</g>
				<path style="fill:#0D0E1B;" d="M131.954,176.092c-0.551-5.274-1.295-10.533-2.047-15.781
					c-0.862-6.019-1.811-12.025-2.841-18.018c-0.173-1.004-1.701-0.578-1.529,0.422c1.8,10.469,3.39,20.987,4.626,31.538
					c0.601,5.128,0.935,10.285,0.166,15.415c-0.747,4.985-2.253,9.818-3.931,14.558c-1.966,5.555-4.065,11.065-6.109,16.592
					c-0.354,0.958,1.178,1.372,1.529,0.421c1.838-4.97,3.7-9.931,5.507-14.912c1.75-4.825,3.384-9.721,4.294-14.783
					C132.542,186.403,132.495,181.271,131.954,176.092z"/>
			</g>
		</g>
	</g>
</g>
<text x="500" y="480" fill="#636363" font-size="5"> pikisuperstar  Freepik</text>
</svg>
