<?xml version="1.0" encoding="utf-8"?>
<!-- Generator: Adobe Illustrator 27.5.0, SVG Export Plug-In . SVG Version: 6.00 Build 0)  -->
<svg version="1.1" xmlns="http://www.w3.org/2000/svg" xmlns:xlink="http://www.w3.org/1999/xlink" x="0px" y="0px"
	 viewBox="0 0 750 500" style="enable-background:new 0 0 750 500;" xml:space="preserve">
<g id="Background_Simple">
	<g>
		<path style="fill:#92E3A9;" d="M67.328,423.628c0.153,0.095,0.307,0.171,0.459,0.263h660.573c2.273-2.325,4.004-5.362,4.985-9.217
			c5.026-19.752-2.271-42.378-15.183-57.605c-5.839-6.886-13.064-12.725-17.499-20.589c-6.861-12.165-5.957-26.981-6.5-40.937
			c-1.659-42.614-18.047-78.4-43.567-107.751c-17.429-20.045-39.117-37.089-63.281-51.256c-19.129-11.215-39.628-20.31-61.15-25.8
			c-139.866-35.68-248.16-7.386-288.782,27.327c-40.621,34.713-13.294,47.269-91.583,90.844
			c-30.567,17.014-66.81,28.999-94.465,50.723c-28.712,22.554-37.364,63.618-24.578,97.218
			C34.51,397.22,49.111,412.275,67.328,423.628z"/>
		<path style="opacity:0.7;fill:#FFFFFF;" d="M67.328,423.628c0.153,0.095,0.307,0.171,0.459,0.263h660.573
			c2.273-2.325,4.004-5.362,4.985-9.217c5.026-19.752-2.271-42.378-15.183-57.605c-5.839-6.886-13.064-12.725-17.499-20.589
			c-6.861-12.165-5.957-26.981-6.5-40.937c-1.659-42.614-18.047-78.4-43.567-107.751c-17.429-20.045-39.117-37.089-63.281-51.256
			c-19.129-11.215-39.628-20.31-61.15-25.8c-139.866-35.68-248.16-7.386-288.782,27.327c-40.621,34.713-13.294,47.269-91.583,90.844
			c-30.567,17.014-66.81,28.999-94.465,50.723c-28.712,22.554-37.364,63.618-24.578,97.218
			C34.51,397.22,49.111,412.275,67.328,423.628z"/>
	</g>
</g>
<g id="Clouds">
	<path style="fill:none;stroke:#263238;stroke-linecap:round;stroke-linejoin:round;stroke-miterlimit:10;" d="M477.685,81.181
		c-7.406-8.438-17.439-13.871-29.138-13.438C431.106,68.389,427.23,78.724,424,84.538c-3.23,5.814-0.646,7.752-14.211,4.522
		c-13.565-3.23-17.441-1.292-20.025,3.876c-2.584,5.168,4.522,7.752-10.336,5.814c-14.857-1.938-16.795-3.23-21.317,0.646
		c-4.522,3.876-7.106,7.752-7.106,7.752h151.803c0,0,3.873-8.392-5.158-11.624c-8.104-2.9-11.769-3.316-16.928-10.513
		C479.766,83.677,478.753,82.398,477.685,81.181z"/>
	<path style="fill:none;stroke:#263238;stroke-linecap:round;stroke-linejoin:round;stroke-miterlimit:10;" d="M364.587,127.345
		c-4.004-4.562-9.428-7.5-15.753-7.265c-9.43,0.349-11.525,5.937-13.271,9.08c-1.746,3.143-0.349,4.191-7.683,2.445
		c-7.334-1.746-9.43-0.699-10.827,2.095c-1.397,2.794,2.445,4.191-5.588,3.143c-8.033-1.048-9.08-1.746-11.525,0.349
		c-2.445,2.095-3.842,4.191-3.842,4.191h82.073c0,0,2.094-4.537-2.789-6.285c-4.381-1.568-6.363-1.793-9.152-5.684
		C365.713,128.694,365.165,128.003,364.587,127.345z"/>
	<path style="fill:none;stroke:#263238;stroke-linecap:round;stroke-linejoin:round;stroke-miterlimit:10;" d="M156.767,125.41
		c-2.94-3.349-6.922-5.506-11.566-5.334c-6.923,0.256-8.461,4.359-9.743,6.667c-1.282,2.308-0.256,3.077-5.641,1.795
		c-5.385-1.282-6.923-0.513-7.949,1.538c-1.026,2.051,1.795,3.077-4.103,2.308c-5.897-0.769-6.667-1.282-8.461,0.256
		c-1.795,1.538-2.821,3.077-2.821,3.077h60.256c0,0,1.537-3.331-2.048-4.614c-3.217-1.151-4.672-1.316-6.719-4.173
		C157.594,126.401,157.191,125.893,156.767,125.41z"/>
</g>
<g id="lights">
	<g>
		<polyline style="fill:none;stroke:#263238;stroke-linecap:round;stroke-linejoin:round;stroke-miterlimit:10;" points="
			256.057,172.573 256.057,78.802 249.7,78.802 249.7,172.573 		"/>
		
			<line style="fill:none;stroke:#263238;stroke-linecap:round;stroke-linejoin:round;stroke-miterlimit:10;" x1="212.341" y1="87.872" x2="249.15" y2="87.872"/>
		
			<line style="fill:none;stroke:#263238;stroke-linecap:round;stroke-linejoin:round;stroke-miterlimit:10;" x1="256.965" y1="87.872" x2="293.774" y2="87.872"/>
		
			<line style="fill:none;stroke:#263238;stroke-linecap:round;stroke-linejoin:round;stroke-miterlimit:10;" x1="212.341" y1="99.615" x2="249.15" y2="99.615"/>
		
			<line style="fill:none;stroke:#263238;stroke-linecap:round;stroke-linejoin:round;stroke-miterlimit:10;" x1="256.965" y1="99.615" x2="293.774" y2="99.615"/>
		
			<line style="fill:none;stroke:#263238;stroke-linecap:round;stroke-linejoin:round;stroke-miterlimit:10;" x1="212.341" y1="111.358" x2="249.15" y2="111.358"/>
		
			<line style="fill:none;stroke:#263238;stroke-linecap:round;stroke-linejoin:round;stroke-miterlimit:10;" x1="256.965" y1="111.358" x2="293.774" y2="111.358"/>
		
			<line style="fill:none;stroke:#263238;stroke-linecap:round;stroke-linejoin:round;stroke-miterlimit:10;" x1="212.341" y1="123.101" x2="249.15" y2="123.101"/>
		
			<line style="fill:none;stroke:#263238;stroke-linecap:round;stroke-linejoin:round;stroke-miterlimit:10;" x1="256.965" y1="123.101" x2="293.774" y2="123.101"/>
		<g>
			
				<circle style="fill:none;stroke:#263238;stroke-linecap:round;stroke-linejoin:round;stroke-miterlimit:10;" cx="217.276" cy="93.618" r="3.691"/>
			
				<circle style="fill:none;stroke:#263238;stroke-linecap:round;stroke-linejoin:round;stroke-miterlimit:10;" cx="226.671" cy="93.618" r="3.691"/>
			<path style="fill:none;stroke:#263238;stroke-linecap:round;stroke-linejoin:round;stroke-miterlimit:10;" d="M239.756,93.618
				c0-2.038-1.652-3.691-3.691-3.691s-3.691,1.652-3.691,3.691s1.652,3.691,3.691,3.691S239.756,95.656,239.756,93.618z"/>
			
				<circle style="fill:none;stroke:#263238;stroke-linecap:round;stroke-linejoin:round;stroke-miterlimit:10;" cx="245.459" cy="93.618" r="3.691"/>
		</g>
		<g>
			
				<circle style="fill:none;stroke:#263238;stroke-linecap:round;stroke-linejoin:round;stroke-miterlimit:10;" cx="260.893" cy="93.618" r="3.691"/>
			<path style="fill:none;stroke:#263238;stroke-linecap:round;stroke-linejoin:round;stroke-miterlimit:10;" d="M273.978,93.618
				c0-2.038-1.652-3.691-3.691-3.691c-2.038,0-3.691,1.652-3.691,3.691s1.652,3.691,3.691,3.691
				C272.326,97.309,273.978,95.656,273.978,93.618z"/>
			
				<circle style="fill:none;stroke:#263238;stroke-linecap:round;stroke-linejoin:round;stroke-miterlimit:10;" cx="279.682" cy="93.618" r="3.691"/>
			
				<circle style="fill:none;stroke:#263238;stroke-linecap:round;stroke-linejoin:round;stroke-miterlimit:10;" cx="289.077" cy="93.618" r="3.691"/>
		</g>
		<g>
			
				<circle style="fill:none;stroke:#263238;stroke-linecap:round;stroke-linejoin:round;stroke-miterlimit:10;" cx="217.276" cy="105.697" r="3.691"/>
			
				<circle style="fill:none;stroke:#263238;stroke-linecap:round;stroke-linejoin:round;stroke-miterlimit:10;" cx="226.671" cy="105.697" r="3.691"/>
			<path style="fill:none;stroke:#263238;stroke-linecap:round;stroke-linejoin:round;stroke-miterlimit:10;" d="M239.756,105.697
				c0-2.038-1.652-3.691-3.691-3.691s-3.691,1.652-3.691,3.691s1.652,3.691,3.691,3.691S239.756,107.735,239.756,105.697z"/>
			
				<circle style="fill:none;stroke:#263238;stroke-linecap:round;stroke-linejoin:round;stroke-miterlimit:10;" cx="245.459" cy="105.697" r="3.691"/>
		</g>
		<g>
			
				<circle style="fill:none;stroke:#263238;stroke-linecap:round;stroke-linejoin:round;stroke-miterlimit:10;" cx="260.893" cy="105.697" r="3.691"/>
			<path style="fill:none;stroke:#263238;stroke-linecap:round;stroke-linejoin:round;stroke-miterlimit:10;" d="M273.978,105.697
				c0-2.038-1.652-3.691-3.691-3.691c-2.038,0-3.691,1.652-3.691,3.691s1.652,3.691,3.691,3.691
				C272.326,109.387,273.978,107.735,273.978,105.697z"/>
			
				<circle style="fill:none;stroke:#263238;stroke-linecap:round;stroke-linejoin:round;stroke-miterlimit:10;" cx="279.682" cy="105.697" r="3.691"/>
			
				<circle style="fill:none;stroke:#263238;stroke-linecap:round;stroke-linejoin:round;stroke-miterlimit:10;" cx="289.077" cy="105.697" r="3.691"/>
		</g>
		<g>
			
				<circle style="fill:none;stroke:#263238;stroke-linecap:round;stroke-linejoin:round;stroke-miterlimit:10;" cx="217.276" cy="117.775" r="3.691"/>
			
				<circle style="fill:none;stroke:#263238;stroke-linecap:round;stroke-linejoin:round;stroke-miterlimit:10;" cx="226.671" cy="117.775" r="3.691"/>
			<path style="fill:none;stroke:#263238;stroke-linecap:round;stroke-linejoin:round;stroke-miterlimit:10;" d="M239.756,117.775
				c0-2.038-1.652-3.691-3.691-3.691s-3.691,1.652-3.691,3.691s1.652,3.691,3.691,3.691S239.756,119.814,239.756,117.775z"/>
			
				<circle style="fill:none;stroke:#263238;stroke-linecap:round;stroke-linejoin:round;stroke-miterlimit:10;" cx="245.459" cy="117.775" r="3.691"/>
		</g>
		<g>
			
				<circle style="fill:none;stroke:#263238;stroke-linecap:round;stroke-linejoin:round;stroke-miterlimit:10;" cx="260.893" cy="117.775" r="3.691"/>
			<path style="fill:none;stroke:#263238;stroke-linecap:round;stroke-linejoin:round;stroke-miterlimit:10;" d="M273.978,117.775
				c0-2.038-1.652-3.691-3.691-3.691c-2.038,0-3.691,1.652-3.691,3.691s1.652,3.691,3.691,3.691
				C272.326,121.466,273.978,119.814,273.978,117.775z"/>
			
				<circle style="fill:none;stroke:#263238;stroke-linecap:round;stroke-linejoin:round;stroke-miterlimit:10;" cx="279.682" cy="117.775" r="3.691"/>
			
				<circle style="fill:none;stroke:#263238;stroke-linecap:round;stroke-linejoin:round;stroke-miterlimit:10;" cx="289.077" cy="117.775" r="3.691"/>
		</g>
		<g>
			
				<circle style="fill:none;stroke:#263238;stroke-linecap:round;stroke-linejoin:round;stroke-miterlimit:10;" cx="217.276" cy="129.854" r="3.691"/>
			
				<circle style="fill:none;stroke:#263238;stroke-linecap:round;stroke-linejoin:round;stroke-miterlimit:10;" cx="226.671" cy="129.854" r="3.691"/>
		</g>
		<g>
			
				<circle style="fill:none;stroke:#263238;stroke-linecap:round;stroke-linejoin:round;stroke-miterlimit:10;" cx="279.682" cy="129.854" r="3.691"/>
			
				<circle style="fill:none;stroke:#263238;stroke-linecap:round;stroke-linejoin:round;stroke-miterlimit:10;" cx="289.077" cy="129.854" r="3.691"/>
		</g>
	</g>
	<g>
		<polyline style="fill:none;stroke:#263238;stroke-linecap:round;stroke-linejoin:round;stroke-miterlimit:10;" points="
			587.564,172.573 587.564,78.802 581.206,78.802 581.206,172.573 		"/>
		
			<line style="fill:none;stroke:#263238;stroke-linecap:round;stroke-linejoin:round;stroke-miterlimit:10;" x1="543.847" y1="87.872" x2="580.657" y2="87.872"/>
		
			<line style="fill:none;stroke:#263238;stroke-linecap:round;stroke-linejoin:round;stroke-miterlimit:10;" x1="588.471" y1="87.872" x2="625.28" y2="87.872"/>
		
			<line style="fill:none;stroke:#263238;stroke-linecap:round;stroke-linejoin:round;stroke-miterlimit:10;" x1="543.847" y1="99.615" x2="580.657" y2="99.615"/>
		
			<line style="fill:none;stroke:#263238;stroke-linecap:round;stroke-linejoin:round;stroke-miterlimit:10;" x1="588.471" y1="99.615" x2="625.28" y2="99.615"/>
		
			<line style="fill:none;stroke:#263238;stroke-linecap:round;stroke-linejoin:round;stroke-miterlimit:10;" x1="543.847" y1="111.358" x2="580.657" y2="111.358"/>
		
			<line style="fill:none;stroke:#263238;stroke-linecap:round;stroke-linejoin:round;stroke-miterlimit:10;" x1="588.471" y1="111.358" x2="625.28" y2="111.358"/>
		
			<line style="fill:none;stroke:#263238;stroke-linecap:round;stroke-linejoin:round;stroke-miterlimit:10;" x1="543.847" y1="123.101" x2="580.657" y2="123.101"/>
		
			<line style="fill:none;stroke:#263238;stroke-linecap:round;stroke-linejoin:round;stroke-miterlimit:10;" x1="588.471" y1="123.101" x2="625.28" y2="123.101"/>
		<g>
			
				<circle style="fill:none;stroke:#263238;stroke-linecap:round;stroke-linejoin:round;stroke-miterlimit:10;" cx="548.782" cy="93.618" r="3.691"/>
			<path style="fill:none;stroke:#263238;stroke-linecap:round;stroke-linejoin:round;stroke-miterlimit:10;" d="M561.868,93.618
				c0-2.038-1.652-3.691-3.691-3.691c-2.038,0-3.691,1.652-3.691,3.691s1.652,3.691,3.691,3.691
				C560.215,97.309,561.868,95.656,561.868,93.618z"/>
			
				<circle style="fill:none;stroke:#263238;stroke-linecap:round;stroke-linejoin:round;stroke-miterlimit:10;" cx="567.571" cy="93.618" r="3.691"/>
			
				<circle style="fill:none;stroke:#263238;stroke-linecap:round;stroke-linejoin:round;stroke-miterlimit:10;" cx="576.966" cy="93.618" r="3.691"/>
		</g>
		<g>
			<path style="fill:none;stroke:#263238;stroke-linecap:round;stroke-linejoin:round;stroke-miterlimit:10;" d="M596.09,93.618
				c0-2.038-1.652-3.691-3.691-3.691c-2.038,0-3.691,1.652-3.691,3.691s1.652,3.691,3.691,3.691
				C594.438,97.309,596.09,95.656,596.09,93.618z"/>
			
				<circle style="fill:none;stroke:#263238;stroke-linecap:round;stroke-linejoin:round;stroke-miterlimit:10;" cx="601.794" cy="93.618" r="3.691"/>
			
				<circle style="fill:none;stroke:#263238;stroke-linecap:round;stroke-linejoin:round;stroke-miterlimit:10;" cx="611.189" cy="93.618" r="3.691"/>
			<path style="fill:none;stroke:#263238;stroke-linecap:round;stroke-linejoin:round;stroke-miterlimit:10;" d="M624.274,93.618
				c0-2.038-1.652-3.691-3.691-3.691c-2.038,0-3.691,1.652-3.691,3.691s1.652,3.691,3.691,3.691
				C622.621,97.309,624.274,95.656,624.274,93.618z"/>
		</g>
		<g>
			
				<circle style="fill:none;stroke:#263238;stroke-linecap:round;stroke-linejoin:round;stroke-miterlimit:10;" cx="548.782" cy="105.697" r="3.691"/>
			<path style="fill:none;stroke:#263238;stroke-linecap:round;stroke-linejoin:round;stroke-miterlimit:10;" d="M561.868,105.697
				c0-2.038-1.652-3.691-3.691-3.691c-2.038,0-3.691,1.652-3.691,3.691s1.652,3.691,3.691,3.691
				C560.215,109.387,561.868,107.735,561.868,105.697z"/>
			
				<circle style="fill:none;stroke:#263238;stroke-linecap:round;stroke-linejoin:round;stroke-miterlimit:10;" cx="567.571" cy="105.697" r="3.691"/>
			
				<circle style="fill:none;stroke:#263238;stroke-linecap:round;stroke-linejoin:round;stroke-miterlimit:10;" cx="576.966" cy="105.697" r="3.691"/>
		</g>
		<g>
			<path style="fill:none;stroke:#263238;stroke-linecap:round;stroke-linejoin:round;stroke-miterlimit:10;" d="M596.09,105.697
				c0-2.038-1.652-3.691-3.691-3.691c-2.038,0-3.691,1.652-3.691,3.691s1.652,3.691,3.691,3.691
				C594.438,109.387,596.09,107.735,596.09,105.697z"/>
			
				<circle style="fill:none;stroke:#263238;stroke-linecap:round;stroke-linejoin:round;stroke-miterlimit:10;" cx="601.794" cy="105.697" r="3.691"/>
			
				<circle style="fill:none;stroke:#263238;stroke-linecap:round;stroke-linejoin:round;stroke-miterlimit:10;" cx="611.189" cy="105.697" r="3.691"/>
			<path style="fill:none;stroke:#263238;stroke-linecap:round;stroke-linejoin:round;stroke-miterlimit:10;" d="M624.274,105.697
				c0-2.038-1.652-3.691-3.691-3.691c-2.038,0-3.691,1.652-3.691,3.691s1.652,3.691,3.691,3.691
				C622.621,109.387,624.274,107.735,624.274,105.697z"/>
		</g>
		<g>
			
				<circle style="fill:none;stroke:#263238;stroke-linecap:round;stroke-linejoin:round;stroke-miterlimit:10;" cx="548.782" cy="117.775" r="3.691"/>
			<path style="fill:none;stroke:#263238;stroke-linecap:round;stroke-linejoin:round;stroke-miterlimit:10;" d="M561.868,117.775
				c0-2.038-1.652-3.691-3.691-3.691c-2.038,0-3.691,1.652-3.691,3.691s1.652,3.691,3.691,3.691
				C560.215,121.466,561.868,119.814,561.868,117.775z"/>
			
				<circle style="fill:none;stroke:#263238;stroke-linecap:round;stroke-linejoin:round;stroke-miterlimit:10;" cx="567.571" cy="117.775" r="3.691"/>
			
				<circle style="fill:none;stroke:#263238;stroke-linecap:round;stroke-linejoin:round;stroke-miterlimit:10;" cx="576.966" cy="117.775" r="3.691"/>
		</g>
		<g>
			<path style="fill:none;stroke:#263238;stroke-linecap:round;stroke-linejoin:round;stroke-miterlimit:10;" d="M596.09,117.775
				c0-2.038-1.652-3.691-3.691-3.691c-2.038,0-3.691,1.652-3.691,3.691s1.652,3.691,3.691,3.691
				C594.438,121.466,596.09,119.814,596.09,117.775z"/>
			
				<circle style="fill:none;stroke:#263238;stroke-linecap:round;stroke-linejoin:round;stroke-miterlimit:10;" cx="601.794" cy="117.775" r="3.691"/>
			
				<circle style="fill:none;stroke:#263238;stroke-linecap:round;stroke-linejoin:round;stroke-miterlimit:10;" cx="611.189" cy="117.775" r="3.691"/>
			<path style="fill:none;stroke:#263238;stroke-linecap:round;stroke-linejoin:round;stroke-miterlimit:10;" d="M624.274,117.775
				c0-2.038-1.652-3.691-3.691-3.691c-2.038,0-3.691,1.652-3.691,3.691s1.652,3.691,3.691,3.691
				C622.621,121.466,624.274,119.814,624.274,117.775z"/>
		</g>
		<g>
			
				<circle style="fill:none;stroke:#263238;stroke-linecap:round;stroke-linejoin:round;stroke-miterlimit:10;" cx="548.782" cy="129.854" r="3.691"/>
			<path style="fill:none;stroke:#263238;stroke-linecap:round;stroke-linejoin:round;stroke-miterlimit:10;" d="M561.868,129.854
				c0-2.038-1.652-3.691-3.691-3.691c-2.038,0-3.691,1.652-3.691,3.691s1.652,3.691,3.691,3.691
				C560.215,133.545,561.868,131.892,561.868,129.854z"/>
		</g>
		<g>
			
				<circle style="fill:none;stroke:#263238;stroke-linecap:round;stroke-linejoin:round;stroke-miterlimit:10;" cx="611.189" cy="129.854" r="3.691"/>
			<path style="fill:none;stroke:#263238;stroke-linecap:round;stroke-linejoin:round;stroke-miterlimit:10;" d="M624.274,129.854
				c0-2.038-1.652-3.691-3.691-3.691c-2.038,0-3.691,1.652-3.691,3.691s1.652,3.691,3.691,3.691
				C622.621,133.545,624.274,131.892,624.274,129.854z"/>
		</g>
	</g>
</g>
<g id="Crowd">
	<g>
		<g>
			<path style="opacity:0.1;" d="M594.853,223.133c0-2.447-1.984-4.431-4.431-4.431s-4.432,1.984-4.432,4.431
				s1.984,4.431,4.432,4.431S594.853,225.58,594.853,223.133z"/>
			<path style="opacity:0.1;" d="M493.669,223.133c0-2.447-1.984-4.431-4.431-4.431c-2.448,0-4.432,1.984-4.432,4.431
				s1.984,4.431,4.432,4.431C491.685,227.564,493.669,225.58,493.669,223.133z"/>
			<path style="opacity:0.3;" d="M642.86,219.44c0-2.447-1.984-4.431-4.431-4.431s-4.431,1.984-4.431,4.431
				c0,2.447,1.984,4.432,4.431,4.432S642.86,221.887,642.86,219.44z"/>
			<circle style="opacity:0.3;" cx="526.904" cy="223.133" r="4.431"/>
			<path style="opacity:0.3;" d="M501.055,198.76c0-2.447-1.984-4.431-4.431-4.431c-2.447,0-4.431,1.984-4.431,4.431
				s1.984,4.431,4.431,4.431C499.07,203.191,501.055,201.208,501.055,198.76z"/>
			<path style="opacity:0.3;" d="M493.669,211.316c0-2.447-1.984-4.431-4.431-4.431c-2.448,0-4.432,1.984-4.432,4.431
				s1.984,4.432,4.432,4.432C491.685,215.747,493.669,213.763,493.669,211.316z"/>
			<path style="opacity:0.3;" d="M436.06,209.1c0-2.447-1.984-4.431-4.431-4.431c-2.447,0-4.431,1.984-4.431,4.431
				s1.984,4.431,4.431,4.431C434.076,213.531,436.06,211.548,436.06,209.1z"/>
			<path style="opacity:0.3;" d="M382.145,197.283c0-2.447-1.984-4.432-4.431-4.432c-2.447,0-4.431,1.984-4.431,4.432
				c0,2.447,1.984,4.431,4.431,4.431C380.16,201.714,382.145,199.73,382.145,197.283z"/>
			<path style="opacity:0.1;" d="M665.017,223.872c0-2.447-1.984-4.432-4.431-4.432s-4.432,1.984-4.432,4.432
				c0,2.447,1.984,4.431,4.432,4.431S665.017,226.319,665.017,223.872z"/>
			<path style="opacity:0.1;" d="M441.23,225.349c0-2.447-1.984-4.431-4.431-4.431c-2.447,0-4.432,1.984-4.432,4.431
				c0,2.447,1.984,4.431,4.432,4.431C439.246,229.78,441.23,227.796,441.23,225.349z"/>
			<circle style="opacity:0.1;" cx="292.777" cy="233.473" r="4.431"/>
			<path style="opacity:0.1;" d="M274.313,195.806c0-2.447-1.984-4.431-4.431-4.431c-2.447,0-4.431,1.984-4.431,4.431
				s1.984,4.432,4.431,4.432C272.329,200.237,274.313,198.253,274.313,195.806z"/>
			<path style="opacity:0.3;" d="M651.682,211.305c0-2.447-1.984-4.431-4.431-4.431c-2.448,0-4.431,1.984-4.431,4.431
				s1.984,4.431,4.431,4.431C649.698,215.737,651.682,213.753,651.682,211.305z"/>
			<path style="opacity:0.3;" d="M473.727,195.806c0-2.447-1.984-4.431-4.431-4.431c-2.447,0-4.431,1.984-4.431,4.431
				s1.984,4.432,4.431,4.432C471.743,200.237,473.727,198.253,473.727,195.806z"/>
			<path style="opacity:0.1;" d="M633.259,203.191c0-2.447-1.984-4.431-4.431-4.431s-4.431,1.984-4.431,4.431
				c0,2.448,1.984,4.432,4.431,4.432S633.259,205.639,633.259,203.191z"/>
			<path style="opacity:0.3;" d="M628.089,220.917c0-2.447-1.984-4.432-4.431-4.432s-4.431,1.984-4.431,4.432
				s1.984,4.431,4.431,4.431S628.089,223.365,628.089,220.917z"/>
			<path style="opacity:0.3;" d="M597.807,207.623c0-2.447-1.984-4.432-4.431-4.432s-4.431,1.984-4.431,4.432
				s1.984,4.431,4.431,4.431S597.807,210.07,597.807,207.623z"/>
			<circle style="opacity:0.3;" cx="579.343" cy="201.714" r="4.431"/>
			<path style="opacity:0.1;" d="M515.087,207.623c0-2.447-1.984-4.432-4.432-4.432s-4.431,1.984-4.431,4.432
				s1.984,4.431,4.431,4.431S515.087,210.07,515.087,207.623z"/>
			<path style="opacity:0.3;" d="M423.504,206.884c0-2.447-1.984-4.431-4.431-4.431c-2.448,0-4.431,1.984-4.431,4.431
				s1.984,4.431,4.431,4.431C421.52,211.316,423.504,209.332,423.504,206.884z"/>
			<circle style="opacity:0.3;" cx="353.34" cy="232.734" r="4.431"/>
			<path style="opacity:0.3;" d="M395.439,203.93c0-2.447-1.984-4.431-4.431-4.431s-4.431,1.984-4.431,4.431
				s1.984,4.431,4.431,4.431S395.439,206.378,395.439,203.93z"/>
			<path style="opacity:0.3;" d="M235.907,197.283c0-2.447-1.984-4.432-4.431-4.432c-2.447,0-4.431,1.984-4.431,4.432
				c0,2.447,1.984,4.431,4.431,4.431C233.923,201.714,235.907,199.73,235.907,197.283z"/>
			<path style="opacity:0.1;" d="M566.787,207.623c0-2.447-1.984-4.432-4.432-4.432c-2.447,0-4.431,1.984-4.431,4.432
				s1.984,4.431,4.431,4.431C564.803,212.054,566.787,210.07,566.787,207.623z"/>
			<path style="opacity:0.1;" d="M569.003,195.806c0-2.447-1.984-4.431-4.431-4.431c-2.448,0-4.432,1.984-4.432,4.431
				s1.984,4.432,4.432,4.432C567.019,200.237,569.003,198.253,569.003,195.806z"/>
			<path style="opacity:0.3;" d="M618.231,209.277c0-2.447-1.984-4.432-4.431-4.432s-4.431,1.984-4.431,4.432
				s1.984,4.431,4.431,4.431S618.231,211.724,618.231,209.277z"/>
			<path style="opacity:0.3;" d="M609.625,195.067c0-2.448-1.984-4.432-4.431-4.432c-2.447,0-4.431,1.984-4.431,4.432
				c0,2.447,1.984,4.431,4.431,4.431C607.641,199.499,609.625,197.515,609.625,195.067z"/>
			<circle style="opacity:0.3;" cx="542.414" cy="199.499" r="4.431"/>
			<path style="opacity:0.3;" d="M532.813,195.067c0-2.448-1.984-4.432-4.431-4.432c-2.448,0-4.432,1.984-4.432,4.432
				c0,2.447,1.984,4.431,4.432,4.431C530.829,199.499,532.813,197.515,532.813,195.067z"/>
			<path style="opacity:0.3;" d="M609.214,224.605c0-2.447-1.984-4.431-4.431-4.431s-4.431,1.984-4.431,4.431
				c0,2.447,1.984,4.431,4.431,4.431S609.214,227.053,609.214,224.605z"/>
			<path style="opacity:0.1;" d="M471.512,224.605c0-2.447-1.984-4.431-4.431-4.431c-2.447,0-4.431,1.984-4.431,4.431
				c0,2.447,1.984,4.431,4.431,4.431C469.528,229.037,471.512,227.053,471.512,224.605z"/>
			<path style="opacity:0.1;" d="M450.093,195.067c0-2.448-1.984-4.432-4.431-4.432c-2.447,0-4.431,1.984-4.431,4.432
				c0,2.447,1.984,4.431,4.431,4.431C448.109,199.499,450.093,197.515,450.093,195.067z"/>
			<circle style="opacity:0.3;" cx="579.343" cy="230.519" r="4.431"/>
			<path style="opacity:0.3;" d="M532.813,234.212c0-2.447-1.984-4.431-4.431-4.431c-2.448,0-4.432,1.984-4.432,4.431
				c0,2.447,1.984,4.431,4.432,4.431C530.829,238.643,532.813,236.659,532.813,234.212z"/>
			<circle style="opacity:0.3;" cx="511.395" cy="230.519" r="4.431"/>
			<circle style="opacity:0.3;" cx="340.046" cy="223.133" r="4.431"/>
			<path style="opacity:0.3;" d="M452.309,229.78c0-2.447-1.984-4.431-4.431-4.431c-2.447,0-4.431,1.984-4.431,4.431
				c0,2.447,1.984,4.431,4.431,4.431C450.325,234.212,452.309,232.227,452.309,229.78z"/>
			<path style="opacity:0.1;" d="M374.02,223.133c0-2.447-1.984-4.431-4.431-4.431c-2.447,0-4.432,1.984-4.432,4.431
				s1.984,4.431,4.432,4.431C372.036,227.564,374.02,225.58,374.02,223.133z"/>
			<path style="opacity:0.3;" d="M424.243,228.303c0-2.447-1.984-4.431-4.432-4.431c-2.447,0-4.431,1.984-4.431,4.431
				c0,2.447,1.984,4.431,4.431,4.431C422.259,232.734,424.243,230.75,424.243,228.303z"/>
			<path style="opacity:0.3;" d="M334.137,195.806c0-2.447-1.984-4.431-4.431-4.431c-2.447,0-4.431,1.984-4.431,4.431
				s1.984,4.432,4.431,4.432C332.153,200.237,334.137,198.253,334.137,195.806z"/>
			<path style="opacity:0.1;" d="M408.733,217.963c0-2.447-1.984-4.432-4.431-4.432c-2.447,0-4.431,1.984-4.431,4.432
				s1.984,4.431,4.431,4.431C406.749,222.394,408.733,220.41,408.733,217.963z"/>
			<path style="opacity:0.3;" d="M486.283,234.212c0-2.447-1.984-4.431-4.431-4.431c-2.447,0-4.431,1.984-4.431,4.431
				c0,2.447,1.984,4.431,4.431,4.431C484.299,238.643,486.283,236.659,486.283,234.212z"/>
			<circle style="opacity:0.3;" cx="418.335" cy="196.544" r="4.431"/>
			<path style="opacity:0.3;" d="M402.631,234.212c0-2.447-1.984-4.431-4.431-4.431s-4.431,1.984-4.431,4.431
				c0,2.447,1.984,4.431,4.431,4.431S402.631,236.659,402.631,234.212z"/>
			<path style="opacity:0.3;" d="M581.559,216.486c0-2.447-1.984-4.431-4.431-4.431s-4.432,1.984-4.432,4.431
				c0,2.447,1.984,4.432,4.432,4.432S581.559,218.933,581.559,216.486z"/>
			<path style="opacity:0.3;" d="M548.323,216.486c0-2.447-1.984-4.431-4.431-4.431s-4.431,1.984-4.431,4.431
				c0,2.447,1.984,4.432,4.431,4.432S548.323,218.933,548.323,216.486z"/>
			<path style="opacity:0.3;" d="M462.649,211.316c0-2.447-1.984-4.431-4.431-4.431c-2.447,0-4.431,1.984-4.431,4.431
				s1.984,4.432,4.431,4.432C460.665,215.747,462.649,213.763,462.649,211.316z"/>
			<path style="opacity:0.1;" d="M446.4,212.793c0-2.447-1.984-4.432-4.431-4.432c-2.447,0-4.431,1.984-4.431,4.432
				s1.984,4.431,4.431,4.431C444.416,217.224,446.4,215.24,446.4,212.793z"/>
			<path style="opacity:0.3;" d="M199.717,209.1c0-2.447-1.984-4.431-4.431-4.431s-4.432,1.984-4.432,4.431s1.984,4.431,4.432,4.431
				S199.717,211.548,199.717,209.1z"/>
			<path style="opacity:0.3;" d="M204.887,225.349c0-2.447-1.984-4.431-4.431-4.431s-4.432,1.984-4.432,4.431
				c0,2.447,1.984,4.431,4.432,4.431S204.887,227.796,204.887,225.349z"/>
			<path style="opacity:0.3;" d="M187.162,206.884c0-2.447-1.984-4.431-4.431-4.431c-2.447,0-4.431,1.984-4.431,4.431
				s1.984,4.431,4.431,4.431C185.178,211.316,187.162,209.332,187.162,206.884z"/>
			<path style="opacity:0.3;" d="M235.169,224.605c0-2.447-1.984-4.431-4.431-4.431c-2.447,0-4.431,1.984-4.431,4.431
				c0,2.447,1.984,4.431,4.431,4.431C233.185,229.037,235.169,227.053,235.169,224.605z"/>
			<path style="opacity:0.1;" d="M215.966,229.78c0-2.447-1.984-4.431-4.432-4.431c-2.447,0-4.431,1.984-4.431,4.431
				c0,2.447,1.984,4.431,4.431,4.431C213.982,234.212,215.966,232.227,215.966,229.78z"/>
			<path style="opacity:0.3;" d="M187.9,228.303c0-2.447-1.984-4.431-4.432-4.431s-4.431,1.984-4.431,4.431
				c0,2.447,1.984,4.431,4.431,4.431S187.9,230.75,187.9,228.303z"/>
			<path style="opacity:0.3;" d="M172.39,217.963c0-2.447-1.984-4.432-4.432-4.432c-2.447,0-4.431,1.984-4.431,4.432
				s1.984,4.431,4.431,4.431C170.406,222.394,172.39,220.41,172.39,217.963z"/>
			<path style="opacity:0.3;" d="M244.77,211.316c0-2.447-1.984-4.431-4.432-4.431s-4.431,1.984-4.431,4.431
				s1.984,4.432,4.431,4.432S244.77,213.763,244.77,211.316z"/>
			<path style="opacity:0.3;" d="M221.874,212.793c0-2.447-1.984-4.432-4.431-4.432c-2.447,0-4.431,1.984-4.431,4.432
				s1.984,4.431,4.431,4.431C219.89,217.224,221.874,215.24,221.874,212.793z"/>
			<path style="opacity:0.3;" d="M332.66,223.133c0-2.447-1.984-4.431-4.431-4.431c-2.448,0-4.431,1.984-4.431,4.431
				s1.984,4.431,4.431,4.431C330.676,227.564,332.66,225.58,332.66,223.133z"/>
			<path style="opacity:0.3;" d="M332.66,211.316c0-2.447-1.984-4.431-4.431-4.431c-2.448,0-4.431,1.984-4.431,4.431
				s1.984,4.432,4.431,4.432C330.676,215.747,332.66,213.763,332.66,211.316z"/>
			<path style="opacity:0.3;" d="M317.15,203.191c0-2.447-1.984-4.431-4.431-4.431c-2.447,0-4.431,1.984-4.431,4.431
				c0,2.448,1.984,4.432,4.431,4.432C315.166,207.623,317.15,205.639,317.15,203.191z"/>
			<path style="opacity:0.3;" d="M260.28,195.806c0-2.447-1.984-4.431-4.431-4.431c-2.447,0-4.431,1.984-4.431,4.431
				s1.984,4.432,4.431,4.432C258.296,200.237,260.28,198.253,260.28,195.806z"/>
			<path style="opacity:0.3;" d="M275.052,209.1c0-2.447-1.984-4.431-4.431-4.431c-2.447,0-4.432,1.984-4.432,4.431
				s1.984,4.431,4.432,4.431C273.068,213.531,275.052,211.548,275.052,209.1z"/>
			<path style="opacity:0.3;" d="M280.222,225.349c0-2.447-1.984-4.431-4.431-4.431c-2.447,0-4.431,1.984-4.431,4.431
				c0,2.447,1.984,4.431,4.431,4.431C278.238,229.78,280.222,227.796,280.222,225.349z"/>
			<path style="opacity:0.1;" d="M262.496,206.884c0-2.447-1.984-4.431-4.431-4.431c-2.447,0-4.431,1.984-4.431,4.431
				s1.984,4.431,4.431,4.431C260.512,211.316,262.496,209.332,262.496,206.884z"/>
			<path style="opacity:0.3;" d="M310.503,224.605c0-2.447-1.984-4.431-4.431-4.431c-2.447,0-4.431,1.984-4.431,4.431
				c0,2.447,1.984,4.431,4.431,4.431C308.519,229.037,310.503,227.053,310.503,224.605z"/>
			<circle style="opacity:0.3;" cx="362.942" cy="206.884" r="4.431"/>
			<path style="opacity:0.3;" d="M263.234,228.303c0-2.447-1.984-4.431-4.431-4.431c-2.447,0-4.431,1.984-4.431,4.431
				c0,2.447,1.984,4.431,4.431,4.431C261.25,232.734,263.234,230.75,263.234,228.303z"/>
			<path style="opacity:0.3;" d="M247.725,217.963c0-2.447-1.984-4.432-4.432-4.432s-4.431,1.984-4.431,4.432
				s1.984,4.431,4.431,4.431S247.725,220.41,247.725,217.963z"/>
			<circle style="opacity:0.3;" cx="212.273" cy="198.76" r="4.431"/>
			<path style="opacity:0.3;" d="M301.64,211.316c0-2.447-1.984-4.431-4.431-4.431c-2.447,0-4.431,1.984-4.431,4.431
				s1.984,4.432,4.431,4.432C299.656,215.747,301.64,213.763,301.64,211.316z"/>
			<path style="opacity:0.1;" d="M285.392,212.793c0-2.447-1.984-4.432-4.431-4.432c-2.447,0-4.432,1.984-4.432,4.432
				s1.984,4.431,4.432,4.431C283.408,217.224,285.392,215.24,285.392,212.793z"/>
			<circle style="opacity:0.1;" cx="292.777" cy="198.76" r="4.431"/>
			<path style="opacity:0.3;" d="M562.356,226.826c0-2.447-1.984-4.431-4.431-4.431s-4.431,1.984-4.431,4.431
				c0,2.447,1.984,4.431,4.431,4.431S562.356,229.273,562.356,226.826z"/>
			<path style="opacity:0.1;" d="M545.369,226.826c0-2.447-1.984-4.431-4.431-4.431s-4.432,1.984-4.432,4.431
				c0,2.447,1.984,4.431,4.432,4.431S545.369,229.273,545.369,226.826z"/>
		</g>
		<g>
			<path style="opacity:0.1;" d="M594.853,321.363c0-2.447-1.984-4.431-4.431-4.431s-4.432,1.984-4.432,4.431
				c0,2.447,1.984,4.431,4.432,4.431S594.853,323.81,594.853,321.363z"/>
			<path style="opacity:0.1;" d="M493.669,321.363c0-2.447-1.984-4.431-4.431-4.431c-2.448,0-4.432,1.984-4.432,4.431
				c0,2.447,1.984,4.431,4.432,4.431C491.685,325.794,493.669,323.81,493.669,321.363z"/>
			<path style="opacity:0.3;" d="M642.86,317.67c0-2.447-1.984-4.431-4.431-4.431s-4.431,1.984-4.431,4.431
				c0,2.448,1.984,4.431,4.431,4.431S642.86,320.118,642.86,317.67z"/>
			<circle style="opacity:0.3;" cx="526.904" cy="321.363" r="4.431"/>
			<path style="opacity:0.3;" d="M493.669,309.546c0-2.448-1.984-4.431-4.431-4.431c-2.448,0-4.432,1.984-4.432,4.431
				c0,2.447,1.984,4.431,4.432,4.431C491.685,313.977,493.669,311.993,493.669,309.546z"/>
			<path style="opacity:0.3;" d="M436.06,307.33c0-2.447-1.984-4.431-4.431-4.431c-2.447,0-4.431,1.984-4.431,4.431
				c0,2.447,1.984,4.431,4.431,4.431C434.076,311.762,436.06,309.777,436.06,307.33z"/>
			<path style="opacity:0.3;" d="M382.145,295.513c0-2.447-1.984-4.431-4.431-4.431c-2.447,0-4.431,1.984-4.431,4.431
				s1.984,4.431,4.431,4.431C380.16,299.944,382.145,297.96,382.145,295.513z"/>
			<path style="opacity:0.1;" d="M665.017,322.102c0-2.447-1.984-4.431-4.431-4.431s-4.432,1.984-4.432,4.431
				c0,2.447,1.984,4.431,4.432,4.431S665.017,324.549,665.017,322.102z"/>
			<path style="opacity:0.1;" d="M441.23,323.579c0-2.447-1.984-4.431-4.431-4.431c-2.447,0-4.432,1.984-4.432,4.431
				c0,2.447,1.984,4.431,4.432,4.431C439.246,328.01,441.23,326.026,441.23,323.579z"/>
			<circle style="opacity:0.1;" cx="292.777" cy="331.703" r="4.431"/>
			<path style="opacity:0.3;" d="M651.682,309.535c0-2.447-1.984-4.431-4.431-4.431c-2.448,0-4.431,1.984-4.431,4.431
				c0,2.448,1.984,4.431,4.431,4.431C649.698,313.967,651.682,311.983,651.682,309.535z"/>
			<path style="opacity:0.1;" d="M633.259,301.422c0-2.447-1.984-4.431-4.431-4.431s-4.431,1.984-4.431,4.431
				s1.984,4.431,4.431,4.431S633.259,303.869,633.259,301.422z"/>
			<circle style="opacity:0.3;" cx="623.657" cy="319.147" r="4.431"/>
			<path style="opacity:0.3;" d="M597.807,305.853c0-2.447-1.984-4.431-4.431-4.431s-4.431,1.984-4.431,4.431
				c0,2.447,1.984,4.431,4.431,4.431S597.807,308.3,597.807,305.853z"/>
			<path style="opacity:0.3;" d="M583.774,299.944c0-2.447-1.984-4.431-4.431-4.431s-4.431,1.984-4.431,4.431
				c0,2.447,1.984,4.431,4.431,4.431S583.774,302.392,583.774,299.944z"/>
			<path style="opacity:0.1;" d="M515.087,305.853c0-2.447-1.984-4.431-4.432-4.431s-4.431,1.984-4.431,4.431
				c0,2.447,1.984,4.431,4.431,4.431S515.087,308.3,515.087,305.853z"/>
			<path style="opacity:0.3;" d="M423.504,305.114c0-2.447-1.984-4.431-4.431-4.431c-2.448,0-4.431,1.984-4.431,4.431
				c0,2.447,1.984,4.431,4.431,4.431C421.52,309.546,423.504,307.562,423.504,305.114z"/>
			<path style="opacity:0.3;" d="M357.772,330.964c0-2.447-1.984-4.431-4.431-4.431c-2.447,0-4.431,1.984-4.431,4.431
				c0,2.447,1.984,4.432,4.431,4.432C355.788,335.396,357.772,333.412,357.772,330.964z"/>
			<path style="opacity:0.3;" d="M395.439,302.16c0-2.447-1.984-4.431-4.431-4.431s-4.431,1.984-4.431,4.431
				c0,2.447,1.984,4.432,4.431,4.432S395.439,304.608,395.439,302.16z"/>
			<path style="opacity:0.1;" d="M566.787,305.853c0-2.447-1.984-4.431-4.432-4.431c-2.447,0-4.431,1.984-4.431,4.431
				c0,2.447,1.984,4.431,4.431,4.431C564.803,310.284,566.787,308.3,566.787,305.853z"/>
			<circle style="opacity:0.3;" cx="613.799" cy="307.507" r="4.431"/>
			<circle style="opacity:0.3;" cx="542.414" cy="297.729" r="4.431"/>
			<circle style="opacity:0.3;" cx="604.783" cy="322.835" r="4.431"/>
			<circle style="opacity:0.1;" cx="467.08" cy="322.835" r="4.431"/>
			<circle style="opacity:0.3;" cx="579.343" cy="328.749" r="4.431"/>
			<path style="opacity:0.3;" d="M532.813,332.442c0-2.447-1.984-4.431-4.431-4.431c-2.448,0-4.432,1.984-4.432,4.431
				c0,2.447,1.984,4.431,4.432,4.431C530.829,336.873,532.813,334.889,532.813,332.442z"/>
			<circle style="opacity:0.3;" cx="511.395" cy="328.749" r="4.431"/>
			<circle style="opacity:0.3;" cx="340.046" cy="321.363" r="4.431"/>
			<path style="opacity:0.3;" d="M452.309,328.01c0-2.447-1.984-4.431-4.431-4.431c-2.447,0-4.431,1.984-4.431,4.431
				c0,2.448,1.984,4.431,4.431,4.431C450.325,332.442,452.309,330.458,452.309,328.01z"/>
			<path style="opacity:0.1;" d="M374.02,321.363c0-2.447-1.984-4.431-4.431-4.431c-2.447,0-4.432,1.984-4.432,4.431
				c0,2.447,1.984,4.431,4.432,4.431C372.036,325.794,374.02,323.81,374.02,321.363z"/>
			<path style="opacity:0.3;" d="M424.243,326.533c0-2.447-1.984-4.431-4.432-4.431c-2.447,0-4.431,1.984-4.431,4.431
				c0,2.447,1.984,4.431,4.431,4.431C422.259,330.964,424.243,328.98,424.243,326.533z"/>
			<path style="opacity:0.1;" d="M408.733,316.193c0-2.447-1.984-4.431-4.431-4.431c-2.447,0-4.431,1.984-4.431,4.431
				c0,2.447,1.984,4.431,4.431,4.431C406.749,320.624,408.733,318.64,408.733,316.193z"/>
			<path style="opacity:0.3;" d="M486.283,332.442c0-2.447-1.984-4.431-4.431-4.431c-2.447,0-4.431,1.984-4.431,4.431
				c0,2.447,1.984,4.431,4.431,4.431C484.299,336.873,486.283,334.889,486.283,332.442z"/>
			<path style="opacity:0.3;" d="M402.631,332.442c0-2.447-1.984-4.431-4.431-4.431s-4.431,1.984-4.431,4.431
				c0,2.447,1.984,4.431,4.431,4.431S402.631,334.889,402.631,332.442z"/>
			<path style="opacity:0.3;" d="M581.559,314.716c0-2.448-1.984-4.432-4.431-4.432s-4.432,1.984-4.432,4.432
				c0,2.447,1.984,4.431,4.432,4.431S581.559,317.163,581.559,314.716z"/>
			<path style="opacity:0.3;" d="M548.323,314.716c0-2.448-1.984-4.432-4.431-4.432s-4.431,1.984-4.431,4.432
				c0,2.447,1.984,4.431,4.431,4.431S548.323,317.163,548.323,314.716z"/>
			<path style="opacity:0.3;" d="M462.649,309.546c0-2.448-1.984-4.431-4.431-4.431c-2.447,0-4.431,1.984-4.431,4.431
				c0,2.447,1.984,4.431,4.431,4.431C460.665,313.977,462.649,311.993,462.649,309.546z"/>
			<path style="opacity:0.1;" d="M446.4,311.023c0-2.447-1.984-4.431-4.431-4.431c-2.447,0-4.431,1.984-4.431,4.431
				c0,2.447,1.984,4.431,4.431,4.431C444.416,315.454,446.4,313.47,446.4,311.023z"/>
			<path style="opacity:0.3;" d="M199.717,307.33c0-2.447-1.984-4.431-4.431-4.431s-4.432,1.984-4.432,4.431
				c0,2.447,1.984,4.431,4.432,4.431S199.717,309.777,199.717,307.33z"/>
			<path style="opacity:0.3;" d="M204.887,323.579c0-2.447-1.984-4.431-4.431-4.431s-4.432,1.984-4.432,4.431
				c0,2.447,1.984,4.431,4.432,4.431S204.887,326.026,204.887,323.579z"/>
			<path style="opacity:0.3;" d="M187.162,305.114c0-2.447-1.984-4.431-4.431-4.431c-2.447,0-4.431,1.984-4.431,4.431
				c0,2.447,1.984,4.431,4.431,4.431C185.178,309.546,187.162,307.562,187.162,305.114z"/>
			<circle style="opacity:0.3;" cx="230.737" cy="322.835" r="4.431"/>
			<path style="opacity:0.1;" d="M215.966,328.01c0-2.447-1.984-4.431-4.432-4.431c-2.447,0-4.431,1.984-4.431,4.431
				c0,2.448,1.984,4.431,4.431,4.431C213.982,332.442,215.966,330.458,215.966,328.01z"/>
			<path style="opacity:0.3;" d="M187.9,326.533c0-2.447-1.984-4.431-4.432-4.431s-4.431,1.984-4.431,4.431
				c0,2.447,1.984,4.431,4.431,4.431S187.9,328.98,187.9,326.533z"/>
			<path style="opacity:0.3;" d="M172.39,316.193c0-2.447-1.984-4.431-4.432-4.431c-2.447,0-4.431,1.984-4.431,4.431
				c0,2.447,1.984,4.431,4.431,4.431C170.406,320.624,172.39,318.64,172.39,316.193z"/>
			<path style="opacity:0.3;" d="M244.77,309.546c0-2.448-1.984-4.431-4.432-4.431s-4.431,1.984-4.431,4.431
				c0,2.447,1.984,4.431,4.431,4.431S244.77,311.993,244.77,309.546z"/>
			<circle style="opacity:0.3;" cx="217.443" cy="311.023" r="4.431"/>
			<path style="opacity:0.3;" d="M332.66,321.363c0-2.447-1.984-4.431-4.431-4.431c-2.448,0-4.431,1.984-4.431,4.431
				c0,2.447,1.984,4.431,4.431,4.431C330.676,325.794,332.66,323.81,332.66,321.363z"/>
			<path style="opacity:0.3;" d="M332.66,309.546c0-2.448-1.984-4.431-4.431-4.431c-2.448,0-4.431,1.984-4.431,4.431
				c0,2.447,1.984,4.431,4.431,4.431C330.676,313.977,332.66,311.993,332.66,309.546z"/>
			<path style="opacity:0.3;" d="M317.15,301.422c0-2.447-1.984-4.431-4.431-4.431c-2.447,0-4.431,1.984-4.431,4.431
				s1.984,4.431,4.431,4.431C315.166,305.853,317.15,303.869,317.15,301.422z"/>
			<path style="opacity:0.3;" d="M275.052,307.33c0-2.447-1.984-4.431-4.431-4.431c-2.447,0-4.432,1.984-4.432,4.431
				c0,2.447,1.984,4.431,4.432,4.431C273.068,311.762,275.052,309.777,275.052,307.33z"/>
			<path style="opacity:0.3;" d="M280.222,323.579c0-2.447-1.984-4.431-4.431-4.431c-2.447,0-4.431,1.984-4.431,4.431
				c0,2.447,1.984,4.431,4.431,4.431C278.238,328.01,280.222,326.026,280.222,323.579z"/>
			<path style="opacity:0.1;" d="M262.496,305.114c0-2.447-1.984-4.431-4.431-4.431c-2.447,0-4.431,1.984-4.431,4.431
				c0,2.447,1.984,4.431,4.431,4.431C260.512,309.546,262.496,307.562,262.496,305.114z"/>
			<circle style="opacity:0.3;" cx="306.072" cy="322.835" r="4.431"/>
			<path style="opacity:0.3;" d="M367.373,305.114c0-2.447-1.984-4.431-4.431-4.431c-2.447,0-4.431,1.984-4.431,4.431
				c0,2.447,1.984,4.431,4.431,4.431C365.389,309.546,367.373,307.562,367.373,305.114z"/>
			<path style="opacity:0.3;" d="M263.234,326.533c0-2.447-1.984-4.431-4.431-4.431c-2.447,0-4.431,1.984-4.431,4.431
				c0,2.447,1.984,4.431,4.431,4.431C261.25,330.964,263.234,328.98,263.234,326.533z"/>
			<path style="opacity:0.3;" d="M247.725,316.193c0-2.447-1.984-4.431-4.432-4.431s-4.431,1.984-4.431,4.431
				c0,2.447,1.984,4.431,4.431,4.431S247.725,318.64,247.725,316.193z"/>
			<path style="opacity:0.3;" d="M301.64,309.546c0-2.448-1.984-4.431-4.431-4.431c-2.447,0-4.431,1.984-4.431,4.431
				c0,2.447,1.984,4.431,4.431,4.431C299.656,313.977,301.64,311.993,301.64,309.546z"/>
			<path style="opacity:0.1;" d="M285.392,311.023c0-2.447-1.984-4.431-4.431-4.431c-2.447,0-4.432,1.984-4.432,4.431
				c0,2.447,1.984,4.431,4.432,4.431C283.408,315.454,285.392,313.47,285.392,311.023z"/>
			<path style="opacity:0.3;" d="M562.356,325.056c0-2.448-1.984-4.432-4.431-4.432s-4.431,1.984-4.431,4.432
				c0,2.447,1.984,4.431,4.431,4.431S562.356,327.503,562.356,325.056z"/>
			<path style="opacity:0.1;" d="M545.369,325.056c0-2.448-1.984-4.432-4.431-4.432s-4.432,1.984-4.432,4.432
				c0,2.447,1.984,4.431,4.432,4.431S545.369,327.503,545.369,325.056z"/>
		</g>
		<g>
			
				<line style="fill:none;stroke:#263238;stroke-linecap:round;stroke-linejoin:round;stroke-miterlimit:10;" x1="90.409" y1="254.892" x2="687.913" y2="254.892"/>
			
				<line style="fill:none;stroke:#263238;stroke-linecap:round;stroke-linejoin:round;stroke-miterlimit:10;" x1="128.814" y1="241.597" x2="680.527" y2="241.597"/>
			<g>
				
					<line style="fill:none;stroke:#263238;stroke-linecap:round;stroke-linejoin:round;stroke-miterlimit:10;" x1="176.822" y1="254.153" x2="176.822" y2="243.074"/>
				
					<line style="fill:none;stroke:#263238;stroke-linecap:round;stroke-linejoin:round;stroke-miterlimit:10;" x1="204.887" y1="254.153" x2="204.887" y2="243.074"/>
				
					<line style="fill:none;stroke:#263238;stroke-linecap:round;stroke-linejoin:round;stroke-miterlimit:10;" x1="232.953" y1="254.153" x2="232.953" y2="243.074"/>
				
					<line style="fill:none;stroke:#263238;stroke-linecap:round;stroke-linejoin:round;stroke-miterlimit:10;" x1="261.019" y1="254.153" x2="261.019" y2="243.074"/>
				
					<line style="fill:none;stroke:#263238;stroke-linecap:round;stroke-linejoin:round;stroke-miterlimit:10;" x1="289.085" y1="254.153" x2="289.085" y2="243.074"/>
				
					<line style="fill:none;stroke:#263238;stroke-linecap:round;stroke-linejoin:round;stroke-miterlimit:10;" x1="317.15" y1="254.153" x2="317.15" y2="243.074"/>
				
					<line style="fill:none;stroke:#263238;stroke-linecap:round;stroke-linejoin:round;stroke-miterlimit:10;" x1="345.216" y1="254.153" x2="345.216" y2="243.074"/>
				
					<line style="fill:none;stroke:#263238;stroke-linecap:round;stroke-linejoin:round;stroke-miterlimit:10;" x1="373.282" y1="254.153" x2="373.282" y2="243.074"/>
				
					<line style="fill:none;stroke:#263238;stroke-linecap:round;stroke-linejoin:round;stroke-miterlimit:10;" x1="401.347" y1="254.153" x2="401.347" y2="243.074"/>
				
					<line style="fill:none;stroke:#263238;stroke-linecap:round;stroke-linejoin:round;stroke-miterlimit:10;" x1="429.413" y1="254.153" x2="429.413" y2="243.074"/>
				
					<line style="fill:none;stroke:#263238;stroke-linecap:round;stroke-linejoin:round;stroke-miterlimit:10;" x1="457.479" y1="254.153" x2="457.479" y2="243.074"/>
				
					<line style="fill:none;stroke:#263238;stroke-linecap:round;stroke-linejoin:round;stroke-miterlimit:10;" x1="485.544" y1="254.153" x2="485.544" y2="243.074"/>
				
					<line style="fill:none;stroke:#263238;stroke-linecap:round;stroke-linejoin:round;stroke-miterlimit:10;" x1="513.61" y1="254.153" x2="513.61" y2="243.074"/>
				
					<line style="fill:none;stroke:#263238;stroke-linecap:round;stroke-linejoin:round;stroke-miterlimit:10;" x1="541.676" y1="254.153" x2="541.676" y2="243.074"/>
				
					<line style="fill:none;stroke:#263238;stroke-linecap:round;stroke-linejoin:round;stroke-miterlimit:10;" x1="569.742" y1="254.153" x2="569.742" y2="243.074"/>
				
					<line style="fill:none;stroke:#263238;stroke-linecap:round;stroke-linejoin:round;stroke-miterlimit:10;" x1="597.807" y1="254.153" x2="597.807" y2="243.074"/>
				
					<line style="fill:none;stroke:#263238;stroke-linecap:round;stroke-linejoin:round;stroke-miterlimit:10;" x1="625.873" y1="254.153" x2="625.873" y2="243.074"/>
				
					<line style="fill:none;stroke:#263238;stroke-linecap:round;stroke-linejoin:round;stroke-miterlimit:10;" x1="653.939" y1="254.153" x2="653.939" y2="243.074"/>
			</g>
		</g>
		
			<line style="fill:none;stroke:#263238;stroke-linecap:round;stroke-linejoin:round;stroke-miterlimit:10;" x1="20.983" y1="339.827" x2="702.685" y2="339.827"/>
		
			<line style="fill:none;stroke:#263238;stroke-linecap:round;stroke-linejoin:round;stroke-miterlimit:10;" x1="38.709" y1="291.82" x2="692.344" y2="291.82"/>
		
			<line style="fill:none;stroke:#263238;stroke-linecap:round;stroke-linejoin:round;stroke-miterlimit:10;" x1="196.701" y1="182.512" x2="639.167" y2="182.512"/>
		
			<line style="fill:none;stroke:#263238;stroke-linecap:round;stroke-linejoin:round;stroke-miterlimit:10;" x1="203.814" y1="173.77" x2="639.167" y2="173.77"/>
	</g>
</g>
<g id="Floor">
	
		<line style="fill:none;stroke:#263238;stroke-linecap:round;stroke-linejoin:round;stroke-miterlimit:10;" x1="4.633" y1="423.891" x2="743.145" y2="423.891"/>
</g>
<g id="Character_4">
	<g>
		<path style="fill:#FFFFFF;stroke:#263238;stroke-linecap:round;stroke-linejoin:round;stroke-miterlimit:10;" d="M667.101,260.328
			c0,0,9.618-2.202,14.816-4.464c5.198-2.262,11.379,0.55,17.413,2.979c6.034,2.429,11.19,4.404,11.19,4.404l3.712,1.651
			l-3.107,5.415c0,0-10.065-0.792-14.502-0.669s-13.848-1.712-13.848-1.712l-18.364,8.73L667.101,260.328z"/>
		<path style="fill:#263238;stroke:#263238;stroke-linecap:round;stroke-linejoin:round;stroke-miterlimit:10;" d="M667.101,260.328
			c0,0,9.495-2.175,14.715-4.421c-1.115,2.01-2.196,4.712-1.486,6.811c0.907,2.682,2.351,4.5,3.13,5.345
			c-0.434-0.08-0.685-0.129-0.685-0.129l-18.364,8.73L667.101,260.328z"/>
		<g>
			<path style="fill:#FFFFFF;stroke:#263238;stroke-linecap:round;stroke-linejoin:round;stroke-miterlimit:10;" d="
				M586.921,263.801c0,0-4.968-0.113-9.494,0.923c-4.526,1.036-17.168,11.612-22.013,15.936
				c-4.845,4.325-11.429,13.275-11.665,13.805c-0.236,0.53-0.395,2.174-0.395,2.174s4.166,0.773,5.463,0.714
				c1.296-0.059,4.196-1.437,5.799-2.757c1.603-1.32,4.845-4.324,9.442-6.091s12.435-6.539,14.239-8.023
				c1.804-1.485,6.477-2.138,7.06-2.45S586.921,263.801,586.921,263.801z"/>
			<path style="fill:#263238;stroke:#263238;stroke-linecap:round;stroke-linejoin:round;stroke-miterlimit:10;" d="
				M577.427,264.725c4.526-1.036,9.494-0.923,9.494-0.923s-0.981,13.919-1.564,14.231c-0.583,0.312-5.257,0.965-7.06,2.45
				c-0.58,0.477-1.788,1.296-3.308,2.244c-1.536-0.77-3.819-2.203-5.684-4.591c-1.735-2.221-2.276-4.953-2.416-6.94
				C571.101,267.993,575.225,265.229,577.427,264.725z"/>
		</g>
		<g>
			<path style="fill:#263238;stroke:#263238;stroke-linecap:round;stroke-linejoin:round;stroke-miterlimit:10;" d="
				M647.224,324.599c0,0,4.612,9.483,4.075,13.118c-0.537,3.636-1.663,5.74-1.422,7.054c0.241,1.314,6.957,11.923,9.861,18.105
				c2.904,6.182,5.148,11.563,7.422,14.734c2.274,3.171,3.647,4.226,3.647,4.226s10.802-3.009,15.74-0.686
				c4.938,2.323,10.158,7.439,14.206,11.335c4.048,3.896,11.219,7.91,12.279,8.382c1.061,0.472,7.371,3.85,12.88,7.887
				c5.509,4.038,6.127,9.076,4.141,10.543c-1.986,1.467-4.909,1.184-7.525-0.361c-2.616-1.544-4.413-3.931-8.184-6.879
				c-3.771-2.947-5.763-3.325-8.178-5.034c-2.416-1.709-13.223-6.261-20.588-8.266c-7.366-2.005-17.218-4.989-18.573-6.227
				c-1.355-1.238-12.31-0.456-20.335-8.979c-8.025-8.523-21.016-22.875-23.013-25.096c-1.997-2.222-6.217-2.447-15.363-1.305
				c-9.146,1.141-22.765,2.771-28.169,3.354c-5.404,0.582-11.698,2.738-11.698,2.738s-1.611,10.908-3.456,16.629
				c-1.846,5.722-6.137,11.944-9.868,16.192c-3.731,4.248-8.595,14.471-10.192,17.636c-1.598,3.164-3.443,8.886-4.61,9.51
				c-1.167,0.624-3.43,1.143-5.351,0.034c-1.921-1.108-2.109-2.97-6.788-4.162c-4.679-1.191-10.111-4.115-11.802-7.598
				c-1.691-3.483-2.239-3.536,1.633-3.53c3.872,0.007,12.351,1.935,15.763,0.975c3.412-0.96,3.937-2.569,4.992-3.941
				c1.055-1.373,2.83-6.364,4.287-13.783c1.457-7.419,3.717-21.214,5.291-26.04c1.574-4.826,1.092-7.454,4.057-11.408
				c2.965-3.954,8.824-11.13,22.538-17.545c13.714-6.415,21.269-8.264,21.87-8.759c0.601-0.495,1.951-1.102,2.953-1.926
				c1.002-0.825-0.177,1.827,11.073,1.811c11.25-0.015,20.289-0.061,23.719-1.203c3.43-1.143,10.272-3.245,11.238-3.704
				S647.224,324.599,647.224,324.599z"/>
			<path style="fill:#FFFFFF;stroke:#263238;stroke-linecap:round;stroke-linejoin:round;stroke-miterlimit:10;" d="M665.98,391.693
				c-0.264,0.091-0.532,0.171-0.799,0.254c-3.733-0.708-12.065-1.551-18.511-8.396c-8.024-8.523-21.016-22.875-23.013-25.096
				c-1.997-2.222-6.217-2.447-15.363-1.305c-9.146,1.141-22.765,2.771-28.169,3.354c-5.404,0.582-11.698,2.738-11.698,2.738
				s-0.196,1.327-0.529,3.295c-1.082-0.978-6.954-6.12-12.175-7.293c-2.284-0.513-4.22-0.674-5.735-0.683
				c0.439-1.546,1.075-3.044,2.395-4.804c2.965-3.954,8.824-11.13,22.538-17.545c13.714-6.415,21.269-8.264,21.87-8.759
				c0.601-0.495,1.951-1.102,2.953-1.926s-0.177,1.827,11.073,1.811c11.25-0.015,20.289-0.061,23.719-1.203
				c3.43-1.143,10.272-3.245,11.238-3.704c0.966-0.46,1.449,2.169,1.449,2.169s4.612,9.483,4.075,13.118
				c-0.537,3.636-1.663,5.74-1.422,7.054c0.241,1.314,6.957,11.923,9.861,18.105c2.904,6.182,5.148,11.563,7.422,14.734
				c2.274,3.171,3.647,4.226,3.647,4.226S672.657,389.39,665.98,391.693z"/>
			<g>
				<path style="fill:none;stroke:#263238;stroke-linecap:round;stroke-linejoin:round;stroke-miterlimit:10;" d="M620.51,356.674
					c0,0-11.573-4.257-20.565-6.604"/>
				<path style="fill:none;stroke:#263238;stroke-linecap:round;stroke-linejoin:round;stroke-miterlimit:10;" d="M639.419,334.721
					c0,0-7.826,2.745-14.392,5.796"/>
				
					<line style="fill:none;stroke:#263238;stroke-linecap:round;stroke-linejoin:round;stroke-miterlimit:10;" x1="628.393" y1="336.233" x2="622.794" y2="338.825"/>
				
					<line style="fill:none;stroke:#263238;stroke-linecap:round;stroke-linejoin:round;stroke-miterlimit:10;" x1="599.572" y1="329.198" x2="606.259" y2="336.3"/>
			</g>
			<path style="fill:#FFFFFF;stroke:#263238;stroke-linecap:round;stroke-linejoin:round;stroke-miterlimit:10;" d="
				M714.345,412.057c-3.073-2.401-4.964-3.097-6.866-4.197c1.729-0.495,3.339-1.401,3.667-2.752
				c0.613-2.522-3.034-6.748-3.034-6.748l0.303-0.149c2.251,1.415,4.117,2.432,4.617,2.654c1.061,0.472,7.371,3.85,12.88,7.887
				c5.509,4.038,6.127,9.076,4.141,10.543c-1.986,1.467-4.909,1.184-7.525-0.361C719.913,417.391,718.116,415.004,714.345,412.057z"
				/>
			<path style="fill:#FFFFFF;stroke:#263238;stroke-linecap:round;stroke-linejoin:round;stroke-miterlimit:10;" d="M516.36,411.483
				c-1.69-3.483-2.239-3.536,1.633-3.53s12.351,1.935,15.763,0.975c0.866-0.244,1.545-0.529,2.095-0.842l0.368,0.159
				c0,0,1.603-1.32,1.355,1.238s-1.686,4.078-1.686,4.078s2.363,2.258,6.635,1.934c0.573-0.043,1.107-0.08,1.606-0.112
				c-1.389,3.181-2.848,7.3-3.829,7.825c-1.167,0.624-3.43,1.143-5.351,0.034c-1.921-1.108-2.109-2.97-6.788-4.162
				C523.483,417.889,518.051,414.966,516.36,411.483z"/>
		</g>
		<path style="fill:#263238;stroke:#263238;stroke-linecap:round;stroke-linejoin:round;stroke-miterlimit:10;" d="M647.5,325.547
			c0,0-1.197,2.834-3.165,4.119c-1.969,1.284-5.599,2.592-5.599,2.592l-0.064-3.141l-7.319,1.319l0.394,3.542
			c0,0-17.767,0.674-23.124-1.136c-5.356-1.81-9.239-5.506-8.879-7.315s14.478,4.723,24.302,4.2
			C633.869,329.204,647.5,325.547,647.5,325.547z"/>
		<g>
			<path style="fill:#92E3A9;stroke:#263238;stroke-linecap:round;stroke-linejoin:round;stroke-miterlimit:10;" d="M636.64,260.693
				c0,0,0.018-0.183,3.488,0.154c3.471,0.337,4.384,0.425,4.384,0.425s10.59-0.817,15.298-1.836
				c4.709-1.019,9.458-0.558,9.458-0.558s2.663,4.868,2.043,11.262c-0.62,6.394-3.296,9.269-3.296,9.269s-8.098,3.64-9.866,4.76
				c-1.768,1.119-7.427,8.131-8.299,9.521c-0.872,1.391-3.421,16.264-3.421,16.264s-0.283,2.923,0.641,6.7
				c0.924,3.778,3.876,7.567,2.491,8.539c-1.385,0.972-11.469,6.079-19.831,6.744c-8.362,0.664-26.465-0.907-29.452-4.331
				c-2.987-3.424-3.317-3.825-3.016-6.931c0.301-3.105-1.552-18.221-0.202-24.544s1.457-7.419,1.457-7.419s-1.632-2.187-3.901-3.513
				c-2.268-1.326-9.97-5.577-11.36-6.449c-1.391-0.872-4.136-2.983-2.126-8.504c2.011-5.521,3.36-6.128,3.944-6.44
				c0.583-0.312,3.306,0.136,10.99-1.147c7.685-1.283,11.044-1.695,13.472-2.013c2.428-0.318,5.881,0.202,7.343,0.343
				c1.461,0.142,10.884-0.051,13.825,0.05C633.646,261.141,636.64,260.693,636.64,260.693z"/>
			<path style="fill:#263238;stroke:#263238;stroke-linecap:round;stroke-linejoin:round;stroke-miterlimit:10;" d="
				M612.474,319.754c3.053-4.867,5.823-6.811,6.968-14.814c1.145-8.002,4.424-22.805,4.424-22.805s-3.571-3.112-6.127-9.076
				c-1.806-4.213-3.768-9.633-4.766-12.455c1.578,0.101,3.071,0.305,3.908,0.387c1.461,0.142,10.884-0.051,13.825,0.05
				c2.94,0.101,5.934-0.347,5.934-0.347s0.018-0.183,3.488,0.154c0.671,0.065,1.245,0.121,1.737,0.168
				c-0.455,2.162-1.788,6.51-5.628,11.44c-5.476,7.029-10.09,8.979-10.09,8.979s-2.302,18.032-4.778,26.458
				c-2.477,8.426-7.192,13.317-9.479,17.889c-1.018,2.034-1.568,3.783-1.868,5.1c-0.894-0.145-1.756-0.302-2.577-0.472
				C608.202,328.235,610.103,323.533,612.474,319.754z"/>
			<path style="fill:none;stroke:#263238;stroke-linecap:round;stroke-linejoin:round;stroke-miterlimit:10;" d="M598.519,288.713
				c0,0,1.87-9.776,1.923-10.324"/>
			<path style="fill:none;stroke:#263238;stroke-linecap:round;stroke-linejoin:round;stroke-miterlimit:10;" d="M646.373,302.942
				c0,0-7.405,15.509-16.976,21.034"/>
		</g>
		<g>
			<path style="fill:#FFFFFF;stroke:#263238;stroke-linecap:round;stroke-linejoin:round;stroke-miterlimit:10;" d="
				M610.484,247.093c0,0,0.023,1.662-0.283,2.923s-3.077,3.205-1.174,4.496c1.903,1.291,2.799,1.562,2.799,1.562
				s-1.798,3.329-0.308,6.977c1.49,3.648,3.434,6.418,6.41,6.154c0,0,4.13,6.854,5.414,8.823s4.49-0.671,9.353-5.178
				c4.862-4.507,5.577-9.97,4.823-11.702c-0.754-1.733-0.701-2.281-0.83-2.846c-0.13-0.566,2.342-3.734,3.013-6.346
				c0.67-2.612-0.212-3.524-0.212-3.524s-3.111-2.146-8.067-4.286C626.467,242.005,613.826,241.148,610.484,247.093z"/>
			<path style="fill:#263238;stroke:#263238;stroke-linecap:round;stroke-linejoin:round;stroke-miterlimit:10;" d="
				M611.518,263.052c-1.49-3.648,0.308-6.977,0.308-6.977c3.159-0.247,2.999,1.397,4.832,3.419c1.832,2.022,2.693,2.658,5.739,1.663
				c3.047-0.995,5.476-7.029,6.366-8.603c0.89-1.573,0.808-4.532,0.808-4.532l0.03-2.21c0,0,3.968,0.111,5.761,0.209
				c2.605,1.361,4.127,2.409,4.127,2.409s0.882,0.912,0.212,3.524c-0.579,2.254-2.495,4.918-2.927,5.971
				c-1.21-0.336-2.372-0.769-2.372-0.769s2.039-2.015,2.995-6.163c0.956-4.148-3.365-1.433-3.365-1.433s-1.727,2.598-2.069,4.225
				c-0.342,1.626-0.107,6.812-3.62,10.713c-3.513,3.9-9.483,4.612-9.483,4.612s-0.334,0.067-0.883,0.173
				c-0.031-0.051-0.048-0.079-0.048-0.079C614.953,269.47,613.008,266.7,611.518,263.052z"/>
			<path style="fill:#92E3A9;stroke:#263238;stroke-linecap:round;stroke-linejoin:round;stroke-miterlimit:10;" d="
				M640.371,249.343c0,0-12.942,0.283-18.917-1.527c-5.974-1.809-10.091-3.746-10.307-4.689c-0.216-0.943,1.889-9.964,6.538-13.511
				c4.649-3.547,14.613-1.658,20.597,3.227S640.371,249.343,640.371,249.343z"/>
			<path style="fill:#FFFFFF;stroke:#263238;stroke-linecap:round;stroke-linejoin:round;stroke-miterlimit:10;" d="
				M624.776,248.446c0,0-9.621,0.912-14.986-0.838c-5.365-1.75-14.081-3.825-8.421-5.122c5.661-1.296,9.778,0.641,9.778,0.641
				L624.776,248.446z"/>
			<path style="fill:#263238;" d="M614.358,250.88c-0.083,0.858,0.136,1.581,0.489,1.615c0.353,0.034,0.707-0.633,0.79-1.491
				c0.083-0.858-0.136-1.58-0.489-1.615C614.795,249.355,614.441,250.023,614.358,250.88z"/>
		</g>
		<g>
			<path style="fill:#FFFFFF;stroke:#263238;stroke-linecap:round;stroke-linejoin:round;stroke-miterlimit:10;" d="
				M726.106,266.049c0,0,1.667,1.821,0.488,4.473c-1.179,2.652-5.122,3.376-4.962,1.732c0.159-1.644,1.433-3.365,2.305-4.755
				C724.809,266.108,726.106,266.049,726.106,266.049z"/>
			<path style="fill:#FFFFFF;stroke:#263238;stroke-linecap:round;stroke-linejoin:round;stroke-miterlimit:10;" d="
				M722.576,264.417c0,0,2.245-0.336,3.106,0.301c0.86,0.637,0.759,3.577-0.679,5.097c-1.438,1.52-2.776,0.1-2.781-1.745
				C722.216,266.226,722.576,264.417,722.576,264.417z"/>
			<path style="fill:#FFFFFF;stroke:#263238;stroke-linecap:round;stroke-linejoin:round;stroke-miterlimit:10;" d="
				M711.568,265.746c0,0-0.844,4.897-1.021,6.724c-0.177,1.827,0.724,3.943,1.602,4.396c0.878,0.454,2.487,0.979,4.697,1.009
				c2.21,0.03,0.142-1.461-1.579-2.735c-1.721-1.273-2.634-1.362-2.038-3.701c0.596-2.339,1.828-5.539,1.003-6.541
				C713.407,263.896,711.568,265.746,711.568,265.746z"/>
			<path style="fill:#FFFFFF;stroke:#263238;stroke-linecap:round;stroke-linejoin:round;stroke-miterlimit:10;" d="M710.442,267.85
				c0.372-3.834,3.781-6.64,7.615-6.269c3.834,0.372,6.64,3.781,6.269,7.615c-0.372,3.834-3.781,6.64-7.615,6.269
				C712.877,275.093,710.07,271.684,710.442,267.85z"/>
			<path style="fill:#FFFFFF;stroke:#263238;stroke-linecap:round;stroke-linejoin:round;stroke-miterlimit:10;" d="
				M715.582,258.575c0,0,1.474-1.885,3.229-0.978c1.756,0.908,1.336,7.137-0.762,7.855c-2.098,0.719-1.414-2.534-1.985-4.249
				C715.494,259.489,715.582,258.575,715.582,258.575z"/>
			<path style="fill:#FFFFFF;stroke:#263238;stroke-linecap:round;stroke-linejoin:round;stroke-miterlimit:10;" d="
				M712.795,260.702c0,0,3.482,4.026,2.645,5.051c-0.837,1.025-1.68,0.206-1.68,0.206s-3.547-1.45-4.083-3.531
				S710.673,259.759,712.795,260.702z"/>
		</g>
		<g>
			<path style="fill:#808080;stroke:#263238;stroke-linecap:round;stroke-linejoin:round;stroke-miterlimit:10;" d="M557.284,301.31
				c0,0,2.787,3.589,8.485,3.773c5.698,0.184,8.085-1.613,8.203,0.98c0.117,2.593-3.531,4.083-5.976,4.584
				c-2.446,0.5-7.543-0.178-9.452-3.314C556.635,304.198,556.064,302.483,557.284,301.31z"/>
			<path style="fill:#263238;stroke:#263238;stroke-linecap:round;stroke-linejoin:round;stroke-miterlimit:10;" d="
				M543.932,294.483c0,0,6.182-2.904,12.04-4.364c5.858-1.46,8.162-0.499,7.932,1.875c-0.23,2.375-6.006,6.793-4.204,11.025
				c1.802,4.232,4.218,5.941,6.958,6.207c2.74,0.266,5.492-1.496,5.534-0.017s-3.967,4.778-10.868,5.584
				c-6.901,0.806-12.693-0.309-16.505-4.735c-3.812-4.426-3.788-8.481-2.337-12.028
				C543.932,294.483,543.932,294.483,543.932,294.483z"/>
		</g>
	</g>
</g>
<g id="Character_3">
	<g>
		<path style="fill:#FFFFFF;stroke:#263238;stroke-linecap:round;stroke-linejoin:round;stroke-miterlimit:10;" d="M409.828,300.089
			c0,0,4.87,7.594,7.498,15.272c2.628,7.678,4.444,14.12,4.574,19.635c0.13,5.515,1.467,7.416,2.483,12.277
			c1.016,4.861,3.783,8.113,6.083,10.957c2.3,2.844,8.547,6.015,12.743,13.238c4.196,7.223,11.403,33.311,11.403,33.311
			s3.997,7.904,6.772,11.8c2.775,3.896,4.249,5.847,3.191,6.495c-1.058,0.648-3.307,0.904-8.465,0.704
			c-5.158-0.201-7.324-6.484-8.4-9.797c-1.076-3.313-2.463-7.5-3.269-8.909c-0.806-1.409-16.156-21.788-20.577-27.642
			c-4.421-5.854-7.632-11.833-7.632-11.833s-5.89-3.501-9.492-8.29c-3.602-4.789-6.243-12.124-6.388-12.818
			c-0.145-0.694-5.426-6.582-6.947-7.33c-1.521-0.748-1.46-2.295-9.967,3.917c-8.507,6.212-18.313,19.261-23.334,24.403
			s-9.17,9.974-9.554,10.992c-0.384,1.018-3.628,9.157-9.165,14.279c-5.537,5.122-12.742,13.279-13.715,16.168
			c-0.973,2.889-0.79,7.029-2.775,9.362c-1.985,2.333-3.968,0.19-7.163,2.648c-3.195,2.458-7.587,4.698-10.324,4.247
			s-5.203-3.474-1.233-8.141c3.97-4.667,10.371-5.451,12.191-7.962c1.82-2.512,2.103-14.21,7.834-24.318
			s11.103-15.409,13.246-17.392c2.143-1.983,5.483-17.005,9.189-23.748c3.706-6.743,14.843-23.012,16.828-25.345
			c1.985-2.333,1.766-1.137,2.204-3.53c0.438-2.394,0.908-5.647,0.908-5.647s0.918,2.963,8.132,3.416
			c7.214,0.453,17.465-1.903,23.265-4.949c5.801-3.046,8.712-7.065,8.712-7.065L409.828,300.089z"/>
		<g>
			<path style="fill:none;stroke:#263238;stroke-linecap:round;stroke-linejoin:round;stroke-miterlimit:10;" d="M392.204,336.387
				c0,0-7.871-3.713-12.673-3.9"/>
			<path style="fill:none;stroke:#263238;stroke-linecap:round;stroke-linejoin:round;stroke-miterlimit:10;" d="M406.384,311.89
				c0,0-8.668,6.476-10.508,7.406"/>
			
				<line style="fill:none;stroke:#263238;stroke-linecap:round;stroke-linejoin:round;stroke-miterlimit:10;" x1="406.262" y1="309.882" x2="396.593" y2="316.319"/>
			
				<line style="fill:none;stroke:#263238;stroke-linecap:round;stroke-linejoin:round;stroke-miterlimit:10;" x1="371.613" y1="314.545" x2="378.284" y2="318.211"/>
		</g>
		<path style="fill:#92E3A9;stroke:#263238;stroke-linecap:round;stroke-linejoin:round;stroke-miterlimit:10;" d="M318.366,407.072
			c1.82-2.512,2.103-14.21,7.834-24.318c5.731-10.108,11.103-15.409,13.246-17.392c0.253-0.234,0.523-0.655,0.808-1.216
			c0.826,2.197,2.32,4.978,4.989,7.124c2.453,1.973,5.4,2.184,7.821,1.862c-1.416,1.664-2.342,2.883-2.514,3.338
			c-0.384,1.018-3.628,9.157-9.165,14.279c-5.537,5.122-12.742,13.279-13.715,16.168c-0.973,2.889-0.79,7.029-2.775,9.362
			c-1.985,2.333-3.968,0.19-7.163,2.648c-3.195,2.458-7.587,4.698-10.324,4.247c-2.737-0.451-5.203-3.474-1.233-8.141
			C310.145,410.368,316.547,409.584,318.366,407.072z"/>
		<path style="fill:#263238;stroke:#263238;stroke-linecap:round;stroke-linejoin:round;stroke-miterlimit:10;" d="M317.952,407.542
			l0.215,0.211c0,0,0.076-0.33,0.248-0.758c0.137-0.206,0.267-0.464,0.39-0.772c0.534-0.855,1.444-1.621,2.901-0.915
			c2.704,1.311,2.802,3.208,2.246,4.22c-0.556,1.012-0.92,1.514-0.92,1.514l4.18-2.336c-0.526,2.63-0.715,5.691-2.318,7.574
			c-1.985,2.333-3.968,0.19-7.163,2.648c-3.195,2.458-7.587,4.698-10.324,4.247c-2.737-0.451-5.203-3.474-1.233-8.141
			C309.887,410.672,315.721,409.702,317.952,407.542z"/>
		<path style="fill:#92E3A9;stroke:#263238;stroke-linecap:round;stroke-linejoin:round;stroke-miterlimit:10;" d="M416.297,365.716
			c6.558-0.605,10.739-7.133,12.154-9.736c0.795,0.852,1.503,1.617,2.015,2.25c2.3,2.844,8.547,6.015,12.743,13.238
			c4.196,7.223,11.403,33.311,11.403,33.311s3.997,7.904,6.772,11.8c2.775,3.896,4.249,5.847,3.191,6.495
			c-1.058,0.648-3.307,0.904-8.465,0.704c-5.158-0.201-7.324-6.484-8.4-9.797c-1.076-3.314-2.463-7.5-3.269-8.909
			c-0.806-1.409-16.156-21.788-20.577-27.642C419.79,372.035,416.75,366.546,416.297,365.716z"/>
		<path style="fill:#263238;stroke:#263238;stroke-linecap:round;stroke-linejoin:round;stroke-miterlimit:10;" d="M447.71,413.981
			c-0.429-1.321-0.907-2.778-1.378-4.145l0.586-0.074c0,0,0.392-3.852,3.567-4.696c3.175-0.843,5.457,2.63,5.457,2.63l0.24,0.088
			c1.418,2.652,3.531,6.449,5.202,8.796c2.775,3.896,4.249,5.847,3.191,6.495c-1.058,0.648-3.307,0.904-8.465,0.704
			C450.953,423.577,448.787,417.294,447.71,413.981z"/>
		<path style="fill:#FFFFFF;stroke:#263238;stroke-linecap:round;stroke-linejoin:round;stroke-miterlimit:10;" d="M328.956,227.943
			l13.255-35.347c0.738-1.976,2.942-2.977,4.916-2.232l0,0c1.963,0.74,2.959,2.928,2.228,4.895l-13.089,35.023
			c-0.955,2.569-2.289,4.98-3.957,7.154l-0.232,0.302c-1.665,2.17-2.997,4.576-3.952,7.139l-6.127,15.806l-2.347-1.641l5.917-15.117
			c0.962-2.568,1.535-5.266,1.699-8.004l0,0C327.43,233.193,327.999,230.504,328.956,227.943z"/>
		<path style="fill:#FFFFFF;stroke:#263238;stroke-linecap:round;stroke-linejoin:round;stroke-miterlimit:10;" d="M325.778,252.049
			c0,0,3.086,4.769,3.7,6.687c0.614,1.918-0.505,4.113-0.962,7.022c-0.458,2.909,0.005,4.305-1.549,4.417
			c-1.554,0.112-3.841-3.077-4.95-5.53s2.061-8.701,2.061-8.701S322.922,250.216,325.778,252.049z"/>
		<path style="fill:#FFFFFF;stroke:#263238;stroke-linecap:round;stroke-linejoin:round;stroke-miterlimit:10;" d="M320.864,254.441
			c0,0,5.078,2.264,5.566,2.972c0.489,0.708-0.583,1.699-0.583,1.699s-0.06,1.547-1.145,2.882c-1.085,1.335-0.603,2.215-2.032,3.537
			c-1.429,1.322-3.465,0.554-5.184,0.487c-1.719-0.067-2.704-1.311-1.757-3.512c0.947-2.202,1.007-3.749,2.105-5.428
			C318.932,255.399,320.183,254.242,320.864,254.441z"/>
		<path style="fill:#FFFFFF;stroke:#263238;stroke-linecap:round;stroke-linejoin:round;stroke-miterlimit:10;" d="M390.345,247.675
			c0,0,9.559,6.571,12.334,10.467c2.776,3.896,3.731,10.304,3.955,13.412c0.223,3.108,1.553,17.623,1.34,18.648
			c-0.212,1.025,0.15,4.999,1.762,7.817c1.612,2.818,0.302,5.522-2.728,8.159c-3.03,2.637-16.846,8.126-23.895,7.851
			c-7.049-0.274-10.673-0.071-13.634-3.63c-2.961-3.559-3.046-5.801-4.069-10.489c-1.023-4.689-9.307-21.885-9.307-21.885
			s-7.654,6.417-10.663,8.539c-3.01,2.121-10.88,5.259-12.104,5.728c-1.223,0.469-4.8-0.531-6.274-2.483
			c-1.474-1.951-6.114-6.609-8.094-13.229c-1.981-6.62-2.43-8.359-2.43-8.359l5.106-2.901c0,0,4.6,5.689,6.775,7.323
			c2.175,1.634,3.854,2.733,3.854,2.733s4.914-2.391,7.62-5.558s3.726-7.259,4.878-10.314s2.793-5.401,10.842-8.704
			c8.049-3.302,16.672-3.656,16.672-3.656S382.504,245.648,390.345,247.675z"/>
		<path style="fill:#92E3A9;stroke:#263238;stroke-linecap:round;stroke-linejoin:round;stroke-miterlimit:10;" d="M332.827,275.09
			c1.104,3.098,2.332,7.644,1.652,11.214c-0.44,2.309-1.26,4.39-2.101,6.082c0.381,0.016,0.723-0.004,0.96-0.095
			c1.224-0.469,9.094-3.606,12.104-5.728c0.141-0.099,0.301-0.216,0.46-0.333c-1.23-5.414-3.625-14.635-6.007-16.413
			C337.736,272.342,334.181,274.37,332.827,275.09z"/>
		<g>
			<path style="fill:#FFFFFF;stroke:#263238;stroke-linecap:round;stroke-linejoin:round;stroke-miterlimit:10;" d="
				M391.133,231.865c0,0,0.929,7.096,0.862,8.815c-0.067,1.719,0.73,7.777-0.038,9.813c-0.768,2.036-3.05,3.153-4.425,3.099
				c-1.375-0.053-2.751-0.107-2.751-0.107s-6.254,10.26-7.848,11.403c-1.594,1.143-4.609-1.04-7.085-8.196
				c-2.476-7.156-2.555-9.57-2.164-10.76c0.391-1.19-1.255-3.148-1.255-3.148s-3.298-3.744-3.41-5.298
				c-0.112-1.554-1.242-3.492,9.221-6.873c10.463-3.381,14.43-3.571,15.475-3.874C388.762,226.435,390.492,230.634,391.133,231.865z
				"/>
			<path style="fill:#263238;stroke:#263238;stroke-linecap:round;stroke-linejoin:round;stroke-miterlimit:10;" d="
				M370.183,234.837c0,0,1.221,4.008,0.011,4.133c-1.21,0.125-4.019-2.911-4.019-2.911L370.183,234.837z"/>
			<path style="fill:none;stroke:#263238;stroke-linecap:round;stroke-linejoin:round;stroke-miterlimit:10;" d="M384.782,253.485
				c0,0-4.285-0.511-6.638-1.98c-2.353-1.469-4.158-3.778-4.158-3.778l7.706,9.942L384.782,253.485z"/>
			<path style="fill:none;stroke:#263238;stroke-linecap:round;stroke-linejoin:round;stroke-miterlimit:10;" d="M387.547,235.513
				c0,0,2.907,4.934,2.88,5.622c-0.027,0.688-1.601,1.315-2.467,1.454c-0.866,0.138-1.567,0.456-1.567,0.456"/>
			<path style="fill:none;stroke:#263238;stroke-linecap:round;stroke-linejoin:round;stroke-miterlimit:10;" d="M388.733,244.857
				c0,0-2.322,2.148-4.689,1.023"/>
			<polygon style="fill:#263238;stroke:#263238;stroke-linecap:round;stroke-linejoin:round;stroke-miterlimit:10;" points="
				382.99,237.574 384.12,239.512 377.777,243.225 377.031,240.269 			"/>
			<polygon style="fill:#263238;stroke:#263238;stroke-linecap:round;stroke-linejoin:round;stroke-miterlimit:10;" points="
				391.779,237.4 389.702,237.663 389.055,236.605 391.674,235.674 			"/>
			<path style="fill:none;stroke:#263238;stroke-linecap:round;stroke-linejoin:round;stroke-miterlimit:10;" d="M380.954,236.806
				c0,0-2.4-0.266-3.3,0.732"/>
			<path style="fill:#92E3A9;stroke:#263238;stroke-linecap:round;stroke-linejoin:round;stroke-miterlimit:10;" d="
				M372.279,234.058c0,0,8.75-3.62,15.542-5.594c6.792-1.974,13.986-1.005,12.207,0.475c-1.779,1.48-13.499,6.19-16.971,6.915
				C379.585,236.581,372.279,234.058,372.279,234.058z"/>
			<path style="fill:#263238;stroke:#263238;stroke-linecap:round;stroke-linejoin:round;stroke-miterlimit:10;" d="
				M373.133,234.263l-11.019,4.392c0,0-3.323-7.533-3.135-12.347c0.187-4.814,7.087-9.539,15.605-11.618
				c8.518-2.079,12.845,6.182,13.962,8.464c1.116,2.282,1.876,4.894,1.876,4.894L373.133,234.263z"/>
		</g>
		<path style="fill:none;stroke:#263238;stroke-linecap:round;stroke-linejoin:round;stroke-miterlimit:10;" d="M356.598,277.164
			c0,0-6.392-9.676-7.338-10.196"/>
		<path style="fill:#FFFFFF;stroke:#263238;stroke-linecap:round;stroke-linejoin:round;stroke-miterlimit:10;" d="M387.504,258.757
			c0,0-13.713,11.691-15.863,13.846c-2.15,2.155-5.743,5.975-5.743,5.975l-2.949,0.574c0,0-5.249-2.271-12.457-2.896
			c-7.208-0.625-21.158-4.956-21.158-4.956s-2.59-4.233-3.747-5.484c-1.157-1.25-5.118-1.232-6.486-1.458
			c-1.369-0.225-3.148,1.255-3.526,2.101c-0.377,0.846-1.371,4.251-1.741,4.926c-0.371,0.674,0.561,3.293,1.242,3.492
			c0.681,0.199,1.561-0.284,1.561-0.284s3.452-0.21,4.285,0.511c0.833,0.721,2.472,2.851,4.356,3.097
			c1.884,0.245,4.635,0.353,4.635,0.353s23.521,15.035,25.365,16.312c1.844,1.277,9.793,0.553,14.151-0.827
			c4.358-1.38,20.959-7.621,24.993-9.53c4.035-1.909,7.23-4.368,7.23-4.368"/>
		<path style="fill:#92E3A9;stroke:#263238;stroke-linecap:round;stroke-linejoin:round;stroke-miterlimit:10;" d="M350.434,286.585
			c-0.049-4.011,1.36-7.708,2.506-10.046c5.916,0.845,10.009,2.612,10.009,2.612l2.949-0.574c0,0,1.261-1.341,2.735-2.881
			c0.456,0.695,0.979,1.524,1.583,2.532c1.901,3.17,4.58,9.578,6.046,13.403c-2.96,1.086-5.484,1.98-6.834,2.408
			c-4.358,1.38-12.307,2.104-14.151,0.827c-0.444-0.307-2.15-1.416-4.474-2.915C350.606,290.358,350.458,288.546,350.434,286.585z"
			/>
		<path style="fill:#FFFFFF;stroke:#263238;stroke-linecap:round;stroke-linejoin:round;stroke-miterlimit:10;" d="M315.575,266.46
			c0.377-0.846,2.157-2.327,3.525-2.101c1.369,0.225,5.33,0.207,6.486,1.458c1.157,1.25,3.747,5.484,3.747,5.484
			s1.638,0.509,4.081,1.202c-0.829,1.17-2.81,4.071-3.139,5.55c-0.047,0.212-0.085,0.435-0.117,0.66
			c-0.158-0.101-0.247-0.158-0.247-0.158s-2.751-0.107-4.635-0.353c-1.884-0.246-3.523-2.376-4.356-3.097
			c-0.833-0.721-4.285-0.511-4.285-0.511s-0.88,0.482-1.561,0.284c-0.681-0.199-1.612-2.818-1.242-3.492
			C314.204,270.711,315.197,267.306,315.575,266.46z"/>
		<path style="fill:#FFFFFF;stroke:#263238;stroke-linecap:round;stroke-linejoin:round;stroke-miterlimit:10;" d="M336.672,272.963
			c0,0-3.758,3.642-3.911,7.596l-3.867-2.389c0,0-1.221-4.008,2.496-6.618L336.672,272.963z"/>
	</g>
</g>
<g id="Character_1">
	<g>
		<g>
			<path style="fill:#757575;stroke:#263238;stroke-linecap:round;stroke-linejoin:round;stroke-miterlimit:10;" d="M16.662,388.382
				c0,0-9.231,11.483-10.807,13.509s-3.152,5.854,0.225,8.556c3.377,2.702,4.953,3.828,6.53,6.755
				c1.576,2.927,2.252,3.828,7.655,5.179c5.404,1.351,14.86,2.251,16.211,0.675c1.351-1.576,2.026-5.854,0.225-9.456
				c-1.801-3.603-7.655-9.457-8.331-11.933c-0.675-2.477-0.675-4.953,0.676-6.529C30.397,393.56,16.662,388.382,16.662,388.382z"/>
			<path style="fill:#263238;stroke:#263238;stroke-linecap:round;stroke-linejoin:round;stroke-miterlimit:10;" d="M34.45,419.228
				c-4.278-0.901-5.179,4.278-10.582,3.152c-5.404-1.126-9.231-5.629-15.311-13.284c-1.895-2.386-3.155-3.941-3.993-4.951
				c-0.783,1.987-0.84,4.417,1.516,6.302c3.377,2.702,4.953,3.828,6.529,6.755c1.576,2.927,2.252,3.828,7.655,5.179
				c5.404,1.351,14.86,2.251,16.211,0.675c0.546-0.637,0.977-1.719,1.184-3.015C36.782,419.762,35.717,419.495,34.45,419.228z"/>
		</g>
		<path style="fill:#757575;stroke:#263238;stroke-linecap:round;stroke-linejoin:round;stroke-miterlimit:10;" d="M167.292,398.964
			c0,0,2.702,5.854,4.053,6.53c1.351,0.675,11.033,2.702,13.96,2.702c2.927,0,1.801,6.755,0.225,8.781
			c-1.576,2.026-5.854,3.377-12.609,3.603c-6.755,0.225-15.085-1.351-19.363-1.351c-4.278,0-9.231,0-7.88-4.053
			c1.351-4.053,5.854-11.933,6.304-12.609C152.431,401.891,167.292,398.964,167.292,398.964z"/>
		<path style="fill:#263238;stroke:#263238;stroke-linecap:round;stroke-linejoin:round;stroke-miterlimit:10;" d="M153.557,419.228
			c4.278,0,12.609,1.576,19.363,1.351s11.033-1.576,12.609-3.603c0.736-0.947,1.369-2.925,1.541-4.765
			c-1.715,0.974-3.801,2.628-6.521,3.648c-4.376,1.641-14.222,2.188-19.145,1.641c-4.923-0.547-15.727-2.325-15.727-2.325
			C144.326,419.228,149.279,419.228,153.557,419.228z"/>
		<polygon style="fill:#FFFFFF;stroke:#263238;stroke-linecap:round;stroke-linejoin:round;stroke-miterlimit:10;" points="
			157.267,317.505 155.929,330.549 145.227,327.539 145.895,316.167 		"/>
		<path style="fill:#263238;stroke:#263238;stroke-linecap:round;stroke-linejoin:round;stroke-miterlimit:10;" d="M161.949,273.357
			c0,0,6.26,10.03,7.144,14.38c0.883,4.349-6.809,24.417-7.144,26.758c-0.335,2.341-2.007,6.02-9.03,6.02
			c-7.024,0-11.371-5.017-11.371-5.017s15.719-23.746,16.054-25.753C157.936,287.739,161.949,273.357,161.949,273.357z"/>
		<path style="fill:#263238;stroke:#263238;stroke-linecap:round;stroke-linejoin:round;stroke-miterlimit:10;" d="M89.162,307.1
			l-17.337,36.025c0,0-6.755,2.252-8.106,4.503c-1.351,2.252-9.457,11.258-17.112,15.986c-7.655,4.728-29.721,23.416-30.846,24.317
			c-1.126,0.901,3.603,6.53,13.509,12.158c9.907,5.629,18.013,7.655,18.013,7.655s26.343-25.443,33.323-34.674
			c6.98-9.231,41.203-30.846,41.203-30.846l14.86,9.682l15.851,16.119l-3.603,37.826l26.704-7.563c0,0,2.251-33.773,2.702-37.376
			c0.45-3.603-0.225-13.284-0.675-14.635c-0.45-1.351-32.873-28.37-32.873-28.37L89.162,307.1z"/>
		<path style="fill:#263238;stroke:#263238;stroke-linecap:round;stroke-linejoin:round;stroke-miterlimit:10;" d="M166.166,289.538
			c0,0-9.907,21.39-18.238,29.721c-8.331,8.331-31.747,11.258-43.23,8.331c-11.483-2.927-21.165-23.866-14.86-29.27
			c6.304-5.404,18.012-16.887,28.595-25.217c10.582-8.331,22.516-9.682,22.516-9.682s11.033,0,15.761,4.953
			c4.728,4.954,10.807,11.483,10.807,11.483"/>
		<path style="fill:#757575;stroke:#263238;stroke-linecap:round;stroke-linejoin:round;stroke-miterlimit:10;" d="M150.855,293.591
			l-0.675,11.258c0,0,5.179-11.483,6.304-16.211c1.126-4.728,1.351-9.006,1.351-9.006l-16.211-9.457l4.278,18.913L150.855,293.591z"
			/>
		<polygon style="fill:#FFFFFF;stroke:#263238;stroke-linecap:round;stroke-linejoin:round;stroke-miterlimit:10;" points="
			155.604,292.388 161.227,288.104 164.975,288.907 159.62,275.253 157.478,274.985 		"/>
		<path style="fill:#FFFFFF;stroke:#263238;stroke-linecap:round;stroke-linejoin:round;stroke-miterlimit:10;" d="M174.722,258.917
			c-0.052,0.673-0.225,4.053-0.45,6.755c-0.225,2.702-11.033,14.635-11.033,14.635s-4.278,0.676-6.304,0.901
			c-2.026,0.225-6.755,1.576-6.755,1.576s-6.304-5.854-7.43-10.357c-1.126-4.503-1.801-9.006-1.801-9.006s-0.45-2.252,0.675-4.053
			c1.126-1.801,1.351-2.927,10.132-4.053C160.537,254.189,175.397,250.136,174.722,258.917z"/>
		<path style="fill:#263238;stroke:#263238;stroke-linecap:round;stroke-linejoin:round;stroke-miterlimit:10;" d="M146.577,264.321
			c0,0-3.377,2.702-4.503,2.026c-1.126-0.675-1.576-3.152-1.576-5.404c0-2.252,3.602-4.278,3.602-4.278l14.185,0.225
			c0,0-1.126,4.053-1.576,4.953c-0.45,0.901-5.854-0.901-5.854-0.901L146.577,264.321z"/>
		<path style="fill:#263238;stroke:#263238;stroke-linecap:round;stroke-linejoin:round;stroke-miterlimit:10;" d="M169.093,245.183
			c0,0-3.828-2.477-6.079-3.828c-2.251-1.351-4.953-1.351-10.582-0.901c-5.629,0.45-8.106,1.576-10.132,7.655
			c-2.026,6.079-1.351,9.907-0.45,9.907c0.901,0,13.96,2.927,13.96,2.927s8.781,0.45,13.735-0.901
			c4.953-1.351,8.331-2.702,8.331-6.304C177.874,250.136,169.093,245.183,169.093,245.183z"/>
		<g>
			<g>
				<path style="fill:#FFFFFF;stroke:#263238;stroke-linecap:round;stroke-linejoin:round;stroke-miterlimit:10;" d="
					M171.344,241.355c0,0-7.205,4.503-8.781,8.331c-1.576,3.828-0.901,7.655,1.576,8.781c2.477,1.126,4.953,1.576,6.755-0.45
					c1.801-2.026,2.702-0.676,3.377-0.676c0.676,0,4.728,1.351,5.854-1.351c1.126-2.702,2.026-5.854-1.351-10.132
					C175.397,241.58,171.344,241.355,171.344,241.355z"/>
				
					<line style="fill:none;stroke:#263238;stroke-linecap:round;stroke-linejoin:round;stroke-miterlimit:10;" x1="170.894" y1="258.017" x2="175.397" y2="249.911"/>
			</g>
			<path style="fill:#FFFFFF;stroke:#263238;stroke-linecap:round;stroke-linejoin:round;stroke-miterlimit:10;" d="
				M160.537,270.175c0,0,0.45,2.702,1.576,5.179c1.126,2.477,9.006,8.331,11.933,5.854c2.927-2.477,3.603-5.404,3.603-7.88
				c0-2.477-2.477-3.603-2.477-3.603s2.702-4.053,2.702-6.079s-3.377-2.702-3.377-2.702s-2.477,0-2.702,0.901
				c-0.225,0.901,1.126,3.828,1.126,3.828l-0.225,2.251l-1.351,1.126l-0.45,0.901l-4.503-2.026c0,0-1.576-1.801-4.053-0.45
				C159.861,268.824,160.537,270.175,160.537,270.175z"/>
		</g>
		<g>
			<path style="fill:none;stroke:#263238;stroke-width:2;stroke-linecap:round;stroke-linejoin:round;stroke-miterlimit:10;" d="
				M179.225,258.917c0,0-13.96-3.828-16.211-3.377c-2.251,0.45-2.026,5.179-2.026,5.179s2.252,1.801,4.278,2.477
				c2.026,0.676,15.311,3.603,16.211,2.927c0.901-0.676-3.602-3.377-3.602-3.377L179.225,258.917c0,0,4.503-0.225,5.179-1.576
				c0.676-1.351,1.126-4.053-0.45-6.98c-1.576-2.927-4.053-6.079-8.781-7.655c-4.728-1.576-9.907-2.477-12.834-2.477
				c-2.927,0-4.053,0.225-4.053,0.225"/>
			<path style="fill:none;stroke:#263238;stroke-width:2;stroke-linecap:round;stroke-linejoin:round;stroke-miterlimit:10;" d="
				M160.987,260.718c0,0-2.702,3.377-1.801,6.53c0.901,3.152,6.079,4.953,11.258,6.53c2.224,0.677,3.949,1.312,5.301,1.603
				c1.797,0.386,2.934,0.164,3.705-1.378c1.351-2.702,2.026-7.88,2.026-7.88s-7.655,13.509-9.456,14.635
				c-1.801,1.126,4.053,6.53,4.053,6.53"/>
			<path style="fill:none;stroke:#263238;stroke-width:2;stroke-linecap:round;stroke-linejoin:round;stroke-miterlimit:10;" d="
				M162.113,271.076c0,0-2.477,5.854-0.901,7.43c1.576,1.576,4.953,4.053,9.006,3.377c4.053-0.675,7.881-5.854,7.881-5.854"/>
			<path style="fill:none;stroke:#263238;stroke-width:2;stroke-linecap:round;stroke-linejoin:round;stroke-miterlimit:10;" d="
				M164.139,280.983c0,0,2.252,5.404,4.953,6.755c2.702,1.351,7.205,2.927,6.98-0.45c-0.225-3.377-2.026-4.278-2.026-6.079"/>
			<path style="fill:none;stroke:#263238;stroke-width:2;stroke-linecap:round;stroke-linejoin:round;stroke-miterlimit:10;" d="
				M167.292,272.877c0,0-0.225,6.53,0,8.331c0.225,1.801,5.179,6.98,6.079,7.43"/>
			<path style="fill:none;stroke:#263238;stroke-width:2;stroke-linecap:round;stroke-linejoin:round;stroke-miterlimit:10;" d="
				M162.563,262.294c0,0,0.45-6.98,2.477-9.682"/>
			<path style="fill:none;stroke:#263238;stroke-width:2;stroke-linecap:round;stroke-linejoin:round;stroke-miterlimit:10;" d="
				M172.245,242.256c0,0-7.655,5.629-6.529,6.304c1.126,0.676,11.933,2.702,14.185,1.576c2.252-1.126,2.026-2.477,2.026-2.477"/>
			<path style="fill:none;stroke:#263238;stroke-width:2;stroke-linecap:round;stroke-linejoin:round;stroke-miterlimit:10;" d="
				M170.894,242.931c0,0,9.682,4.278,12.158,15.085"/>
		</g>
		<polygon style="fill:#263238;stroke:#263238;stroke-linecap:round;stroke-linejoin:round;stroke-miterlimit:10;" points="
			160.762,280.757 151.756,273.552 156.934,281.208 		"/>
		<path style="fill:#FFFFFF;stroke:#263238;stroke-linecap:round;stroke-linejoin:round;stroke-miterlimit:10;" d="M152.206,263.42
			c0,0-2.026-6.529-4.728-4.728c-2.702,1.801-3.152,5.179-1.126,7.881s5.629,1.801,5.629,1.801"/>
		<path style="fill:#757575;stroke:#263238;stroke-linecap:round;stroke-linejoin:round;stroke-miterlimit:10;" d="M89.838,298.319
			c0,0-25.668,28.82-27.244,33.773c-1.576,4.953,18.688,22.29,20.489,21.84c1.801-0.45,18.913-27.244,18.913-27.244
			S85.11,313.63,89.838,298.319z"/>
		<g>
			<path style="fill:#FFFFFF;stroke:#263238;stroke-linecap:round;stroke-linejoin:round;stroke-miterlimit:10;" d="M90.964,300.796
				c0,0-5.629,7.88-6.079,13.734c-0.45,5.854-1.351,28.37-1.351,28.37l-4.728,7.655c0,0-6.304,2.927-6.755,4.278
				c-0.45,1.351,2.026,1.801,2.026,1.801s2.927-2.251,3.602-2.477c0.676-0.225-0.675,4.053-2.026,5.404
				c-1.351,1.351-1.801,3.152-0.901,3.152c0.901,0,2.702-0.901,3.603-2.477c0.901-1.576,2.702-3.828,2.702-3.828l-1.576,6.98
				c0,0,0.45,2.026,1.801,0.901c1.351-1.126,1.801-2.251,1.801-2.251s2.026,2.026,3.377,0.225c1.351-1.801,2.477-4.278,3.152-4.953
				s1.801-1.576,1.801-1.576s0.225,2.252,1.126,2.477c0.901,0.225,2.702,1.351,2.702-1.126c0-2.477-1.126-1.576-0.675-5.854
				c0.45-4.278-1.576-8.556-1.576-8.556s5.404-20.94,6.079-23.191c0.675-2.251,2.252-6.079,2.252-6.079L90.964,300.796z"/>
			
				<line style="fill:none;stroke:#263238;stroke-linecap:round;stroke-linejoin:round;stroke-miterlimit:10;" x1="83.083" y1="362.039" x2="86.235" y2="355.959"/>
		</g>
		<path style="fill:#263238;stroke:#263238;stroke-linecap:round;stroke-linejoin:round;stroke-miterlimit:10;" d="M138.021,264.996
			l-11.033,2.477c0,0-25.668,18.463-27.469,20.489c-1.801,2.026-9.907,12.384-9.907,12.384s4.278,11.258,7.205,13.96
			c2.927,2.702,5.629,3.377,5.629,3.377s14.86-8.781,21.84-11.708c6.98-2.927,12.609-12.384,13.509-15.536"/>
		
			<line style="fill:none;stroke:#696969;stroke-linecap:round;stroke-linejoin:round;stroke-miterlimit:10;" x1="121.81" y1="342.225" x2="131.717" y2="336.371"/>
		
			<line style="fill:none;stroke:#696969;stroke-linecap:round;stroke-linejoin:round;stroke-miterlimit:10;" x1="76.104" y1="365.416" x2="38.502" y2="403.017"/>
		<polygon style="fill:#FFFFFF;stroke:#263238;stroke-linecap:round;stroke-linejoin:round;stroke-miterlimit:10;" points="
			140.048,262.069 136.67,266.347 141.173,296.068 150.63,292.691 144.1,273.327 		"/>
	</g>
</g>
<g id="Character_2">
	<g>
		<path style="fill:#FFFFFF;stroke:#263238;stroke-linecap:round;stroke-linejoin:round;stroke-miterlimit:10;" d="M234.219,314.05
			l9.223-1.107c0,0,7.562-2.213,11.251-1.107c3.689,1.107,16.601,2.951,18.814,2.951c2.213,0,4.98,0.184,4.98,0.184l-1.107,5.349
			l-1.291,2.213c0,0-3.32-0.553-11.436,1.107c-8.116,1.66-14.203,2.582-17.154,2.213c-2.951-0.369-6.825-0.738-7.747-1.107
			c-0.922-0.369-12.727,0.369-12.727,0.369L234.219,314.05z"/>
		<path style="fill:#FFFFFF;stroke:#263238;stroke-linecap:round;stroke-linejoin:round;stroke-miterlimit:10;" d="M234.219,314.05
			l9.223-1.107c0,0,5.942-1.738,9.861-1.361c-1.552,2.643-4.19,8.185-2.852,13.535c0.066,0.265,0.124,0.507,0.185,0.757
			c-1.265,0.083-2.324,0.082-3.136-0.019c-2.951-0.369-6.825-0.738-7.747-1.107c-0.922-0.369-12.727,0.369-12.727,0.369
			L234.219,314.05z"/>
		<path style="fill:#263238;stroke:#263238;stroke-linecap:round;stroke-linejoin:round;stroke-miterlimit:10;" d="M227.026,325.117
			l7.194-11.067l9.223-1.107c0,0,0.18-0.052,0.495-0.137c-0.754,2.39-3.149,9.552-5.291,11.388
			c-0.186,0.159-0.362,0.308-0.534,0.451C234.637,324.642,227.026,325.117,227.026,325.117z"/>
		<path style="fill:#92E3A9;stroke:#263238;stroke-linecap:round;stroke-linejoin:round;stroke-miterlimit:10;" d="M190.07,302.807
			c0,0-9.309,2.024-14.975,15.38c-5.666,13.356-6.071,24.689-4.857,31.164c1.214,6.476,8.095,8.904,10.523,8.499
			c2.428-0.405,20.237-4.047,21.451-4.047s9.714-16.999,9.309-27.117c-0.405-10.118-7.685-21.943-10.318-23.518
			C198.57,301.593,194.117,299.569,190.07,302.807z"/>
		<path style="fill:#92E3A9;stroke:#263238;stroke-linecap:round;stroke-linejoin:round;stroke-miterlimit:10;" d="M216.697,306.303
			c0,0,14.94,4.98,16.416,5.902c1.476,0.922,2.213,1.476,2.213,1.476s-2.767,7.931-6.456,11.989
			c-3.689,4.058-4.796,5.165-4.796,5.165l-4.611-3.505L216.697,306.303z"/>
		<g>
			<path style="fill:#FFFFFF;stroke:#263238;stroke-linecap:round;stroke-linejoin:round;stroke-miterlimit:10;" d="
				M218.357,378.792c0,0,8.116,17.707,9.776,27.114c1.66,9.407-3.689,15.309-7.378,16.416c-3.689,1.107-20.289,1.476-23.056,1.107
				c-2.767-0.369-11.251-0.184-17.338,0.738c-6.087,0.922-9.591,1.66-13.465,2.767c-3.873,1.107-8.854,0.922-10.329,0
				c-1.476-0.922-3.136-2.398-2.951-4.796c0.184-2.398,6.087-4.98,7.931-7.194s6.087-6.087,10.145-6.271
				c4.058-0.184,7.931,3.689,10.145,5.165c2.213,1.476,9.591-0.369,14.387-3.136c4.796-2.767,7.562-4.058,7.562-4.058
				l-13.834-18.998c0,0-10.329-3.505-14.572-13.834c-4.242-10.329-3.873-14.203-3.136-16.969c0.738-2.767,5.165-4.796,15.494-2.951
				c10.329,1.845,22.318,4.98,26.192,11.067C217.803,371.045,218.357,378.792,218.357,378.792z"/>
			<path style="fill:none;stroke:#263238;stroke-linecap:round;stroke-linejoin:round;stroke-miterlimit:10;" d="M203.785,406.644
				c0,0,7.562,3.689,8.854,4.242"/>
			<path style="fill:none;stroke:#263238;stroke-linecap:round;stroke-linejoin:round;stroke-miterlimit:10;" d="M180.36,424.167
				c-1.335,0.202-2.539,0.395-3.657,0.586c1.701-1.295,4.452-3.968,4.579-7.779c0.052-1.571-0.154-2.852-0.518-3.917
				c0.388,0.297,0.749,0.566,1.072,0.781c1.989,1.326,8.141-0.031,12.849-2.327c1.801,2.031,4.437,6.225,2.301,11.846
				C193.682,423.093,185.997,423.313,180.36,424.167z"/>
			<path style="fill:none;stroke:#263238;stroke-linecap:round;stroke-linejoin:round;stroke-miterlimit:10;" d="M161.546,414.944
				c1.703-2.044,5.452-5.498,9.212-6.16l-0.174,0.258c0,0,4.796-0.369,5.533,4.796c0.738,5.165-5.902,9.96-9.407,11.251
				c-2.563,0.944-4.538,2.669-7.431,2.522c-0.501-0.048-0.958-0.116-1.363-0.203c-0.139-0.033-0.276-0.061-0.42-0.103
				c-0.018-0.005-0.036-0.01-0.054-0.015c-0.189-0.057-0.387-0.132-0.584-0.205c-0.108-0.048-0.208-0.099-0.293-0.152
				c-1.475-0.922-3.136-2.398-2.951-4.796C153.799,419.74,159.702,417.158,161.546,414.944z"/>
			
				<circle style="fill:none;stroke:#263238;stroke-linecap:round;stroke-linejoin:round;stroke-miterlimit:10;" cx="171.23" cy="418.541" r="1.015"/>
			<path style="fill:none;stroke:#263238;stroke-linecap:round;stroke-linejoin:round;stroke-miterlimit:10;" d="M166.342,412.086
				c0,0.56,0.454,1.014,1.014,1.014c0.56,0,1.014-0.454,1.014-1.014s-0.454-1.014-1.014-1.014
				C166.796,411.071,166.342,411.525,166.342,412.086z"/>
			<path style="fill:none;stroke:#263238;stroke-linecap:round;stroke-linejoin:round;stroke-miterlimit:10;" d="M157.211,419.095
				c0,0.56,0.454,1.014,1.015,1.014c0.56,0,1.014-0.454,1.014-1.014c0-0.56-0.454-1.014-1.014-1.014
				C157.666,418.08,157.211,418.534,157.211,419.095z"/>
			<path style="fill:none;stroke:#263238;stroke-linecap:round;stroke-linejoin:round;stroke-miterlimit:10;" d="M160.9,424.259
				c0,0.56,0.454,1.014,1.014,1.014s1.014-0.454,1.014-1.014c0-0.56-0.454-1.014-1.014-1.014S160.9,423.699,160.9,424.259z"/>
		</g>
		<path style="fill:#263238;stroke:#263238;stroke-linecap:round;stroke-linejoin:round;stroke-miterlimit:10;" d="M220.017,307.226
			c0,0,2.951,12.358,2.767,20.658c-0.184,8.3-6.271,15.494-6.271,15.494s1.291,7.378,1.476,7.931
			c0.185,0.553-18.076,9.96-21.949,10.145c-3.873,0.184-6.825,0-8.485-1.66c-1.66-1.66-8.116-2.029-9.223-1.476
			c-1.107,0.553-5.718,4.242-7.747,2.582c-2.029-1.66-3.689-9.038-1.66-12.174c2.029-3.136,6.825-3.874,10.145-3.32
			c3.32,0.553,8.854,1.476,9.96,1.291c1.107-0.184,3.32-7.009,6.64-9.223c3.32-2.213,6.64-6.087,5.902-11.62
			c-0.738-5.534-8.485-16.232-10.145-18.26c-1.66-2.029-7.747-3.136-7.747-3.136s2.582-3.873,5.902-4.98
			c3.32-1.107,4.98-0.922,4.98-0.922s11.251,0.738,16.416,2.029S220.017,307.226,220.017,307.226z"/>
		<g>
			<path style="fill:#FFFFFF;stroke:#263238;stroke-linecap:round;stroke-linejoin:round;stroke-miterlimit:10;" d="
				M223.521,281.956c0,0,0.922,3.32,0.922,4.242c0,0.922-0.553,2.951-0.553,2.951l2.582,4.611c0,0-2.767,3.505-2.767,4.242
				s-1.66,9.407-2.767,9.776c-1.107,0.369-6.271-1.107-6.271-1.107s1.291,7.747-0.922,10.145c-2.213,2.398-4.427,2.398-7.009-2.213
				c-2.582-4.611-3.32-8.3-5.534-11.436c-2.213-3.136-6.64-4.611-6.64-4.611l3.505-1.845l-0.922-7.563c0,0,2.582-1.66,6.087-3.689
				c3.505-2.029,11.989-3.32,14.756-3.32C220.754,282.141,223.521,281.956,223.521,281.956z"/>
			<path style="fill:#263238;stroke:#263238;stroke-linecap:round;stroke-linejoin:round;stroke-miterlimit:10;" d="
				M215.221,288.596c-1.844,1.476-3.136-1.291-3.874-2.582c-0.738-1.291-5.902-0.553-5.718,2.029
				c0.184,2.582,3.136,4.427,3.136,4.427s-2.951,3.136-6.64,4.242c-2.059,0.618-3.37,0.373-4.127,0.037l0.07-0.037l-0.922-7.563
				c0,0,2.582-1.66,6.087-3.689c3.505-2.029,11.989-3.32,14.756-3.32l-1.291,1.107C216.696,283.247,217.065,287.121,215.221,288.596
				z"/>
			
				<line style="fill:none;stroke:#263238;stroke-linecap:round;stroke-linejoin:round;stroke-miterlimit:10;" x1="214.667" y1="306.672" x2="210.056" y2="311.837"/>
		</g>
		<g>
			<path style="fill:none;stroke:#263238;stroke-width:2;stroke-linecap:round;stroke-linejoin:round;stroke-miterlimit:10;" d="
				M223.521,273.471l-0.738,11.62l11.927,0.163c0.775,0.011,1.34-0.733,1.113-1.474c-0.705-2.304-2.253-6.664-4.371-8.65
				C228.501,272.365,223.521,273.471,223.521,273.471z"/>
			
				<line style="fill:none;stroke:#263238;stroke-width:2;stroke-linecap:round;stroke-linejoin:round;stroke-miterlimit:10;" x1="234.404" y1="279.558" x2="223.152" y2="279.374"/>
			
				<polyline style="fill:none;stroke:#263238;stroke-width:2;stroke-linecap:round;stroke-linejoin:round;stroke-miterlimit:10;" points="
				229.055,274.209 228.87,284.907 227.948,294.868 			"/>
			<path style="fill:none;stroke:#263238;stroke-width:2;stroke-linecap:round;stroke-linejoin:round;stroke-miterlimit:10;" d="
				M222.783,285.092c0,0-1.636,5.071,0.176,7.973c0.229,0.367,0.324,0.802,0.247,1.228l-2.567,14.116
				c-0.147,0.811,0.304,1.612,1.075,1.906l4.88,1.859c0.859,0.327,1.823-0.082,2.184-0.928l5.098-11.944
				c0.386-0.905-0.068-1.948-0.993-2.282l-9.546-3.443"/>
			<path style="fill:none;stroke:#263238;stroke-width:2;stroke-linecap:round;stroke-linejoin:round;stroke-miterlimit:10;" d="
				M223.337,293.577c0,0-3.874-1.476-4.242,5.902c-0.369,7.378,1.107,9.591,1.107,9.591s0.553,3.689,3.32,6.087
				c2.767,2.398,4.98,1.291,4.611-2.398"/>
			
				<line style="fill:none;stroke:#263238;stroke-width:2;stroke-linecap:round;stroke-linejoin:round;stroke-miterlimit:10;" x1="231.084" y1="305.566" x2="222.414" y2="302.43"/>
			
				<polyline style="fill:none;stroke:#263238;stroke-width:2;stroke-linecap:round;stroke-linejoin:round;stroke-miterlimit:10;" points="
				226.288,304.09 223.89,310.915 225.734,315.895 			"/>
		</g>
		<path style="fill:#92E3A9;stroke:#263238;stroke-linecap:round;stroke-linejoin:round;stroke-miterlimit:10;" d="M224.259,273.84
			c0,0-6.825-5.534-13.28-4.98c-6.456,0.553-12.358,5.165-13.096,7.747c-0.738,2.582,0,6.456,0,6.456s-11.989,5.534-10.329,7.009
			c1.66,1.476,6.825,1.66,10.882,1.66c4.058,0,9.591-4.98,9.591-4.98l1.66-1.107c0,0,12.358-0.553,13.096-0.553L224.259,273.84z"/>
		<path style="fill:#FFFFFF;stroke:#263238;stroke-linecap:round;stroke-linejoin:round;stroke-miterlimit:10;" d="M210.816,285.595
			l-2.974-2.347l-10.08-0.946c0.065,0.469,0.119,0.761,0.119,0.761s-11.989,5.534-10.329,7.009c1.66,1.476,6.825,1.66,10.882,1.66
			c4.058,0,9.592-4.98,9.592-4.98l1.66-1.107C209.687,285.645,210.116,285.626,210.816,285.595z"/>
		<path style="fill:#263238;stroke:#263238;stroke-linecap:round;stroke-linejoin:round;stroke-miterlimit:10;" d="M208.027,269.967
			c0,0,3.32,5.718,2.213,13.28h-2.398c0,0,1.291-10.145-2.951-12.727L208.027,269.967z"/>
		<path style="fill:#263238;stroke:#263238;stroke-linecap:round;stroke-linejoin:round;stroke-miterlimit:10;" d="M197.883,280.665
			c0,0,12.911,3.32,24.716,0.738l-0.185,2.029c0,0-16.416,3.32-24.532-0.369V280.665z"/>
		<g>
			<g>
				<path style="fill:#FFFFFF;stroke:#263238;stroke-linecap:round;stroke-linejoin:round;stroke-miterlimit:10;" d="
					M241.413,411.071c0,0,2.398,3.689,4.796,5.349c2.398,1.66,7.931,2.767,9.222,5.165c1.291,2.398-0.922,2.951-7.747,3.874
					c-6.825,0.922-18.261-2.213-21.212-2.767c-2.951-0.553-6.271-0.738-4.98-5.534c1.291-4.796,3.505-7.009,3.505-7.009
					S233.85,407.382,241.413,411.071z"/>
				<path style="fill:#FFFFFF;stroke:#263238;stroke-linecap:round;stroke-linejoin:round;stroke-miterlimit:10;" d="
					M221.492,417.158c0.021-0.077,0.044-0.148,0.065-0.224c4.753,2.13,15.178,6.169,20.409,6.311
					c5.146,0.139,11.128-0.56,13.761-0.913c0.425,1.779-1.995,2.309-8.043,3.127c-6.825,0.922-18.261-2.213-21.212-2.767
					C223.521,422.138,220.201,421.953,221.492,417.158z"/>
			</g>
			<path style="fill:#FFFFFF;stroke:#263238;stroke-linecap:round;stroke-linejoin:round;stroke-miterlimit:10;" d="
				M183.127,370.123c0,0,4.242-7.747,22.318-14.572c18.076-6.825,32.094-7.009,35.414-7.194c3.32-0.184,10.514,7.747,11.067,13.649
				c0.553,5.902-6.825,33.57-7.931,39.288c-1.107,5.718-2.213,11.805-2.582,12.358c-0.369,0.553-4.058-0.738-4.058-0.738
				s-1.107,0.738-2.398,0.738c-1.291,0-2.398-2.029-2.398-2.029s-3.136,2.398-5.349,1.66s-3.689-0.738-3.689-2.582
				c0-1.844,1.291-3.873,3.32-7.009c2.029-3.136,3.136-13.096,3.505-18.076c0.369-4.98,1.844-13.834,1.844-13.834
				s-13.28,13.465-26.376,15.678c-13.096,2.213-21.765,0.922-26.561-7.193"/>
			<path style="fill:#92E3A9;stroke:#263238;stroke-linecap:round;stroke-linejoin:round;stroke-miterlimit:10;" d="M240.49,357.212
				c0,0-6.271,3.32-11.067,0.553c-4.796-2.767-3.504-7.747,1.107-9.223c4.611-1.476,9.223-1.291,11.251-0.369
				C243.811,349.096,244.364,355.183,240.49,357.212z"/>
			<path style="fill:#FFFFFF;stroke:#263238;stroke-linecap:round;stroke-linejoin:round;stroke-miterlimit:10;" d="M232.19,371.783
				c0,0,2.029-8.116,4.242-11.989"/>
			<path style="fill:#92E3A9;stroke:#263238;stroke-linecap:round;stroke-linejoin:round;stroke-miterlimit:10;" d="
				M243.073,359.241c0,0-3.505,7.747-2.951,11.989c0.553,4.242,5.902,5.165,7.747,4.611c1.844-0.553,2.767-1.66,3.689-6.64
				c0.922-4.98,0.922-9.223-0.369-10.698C249.897,357.027,243.626,357.949,243.073,359.241z"/>
			<path style="fill:#92E3A9;stroke:#263238;stroke-linecap:round;stroke-linejoin:round;stroke-miterlimit:10;" d="
				M244.548,346.883c0,0,5.349,6.087,7.009,9.96c1.66,3.873-3.32,8.116-5.533,6.825c-2.213-1.291-7.563-9.038-6.825-13.096
				C239.937,346.514,242.704,345.591,244.548,346.883z"/>
			<g>
				<polygon style="fill:#263238;stroke:#263238;stroke-linecap:round;stroke-linejoin:round;stroke-miterlimit:10;" points="
					242.704,374.55 232.375,372.706 231.821,375.657 242.15,377.686 				"/>
				<polygon style="fill:#263238;stroke:#263238;stroke-linecap:round;stroke-linejoin:round;stroke-miterlimit:10;" points="
					236.986,398.159 229.055,397.053 228.132,401.111 236.248,402.955 				"/>
			</g>
			<path style="fill:#92E3A9;stroke:#263238;stroke-linecap:round;stroke-linejoin:round;stroke-miterlimit:10;" d="
				M236.986,389.675c3.136-11.62,4.98-16.047,6.271-18.629c1.166-2.331,6.376-1.808,7.924-1.82
				c-1.829,10.495-6.34,27.697-7.187,32.07c-1.107,5.718-2.213,11.805-2.582,12.358c-0.369,0.553-4.058-0.738-4.058-0.738
				C235.695,411.255,233.85,401.295,236.986,389.675z"/>
		</g>
		<path style="fill:#263238;stroke:#263238;stroke-linecap:round;stroke-linejoin:round;stroke-miterlimit:10;" d="M273.833,322.819
			c0,0-1.877,0,0.209-6.049c2.086-6.049,5.006-6.884,10.847-8.135c5.841-1.252,14.184,5.215,17.313,8.761
			c3.129,3.546-0.209,2.712-2.503,6.466c-2.295,3.755,0.209,5.841-4.798,7.301c-5.006,1.46-9.178-1.877-14.81-4.172
			C274.459,324.696,273.833,322.819,273.833,322.819z"/>
		<g>
			<path style="fill:#FFFFFF;stroke:#263238;stroke-linecap:round;stroke-linejoin:round;stroke-miterlimit:10;" d="
				M182.389,340.058l-2.029,5.349c0,0,0.922,3.505,3.505,7.931c2.582,4.427,8.854,12.543,9.96,13.096
				c1.107,0.553,9.038,4.427,9.776,5.165c0.738,0.738,1.476,3.873,1.476,4.427c0,0.553-1.66,1.66-3.136,2.213
				c-1.476,0.553-3.874,0.922-4.611,0.922c-0.738,0-2.213,0.184-2.767-0.369c-0.553-0.553-1.107,0.184-2.582-2.398
				c-1.476-2.582-2.767-4.611-2.951-5.165c-0.184-0.553-6.456-7.009-12.912-13.834c-6.456-6.825-10.329-14.756-10.329-16.785
				c0-2.029,3.874-7.931,3.874-7.931S181.835,337.844,182.389,340.058z"/>
			<path style="fill:#263238;stroke:#263238;stroke-linecap:round;stroke-linejoin:round;stroke-miterlimit:10;" d="M169.662,332.68
				c0,0,12.174,5.164,12.727,7.378l-2.029,5.349c0,0,0.048,0.178,0.145,0.489c-2.058-1.439-9.047-5.751-13.414-1.434
				c-0.845-1.779-1.302-3.161-1.302-3.851C165.788,338.582,169.662,332.68,169.662,332.68z"/>
			<path style="fill:#FFFFFF;stroke:#263238;stroke-linecap:round;stroke-linejoin:round;stroke-miterlimit:10;" d="
				M202.678,377.501c0,0-0.553-3.504-0.922-4.242"/>
			
				<line style="fill:#FFFFFF;stroke:#263238;stroke-linecap:round;stroke-linejoin:round;stroke-miterlimit:10;" x1="200.28" y1="378.792" x2="199.174" y2="374.181"/>
			<path style="fill:#FFFFFF;stroke:#263238;stroke-linecap:round;stroke-linejoin:round;stroke-miterlimit:10;" d="
				M197.329,379.161c0,0-0.369-3.136-0.922-4.058"/>
		</g>
		<path style="fill:#92E3A9;stroke:#263238;stroke-linecap:round;stroke-linejoin:round;stroke-miterlimit:10;" d="M191.242,315.895
			c0,0,2.582,5.349,0.553,10.514c-2.029,5.165-6.087,16.969-6.087,16.969s-5.533-3.136-9.591-5.902
			c-4.058-2.767-8.669-3.873-8.669-3.873s4.427-15.125,9.591-21.95c5.165-6.825,6.271-9.222,13.28-5.165"/>
	</g>
</g>
<text x="600" y="450" fill="#636363" font-size="5"> storyset  Freepik</text>
</svg>
