<?xml version="1.0" encoding="utf-8"?>
<!-- Generator: Adobe Illustrator 27.5.0, SVG Export Plug-In . SVG Version: 6.00 Build 0)  -->
<svg version="1.1" xmlns="http://www.w3.org/2000/svg" xmlns:xlink="http://www.w3.org/1999/xlink" x="0px" y="0px"
	 viewBox="0 0 750 500" style="enable-background:new 0 0 750 500;" xml:space="preserve">
<g id="Background">
	<g>
		<path style="fill:#92E3A9;" d="M224.632,281.987c15.424,5.189,14.088,27.397-1.839,30.736
			c-60.335,12.648-129.353,33.911-104.023,62.01c42.696,47.362,200.978-16.629,241.76-17.34
			c40.783-0.711,97.11,34.377,210.675,7.748c113.565-26.629,11.204-178.776,45.765-233.097
			c34.561-54.321-62.192-88.886-181.927-41.751c-119.736,47.134-44.699-36.515-153.687-32.848
			c-108.988,3.667-166.811,116.97-171.702,146.036C106.113,224.519,159.664,260.128,224.632,281.987z"/>
		<path style="opacity:0.7;fill:#FFFFFF;" d="M224.632,281.987c15.424,5.189,14.088,27.397-1.839,30.736
			c-60.335,12.648-129.353,33.911-104.023,62.01c42.696,47.362,200.978-16.629,241.76-17.34
			c40.783-0.711,97.11,34.377,210.675,7.748c113.565-26.629,11.204-178.776,45.765-233.097
			c34.561-54.321-62.192-88.886-181.927-41.751c-119.736,47.134-44.699-36.515-153.687-32.848
			c-108.988,3.667-166.811,116.97-171.702,146.036C106.113,224.519,159.664,260.128,224.632,281.987z"/>
	</g>
</g>
<g id="Platform">
	
		<polyline style="fill:#858585;stroke:#263238;stroke-width:0.9085;stroke-linecap:round;stroke-linejoin:round;stroke-miterlimit:10;" points="
		87.405,268.573 155.163,268.573 155.163,307.696 87.405,307.696 	"/>
	<g>
		<rect x="87.405" y="303.052" style="fill:#92E3A9;" width="569.855" height="19.628"/>
		<rect x="87.405" y="303.052" style="opacity:0.2;" width="569.855" height="19.628"/>
	</g>
	<g>
		
			<path style="fill:none;stroke:#263238;stroke-width:0.9085;stroke-linecap:round;stroke-linejoin:round;stroke-miterlimit:10;" d="
			M152.95,42.552c2.718-0.602,5.453-1.156,8.206-1.662"/>
		
			<path style="fill:none;stroke:#263238;stroke-width:0.9085;stroke-linecap:round;stroke-linejoin:round;stroke-miterlimit:10;" d="
			M87.403,68.077c17.572-10.165,36.603-18.09,56.702-23.382"/>
	</g>
	<g>
		
			<path style="fill:none;stroke:#263238;stroke-width:0.9085;stroke-linecap:round;stroke-linejoin:round;stroke-miterlimit:10;" d="
			M89.738,235.823C101.97,150.035,161.18,79.388,240.481,50.769"/>
		
			<path style="fill:none;stroke:#263238;stroke-width:0.9085;stroke-linecap:round;stroke-linejoin:round;stroke-miterlimit:10;" d="
			M87.794,255.303c0.164-2.85,0.379-5.687,0.646-8.508"/>
	</g>
	<g>
		
			<path style="fill:none;stroke:#263238;stroke-width:0.9085;stroke-linecap:round;stroke-linejoin:round;stroke-miterlimit:10;" d="
			M380.084,43.626C397.702,39.341,416.107,37,435.043,37"/>
		
			<path style="fill:none;stroke:#263238;stroke-width:0.9085;stroke-linecap:round;stroke-linejoin:round;stroke-miterlimit:10;" d="
			M317.812,68.864c16.538-9.716,34.387-17.439,53.218-22.84"/>
		
			<path style="fill:none;stroke:#263238;stroke-width:0.9085;stroke-linecap:round;stroke-linejoin:round;stroke-miterlimit:10;" d="
			M203.285,268.829c0-60.379,23.089-115.365,60.92-156.61"/>
	</g>
	<g>
		
			<path style="fill:none;stroke:#263238;stroke-width:0.9085;stroke-linecap:round;stroke-linejoin:round;stroke-miterlimit:10;" d="
			M507.351,41.16c14.112-2.684,28.677-4.16,43.571-4.16"/>
		
			<path style="fill:none;stroke:#263238;stroke-width:0.9085;stroke-linecap:round;stroke-linejoin:round;stroke-miterlimit:10;" d="
			M471.149,51.165c8.069-2.958,16.349-5.481,24.811-7.539"/>
		
			<path style="fill:none;stroke:#263238;stroke-width:0.9085;stroke-linecap:round;stroke-linejoin:round;stroke-miterlimit:10;" d="
			M319.164,268.829c0-95.414,57.659-177.361,140.034-212.899"/>
	</g>
	<g>
		
			<path style="fill:none;stroke:#263238;stroke-width:0.9085;stroke-linecap:round;stroke-linejoin:round;stroke-miterlimit:10;" d="
			M616.606,42.521c2.449-0.541,4.912-1.043,7.389-1.505"/>
		
			<path style="fill:none;stroke:#263238;stroke-width:0.9085;stroke-linecap:round;stroke-linejoin:round;stroke-miterlimit:10;" d="
			M555.904,65.275c16.637-9.083,34.51-16.186,53.303-20.992"/>
		
			<path style="fill:none;stroke:#263238;stroke-width:0.9085;stroke-linecap:round;stroke-linejoin:round;stroke-miterlimit:10;" d="
			M435.043,268.829c0-60.377,23.088-115.362,60.917-156.607"/>
	</g>
	<g>
		
			<path style="fill:none;stroke:#263238;stroke-width:0.9085;stroke-linecap:round;stroke-linejoin:round;stroke-miterlimit:10;" d="
			M651.531,77.722c1.889-1.299,3.798-2.57,5.727-3.814"/>
		
			<path style="fill:none;stroke:#263238;stroke-width:0.9085;stroke-linecap:round;stroke-linejoin:round;stroke-miterlimit:10;" d="
			M550.922,268.829c0-76.85,37.405-144.963,95.001-187.128"/>
	</g>
	
		<line style="fill:none;stroke:#263238;stroke-width:1.2113;stroke-linecap:round;stroke-linejoin:round;stroke-miterlimit:10;" x1="649.944" y1="37" x2="657.261" y2="37"/>
	
		<line style="fill:none;stroke:#263238;stroke-width:0.9085;stroke-linecap:round;stroke-linejoin:round;stroke-miterlimit:10;" x1="87.403" y1="37" x2="645.923" y2="37"/>
	
		<line style="fill:none;stroke:#263238;stroke-width:1.2113;stroke-linecap:round;stroke-linejoin:round;stroke-miterlimit:10;" x1="87.405" y1="303.052" x2="657.261" y2="303.052"/>
	
		<line style="fill:none;stroke:#263238;stroke-width:1.2113;stroke-linecap:round;stroke-linejoin:round;stroke-miterlimit:10;" x1="87.405" y1="322.679" x2="657.261" y2="322.679"/>
	<g>
		
			<line style="fill:none;stroke:#263238;stroke-width:0.9085;stroke-linecap:round;stroke-linejoin:round;stroke-miterlimit:10;" x1="649.428" y1="379.653" x2="626.974" y2="335.131"/>
		
			<line style="fill:none;stroke:#263238;stroke-width:0.9085;stroke-linecap:round;stroke-linejoin:round;stroke-miterlimit:10;" x1="655.378" y1="391.451" x2="652.612" y2="385.967"/>
		
			<line style="fill:none;stroke:#263238;stroke-width:0.9085;stroke-linecap:round;stroke-linejoin:round;stroke-miterlimit:10;" x1="540.342" y1="436.821" x2="588.47" y2="341.394"/>
		
			<line style="fill:none;stroke:#263238;stroke-width:0.9085;stroke-linecap:round;stroke-linejoin:round;stroke-miterlimit:10;" x1="531.635" y1="454.086" x2="536.205" y2="445.025"/>
		<g>
			
				<line style="fill:none;stroke:#263238;stroke-width:0.9085;stroke-linecap:round;stroke-linejoin:round;stroke-miterlimit:10;" x1="496.367" y1="374.732" x2="556.294" y2="335.125"/>
			
				<line style="fill:none;stroke:#263238;stroke-width:0.9085;stroke-linecap:round;stroke-linejoin:round;stroke-miterlimit:10;" x1="387.725" y1="446.536" x2="462.924" y2="396.835"/>
			
				<line style="fill:none;stroke:#263238;stroke-width:0.9085;stroke-linecap:round;stroke-linejoin:round;stroke-miterlimit:10;" x1="376.303" y1="454.086" x2="380.021" y2="451.629"/>
		</g>
		
			<line style="fill:none;stroke:#263238;stroke-width:0.9085;stroke-linecap:round;stroke-linejoin:round;stroke-miterlimit:10;" x1="264.507" y1="436.821" x2="520.956" y2="335.125"/>
		
			<line style="fill:none;stroke:#263238;stroke-width:0.9085;stroke-linecap:round;stroke-linejoin:round;stroke-miterlimit:10;" x1="220.97" y1="454.086" x2="234.076" y2="448.889"/>
	</g>
	<g>
		<g>
			
				<rect x="463.24" y="37" style="fill:#858585;stroke:#263238;stroke-width:1.2113;stroke-linecap:round;stroke-linejoin:round;stroke-miterlimit:10;" width="4.529" height="35.551"/>
			
				<rect x="545.526" y="37" style="fill:#858585;stroke:#263238;stroke-width:1.2113;stroke-linecap:round;stroke-linejoin:round;stroke-miterlimit:10;" width="4.53" height="35.551"/>
		</g>
		<path style="fill:#263238;stroke:#263238;stroke-width:1.2113;stroke-miterlimit:10;" d="M459.198,72.551h-8.819
			c-2.634,0-4.77,2.135-4.77,4.77v25.941c0,2.634,2.135,4.77,4.77,4.77h8.819V72.551z"/>
		
			<path style="fill:#FFFFFF;stroke:#263238;stroke-width:0.9085;stroke-linecap:round;stroke-linejoin:round;stroke-miterlimit:10;" d="
			M561.436,108.032H453.211c-2.114,0-3.827-1.713-3.827-3.827V76.378c0-2.113,1.713-3.827,3.827-3.827h108.225
			c2.114,0,3.827,1.713,3.827,3.827v27.827C565.263,106.319,563.55,108.032,561.436,108.032z"/>
		
			<path style="fill:#92E3A9;stroke:#263238;stroke-width:0.9085;stroke-linecap:round;stroke-linejoin:round;stroke-miterlimit:10;" d="
			M454.154,104.258h106.34c0.548,0,0.995-0.447,0.995-0.995V77.321c0-0.549-0.447-0.995-0.995-0.995h-106.34
			c-0.548,0-0.995,0.447-0.995,0.995v25.941C453.158,103.811,453.605,104.258,454.154,104.258z"/>
		<g>
			
				<path style="fill:#FFFFFF;stroke:#263238;stroke-width:0.9085;stroke-linecap:round;stroke-linejoin:round;stroke-miterlimit:10;" d="
				M494.143,88.475h-24.238l4.679-4.679c0.71-0.709,0.71-1.86,0-2.569c-0.71-0.71-1.86-0.71-2.569,0l-7.779,7.779
				c-0.169,0.169-0.303,0.371-0.396,0.595c-0.004,0.009-0.005,0.019-0.009,0.028c-0.081,0.206-0.129,0.428-0.129,0.663
				c0,0.235,0.048,0.457,0.129,0.663c0.004,0.009,0.005,0.019,0.009,0.028c0.092,0.224,0.227,0.427,0.396,0.595l7.779,7.779
				c0.355,0.355,0.82,0.532,1.285,0.532c0.465,0,0.93-0.177,1.285-0.532c0.71-0.709,0.71-1.86,0-2.569l-4.679-4.679h24.238
				c1.003,0,1.817-0.813,1.817-1.817S495.146,88.475,494.143,88.475z"/>
			
				<path style="fill:#FFFFFF;stroke:#263238;stroke-width:0.9085;stroke-linecap:round;stroke-linejoin:round;stroke-miterlimit:10;" d="
				M549.456,90.982c0.004-0.009,0.005-0.019,0.009-0.028c0.081-0.206,0.129-0.428,0.129-0.663c0-0.235-0.048-0.457-0.129-0.663
				c-0.004-0.009-0.005-0.019-0.009-0.028c-0.093-0.224-0.227-0.427-0.396-0.595l-7.779-7.779c-0.71-0.71-1.859-0.71-2.569,0
				c-0.71,0.709-0.71,1.86,0,2.569l4.679,4.679h-24.236c-1.003,0-1.817,0.813-1.817,1.817s0.814,1.817,1.817,1.817h24.236
				l-4.679,4.679c-0.71,0.709-0.71,1.86,0,2.569c0.355,0.355,0.82,0.532,1.285,0.532c0.465,0,0.93-0.177,1.285-0.532l7.779-7.779
				C549.229,91.409,549.363,91.207,549.456,90.982z"/>
		</g>
	</g>
	<g>
		<g>
			
				<rect x="259.92" y="37" style="fill:#858585;stroke:#263238;stroke-width:1.2113;stroke-linecap:round;stroke-linejoin:round;stroke-miterlimit:10;" width="4.53" height="35.551"/>
			
				<rect x="296.91" y="37" style="fill:#858585;stroke:#263238;stroke-width:1.2113;stroke-linecap:round;stroke-linejoin:round;stroke-miterlimit:10;" width="4.53" height="35.551"/>
		</g>
		<path style="fill:#263238;stroke:#263238;stroke-width:1.2113;stroke-miterlimit:10;" d="M257.953,72.551h-8.819
			c-2.634,0-4.77,2.135-4.77,4.77v25.941c0,2.634,2.135,4.77,4.77,4.77h8.819V72.551z"/>
		
			<path style="fill:#FFFFFF;stroke:#263238;stroke-width:0.9085;stroke-linecap:round;stroke-linejoin:round;stroke-miterlimit:10;" d="
			M310.745,108.032h-58.779c-2.114,0-3.827-1.713-3.827-3.827V76.378c0-2.113,1.713-3.827,3.827-3.827h58.779
			c2.113,0,3.827,1.713,3.827,3.827v27.827C314.572,106.319,312.858,108.032,310.745,108.032z"/>
		
			<path style="fill:#92E3A9;stroke:#263238;stroke-width:0.9085;stroke-linecap:round;stroke-linejoin:round;stroke-miterlimit:10;" d="
			M252.909,104.258h56.893c0.548,0,0.995-0.447,0.995-0.995V77.321c0-0.549-0.447-0.995-0.995-0.995h-56.893
			c-0.549,0-0.995,0.447-0.995,0.995v25.941C251.914,103.811,252.361,104.258,252.909,104.258z"/>
		
			<path style="fill:#FFFFFF;stroke:#263238;stroke-width:0.9085;stroke-linecap:round;stroke-linejoin:round;stroke-miterlimit:10;" d="
			M294.992,88.475h-24.238l4.679-4.679c0.71-0.709,0.71-1.86,0-2.569c-0.71-0.71-1.86-0.71-2.569,0l-7.779,7.779
			c-0.169,0.169-0.303,0.371-0.396,0.595c-0.004,0.009-0.005,0.019-0.009,0.028c-0.081,0.206-0.129,0.428-0.129,0.663
			c0,0.235,0.048,0.457,0.129,0.663c0.004,0.009,0.005,0.019,0.009,0.028c0.092,0.224,0.227,0.427,0.396,0.595l7.779,7.779
			c0.355,0.355,0.82,0.532,1.285,0.532c0.465,0,0.93-0.177,1.285-0.532c0.71-0.709,0.71-1.86,0-2.569l-4.679-4.679h24.238
			c1.003,0,1.817-0.813,1.817-1.817S295.995,88.475,294.992,88.475z"/>
	</g>
</g>
<g id="Train">
	<g>
		
			<path style="fill:#FFFFFF;stroke:#263238;stroke-width:1.2113;stroke-linecap:round;stroke-linejoin:round;stroke-miterlimit:10;" d="
			M657.261,144.811H169.176c-3.783,0-7.537,0.66-11.093,1.95l-6.095,2.211c-4.826,1.751-9.212,4.579-12.675,8.369
			c-28.094,30.736-43.249,69.066-45.465,107.995c-0.354,6.219,1.062,12.412,4.108,17.846l11.138,19.871h548.168"/>
		<path style="fill:none;stroke:#000000;stroke-width:1.2113;stroke-miterlimit:10;" d="M275.1,172.877v130.175h42.715V172.877
			c0-2.364-1.917-4.281-4.281-4.281h-34.153C277.017,168.596,275.1,170.512,275.1,172.877z"/>
		
			<path style="fill:#92E3A9;stroke:#263238;stroke-width:1.2113;stroke-linecap:round;stroke-linejoin:round;stroke-miterlimit:10;" d="
			M275.1,303.052h42.715V172.877c0-2.364-1.917-4.281-4.281-4.281h-34.153c-2.364,0-4.281,1.917-4.281,4.281V303.052z"/>
		<g>
			<defs>
				<path id="XMLID_2_" d="M283.749,172.964h25.416c2.364,0,4.281,1.917,4.281,4.281v42.405c0,2.364-1.917,4.281-4.281,4.281
					h-25.416c-2.364,0-4.281-1.917-4.281-4.281v-42.405C279.468,174.881,281.385,172.964,283.749,172.964z"/>
			</defs>
			<use xlink:href="#XMLID_2_"  style="overflow:visible;fill:#999999;"/>
			<clipPath id="XMLID_00000098902601512604658570000005486652125858188713_">
				<use xlink:href="#XMLID_2_"  style="overflow:visible;"/>
			</clipPath>
			<path style="clip-path:url(#XMLID_00000098902601512604658570000005486652125858188713_);fill:#FFFFFF;" d="M288.357,223.931
				h20.809c2.364,0,4.281-1.917,4.281-4.281v-42.405c0-2.265-1.765-4.1-3.991-4.252L288.357,223.931z"/>
			
				<use xlink:href="#XMLID_2_"  style="overflow:visible;fill:none;stroke:#263238;stroke-width:1.2113;stroke-linecap:round;stroke-linejoin:round;stroke-miterlimit:10;"/>
		</g>
		
			<path style="fill:#92E3A9;stroke:#263238;stroke-width:1.2113;stroke-linecap:round;stroke-linejoin:round;stroke-miterlimit:10;" d="
			M317.815,303.052h42.715V172.877c0-2.364-1.917-4.281-4.281-4.281h-34.153c-2.364,0-4.281,1.917-4.281,4.281V303.052z"/>
		<g>
			<defs>
				<path id="XMLID_3_" d="M326.465,172.964h25.416c2.364,0,4.281,1.917,4.281,4.281v42.405c0,2.364-1.917,4.281-4.281,4.281
					h-25.416c-2.364,0-4.281-1.917-4.281-4.281v-42.405C322.184,174.881,324.1,172.964,326.465,172.964z"/>
			</defs>
			<use xlink:href="#XMLID_3_"  style="overflow:visible;fill:#999999;"/>
			<clipPath id="XMLID_00000159440056354115509340000005066373861274472332_">
				<use xlink:href="#XMLID_3_"  style="overflow:visible;"/>
			</clipPath>
			<path style="clip-path:url(#XMLID_00000159440056354115509340000005066373861274472332_);fill:#FFFFFF;" d="M334.164,172.964
				h-7.699c-2.364,0-4.281,1.917-4.281,4.281v24.641L334.164,172.964z"/>
			
				<use xlink:href="#XMLID_3_"  style="overflow:visible;fill:none;stroke:#263238;stroke-width:1.2113;stroke-linecap:round;stroke-linejoin:round;stroke-miterlimit:10;"/>
		</g>
		
			<path style="fill:#92E3A9;stroke:#263238;stroke-width:1.2113;stroke-linecap:round;stroke-linejoin:round;stroke-miterlimit:10;" d="
			M369.18,172.964h177.832c2.364,0,4.281,1.917,4.281,4.281v42.405c0,2.364-1.917,4.281-4.281,4.281H369.18
			c-2.364,0-4.281-1.917-4.281-4.281v-42.405C364.899,174.881,366.815,172.964,369.18,172.964z"/>
		<g>
			<defs>
				<path id="XMLID_4_" d="M369.995,182.342v32.212c0,2.364,1.917,4.281,4.281,4.281h167.639c2.364,0,4.281-1.917,4.281-4.281
					v-32.212c0-2.364-1.917-4.281-4.281-4.281H374.276C371.912,178.061,369.995,179.978,369.995,182.342z"/>
			</defs>
			<use xlink:href="#XMLID_4_"  style="overflow:visible;fill:#FFFFFF;"/>
			<clipPath id="XMLID_00000067949330894143064140000014207985458035250573_">
				<use xlink:href="#XMLID_4_"  style="overflow:visible;"/>
			</clipPath>
			<g style="opacity:0.2;clip-path:url(#XMLID_00000067949330894143064140000014207985458035250573_);">
				<polygon points="446.47,218.835 463.359,178.061 445.184,178.061 428.295,218.835 				"/>
				<polygon points="473.007,178.061 468.811,178.061 451.922,218.835 456.118,218.835 				"/>
			</g>
			
				<use xlink:href="#XMLID_4_"  style="overflow:visible;fill:none;stroke:#263238;stroke-width:1.2113;stroke-linecap:round;stroke-linejoin:round;stroke-miterlimit:10;"/>
		</g>
		
			<path style="fill:#999999;stroke:#263238;stroke-width:1.2113;stroke-linecap:round;stroke-linejoin:round;stroke-miterlimit:10;" d="
			M637.054,168.596h-76.868c-2.364,0-4.281,1.917-4.281,4.281v130.175h85.43V172.877
			C641.335,170.512,639.418,168.596,637.054,168.596z"/>
		
			<path style="fill:#92E3A9;stroke:#263238;stroke-width:1.2113;stroke-linecap:round;stroke-linejoin:round;stroke-miterlimit:10;" d="
			M634.683,223.931c-2.364,0-4.281-1.917-4.281-4.281v-42.405c0-2.364,1.917-4.281,4.281-4.281h6.651v-0.087
			c0-2.364-1.917-4.281-4.281-4.281h-6.739c-2.364,0-4.281,1.917-4.281,4.281v130.175h15.301v-79.12H634.683z"/>
		
			<path style="fill:#92E3A9;stroke:#263238;stroke-width:1.2113;stroke-linecap:round;stroke-linejoin:round;stroke-miterlimit:10;" d="
			M566.924,168.596h-6.739c-2.364,0-4.281,1.917-4.281,4.281v0.087h6.651c2.364,0,4.281,1.917,4.281,4.281v42.405
			c0,2.364-1.917,4.281-4.281,4.281h-6.651v79.12h15.301V172.877C571.205,170.512,569.288,168.596,566.924,168.596z"/>
		
			<path style="fill:#92E3A9;stroke:#263238;stroke-width:1.2113;stroke-linecap:round;stroke-linejoin:round;stroke-miterlimit:10;" d="
			M106.821,252.981c4.678-5.62,8.083-12.176,10.047-19.219c7.142-25.618,20.203-49.93,39.225-70.755
			c3.476-3.806,7.872-6.658,12.718-8.415l6.095-2.211c3.556-1.29,7.31-1.949,11.093-1.949h471.262v-5.62H169.176
			c-3.783,0-7.537,0.66-11.093,1.95l-6.095,2.211c-4.826,1.751-9.212,4.579-12.675,8.369
			c-28.094,30.736-43.249,69.066-45.465,107.995c-0.062,1.082-0.05,2.162-0.005,3.239L106.821,252.981z"/>
		<g>
			
				<path style="fill:#92E3A9;stroke:#263238;stroke-width:1.2113;stroke-linecap:round;stroke-linejoin:round;stroke-miterlimit:10;" d="
				M151.534,223.931H266.45c2.364,0,4.281-1.917,4.281-4.281v-42.405c0-2.364-1.917-4.281-4.281-4.281h-91.176
				c-1.332,0-2.6,0.614-3.41,1.671c-10.345,13.5-18.461,28.157-24.34,43.479C146.449,220.917,148.531,223.931,151.534,223.931z"/>
		</g>
		<g>
			<g>
				<defs>
					<path id="XMLID_1_" d="M159.41,218.835h101.944c2.364,0,4.281-1.917,4.281-4.281v-32.212c0-2.364-1.917-4.281-4.281-4.281
						h-84.019c-1.386,0-2.698,0.665-3.499,1.796c-7.413,10.458-13.543,21.545-18.386,33.047
						C154.264,215.719,156.355,218.835,159.41,218.835z"/>
				</defs>
				<use xlink:href="#XMLID_1_"  style="overflow:visible;fill:#FFFFFF;"/>
				<clipPath id="XMLID_00000108295739746454540640000003357898205935306651_">
					<use xlink:href="#XMLID_1_"  style="overflow:visible;"/>
				</clipPath>
				<g style="opacity:0.2;clip-path:url(#XMLID_00000108295739746454540640000003357898205935306651_);">
					<polygon points="212.507,218.835 229.396,178.061 211.221,178.061 194.332,218.835 					"/>
					<polygon points="239.044,178.061 234.848,178.061 217.959,218.835 222.155,218.835 					"/>
				</g>
				
					<use xlink:href="#XMLID_1_"  style="overflow:visible;fill:none;stroke:#263238;stroke-width:1.2113;stroke-linecap:round;stroke-linejoin:round;stroke-miterlimit:10;"/>
			</g>
		</g>
		<g>
			
				<path style="fill:#263238;stroke:#263238;stroke-width:1.2113;stroke-linecap:round;stroke-linejoin:round;stroke-miterlimit:10;" d="
				M270.731,260.336H162.185c-11.144,0-22.248,1.315-33.084,3.919l-34.846,8.372c0.397,2.373,1.061,4.694,1.971,6.927l38.479-5.921
				c7.127-1.097,14.327-1.647,21.538-1.647h114.489V260.336z"/>
			
				<rect x="364.899" y="260.336" style="fill:#263238;stroke:#263238;stroke-width:1.2113;stroke-linecap:round;stroke-linejoin:round;stroke-miterlimit:10;" width="186.394" height="11.65"/>
			
				<rect x="645.946" y="260.336" style="fill:#263238;stroke:#263238;stroke-width:1.2113;stroke-linecap:round;stroke-linejoin:round;stroke-miterlimit:10;" width="11.315" height="11.65"/>
		</g>
		
			<path style="fill:#FFFFFF;stroke:#263238;stroke-width:1.2113;stroke-linecap:round;stroke-linejoin:round;stroke-miterlimit:10;" d="
			M104.136,250.137c0,2.841-1.443,5.144-3.224,5.144c-1.781,0-3.224-2.303-3.224-5.144c0-2.841,1.444-5.144,3.224-5.144
			C102.693,244.993,104.136,247.296,104.136,250.137z"/>
		
			<path style="fill:#FFFFFF;stroke:#263238;stroke-width:1.2113;stroke-linecap:round;stroke-linejoin:round;stroke-miterlimit:10;" d="
			M109.653,243.859c0,1.621-0.824,2.936-1.84,2.936c-1.016,0-1.84-1.314-1.84-2.936c0-1.622,0.824-2.936,1.84-2.936
			C108.829,240.923,109.653,242.238,109.653,243.859z"/>
		
			<path style="fill:#999999;stroke:#263238;stroke-width:1.2113;stroke-linecap:round;stroke-linejoin:round;stroke-miterlimit:10;" d="
			M97.423,238.727l19.492-5.126c5.893-21.062,15.798-41.232,29.72-59.309l-18.901-2.876
			C112.606,191.87,102.503,214.869,97.423,238.727z"/>
		<g>
			
				<path style="fill:#263238;stroke:#263238;stroke-width:1.2113;stroke-linecap:round;stroke-linejoin:round;stroke-miterlimit:10;" d="
				M116.868,233.762c0.589-2.112,1.233-4.211,1.902-6.303l-20.468,7.433c-0.528,2.233-1.007,4.473-1.446,6.721l19.811-7.194
				C116.731,234.199,116.807,233.983,116.868,233.762z"/>
			
				<path style="fill:#263238;stroke:#263238;stroke-width:1.2113;stroke-linecap:round;stroke-linejoin:round;stroke-miterlimit:10;" d="
				M124.546,175.877h20.883c1.479-1.967,3.007-3.908,4.58-5.825h-21.242C127.318,171.972,125.906,173.911,124.546,175.877z"/>
		</g>
		
			<path style="fill:#92E3A9;stroke:#263238;stroke-width:1.2113;stroke-linecap:round;stroke-linejoin:round;stroke-miterlimit:10;" d="
			M657.261,218.835h-1.937c-2.364,0-4.281-1.917-4.281-4.281v-32.212c0-2.364,1.917-4.281,4.281-4.281h1.937v-5.097h-7.034
			c-2.364,0-4.281,1.917-4.281,4.281v42.405c0,2.364,1.917,4.281,4.281,4.281h7.034V218.835z"/>
	</g>
</g>
<g id="Character_3">
	<g>
		
			<polygon style="fill:#999999;stroke:#263238;stroke-width:1.2113;stroke-linecap:round;stroke-linejoin:round;stroke-miterlimit:10;" points="
			602.441,336.277 602.441,324.808 599.023,323.911 596.075,324.231 594.37,330.612 597.805,333.652 599.087,335.446 		"/>
		
			<path style="fill:none;stroke:#263238;stroke-width:1.2113;stroke-linecap:round;stroke-linejoin:round;stroke-miterlimit:10;" d="
			M617.864,268.424c0,0,2.543-9.483,5.181,2.313"/>
		
			<rect x="591.937" y="189.84" transform="matrix(0.9545 -0.2983 0.2983 0.9545 -31.1142 185.5923)" style="fill:#FFFFFF;stroke:#263238;stroke-width:0.9085;stroke-linecap:round;stroke-linejoin:round;stroke-miterlimit:10;" width="1.156" height="9.797"/>
		
			<path style="fill:#92E3A9;stroke:#263238;stroke-width:0.9085;stroke-linecap:round;stroke-linejoin:round;stroke-miterlimit:10;" d="
			M586.761,206.355c0,0,15.552-7.007,33.154,0.854c0,0,5.127,21.02,5.469,24.609c0.342,3.589,0,23.925,0,23.925s-2.734-1.367-5.64,0
			c0,0-1.025,6.152-4.956,6.494c0,0-4.614,23.413-7.007,29.907c0,0,0.854,6.665-5.127,28.54c0,0,0.513,4.443,0,6.323
			c0,0-1.025-2.734-7.69,0c0,0-4.443-19.995-3.247-34.179c0,0-1.196-9.399-0.683-11.621c0,0-5.127-14.355-4.273-25.634
			c0,0-1.367,5.127-6.494,2.563c-5.127-2.563,1.367-3.76,3.076-18.115c1.709-14.355,1.538-17.261,1.538-17.261
			s-5.81,6.836-11.621,3.418c-5.81-3.418,2.287-10.821,4.785-13.33c1.685-1.693,6.494-7.007,6.494-7.007L586.761,206.355z"/>
		
			<path style="fill:#FFFFFF;stroke:#263238;stroke-width:1.2113;stroke-linecap:round;stroke-linejoin:round;stroke-miterlimit:10;" d="
			M619.873,254.676l-0.299,2.649c0,0-1.624,1.581-1.324,3.845c0.299,2.264-0.629,3.789-0.037,4.074
			c0.592,0.284,2.088-0.656,2.088-0.656s-0.812,2.35,0,2.692c0.812,0.342,1.367,0.171,1.367,0.171s1.41,0.684,1.752,0.043
			c0.342-0.641,0.598-2.478,0.598-2.478s0.94-0.94,0.641-1.923c-0.299-0.983-0.555-4.828-0.555-4.828l0.171-3.589
			C624.273,254.676,622.393,253.224,619.873,254.676z"/>
		
			<path style="fill:#FFFFFF;stroke:#263238;stroke-width:0.9085;stroke-linecap:round;stroke-linejoin:round;stroke-miterlimit:10;" d="
			M620.599,260.487l-0.385,0.854c0,0,0.086,1.367-0.256,2.307"/>
		<path style="fill:none;stroke:#000000;stroke-width:0.9085;stroke-miterlimit:10;" d="M584.54,205.843
			c0,0-4.809,5.314-6.494,7.007c-2.498,2.509-10.596,9.912-4.785,13.33c5.811,3.418,11.621-3.418,11.621-3.418
			s0.171,2.905-1.538,17.261c-1.709,14.355-8.203,15.552-3.076,18.115c2.141,1.07,3.62,0.793,4.624,0.115l1.87-2.678
			c0,0,4.315-9.271,7.007-20.294c2.251-9.216,1.544-25.951,1.253-31.191c-5.089,0.844-8.259,2.267-8.259,2.267L584.54,205.843z"/>
		<path style="fill:#92E3A9;stroke:#263238;stroke-width:0.9085;stroke-miterlimit:10;" d="M584.54,205.843
			c0,0-4.809,5.314-6.494,7.007c-2.498,2.509-10.596,9.912-4.785,13.33c5.811,3.418,11.621-3.418,11.621-3.418
			s0.171,2.905-1.538,17.261c-1.709,14.355-8.203,15.552-3.076,18.115c2.141,1.07,3.62,0.793,4.624,0.115l1.87-2.678
			c0,0,4.315-9.271,7.007-20.294c2.251-9.216,1.544-25.951,1.253-31.191c-5.089,0.844-8.259,2.267-8.259,2.267L584.54,205.843z"/>
		
			<path style="fill:#FFFFFF;stroke:#263238;stroke-width:1.2113;stroke-linecap:round;stroke-linejoin:round;stroke-miterlimit:10;" d="
			M584.711,206.612c0,0,0,2.136,2.991,2.222c0,0,1.363-1.525,2.469-3.195c0.689-1.04,2.304-2.137,2.402-2.957
			c0,0,1.538-2.649,1.282-3.333c-0.256-0.683-1.538,0.684-1.538,0.684s-1.253,2.478-3.019,0.171
			c-1.766-2.307,0.968-4.614,1.994-2.393c0,0,0.299,0.395,0.876,0.171c0.577-0.224-0.352-1.762-0.929-2.083c0,0,1.602,0.929,1.698,0
			c0.096-0.929-1.538-0.993-1.538-0.993s1.089-0.352,0.865-0.897c-0.224-0.545-1.314,0.128-1.987,0.48
			c-0.673,0.352-1.602,0.769-2.307,1.73c-0.705,0.961-1.859,1.762-1.41,4.005c0.449,2.243,0.625,2.991,0.625,2.991L584.711,206.612z
			"/>
		<path style="fill:#92E3A9;stroke:#263238;stroke-width:0.9085;stroke-miterlimit:10;" d="M619.744,255.745
			c2.905-1.367,5.64,0,5.64,0s0.342-20.337,0-23.925c-0.342-3.589-5.469-24.609-5.469-24.609c-4.209-1.88-8.296-2.903-12.086-3.381
			c-0.642,5.823-2.049,20.75-1.243,33.63c1.025,16.406,8.203,24.78,8.203,24.78C618.719,261.897,619.744,255.745,619.744,255.745z"
			/>
		
			<path style="fill:none;stroke:#263238;stroke-width:0.9085;stroke-linecap:round;stroke-linejoin:round;stroke-miterlimit:10;" d="
			M581.639,220.502c1.749-2.679,4.851-7.074,6.831-10.045c0,0-2.655,5.212-3.162,9.997"/>
		
			<path style="fill:none;stroke:#263238;stroke-width:0.9085;stroke-linecap:round;stroke-linejoin:round;stroke-miterlimit:10;" d="
			M580.353,222.847c-0.085-0.02,0.034-0.299,0.302-0.768"/>
		
			<path style="fill:none;stroke:#263238;stroke-width:0.9085;stroke-linecap:round;stroke-linejoin:round;stroke-miterlimit:10;" d="
			M618.586,248.593c0.427,2.105,0.732,3.477,0.732,3.477"/>
		
			<path style="fill:none;stroke:#263238;stroke-width:0.9085;stroke-linecap:round;stroke-linejoin:round;stroke-miterlimit:10;" d="
			M617.095,216.652c0,0-1.286,6.793-1.156,13.8c0.074,3.977,1.152,10.403,2.07,15.217"/>
		<g>
			
				<line style="fill:none;stroke:#263238;stroke-width:0.9085;stroke-linecap:round;stroke-linejoin:round;stroke-miterlimit:10;" x1="601.866" y1="314.87" x2="601.971" y2="317.609"/>
			
				<polyline style="fill:none;stroke:#263238;stroke-width:0.9085;stroke-linecap:round;stroke-linejoin:round;stroke-miterlimit:10;" points="
				601.25,267.28 601.971,285.481 601.287,299.836 601.738,311.538 			"/>
			
				<line style="fill:none;stroke:#263238;stroke-width:0.9085;stroke-linecap:round;stroke-linejoin:round;stroke-miterlimit:10;" x1="600.604" y1="250.959" x2="601.044" y2="262.068"/>
		</g>
		
			<polygon style="fill:#263238;stroke:#263238;stroke-width:0.9085;stroke-linecap:round;stroke-linejoin:round;stroke-miterlimit:10;" points="
			598.895,208.876 600.882,208.235 602.996,208.876 601.425,211.482 603.317,222.206 604.534,242.65 601.287,245.598 
			598.37,242.201 598.37,223.039 599.984,211.482 		"/>
		
			<rect x="597.119" y="197.148" style="fill:#FFFFFF;stroke:#263238;stroke-width:0.9085;stroke-linecap:round;stroke-linejoin:round;stroke-miterlimit:10;" width="8.427" height="8.427"/>
		
			<path style="fill:#FFFFFF;stroke:#263238;stroke-width:0.9085;stroke-linecap:round;stroke-linejoin:round;stroke-miterlimit:10;" d="
			M595.007,189.65c0,0-2.815-1.795-2.78,1.282c0.035,3.076,3.207,3.503,3.207,3.503L595.007,189.65z"/>
		
			<path style="fill:#FFFFFF;stroke:#263238;stroke-width:0.9085;stroke-linecap:round;stroke-linejoin:round;stroke-miterlimit:10;" d="
			M607.838,189.65c0,0,2.815-1.795,2.78,1.282c-0.035,3.076-3.207,3.503-3.207,3.503L607.838,189.65z"/>
		
			<rect x="592.633" y="194.403" transform="matrix(0.9545 -0.2983 0.2983 0.9545 -31.7472 185.9014)" style="fill:#263238;" width="1.156" height="5.128"/>
		
			<path style="fill:#FFFFFF;stroke:#263238;stroke-width:0.9085;stroke-linecap:round;stroke-linejoin:round;stroke-miterlimit:10;" d="
			M594.224,185.903c0,0-0.468,6.812,0.402,8.847c0.81,1.896,3.758,6.289,5.697,6.991c0.362,0.131,1.657,0.131,2.019,0
			c1.939-0.702,4.887-5.094,5.697-6.991c0.87-2.036,0.402-8.847,0.402-8.847l-1.137-4.081l-5.128-3.297l-4.664,0.573l-2.499,2.724
			L594.224,185.903"/>
		<path style="fill:#263238;" d="M594.125,188.047c0,0,1.437-2.242,1.757-3.716c0.32-1.474,2.56-0.449,5.542-0.833
			c2.982-0.384,4.548-0.769,4.919,0.769c0.37,1.538,2.224,3.461,2.224,3.461s1.286-4.102,0.453-6.665
			c-0.833-2.564-4.251-4.043-7.596-6.216c-5.029-3.268-5.285,1.282-5.285,1.282s-5.556-0.841-2.041,3.268
			c0,0-2.894,0.32-1.484,2.692C594.024,184.459,594.125,188.047,594.125,188.047z"/>
		<path style="fill:#92E3A9;stroke:#263238;stroke-width:0.9085;stroke-miterlimit:10;" d="M595.021,204.088l1.76-1.428
			c0,0,2.307,3.14,4.294,3.14c1.987,0,4.806-3.717,4.806-3.717l1.948,1.746c0,0-0.539,3.061-2.589,4.022c0,0-2.115-1.474-4.294-1.41
			c-2.179,0.064-4.294,1.41-4.294,1.41S595.311,206.927,595.021,204.088z"/>
		
			<polygon style="fill:#999999;stroke:#263238;stroke-width:0.9085;stroke-linecap:round;stroke-linejoin:round;stroke-miterlimit:10;" points="
			611.456,267.793 615.301,267.28 629.656,273.689 630.938,298.725 624.7,299.152 611.029,294.709 		"/>
		
			<polygon style="fill:#263238;stroke:#263238;stroke-width:0.9085;stroke-linecap:round;stroke-linejoin:round;stroke-miterlimit:10;" points="
			630.938,298.725 616.326,293.769 611.029,294.709 624.7,299.152 		"/>
		
			<path style="fill:#858585;stroke:#263238;stroke-width:1.2113;stroke-linecap:round;stroke-linejoin:round;stroke-miterlimit:10;" d="
			M600.604,337.775c0,0-4.785,1.025-4.7-1.965c0,0-4.272-1.709-0.854-6.238c3.418-4.529,6.323,0.684,6.921,1.794
			c0.598,1.111-0.721,3.247-0.721,3.247S604.364,337.006,600.604,337.775z"/>
		
			<polygon style="fill:#858585;stroke:#263238;stroke-width:0.9085;stroke-linecap:round;stroke-linejoin:round;stroke-miterlimit:10;" points="
			615.301,267.28 611.456,267.793 611.029,294.709 616.326,293.769 		"/>
		<g>
			<path style="fill:#263238;" d="M604.112,191.151c0,0.325-0.154,0.589-0.345,0.589c-0.19,0-0.345-0.264-0.345-0.589
				s0.154-0.589,0.345-0.589C603.958,190.563,604.112,190.826,604.112,191.151z"/>
			<ellipse style="fill:#263238;" cx="598.4" cy="191.151" rx="0.345" ry="0.589"/>
			
				<path style="fill:none;stroke:#263238;stroke-width:0.9085;stroke-linecap:round;stroke-linejoin:round;stroke-miterlimit:10;" d="
				M600.075,193.566c0,0,0.443,0.95,0.936,1.263"/>
			
				<path style="fill:none;stroke:#263238;stroke-width:0.9085;stroke-linecap:round;stroke-linejoin:round;stroke-miterlimit:10;" d="
				M603.686,196.275c0,0-0.886,0.591-1.97,0.591h-0.706c-1.083,0-1.97-0.591-1.97-0.591"/>
			
				<path style="fill:none;stroke:#263238;stroke-width:0.9085;stroke-linecap:round;stroke-linejoin:round;stroke-miterlimit:10;" d="
				M596.514,188.954c0,0,1.256-1.329,2.917,0.554"/>
			
				<path style="fill:none;stroke:#263238;stroke-width:0.9085;stroke-linecap:round;stroke-linejoin:round;stroke-miterlimit:10;" d="
				M605.719,188.954c0,0-1.256-1.329-2.918,0.554"/>
		</g>
	</g>
</g>
<g id="Character_2">
	<g>
		
			<path style="fill:#92E3A9;stroke:#263238;stroke-width:1.2113;stroke-linecap:round;stroke-linejoin:round;stroke-miterlimit:10;" d="
			M478.521,370.945l0.679,3.786c0,0,2.271,1.656,2.234,6.359c-0.038,4.703,2.706,16.034-5.63,15.739
			c-8.336-0.295-6.038-6.901-4.58-12.338c1.458-5.438,2.202-7.944,2.202-7.944l-0.961-5.603H478.521z"/>
		
			<path style="fill:#92E3A9;stroke:#263238;stroke-width:1.2113;stroke-linecap:round;stroke-linejoin:round;stroke-miterlimit:10;" d="
			M486.546,359.892l-1.363,4.088c0,0-1.616,1.371-1.897,6.202c-0.281,4.831-2.087,19.842,2.555,20.296
			c4.642,0.454,7.416-5.483,6.729-12.411c-0.687-6.928-0.95-11.966-0.95-11.966l-0.077-6.21H486.546z"/>
		
			<path style="fill:#FFFFFF;stroke:#263238;stroke-width:1.2113;stroke-linecap:round;stroke-linejoin:round;stroke-miterlimit:10;" d="
			M444.52,274.677l-1.654,3.534c0,0-7.855,3.51-7.963,5.027c-0.108,1.516-0.349,3.765,0.598,5.524
			c0.947,1.759,2.086,5.632,4.156,5.632c2.07,0,3.057,0.421,3.485-0.764c0.428-1.185-3.146-1.997-3.146-1.997l-1.519-4.028
			l2.331-1.496c0,0-0.165,5.361,1.568,5.361s0.007-2.93,1.494-4.552c1.487-1.622,2.41-1.622,2.137-5.359l2.652-4.062L444.52,274.677
			z"/>
		
			<path style="fill:#FFFFFF;stroke:#263238;stroke-width:1.2113;stroke-linecap:round;stroke-linejoin:round;stroke-miterlimit:10;" d="
			M510.167,256.428l-1.815,5.445c0,0-1.428,5.824,0,6.259c1.428,0.434,1.815-4.543,1.815-4.543s0.458-2.423,1.213-1.817
			c0.755,0.606,0,4.845,0,4.845s-6.404,6.267-2.272,5.82c0,0,0.671,0.674,2.608-0.466c1.937-1.139,2.741-1.62,2.842-2.528
			c0,0,1.453,0.457-1.361,3.937c0,0,0.831,0.959,2.345-0.707c1.514-1.666,1.689-2.664,1.13-5.148
			c-0.558-2.484-0.752-9.539-0.752-9.539L510.167,256.428z"/>
		<path style="fill:#263238;" d="M463.898,205.68c10.394-2.211,36.092-10.371,42.417-2.729c6.325,7.641,4.631,24.936,5.94,30.253
			c1.309,5.318,4.766,19.898,4.39,26.466c0,0-3.899-2.037-7.889-1.229c0,0-7.316-19.786-7.268-25.438l-2.826,13.729l6.864,20.189
			l-2.908,2.609c0,0,3.205,24.153-5.903,59.024l-0.504,2.856c0,0,1.37,8.495-3.618,29.997c0,0-2.566,3.785-7.487,0l-1.949-26.65
			c0,0-2.446-6.36-1.724-13.325l-2.027,8.17c0,0,1.747,10.618-0.478,35.748l0.699,7.661c0,0-2.772,3.387-8.223,0.661
			c0,0-11.287-31.332-6.174-45.117l-0.124-9.772c0,0-12.673-31.007-9.396-54.154l-7.474,16.223c0,0-3.331-0.454-6.511-4.845
			c0,0,3.937-8.177,5.148-15.445c1.211-7.268,6.174-19.264,6.174-19.264s0.665-12.824,0.179-17.062
			C452.617,218.918,449.455,208.753,463.898,205.68z"/>
		<g>
			
				<path style="fill:#92E3A9;stroke:#263238;stroke-width:1.2113;stroke-linecap:round;stroke-linejoin:round;stroke-miterlimit:10;" d="
				M498.662,246.731l2.826-13.729c-0.048,5.653,7.268,25.438,7.268,25.438c3.99-0.808,7.889,1.229,7.889,1.229
				c0.377-6.568-3.08-21.148-4.39-26.466c-1.309-5.318,0.385-22.612-5.94-30.253c-2.408-2.909-7.626-3.525-13.735-3.054
				c0.029,3.591-0.305,12.703-3.632,26.168c-4.37,17.688-4.365,19.745-1.112,28.559c3.253,8.814,8.293,19.786,14.782,14.906
				l2.908-2.609L498.662,246.731z"/>
			
				<path style="fill:#92E3A9;stroke:#263238;stroke-width:1.2113;stroke-linecap:round;stroke-linejoin:round;stroke-miterlimit:10;" d="
				M463.898,205.68c-14.443,3.073-11.281,13.238-10.671,18.554c0.486,4.238-0.179,17.062-0.179,17.062s-4.963,11.996-6.174,19.264
				c-1.211,7.268-5.148,15.445-5.148,15.445c3.18,4.391,6.511,4.845,6.511,4.845l7.474-16.223c-0.252,1.78-0.4,3.611-0.476,5.467
				c0.692,0.039,1.857-0.297,2.844-2.569c1.514-3.483,5.263-13.931,5.508-25.287c0.232-10.755-4.771-24.632,2.285-37.004
				C465.168,205.4,464.505,205.551,463.898,205.68z"/>
		</g>
		
			<path style="fill:none;stroke:#263238;stroke-width:1.2113;stroke-linecap:round;stroke-linejoin:round;stroke-miterlimit:10;" d="
			M501.096,207.963c0,0,1.349,8.231,0.895,21.405"/>
		
			<path style="fill:none;stroke:#263238;stroke-width:1.2113;stroke-linecap:round;stroke-linejoin:round;stroke-miterlimit:10;" d="
			M504.716,232.851c0,0,3.331-0.757,5.451,1.666"/>
		
			<path style="fill:none;stroke:#263238;stroke-width:1.2113;stroke-linecap:round;stroke-linejoin:round;stroke-miterlimit:10;" d="
			M457.019,260.561c0,0,4.667-12.172,4.756-17.518c0.089-5.346-6.27,0-6.27,0"/>
		
			<path style="fill:none;stroke:#263238;stroke-width:1.2113;stroke-linecap:round;stroke-linejoin:round;stroke-miterlimit:10;" d="
			M459.896,211.652c0,0-1.968,5.905,0,13.703"/>
		<path style="fill:none;stroke:#7F7F7F;stroke-width:1.2113;stroke-linecap:round;stroke-linejoin:round;" d="M470.053,277.723
			c3.825,3.267,9.234,8.378,9.429,11.304c0.303,4.543,1.952,26.347,1.952,26.347"/>
		<path style="fill:none;stroke:#7F7F7F;stroke-width:1.2113;stroke-linecap:round;stroke-linejoin:round;" d="M466.311,274.677
			c0,0,0.717,0.547,1.817,1.442"/>
		<path style="fill:none;stroke:#7F7F7F;stroke-width:1.2113;stroke-linecap:round;stroke-linejoin:round;" d="M485.519,281.328
			c2.123-1.874,4.5-4.316,5.604-6.651"/>
		<path style="fill:none;stroke:#7F7F7F;stroke-width:1.2113;stroke-linecap:round;stroke-linejoin:round;" d="M481.434,284.571
			c0,0,0.466-0.323,1.199-0.881"/>
		<g>
			
				<path style="fill:#FFFFFF;stroke:#263238;stroke-width:1.2113;stroke-linecap:round;stroke-linejoin:round;stroke-miterlimit:10;" d="
				M485.095,198.921l-0.536-6.834h-8.628l-0.755,9.616c-0.06,0.77-0.614,1.413-1.365,1.595c-2.769,0.668-5.334,1.318-7.5,1.833
				c1.056,4.102,4.152,11.368,12.803,10.98c9.298-0.417,13.548-11.369,14.998-16.309c-2.215,0.103-4.576,0.373-6.984,0.745
				C486.11,200.703,485.175,199.949,485.095,198.921z"/>
			
				<path style="fill:#263238;stroke:#263238;stroke-width:1.2113;stroke-linecap:round;stroke-linejoin:round;stroke-miterlimit:10;" d="
				M468.489,174.341c0,0-12.083,16.614-0.378,18.596c11.705,1.982,3.776-19.54,3.776-19.54L468.489,174.341z"/>
			
				<path style="fill:#FFFFFF;stroke:#263238;stroke-width:1.2113;stroke-linecap:round;stroke-linejoin:round;stroke-miterlimit:10;" d="
				M470.233,177.173c0,0-0.659,9.593,0.566,12.46c1.142,2.671,5.293,7.413,8.024,8.401c0.51,0.185,2.333,0.185,2.844,0
				c2.731-0.988,6.882-5.731,8.024-8.401c1.226-2.867,0.566-12.46,0.566-12.46l-1.601-5.747l-7.222-4.643l-6.569,0.808l-3.519,3.836
				L470.233,177.173"/>
			
				<path style="fill:#263238;stroke:#263238;stroke-width:1.2113;stroke-linecap:round;stroke-linejoin:round;stroke-miterlimit:10;" d="
				M468.489,177.739c2.568,1.325,3.304-0.661,6.797-7.174c0,0,7.646,6.041,12.177,7.174c4.531,1.133-4.323,13.654,3.87,15.292
				c8.496,1.699,9.676-7.457,3.776-15.386c0,0,0.994-11.21-9.484-15.08c-10.478-3.87-14.398,3.658-14.398,3.658
				S459.522,173.113,468.489,177.739z"/>
			<ellipse style="fill:#263238;" cx="483.734" cy="182.385" rx="0.496" ry="0.846"/>
			<ellipse style="fill:#263238;" cx="476.017" cy="182.385" rx="0.496" ry="0.846"/>
			
				<path style="fill:none;stroke:#263238;stroke-width:0.9085;stroke-linecap:round;stroke-linejoin:round;stroke-miterlimit:10;" d="
				M478.425,181.538c0,0,1.274,1.345,0,4.319c0,0,0.637,1.366,1.345,1.816"/>
			
				<path style="fill:none;stroke:#263238;stroke-width:0.9085;stroke-linecap:round;stroke-linejoin:round;stroke-miterlimit:10;" d="
				M483.616,189.751c0,0-1.274,0.85-2.832,0.85h-1.015c-1.557,0-2.832-0.85-2.832-0.85"/>
			
				<path style="fill:none;stroke:#263238;stroke-width:0.9085;stroke-linecap:round;stroke-linejoin:round;stroke-miterlimit:10;" d="
				M476.938,179.202c0,0-2.407-2.549-5.593,1.062"/>
			
				<path style="fill:none;stroke:#263238;stroke-width:0.9085;stroke-linecap:round;stroke-linejoin:round;stroke-miterlimit:10;" d="
				M481.434,179.202c0,0,2.407-2.549,5.593,1.062"/>
			<path style="fill:none;stroke:#7F7F7F;stroke-width:0.9085;stroke-linecap:round;stroke-linejoin:round;" d="M466.473,177.497
				c0,0,1.362,0.919,3.028,1.146c0,0-3.785,6.89-0.379,12.492"/>
			<path style="fill:none;stroke:#7F7F7F;stroke-width:0.9085;stroke-linecap:round;stroke-linejoin:round;" d="M474.141,166.782
				c0,0,10.483-5.159,15.725,2.852c5.242,8.011-1.467,14.76,0,19.079c1.466,4.319,8.706,0.991,6.814-2.423
				c-1.161-2.095-4.24,0.606-4.24,0.606"/>
			<path style="fill:none;stroke:#7F7F7F;stroke-width:0.9085;stroke-linecap:round;stroke-linejoin:round;" d="M475.522,169.103
				c0,0,9.272-1.606,12.679,8.244"/>
		</g>
	</g>
</g>
<g id="Character_1">
	<g>
		<g>
			
				<path style="fill:#FFFFFF;stroke:#263238;stroke-width:1.2113;stroke-linecap:round;stroke-linejoin:round;stroke-miterlimit:10;" d="
				M205.386,182.74l1.395-9.275l6.01-14.765l7.798-5.494l9.803-3.863l1.073,2.489c0,0,1.338,4.615,1.073,6.976
				c0,0,1.825,5.989,1.825,7.234c0,1.245-1.825,2.267-1.825,2.267s-0.839,10.414-1.669,10.277l-4.211-0.353v5.637L205.386,182.74z"
				/>
			
				<path style="fill:none;stroke:#263238;stroke-width:0.9085;stroke-linecap:round;stroke-linejoin:round;stroke-miterlimit:10;" d="
				M226.642,171.351c0,0-0.356,4.14,2.923,5.611"/>
			
				<path style="fill:#263238;stroke:#263238;stroke-width:1.2113;stroke-linecap:round;stroke-linejoin:round;stroke-miterlimit:10;" d="
				M206.503,175.31c0,0,5.965-1.957,12.19,0c0,0,6.42-4.887,7.342-11.231c0.922-6.344,3.303-10.278,6.237-11.39
				c5.095-1.93,8.827-19.811-0.52-20.619c-5.851-0.506-2.236,6.184-9.204,5.836c-6.967-0.348-16.135-2.801-21.156,7.225
				c0,0-5.767,1.978-4.75,9.812C197.659,162.779,206.011,165.841,206.503,175.31z"/>
			
				<path style="fill:#FFFFFF;stroke:#263238;stroke-width:1.2113;stroke-linecap:round;stroke-linejoin:round;stroke-miterlimit:10;" d="
				M228.03,161.491c0,0-1.268-4.254-3.478-1.859c-2.21,2.395,0.688,8.417,3.478,8.894"/>
			<g>
				<path style="fill:none;stroke:#7F7F7F;stroke-width:0.9085;stroke-linecap:round;stroke-linejoin:round;" d="M216.008,164.629
					c0.547,1.195,0.999,1.977,0.999,1.977"/>
				<g>
					<path style="fill:none;stroke:#7F7F7F;stroke-width:0.9085;stroke-linecap:round;stroke-linejoin:round;" d="M230.87,143.159
						c-5.816,1.87-19.467-1.477-21.192,2.663"/>
					<path style="fill:none;stroke:#7F7F7F;stroke-width:0.9085;stroke-linecap:round;stroke-linejoin:round;" d="M230.868,135.519
						c0,0,2.745-0.986,2.753,3.081"/>
					<path style="fill:none;stroke:#7F7F7F;stroke-width:0.9085;stroke-linecap:round;stroke-linejoin:round;" d="M231.697,147.331
						c-2.294,1.969-6.366,4.149-13.563,5.36c-5.116,0.861-4.39,5.885-3.057,9.651"/>
					<path style="fill:none;stroke:#7F7F7F;stroke-width:0.9085;stroke-linecap:round;stroke-linejoin:round;" d="M234.611,143.159
						c0,0-0.164,0.973-1.169,2.326"/>
					<path style="fill:none;stroke:#7F7F7F;stroke-width:0.9085;stroke-linecap:round;stroke-linejoin:round;" d="M202.491,160.348
						c-3.231-3.741-3.037-10.698,1.241-11.95"/>
					<path style="fill:none;stroke:#7F7F7F;stroke-width:0.9085;stroke-linecap:round;stroke-linejoin:round;" d="M208.283,172.759
						c0,0-0.076-6.833-3.578-10.426"/>
				</g>
			</g>
		</g>
		<g>
			
				<path style="fill:#FFFFFF;stroke:#263238;stroke-width:1.2113;stroke-linecap:round;stroke-linejoin:round;stroke-miterlimit:10;" d="
				M271.387,268.005c0,0-2.039,4.668-2.039,6.064c0,1.395,2.683,3.239,2.683,3.239s-0.385,1.556,1.257,2.03
				c0,0,1.435,1.882,2.799,1.096c0,0,0.398,0.545,1.847,0.443c1.449-0.102,5.527-4.556,5.956-6.648
				c0.429-2.093-3.703-11.54-3.703-11.54L271.387,268.005z"/>
			<g>
				
					<path style="fill:none;stroke:#263238;stroke-width:0.9085;stroke-linecap:round;stroke-linejoin:round;stroke-miterlimit:10;" d="
					M275.725,279.17c0,0-1.457-6.112,0-6.465c1.458-0.353,2.041,4.11,2.353,3.891s-0.681-4.083,0.446-5.532"/>
				
					<path style="fill:none;stroke:#263238;stroke-width:0.9085;stroke-linecap:round;stroke-linejoin:round;stroke-miterlimit:10;" d="
					M272.836,277.612c0,0,1.777,0.387,1.824-0.86c0.047-1.248-2.572-3.649-3.594-3.595"/>
				
					<path style="fill:none;stroke:#263238;stroke-width:0.9085;stroke-linecap:round;stroke-linejoin:round;stroke-miterlimit:10;" d="
					M272.864,273.854c0,0,2.308-1.234,2.213-4.99"/>
			</g>
		</g>
		<path style="fill:#263238;" d="M253.76,415.128c-3.568-3.422-12.571,7.132-15.84,6.389c-3.269-0.743-6.835,5.497-6.835,5.497
			s-4.114,17.314,0.891,17.665c5.006,0.351,8.239-3.187,10.414-5.927c0.37-0.467,0.831-1.087,1.337-1.76l-1.087-1.944h2.59
			c0.97-1.206,1.978-2.332,2.832-2.901C255.209,427.387,257.115,418.346,253.76,415.128z"/>
		<g>
			
				<path style="fill:#FFFFFF;stroke:#263238;stroke-width:1.2113;stroke-linecap:round;stroke-linejoin:round;stroke-miterlimit:10;" d="
				M229.62,441.093c0.257,2.034,0.942,3.487,2.356,3.586c5.006,0.351,8.239-3.187,10.414-5.927c0.37-0.467,0.831-1.087,1.337-1.76
				l-1.087-1.944C235.778,442.993,231.579,442.305,229.62,441.093z"/>
			
				<path style="fill:#FFFFFF;stroke:#263238;stroke-width:1.2113;stroke-linecap:round;stroke-linejoin:round;stroke-miterlimit:10;" d="
				M254.143,415.58c1.196,6.314-3.509,10.212-11.503,19.468h2.59c0.97-1.206,1.978-2.332,2.832-2.901
				C254.907,427.588,256.931,419.115,254.143,415.58z"/>
		</g>
		
			<path style="fill:#FFFFFF;stroke:#263238;stroke-width:1.2113;stroke-linecap:round;stroke-linejoin:round;stroke-miterlimit:10;" d="
			M233.004,441.777c-1.467-3.961,0.446-15.583,0.446-15.583l-1.731,2.221c-1.245,8.182-1.198,11.696-1.003,13.174
			C231.348,441.789,232.108,441.885,233.004,441.777z"/>
		<path style="fill:#263238;" d="M194.998,474.831l-0.437-3.311c0,0,4.342,2.777,8.978,1.236c3.837-1.436,8.635-2.829,11.198-6.907
			c0,0-1.153-3.554-10.896-3.977c-2.067-0.09-3.888-1.402-4.587-3.349l-2.117-5.892l-13.356-4.109c0,0-7.01,9.145-7.835,24.719
			C175.946,473.241,184.581,476.15,194.998,474.831z"/>
		
			<path style="fill:#FFFFFF;stroke:#263238;stroke-width:1.2113;stroke-linecap:round;stroke-linejoin:round;stroke-miterlimit:10;" d="
			M214.737,465.848c0,0-0.259-0.76-1.484-1.617c-16.346,10.586-36.684,3.804-36.772,3.775c-0.248,1.655-0.437,3.396-0.535,5.235
			c0,0,8.635,2.91,19.052,1.59l-0.437-3.311c0,0,4.342,2.777,8.978,1.236C207.376,471.319,212.174,469.926,214.737,465.848z"/>
		
			<path style="fill:#FFFFFF;stroke:#263238;stroke-width:1.2113;stroke-linecap:round;stroke-linejoin:round;stroke-miterlimit:10;" d="
			M182.336,469.376c1.323-8.482,5.695-15.486,8.1-18.806l-4.078-1.254c-6.139,9.034-7.497,16.395-7.8,19.273
			C179.529,468.831,180.814,469.115,182.336,469.376z"/>
		<path style="fill:#263238;" d="M242.64,294.657c0,0,3.354,22.696-3.005,41.816c-6.359,19.12-15.361,56.613-15.361,56.613
			l-25.725,61.688c0,0-4.081,5.03-17.725-2.572c0,0,2.576-37.652,21.986-69.418l4.2-44.216c0,0-3.771-10.92-4.2-17.909
			c-0.429-6.989-1.308-19.11-1.308-19.11L242.64,294.657z"/>
		<path style="fill:#263238;" d="M189.839,299.498c0,0-3.098,17.606,0,31.343c0,0,8.049,32.356,19.844,50.653
			c0,0,2.385,29.17,19.649,49.357c0,0,7.205,0.101,10.303-11.105l-14.595-61.127l-12.866-59.191L189.839,299.498z"/>
		<g>
			
				<path style="fill:#FFFFFF;stroke:#263238;stroke-width:1.2113;stroke-linecap:round;stroke-linejoin:round;stroke-miterlimit:10;" d="
				M163.424,298.001l-0.429,5.519c0,0,3.981,4.95,4.307,8.845c0.326,3.895,1.1,13.861-0.692,13.861
				c-1.791,0-1.898-6.546-1.898-6.546s-1.395-5.232-2.361-5.46c-0.966-0.228-0.751,8.572-0.751,8.572l0.658,4.061
				c0,0,1.468,1.038,0.995,2.62c-0.473,1.582-3.892-0.689-3.892-0.689s-1.452,0.894-2.934-1.369c0,0-2.32,0.006-2.652-2.362
				c0,0-2.879-1.652-3.752-3.996c-0.873-2.344-0.307-4.815-0.107-6.439c0.326-2.653,0.113-5.244,2.682-10.601l0.523-6.017H163.424z"
				/>
			
				<path style="fill:none;stroke:#263238;stroke-width:0.9085;stroke-linecap:round;stroke-linejoin:round;stroke-miterlimit:10;" d="
				M158.651,325.428c0,0-0.915-3.495-0.593-5.427"/>
			
				<path style="fill:none;stroke:#263238;stroke-width:0.9085;stroke-linecap:round;stroke-linejoin:round;stroke-miterlimit:10;" d="
				M158.221,309.628c0,0-1.311,4.914-4.654,5.981c0,0-0.338,2.354-0.553,4.93c0,0,1.907,0.609,1.919,2.773
				c0,0,2.495,0.225,2.702,2.16c0,0,1.9-0.568,2.61,1.381"/>
			
				<path style="fill:none;stroke:#263238;stroke-width:0.9085;stroke-linecap:round;stroke-linejoin:round;stroke-miterlimit:10;" d="
				M159.56,308.303c0,0-0.751,1.288,1.824,4.293"/>
		</g>
		<path style="fill:#263238;" d="M169.766,203.026c0,0,21.161-17.734,45.454-17.937c24.293-0.203,36.288,6.732,36.288,6.732
			s4.031-1.658,2.779,4.611c0,0,13.587,29.63,12.929,39.95c0,0,4.447,2.621,8.655,10.548c4.209,7.928,5.511,15.53,5.511,15.53
			s-0.737,7.173-11.751,6.439c0,0-14.564-21.431-16.102-24.333c-1.537-2.902-5.333-17.549-5.333-17.549s-2.43,25.23-5.127,39.306
			c0,0,3.203,5.561,0.897,6.814l3.933,29.889c0,0-33.898,11.895-65.035,3.863l3.765-32.271c0,0-1.908-1.526,0.591-5.063
			l-3.819-32.853c0,0-10.61,21.125-15.025,26.615c0,0,0.737,19.622-3.771,37.991c0,0-9.201,2.022-14.688,0
			c0,0,0.784-32.106,1.404-37.347c0.62-5.241,14.312-38.166,14.312-38.166s-1.738-5.282,0.978-6.355
			C166.61,219.443,166.851,205.25,169.766,203.026z"/>
		<path style="fill:#263238;" d="M196.642,190.038c0,0,0.201-11.015,18.578-10.303c19.391,0.751,19.391,12.539,19.391,12.539
			L196.642,190.038z"/>
		<g>
			<g>
				<path style="fill:none;stroke:#7F7F7F;stroke-width:1.2113;stroke-linecap:round;stroke-linejoin:round;" d="M229.431,307.584
					c-9.644,1.694-22.059,2.891-34.775,1.447"/>
				<path style="fill:none;stroke:#7F7F7F;stroke-width:1.2113;stroke-linecap:round;stroke-linejoin:round;" d="M235.498,306.388
					c-0.945,0.207-1.934,0.413-2.962,0.616"/>
			</g>
			<path style="fill:none;stroke:#7F7F7F;stroke-width:1.2113;stroke-linecap:round;stroke-linejoin:round;" d="M256.899,244.341
				c0,0,3.863,2.146,9.015-3.434"/>
			<path style="fill:none;stroke:#7F7F7F;stroke-width:1.2113;stroke-linecap:round;stroke-linejoin:round;" d="M250.889,196.432
				c0,0-5.809,10.201-3.956,21.508"/>
			<g>
				<path style="fill:none;stroke:#7F7F7F;stroke-width:1.2113;stroke-linecap:round;stroke-linejoin:round;" d="M201.53,272.745
					c8.755,0.501,22.18,0.652,32.403-2.003c0,0-10.732,9.118-31.981,9.281"/>
				<path style="fill:none;stroke:#7F7F7F;stroke-width:1.2113;stroke-linecap:round;stroke-linejoin:round;" d="M192.508,271.993
					c0,0,1.556,0.19,4.148,0.408"/>
			</g>
			<path style="fill:none;stroke:#7F7F7F;stroke-width:1.2113;stroke-linecap:round;stroke-linejoin:round;" d="M153.669,262.992
				c0,0,4.497-6.665,10.292,0.972"/>
			<path style="fill:none;stroke:#7F7F7F;stroke-width:1.2113;stroke-linecap:round;stroke-linejoin:round;" d="M202.927,186.606
				c0,0,6.991-2.16,21.626-1.15"/>
			<g>
				<path style="fill:none;stroke:#7F7F7F;stroke-width:1.2113;stroke-linecap:round;stroke-linejoin:round;" d="M205.17,357.94
					l1.84-19.372c0,0-3.771-10.92-4.2-17.909c-0.119-1.941-0.273-4.278-0.433-6.641"/>
				
					<line style="fill:none;stroke:#7F7F7F;stroke-width:1.2113;stroke-linecap:round;stroke-linejoin:round;" x1="204.555" y1="364.417" x2="204.855" y2="361.257"/>
			</g>
			<g>
				
					<line style="fill:none;stroke:#7F7F7F;stroke-width:1.2113;stroke-linecap:round;stroke-linejoin:round;" x1="219.406" y1="404.759" x2="218.655" y2="406.56"/>
				<path style="fill:none;stroke:#7F7F7F;stroke-width:1.2113;stroke-linecap:round;stroke-linejoin:round;" d="M227.924,378.37
					c-2.176,8.577-3.65,14.716-3.65,14.716l-3.786,9.079"/>
			</g>
			<path style="fill:none;stroke:#7F7F7F;stroke-width:1.2113;stroke-linecap:round;stroke-linejoin:round;" d="M173.405,205.492
				c0,0,4.097,5.557,7.906,22.664"/>
			<g>
				<path style="fill:none;stroke:#7F7F7F;stroke-width:1.2113;stroke-linecap:round;stroke-linejoin:round;" d="M197.01,454.62
					c-2.199,0.8-6.587,1.116-14.357-2.892"/>
				<path style="fill:none;stroke:#7F7F7F;stroke-width:1.2113;stroke-linecap:round;stroke-linejoin:round;" d="M232.201,428.958
					c1.79-0.745,4.189-2.408,6.079-6.115"/>
			</g>
		</g>
	</g>
</g>
<text x="550" y="500" fill="#636363" font-size="5"> storyset  Freepik</text>
</svg>
