<?xml version="1.0" encoding="utf-8"?>
<!-- Generator: Adobe Illustrator 27.5.0, SVG Export Plug-In . SVG Version: 6.00 Build 0)  -->
<svg version="1.1" xmlns="http://www.w3.org/2000/svg" xmlns:xlink="http://www.w3.org/1999/xlink" x="0px" y="0px"
	 viewBox="0 50 500 450" style="enable-background:new 0 0 500 500;" xml:space="preserve">
<g id="Background_Simple">
	<g>
		<path style="fill:#C6FF00;" d="M328.924,66.224c0,0-56.585-22.178-109.213,12.7c-52.629,34.878-60.383,92.833-82.28,138.011
			c-11.467,23.659-34.987,38.598-51.094,59.155c-51.5,65.729-8.843,162.438,54.549,183.682
			c54.879,18.391,111.156,4.027,175.013-43.164c63.857-47.192,110.466-78.192,132.301-161.438
			C470.034,171.924,400.14,98.128,328.924,66.224z"/>
		<path style="opacity:0.75;fill:#FFFFFF;" d="M328.924,66.224c0,0-56.585-22.178-109.213,12.7
			c-52.629,34.878-60.383,92.833-82.28,138.011c-11.467,23.659-34.987,38.598-51.094,59.155
			c-51.5,65.729-8.843,162.438,54.549,183.682c54.879,18.391,111.156,4.027,175.013-43.164
			c63.857-47.192,110.466-78.192,132.301-161.438C470.034,171.924,400.14,98.128,328.924,66.224z"/>
	</g>
</g>
<g id="Building">
	<g>
		<polyline style="fill:none;stroke:#263238;stroke-linecap:round;stroke-linejoin:round;stroke-miterlimit:10;" points="
			298.595,82.667 298.595,319.121 405.728,319.121 		"/>
		<polyline style="fill:none;stroke:#263238;stroke-linecap:round;stroke-linejoin:round;stroke-miterlimit:10;" points="
			400,200.248 316.206,200.248 316.206,182.637 401,182.637 		"/>
		
			<line style="fill:none;stroke:#263238;stroke-linecap:round;stroke-linejoin:round;stroke-miterlimit:10;" x1="313.271" y1="318.971" x2="313.271" y2="98.667"/>
		
			<rect x="324.278" y="98.986" style="fill:none;stroke:#263238;stroke-linecap:round;stroke-linejoin:round;stroke-miterlimit:10;" width="51.365" height="73.378"/>
		
			<rect x="327.874" y="104.123" style="fill:none;stroke:#263238;stroke-linecap:round;stroke-linejoin:round;stroke-miterlimit:10;" width="44.174" height="63.105"/>
		
			<rect x="327.874" y="144.481" style="fill:none;stroke:#263238;stroke-linecap:round;stroke-linejoin:round;stroke-miterlimit:10;" width="44.174" height="5.87"/>
		
			<rect x="320.609" y="173.098" style="fill:none;stroke:#263238;stroke-linecap:round;stroke-linejoin:round;stroke-miterlimit:10;" width="59.436" height="6.604"/>
		
			<line style="fill:none;stroke:#263238;stroke-linecap:round;stroke-linejoin:round;stroke-miterlimit:10;" x1="298.595" y1="319.121" x2="294.368" y2="306.703"/>
		
			<line style="fill:none;stroke:#263238;stroke-linecap:round;stroke-linejoin:round;stroke-miterlimit:10;" x1="294.426" y1="303.668" x2="275" y2="252"/>
		
			<line style="fill:none;stroke:#263238;stroke-linecap:round;stroke-linejoin:round;stroke-miterlimit:10;" x1="298.455" y1="288.224" x2="294.435" y2="276.849"/>
		
			<line style="fill:none;stroke:#263238;stroke-linecap:round;stroke-linejoin:round;stroke-miterlimit:10;" x1="298.455" y1="262.931" x2="294.435" y2="251.557"/>
		
			<line style="fill:none;stroke:#263238;stroke-linecap:round;stroke-linejoin:round;stroke-miterlimit:10;" x1="298.455" y1="237.639" x2="294.435" y2="226.264"/>
		
			<line style="fill:none;stroke:#263238;stroke-linecap:round;stroke-linejoin:round;stroke-miterlimit:10;" x1="298.455" y1="212.346" x2="294.435" y2="200.972"/>
		
			<line style="fill:none;stroke:#263238;stroke-linecap:round;stroke-linejoin:round;stroke-miterlimit:10;" x1="298.455" y1="187.053" x2="294.435" y2="175.679"/>
		
			<line style="fill:none;stroke:#263238;stroke-linecap:round;stroke-linejoin:round;stroke-miterlimit:10;" x1="298.455" y1="161.761" x2="294.435" y2="155.5"/>
		
			<line style="fill:none;stroke:#263238;stroke-linecap:round;stroke-linejoin:round;stroke-miterlimit:10;" x1="298.455" y1="136.82" x2="294.435" y2="133.352"/>
		
			<line style="fill:none;stroke:#263238;stroke-linecap:round;stroke-linejoin:round;stroke-miterlimit:10;" x1="298.455" y1="111.746" x2="294.435" y2="111"/>
		
			<rect x="380.779" y="200.426" style="fill:none;stroke:#263238;stroke-linecap:round;stroke-linejoin:round;stroke-miterlimit:10;" width="4.403" height="102.764"/>
		
			<line style="fill:none;stroke:#263238;stroke-linecap:round;stroke-linejoin:round;stroke-miterlimit:10;" x1="312.535" y1="303.392" x2="402" y2="303.392"/>
		
			<line style="fill:none;stroke:#263238;stroke-linecap:round;stroke-linejoin:round;stroke-miterlimit:10;" x1="298.649" y1="111.758" x2="312.973" y2="111.758"/>
		
			<line style="fill:none;stroke:#263238;stroke-linecap:round;stroke-linejoin:round;stroke-miterlimit:10;" x1="298.649" y1="136.921" x2="312.973" y2="136.921"/>
		
			<line style="fill:none;stroke:#263238;stroke-linecap:round;stroke-linejoin:round;stroke-miterlimit:10;" x1="298.649" y1="162.085" x2="312.973" y2="162.085"/>
		
			<line style="fill:none;stroke:#263238;stroke-linecap:round;stroke-linejoin:round;stroke-miterlimit:10;" x1="298.649" y1="187.249" x2="312.973" y2="187.249"/>
		
			<line style="fill:none;stroke:#263238;stroke-linecap:round;stroke-linejoin:round;stroke-miterlimit:10;" x1="298.649" y1="212.412" x2="312.973" y2="212.412"/>
		
			<line style="fill:none;stroke:#263238;stroke-linecap:round;stroke-linejoin:round;stroke-miterlimit:10;" x1="298.649" y1="237.576" x2="312.973" y2="237.576"/>
		
			<line style="fill:none;stroke:#263238;stroke-linecap:round;stroke-linejoin:round;stroke-miterlimit:10;" x1="298.649" y1="262.739" x2="312.973" y2="262.739"/>
		
			<line style="fill:none;stroke:#263238;stroke-linecap:round;stroke-linejoin:round;stroke-miterlimit:10;" x1="298.649" y1="287.903" x2="312.973" y2="287.903"/>
		
			<line style="fill:none;stroke:#263238;stroke-linecap:round;stroke-linejoin:round;stroke-miterlimit:10;" x1="294.368" y1="306.703" x2="294.368" y2="87.644"/>
		
			<line style="fill:none;stroke:#263238;stroke-linecap:round;stroke-linejoin:round;stroke-miterlimit:10;" x1="286.368" y1="281.369" x2="286.368" y2="104.667"/>
		
			<line style="fill:none;stroke:#263238;stroke-linecap:round;stroke-linejoin:round;stroke-miterlimit:10;" x1="283.035" y1="274.703" x2="283.035" y2="98"/>
		
			<rect x="266.465" y="93.431" style="fill:none;stroke:#263238;stroke-linecap:round;stroke-linejoin:round;stroke-miterlimit:10;" width="16.646" height="74.032"/>
		
			<line style="fill:none;stroke:#263238;stroke-linecap:round;stroke-linejoin:round;stroke-miterlimit:10;" x1="266.735" y1="107.078" x2="283.043" y2="107.078"/>
		
			<line style="fill:none;stroke:#263238;stroke-linecap:round;stroke-linejoin:round;stroke-miterlimit:10;" x1="266.735" y1="121.776" x2="283.043" y2="121.776"/>
		
			<line style="fill:none;stroke:#263238;stroke-linecap:round;stroke-linejoin:round;stroke-miterlimit:10;" x1="266.735" y1="136.473" x2="283.043" y2="136.473"/>
		
			<line style="fill:none;stroke:#263238;stroke-linecap:round;stroke-linejoin:round;stroke-miterlimit:10;" x1="266.735" y1="151.17" x2="283.043" y2="151.17"/>
		<polyline style="fill:none;stroke:#263238;stroke-linecap:round;stroke-linejoin:round;stroke-miterlimit:10;" points="
			278.73,261.208 278.73,176.225 276.54,170.53 		"/>
	</g>
</g>
<g id="Traffic_Light">
	<g>
		<g id="XMLID_430_">
			
				<rect id="XMLID_412_" x="116.873" y="126.231" style="fill:#C6FF00;stroke:#263238;stroke-miterlimit:10;" width="54.306" height="16.094"/>
			
				<path id="XMLID_419_" style="fill:#263238;stroke:#263238;stroke-linecap:round;stroke-linejoin:round;stroke-miterlimit:10;" d="
				M93.813,154.482H73.068c-2.345,0-4.246-1.901-4.246-4.246v-21.648c0-2.345,1.901-4.246,4.246-4.246h20.745
				c2.345,0,4.246,1.901,4.246,4.246v21.648C98.059,152.581,96.158,154.482,93.813,154.482z"/>
			
				<path id="XMLID_422_" style="fill:#D9D9D9;stroke:#263238;stroke-linecap:round;stroke-linejoin:round;stroke-miterlimit:10;" d="
				M112.02,154.482h-5.558c-2.448,0-4.432-1.984-4.432-4.432v-21.275c0-2.448,1.985-4.432,4.432-4.432h5.558
				c2.448,0,4.432,1.984,4.432,4.432v21.275C116.452,152.497,114.468,154.482,112.02,154.482z"/>
			
				<path id="XMLID_418_" style="fill:#D9D9D9;stroke:#263238;stroke-linecap:round;stroke-linejoin:round;stroke-miterlimit:10;" d="
				M73.922,124.168h41.524c0.56,0,1.014-0.454,1.014-1.014v-1.272c0-0.56-0.454-1.015-1.014-1.015H73.922
				c-0.56,0-1.014,0.454-1.014,1.015v1.272C72.908,123.714,73.362,124.168,73.922,124.168z"/>
			
				<path id="XMLID_421_" style="fill:#D9D9D9;stroke:#263238;stroke-linecap:round;stroke-linejoin:round;stroke-miterlimit:10;" d="
				M73.922,157.556h41.524c0.56,0,1.014-0.454,1.014-1.014v-1.272c0-0.56-0.454-1.014-1.014-1.014H73.922
				c-0.56,0-1.014,0.454-1.014,1.014v1.272C72.908,157.102,73.362,157.556,73.922,157.556z"/>
			
				<polygon id="XMLID_410_" style="fill:#D9D9D9;stroke:#263238;stroke-linecap:round;stroke-linejoin:round;stroke-miterlimit:10;" points="
				121.825,308.212 113.572,308.212 115.635,87.442 119.762,87.442 			"/>
			
				<polygon id="XMLID_411_" style="fill:#D9D9D9;stroke:#263238;stroke-linecap:round;stroke-linejoin:round;stroke-miterlimit:10;" points="
				133.792,336.685 100.78,336.685 109.033,304.911 125.539,304.911 			"/>
			<g id="XMLID_415_">
				<g>
					<path style="fill:#FFFFFF;" d="M134.855,138.555c-0.208,0.145-0.438,0.217-0.693,0.217c-0.254,0-0.486-0.071-0.693-0.214
						c-0.207-0.143-0.354-0.346-0.438-0.61l-2.244-7.058l-2.243,7.058c-0.081,0.264-0.228,0.467-0.442,0.61
						c-0.214,0.143-0.448,0.214-0.7,0.214c-0.252,0-0.481-0.072-0.686-0.217c-0.205-0.145-0.344-0.352-0.415-0.62l-2.136-7.896
						c-0.018-0.076-0.027-0.147-0.027-0.214c0-0.134,0.037-0.253,0.111-0.358c0.074-0.105,0.166-0.182,0.278-0.232
						c0.111-0.049,0.23-0.073,0.355-0.073c0.063,0,0.122,0.006,0.181,0.02c0.058,0.013,0.114,0.033,0.167,0.06
						c0.054,0.027,0.103,0.059,0.147,0.097c0.044,0.038,0.084,0.086,0.117,0.144c0.033,0.058,0.059,0.121,0.077,0.188l1.929,7.601
						l2.284-7.299c0.098-0.308,0.229-0.52,0.392-0.636c0.163-0.116,0.367-0.174,0.613-0.174c0.25,0,0.456,0.056,0.616,0.167
						c0.161,0.112,0.29,0.326,0.389,0.643l2.283,7.299l1.929-7.601c0.041-0.165,0.125-0.292,0.254-0.378
						c0.13-0.087,0.275-0.13,0.436-0.13c0.196,0,0.369,0.06,0.519,0.181c0.149,0.121,0.224,0.281,0.224,0.482
						c0,0.023,0,0.045,0,0.067c0,0.022-0.002,0.046-0.006,0.07c-0.005,0.025-0.011,0.05-0.02,0.077l-2.136,7.896
						C135.203,138.203,135.063,138.41,134.855,138.555z"/>
				</g>
				<g>
					<path style="fill:#FFFFFF;" d="M145.805,138.591c-0.147-0.121-0.221-0.283-0.221-0.489v-1.373h-3.771
						c-0.214,0-0.388-0.078-0.522-0.234c-0.134-0.156-0.201-0.337-0.201-0.542c0-0.036,0.002-0.07,0.007-0.104
						c0.004-0.034,0.011-0.067,0.02-0.101c0.009-0.033,0.02-0.066,0.033-0.097c0.014-0.031,0.029-0.06,0.047-0.087l3.563-5.666
						c0.303-0.486,0.714-0.73,1.232-0.73c0.299,0,0.548,0.086,0.747,0.258c0.199,0.172,0.298,0.43,0.298,0.773v5.445h0.911
						c0.169,0,0.301,0.053,0.395,0.161c0.094,0.107,0.141,0.234,0.141,0.381c0,0.148-0.047,0.275-0.141,0.382
						c-0.094,0.107-0.226,0.161-0.395,0.161h-0.917v1.373c0,0.21-0.073,0.374-0.218,0.492c-0.145,0.118-0.311,0.177-0.499,0.177
						C146.122,138.772,145.953,138.712,145.805,138.591z M145.585,135.645v-4.949l-3.034,4.949H145.585z"/>
					<path style="fill:#FFFFFF;" d="M151.102,138.561c-0.156-0.131-0.234-0.298-0.234-0.499c-0.004-0.085,0.022-0.194,0.081-0.328
						l3.201-7.333h-4.306c-0.188,0-0.333-0.059-0.436-0.178c-0.103-0.118-0.154-0.258-0.154-0.418c0-0.161,0.051-0.301,0.154-0.422
						c0.102-0.121,0.248-0.181,0.436-0.181h5.136c0.268,0,0.473,0.063,0.616,0.191c0.143,0.127,0.214,0.295,0.214,0.505
						c0,0.219-0.047,0.436-0.141,0.65l-3.375,7.788c-0.125,0.281-0.344,0.422-0.656,0.422
						C151.438,138.759,151.259,138.693,151.102,138.561z"/>
				</g>
				<g>
					<path style="fill:#FFFFFF;" d="M158.481,133.838c-0.016-0.014-0.027-0.03-0.034-0.049c-0.007-0.019-0.01-0.041-0.01-0.063
						c0-0.084,0.038-0.172,0.113-0.263c0.075-0.091,0.151-0.136,0.228-0.136c0.016,0,0.031,0.002,0.044,0.007
						c0.014,0.004,0.027,0.011,0.041,0.021c0.409,0.295,0.863,0.443,1.361,0.443c0.323,0,0.586-0.063,0.79-0.188
						c0.203-0.125,0.305-0.307,0.305-0.545c0-0.212-0.056-0.372-0.169-0.481c-0.112-0.109-0.302-0.208-0.568-0.297l-1.037-0.344
						c-0.368-0.123-0.64-0.28-0.815-0.472c-0.175-0.192-0.263-0.453-0.263-0.783c0-0.273,0.079-0.512,0.237-0.716
						c0.158-0.205,0.371-0.359,0.638-0.462c0.267-0.103,0.569-0.155,0.906-0.155c0.325,0,0.636,0.05,0.935,0.152
						c0.297,0.101,0.526,0.221,0.685,0.359c0.057,0.048,0.085,0.11,0.085,0.188c0,0.08-0.028,0.151-0.085,0.216
						c-0.057,0.065-0.126,0.097-0.208,0.097c-0.052,0-0.104-0.016-0.157-0.048c-0.387-0.232-0.786-0.348-1.197-0.348
						c-0.33,0-0.594,0.057-0.793,0.17c-0.199,0.114-0.298,0.287-0.298,0.519c0,0.166,0.046,0.299,0.14,0.399
						c0.093,0.1,0.24,0.182,0.44,0.246l1.033,0.334c0.207,0.068,0.381,0.139,0.523,0.211c0.142,0.073,0.27,0.162,0.385,0.266
						c0.115,0.105,0.2,0.229,0.256,0.374c0.056,0.145,0.083,0.311,0.083,0.5c0,0.298-0.077,0.555-0.232,0.771
						c-0.154,0.216-0.372,0.379-0.653,0.489c-0.281,0.11-0.61,0.165-0.987,0.165C159.487,134.415,158.913,134.223,158.481,133.838z"
						/>
					<path style="fill:#FFFFFF;" d="M164.183,134.243c-0.077-0.067-0.116-0.16-0.116-0.278v-3.895h-1.235
						c-0.095,0-0.17-0.031-0.225-0.092c-0.055-0.061-0.081-0.133-0.081-0.215c0-0.084,0.027-0.157,0.081-0.218
						c0.055-0.062,0.13-0.092,0.225-0.092h3.236c0.096,0,0.171,0.031,0.225,0.092c0.055,0.061,0.082,0.133,0.082,0.215
						c0,0.084-0.027,0.157-0.082,0.218c-0.054,0.062-0.129,0.092-0.225,0.092h-1.224v3.895c0,0.118-0.038,0.211-0.116,0.278
						c-0.078,0.067-0.169,0.101-0.273,0.101C164.352,134.343,164.26,134.31,164.183,134.243z"/>
				</g>
			</g>
			<g id="XMLID_423_">
				<path id="XMLID_420_" style="fill:#C6FF00;" d="M88.351,128.941c0-1.747-1.416-3.163-3.163-3.163
					c-1.747,0-3.163,1.416-3.163,3.163c0,1.747,1.416,3.163,3.163,3.163C86.935,132.103,88.351,130.687,88.351,128.941z"/>
				<path id="XMLID_424_" style="fill:#C6FF00;" d="M85.616,133.642l-4.103-1.026l-5.29,3.306c-0.836,0.523-1.053,1.645-0.471,2.441
					l2.171,2.971l-0.171,4.958l-3.459,2.352c-0.474,0.323-0.656,0.934-0.436,1.464l0,0c0.261,0.626,0.986,0.915,1.606,0.639
					l5.024-2.233l1.71-4.787l2.564,2.564l1.008,4.465c0.112,0.496,0.534,0.861,1.041,0.9l0,0c0.716,0.055,1.309-0.548,1.242-1.262
					l-0.557-5.983l-2.564-3.932l0.513-2.564l2.033,1.92c0.622,0.587,1.552,0.705,2.3,0.29l2.928-1.622
					c0.437-0.235,0.618-0.767,0.417-1.22l0,0c-0.188-0.424-0.657-0.649-1.106-0.532l-3.153,0.822L85.616,133.642z"/>
			</g>
		</g>
		
			<line id="XMLID_434_" style="fill:#FFFFFF;stroke:#263238;stroke-linecap:round;stroke-linejoin:round;stroke-miterlimit:10;" x1="91.289" y1="339.574" x2="404.677" y2="339.574"/>
		
			<line id="XMLID_432_" style="fill:#FFFFFF;stroke:#263238;stroke-linecap:round;stroke-linejoin:round;stroke-miterlimit:10;" x1="404.677" y1="343.288" x2="91.289" y2="343.288"/>
	</g>
</g>
<g id="Crosswalk">
	<path id="XMLID_202_" style="fill:#FFFFFF;stroke:#263238;stroke-linecap:round;stroke-linejoin:round;stroke-miterlimit:10;" d="
		M355.049,353.652H123.402l5.708-7.888h220.232L355.049,353.652z M357.501,357.041H120.95l-6.61,9.136h249.771L357.501,357.041z
		 M366.966,370.123H111.484l-7.745,10.704h270.972L366.966,370.123z M378.079,385.481H100.372l-9.2,12.714h296.106L378.079,385.481z
		 M391.309,403.766H87.142l-11.106,15.35h326.38L391.309,403.766z M407.326,425.903H71.125l-13.674,18.899H421L407.326,425.903z"/>
</g>
<g id="Character_5">
	<g>
		<ellipse style="opacity:0.4;" cx="348.36" cy="375.71" rx="21.854" ry="7.467"/>
		<g id="XMLID_366_">
			
				<path id="XMLID_361_" style="fill:#FFFFFF;stroke:#263238;stroke-linecap:round;stroke-linejoin:round;stroke-miterlimit:10;" d="
				M359.225,255.528c0,0,3.483,1.514,4.392,3.786c0.909,2.272-0.757,8.481-1.514,14.085c-0.757,5.604-0.606,11.207-0.606,14.085
				c0,2.878,0.303,8.027-0.303,11.51c-0.606,3.483-0.909,6.815-0.909,6.815s-4.241-13.025-6.512-17.265
				c-2.272-4.241-2.878-6.058-1.514-10.45c1.363-4.392,5.604-16.811,5.604-17.72S359.225,255.528,359.225,255.528z"/>
			<path style="fill:#C6FF00;stroke:#263238;stroke-linecap:round;stroke-linejoin:round;stroke-miterlimit:10;" d="
				M359.225,255.528c0,0-1.363,3.938-1.363,4.846c0,0.342-0.602,2.32-1.426,4.886l1.816,3.738c0,0,1.644,1.267,4.431,0.748
				c0.775-4.438,1.647-8.649,0.934-10.432C362.708,257.043,359.225,255.528,359.225,255.528z"/>
			
				<path id="XMLID_362_" style="fill:#C6FF00;stroke:#263238;stroke-linecap:round;stroke-linejoin:round;stroke-miterlimit:10;" d="
				M338.173,365.633c0,0-2.423-2.423-3.938-1.212c-1.514,1.212,0,3.029,1.06,5.301c1.06,2.272,4.089,4.392,4.998,4.089
				s1.666-0.757,1.666-1.969c0-1.212-0.303-4.392-0.303-4.392L338.173,365.633z"/>
			
				<path id="XMLID_358_" style="fill:#FFFFFF;stroke:#263238;stroke-linecap:round;stroke-linejoin:round;stroke-miterlimit:10;" d="
				M334.084,335.191c0,0-1.212,5.907-0.151,10.753c1.06,4.846,3.938,18.931,3.938,18.931s-0.303,3.181,0.606,4.089
				c0.909,0.909,3.029,0.303,3.181-1.514c0.151-1.817-0.303-9.844,0.151-13.328c0.454-3.483,1.363-9.087,1.363-12.722
				s-0.303-7.421-0.303-7.421L334.084,335.191z"/>
			
				<path id="XMLID_365_" style="fill:#FFFFFF;stroke:#263238;stroke-linecap:round;stroke-linejoin:round;stroke-miterlimit:10;" d="
				M346.352,333.98c0,0-0.909,5.604-0.909,9.693s2.12,8.33,2.272,9.238c0.152,0.909,0.303,2.878,0.303,3.786
				c0,0.909-0.757,14.388-0.757,14.842c0,0.454-1.363,2.575-0.909,3.786c0.454,1.212,1.666,1.818,1.969,3.029
				c0.303,1.212,0.151,1.514,1.363,1.969c1.212,0.454,4.846,0.606,5.604,0.152c0.757-0.454,0.606-1.515,0-2.272
				c-0.606-0.757-0.757-0.757-1.212-1.514c-0.454-0.757-1.212-4.241-1.515-5.755c-0.303-1.514,0.757-8.33,1.363-12.419
				s1.817-10.299,1.666-14.236c-0.152-3.938-1.666-10.602-1.666-10.602S349.078,331.708,346.352,333.98z"/>
			<g>
				
					<path id="XMLID_356_" style="fill:#878787;stroke:#263238;stroke-linecap:round;stroke-linejoin:round;stroke-miterlimit:10;" d="
					M340.748,248.713c0,0-0.135,0.081-0.378,0.225c-1.694,1.008-8.615,5.114-11.133,6.439c-2.878,1.515-0.606,8.633-0.303,18.326
					c0.303,9.693,0.454,16.205,0.151,19.537c-0.303,3.332-0.909,8.784-0.151,17.72c0.757,8.936,3.332,24.687,3.332,24.687
					s1.969,1.06,4.998,1.06c3.029,0,5.907-0.303,5.907-0.303l1.666-6.512l1.06,6.21c0,0,2.423-1.06,4.695-1.06
					c2.272,0,4.089,0.151,4.089,0.151s4.241-16.811,5.452-23.323c1.212-6.512,0.606-11.662-0.606-16.357
					c-1.212-4.695-4.544-12.873-4.544-12.873s5.149-16.054,6.058-19.689c0.909-3.635,0-6.058-1.817-7.421
					c-1.817-1.363-7.118-3.938-11.359-5.755C343.626,247.956,340.748,248.713,340.748,248.713z"/>
				<path id="XMLID_363_" style="fill:none;stroke:#263238;stroke-linecap:round;stroke-linejoin:round;stroke-miterlimit:10;" d="
					M344.837,329.891l-0.757-16.811c0,0,2.726-3.332,4.089-4.241"/>
			</g>
			<g>
				
					<path id="XMLID_364_" style="fill:#C6FF00;stroke:#263238;stroke-linecap:round;stroke-linejoin:round;stroke-miterlimit:10;" d="
					M328.576,301.808c3.359,1.425,9.314,3.204,17.321,2.639c6.97-0.492,11.672-2.671,14.522-4.566
					c-0.222-1.513-0.529-2.963-0.892-4.37c-1.212-4.695-4.544-12.873-4.544-12.873s5.149-16.054,6.058-19.689
					c0.909-3.635,0-6.058-1.817-7.421c-1.817-1.363-7.118-3.938-11.359-5.755c-4.241-1.817-7.118-1.06-7.118-1.06
					s-0.135,0.081-0.378,0.225c-1.694,1.008-8.615,5.114-11.133,6.439c-2.878,1.515-0.606,8.633-0.303,18.326
					c0.303,9.693,0.454,16.205,0.151,19.537C328.905,295.235,328.617,297.999,328.576,301.808z"/>
				<path id="XMLID_359_" style="fill:none;stroke:#263238;stroke-linecap:round;stroke-linejoin:round;stroke-miterlimit:10;" d="
					M350.138,268.704c0,0-3.938,8.936-5.604,11.056"/>
				<path id="XMLID_360_" style="fill:none;stroke:#263238;stroke-linecap:round;stroke-linejoin:round;stroke-miterlimit:10;" d="
					M348.624,276.277c0,0-3.483,5.301-4.089,6.21"/>
			</g>
			
				<path id="XMLID_351_" style="fill:#263238;stroke:#263238;stroke-linecap:round;stroke-linejoin:round;stroke-miterlimit:10;" d="
				M338.022,227.055c0,0-4.241,6.512-4.089,11.056c0.151,4.544,1.514,7.876,3.938,8.936c2.423,1.06,8.784,1.212,10.147,0.606
				c1.363-0.606,5.301-2.575,5.452-7.118c0.151-4.544-2.12-8.481-4.089-11.813c-1.969-3.332-2.12-4.544-4.998-3.938
				c-2.878,0.606-3.786,1.514-4.089,1.969c-0.303,0.454-2.12-0.152-3.18,1.06"/>
			
				<ellipse id="XMLID_355_" style="fill:#263238;stroke:#263238;stroke-linecap:round;stroke-linejoin:round;stroke-miterlimit:10;" cx="344.61" cy="247.88" rx="6.891" ry="5.982"/>
			
				<path id="XMLID_357_" style="fill:#C6FF00;stroke:#263238;stroke-linecap:round;stroke-linejoin:round;stroke-miterlimit:10;" d="
				M330.449,254.922c0,0-3.635,2.12-4.392,4.392c-0.757,2.272,0,10.753,0.152,14.539c0.151,3.786,0.303,9.087-0.606,12.116
				c-0.909,3.029-2.12,3.181-1.514,8.784s0.606,19.537,0.606,19.992c0,0.454-0.757,1.666,0.454,3.635
				c1.212,1.969,3.483,3.483,3.938,3.18c0.454-0.303,1.06-0.606,1.06-1.212c0-0.606-0.454-2.272-0.454-2.272
				s0.454-0.454,0.454-1.818c0-1.363-0.909-3.938-1.212-5.301c-0.303-1.363-0.303-1.06-0.303-2.423
				c0-1.363,4.392-13.176,4.392-18.628c0-5.452-0.454-9.238,0-10.753c0.454-1.515,1.515-15.599,1.666-16.811
				c0.151-1.212,0.151-1.969,0.151-1.969"/>
			
				<path id="XMLID_413_" style="fill:#FFFFFF;stroke:#263238;stroke-linecap:round;stroke-linejoin:round;stroke-miterlimit:10;" d="
				M334.352,266.191c-0.644-1.608-2.723-4.698-5.568-4.917c-1.732-0.133-2.612,0.869-3.057,1.834
				c0.001,3.482,0.38,8.186,0.482,10.746c0.151,3.786,0.303,9.087-0.606,12.116c-0.909,3.029-2.12,3.181-1.514,8.784
				s0.606,19.537,0.606,19.992c0,0.454-0.757,1.666,0.454,3.635c1.212,1.969,3.483,3.483,3.938,3.18
				c0.454-0.303,1.06-0.606,1.06-1.212c0-0.606-0.454-2.272-0.454-2.272s0.454-0.454,0.454-1.817c0-1.363-0.909-3.938-1.212-5.301
				c-0.303-1.363-0.303-1.06-0.303-2.423c0-1.363,4.392-13.176,4.392-18.629c0-5.452-0.454-9.238,0-10.753
				C333.343,278.092,333.96,270.841,334.352,266.191z"/>
			
				<path id="XMLID_369_" style="fill:#C6FF00;stroke:#263238;stroke-linecap:round;stroke-linejoin:round;stroke-miterlimit:10;" d="
				M354.076,376.689c-0.305-0.508-0.745-2.242-1.094-3.786c-0.73-0.563-1.633-1.141-2.692-1.515c-2.575-0.909-3.18,0.909-3.18,0.909
				l-0.123,0.013c-0.372,0.855-0.955,2.161-0.635,3.016c0.454,1.212,1.666,1.818,1.969,3.029c0.303,1.212,0.151,1.514,1.363,1.969
				c1.212,0.454,4.846,0.606,5.604,0.152c0.757-0.454,0.606-1.515,0-2.272C354.682,377.446,354.53,377.446,354.076,376.689z"/>
			
				<path id="XMLID_370_" style="fill:#263238;stroke:#263238;stroke-linecap:round;stroke-linejoin:round;stroke-miterlimit:10;" d="
				M355.287,380.475c0.106-0.063,0.19-0.141,0.261-0.225c-0.555-0.082-1.188-0.238-1.776-0.532
				c-1.514-0.757-1.363-2.726-4.241-4.241c-1.536-0.809-2.468-0.365-3.003,0.224c0.534,0.974,1.522,1.575,1.791,2.654
				c0.303,1.212,0.151,1.514,1.363,1.969C350.895,380.778,354.53,380.93,355.287,380.475z"/>
		</g>
	</g>
</g>
<g id="Character_4">
	<g>
		<ellipse style="opacity:0.4;" cx="299.917" cy="389.882" rx="21.854" ry="7.467"/>
		<g id="XMLID_407_">
			
				<path id="XMLID_382_" style="fill:#263238;stroke:#263238;stroke-linecap:round;stroke-linejoin:round;stroke-miterlimit:10;" d="
				M281.768,312.773c0,0-1.098,11.179-0.699,17.068c0.399,5.889,2.795,14.972,2.994,16.369c0.2,1.397-0.299,2.196-0.798,3.893
				c-0.499,1.697-1.896,6.787-1.098,11.478s3.593,14.473,3.593,15.072c0,0.599-0.699,1.896-0.499,2.595
				c0.2,0.699,1.098,0.998,1.098,1.597c0,0.599-0.799,1.897,0,2.595c0.798,0.699,1.597,0.599,1.597,1.297s-0.998,1.597-1.497,4.691
				c-0.499,3.094,3.693,4.591,5.29,4.392c1.597-0.2,2.695-3.094,2.695-4.991c0-1.896-1.198-5.09-1.198-5.09l0.898-3.992
				c0,0-0.898-0.898-0.898-1.298c0-0.399,0.599-0.699,0.1-2.994c-0.499-2.296-0.499-2.395-0.499-3.294
				c0-0.898,0.499-11.978,1.497-16.868c0.998-4.891,0.699-11.379,0.699-12.377c0-0.998,0-4.591,0-4.591s2.296,8.983,2.495,12.177
				c0.2,3.194,0.499,2.695,0.1,6.089c-0.399,3.394-0.699,4.891-0.1,9.682c0.599,4.791,0.699,7.586,0.399,8.584
				c-0.299,0.998-1.397,1.198-1.198,2.096c0.2,0.898,0.599,1.198,0.599,1.497c0,0.3-1.098,0.898-0.799,1.597
				c0.299,0.699-0.898,0.898-0.998,2.096c-0.1,1.198,1.298,2.396,2.096,2.994c0.798,0.599,1.896,2.096,2.595,4.392
				c0.699,2.296,3.992,3.693,5.889,3.194c1.897-0.499,1.497-0.799,0.599-3.094c-0.898-2.296-2.595-6.488-2.795-7.087
				c-0.2-0.599-0.2-0.599-0.2-0.599s0.898-0.499,0.898-1.497c0-0.998-0.499-2.395-0.499-2.795c0-0.399,1.198-1.198,1.198-1.996
				s0.2-3.493,0.299-3.992c0.1-0.499,2.994-7.087,2.994-11.978s-1.198-8.584-1.198-10.979s1.098-11.479,0.798-19.064
				c-0.299-7.586-0.798-10.58-0.798-10.58s0-3.294,0-4.292s0-3.893,0-3.893s-15.77,0.998-19.863,0
				c-4.092-0.998-4.492-0.599-4.891-0.2C282.267,311.076,281.768,312.773,281.768,312.773z"/>
			<path id="XMLID_375_" style="fill:none;stroke:#263238;stroke-linecap:round;stroke-linejoin:round;stroke-miterlimit:10;" d="
				M281.768,312.274c0,0-0.399,1.298,0.1,1.996c0.499,0.699,4.791,2.595,10.88,2.595c6.089,0,12.876-1.198,13.674-1.397
				c0.799-0.2,0.998-0.1,0.998-1.098c0-0.998-0.1-2.296-0.1-2.296s3.493,1.297-6.288,1.297c-9.782,0-15.97-0.499-16.968-0.699
				C283.066,312.474,281.768,312.274,281.768,312.274z"/>
			<g id="XMLID_384_">
				
					<path id="XMLID_381_" style="fill:#FFFFFF;stroke:#263238;stroke-linecap:round;stroke-linejoin:round;stroke-miterlimit:10;" d="
					M276.678,322.155c0,0,0.599,3.394,0.599,3.793c0,0.399-1.098,2.595-1.098,2.994c0,0.399-0.499,0.599-0.499,0.599
					s0.998,0.599,0.798,0.998c-0.2,0.399-1.098-0.1-2.495-0.499c-1.397-0.399-1.896-0.798-1.896-1.797s0.998-6.987,0.998-6.987
					L276.678,322.155z"/>
				<path id="XMLID_383_" style="fill:none;stroke:#263238;stroke-linecap:round;stroke-linejoin:round;stroke-miterlimit:10;" d="
					M275.68,329.542c0,0-1.098-1.098-1.098-1.697c0-0.599,0-2.595,0-2.595"/>
			</g>
			
				<path id="XMLID_386_" style="fill:#FFFFFF;stroke:#263238;stroke-linecap:round;stroke-linejoin:round;stroke-miterlimit:10;" d="
				M312.211,322.255c0,0-0.998,2.396-1.198,3.693c-0.2,1.298,0.2,3.194,0.499,3.294c0.299,0.1,0.599,0.2,0.699-0.599
				c0.1-0.798,0.599-2.395,0.599-2.395s0,2.296-0.299,3.294c-0.299,0.998-1.198,2.495-0.299,2.495c0.898,0,2.895-1.797,3.793-2.695
				c0.898-0.898,1.098-3.194,1.098-3.194v-2.994c0,0-0.599-1.597-1.996-2.096C313.708,320.558,312.211,322.255,312.211,322.255z"/>
			<g>
				<g>
					
						<path id="XMLID_373_" style="fill:#FFFFFF;stroke:#263238;stroke-linecap:round;stroke-linejoin:round;stroke-miterlimit:10;" d="
						M292.648,259.473c0,0,0.299,3.793,0,5.789c-0.299,1.996-0.2,2.296-2.495,3.693c-2.296,1.397-9.183,4.591-10.879,5.689
						c-1.697,1.098-1.597,1.797-1.897,4.591c-0.299,2.795-1.397,10.78-1.996,14.772c-0.599,3.992-1.797,15.171-2.495,20.262
						c-0.699,5.09-0.2,8.085-0.2,8.085l4.192,0.599c0,0,1.996-4.991,2.994-10.38c0.998-5.39,2.595-13.974,2.595-13.974
						s-0.1,10.181-0.699,11.977c-0.599,1.797,0,2.795,2.396,3.593c2.395,0.799,11.079,1.597,16.669,0.499
						c5.589-1.098,6.687-0.898,7.087-2.296c0.399-1.397,0.399-4.292,0.399-4.292v-6.987l0.798-8.484c0,0,0.998,9.083,0.998,13.774
						c0,4.691,1.996,13.574,1.996,14.972c0,1.397,0,1.397,0,1.397s1.797-0.699,3.094-0.2c1.298,0.499,1.896,0.998,1.896,0.998
						s0.399-2.296,0.699-8.484c0.299-6.188-0.2-11.279-1.198-17.667c-0.998-6.388-1.098-12.676-1.098-15.671
						c0-2.994,0.399-6.188-0.898-7.785c-1.298-1.597-7.286-3.294-9.682-4.192c-1.363-0.511-2.532-1.054-3.286-1.428
						c-0.548-0.271-0.869-0.853-0.81-1.461l0.503-5.196c0,0-4.492-0.599-6.388-1.198
						C293.047,259.872,292.648,259.473,292.648,259.473z"/>
					<path id="XMLID_371_" style="fill:none;stroke:#263238;stroke-linecap:round;stroke-linejoin:round;stroke-miterlimit:10;" d="
						M282.467,298.6c0,0,0.599-5.789-0.2-9.083c-0.798-3.294-1.497-9.482-1.497-9.482"/>
					<path id="XMLID_374_" style="fill:none;stroke:#263238;stroke-linecap:round;stroke-linejoin:round;stroke-miterlimit:10;" d="
						M282.567,294.308c0,0-1.797-3.693-2.495-5.989c-0.699-2.296-0.699-3.893-0.699-3.893"/>
					
						<line id="XMLID_378_" style="fill:none;stroke:#263238;stroke-linecap:round;stroke-linejoin:round;stroke-miterlimit:10;" x1="309.117" y1="292.611" x2="308.418" y2="283.129"/>
					<path id="XMLID_380_" style="fill:none;stroke:#263238;stroke-linecap:round;stroke-linejoin:round;stroke-miterlimit:10;" d="
						M310.215,303.99c0,0,0.599-1.797,2.196-5.989"/>
				</g>
				
					<path id="XMLID_379_" style="fill:#FFFFFF;stroke:#263238;stroke-linecap:round;stroke-linejoin:round;stroke-miterlimit:10;" d="
					M303.745,269.285c-0.852-0.356-1.581-0.699-2.107-0.959c-0.548-0.271-0.869-0.853-0.81-1.461l0.503-5.196
					c0,0-4.492-0.599-6.388-1.198c-1.896-0.599-2.296-0.998-2.296-0.998s0.299,3.793,0,5.789c-0.299,1.996-0.2,2.296-2.495,3.693
					c-0.371,0.226-0.865,0.5-1.435,0.804c1.419,1.659,4.461,4.574,8.123,4.287C300.111,273.789,302.473,271.144,303.745,269.285z"/>
			</g>
			<g>
				
					<path id="XMLID_368_" style="fill:#263238;stroke:#263238;stroke-linecap:round;stroke-linejoin:round;stroke-miterlimit:10;" d="
					M294.544,242.305c0,0-2.296,0.1-3.893,2.396c-1.597,2.296-0.599,7.686-0.599,7.686s-1.198,0-1.497,1.497
					c-0.299,1.497,1.098,3.494,1.597,3.593c0.499,0.1,0.499,0.1,0.499,0.1s2.296,3.992,4.591,5.59
					c2.296,1.597,4.691,1.098,6.089-1.497c1.397-2.595,2.196-4.791,2.196-4.791s1.098,0,1.198-1.797
					c0.1-1.797-0.599-2.994-0.599-2.994s0.1-3.992-0.499-6.588c-0.599-2.595-3.893-3.493-5.589-3.593
					C296.341,241.806,294.544,242.305,294.544,242.305z"/>
				<g>
					
						<path id="XMLID_367_" style="fill:#FFFFFF;stroke:#263238;stroke-linecap:round;stroke-linejoin:round;stroke-miterlimit:10;" d="
						M291.55,246.597c0,0,1.298,1.996,0.799,3.194c-0.499,1.198-1.497,1.797-1.497,2.895s0.299,2.296,0.898,3.593
						c0.599,1.298,1.098,2.296,1.996,1.897c0.898-0.399,2.395-2.096,2.395-2.096s0.799,0.499,1.697,0.299
						c0.898-0.2,0.898-0.2,0.898-0.2l2.695,2.495c0,0,1.497-2.196,1.697-3.493c0.2-1.298,0.699-1.797,0.2-2.795
						c-0.499-0.998-1.098-1.896-0.898-2.895c0.2-0.998,0.399-2.695,0.1-3.294c-0.299-0.599-1.198-1.896-1.996-2.096
						c-0.799-0.2-2.495,0.898-3.793,0.898c-1.298,0-3.693-0.898-3.992-0.898C292.448,244.102,290.253,245.1,291.55,246.597z"/>
					<path id="XMLID_372_" style="fill:#FFFFFF;" d="M298.836,258.375c0,0-3.593-0.2-3.394,0.299c0.2,0.499,0.898,0.699,2.196,0.699
						C298.936,259.373,300.334,258.675,298.836,258.375z"/>
				</g>
				
					<path id="XMLID_376_" style="fill:#FFFFFF;stroke:#263238;stroke-linecap:round;stroke-linejoin:round;stroke-miterlimit:10;" d="
					M290.053,252.386c0,0-1.198,0-1.497,1.497c-0.299,1.497,1.098,3.494,1.597,3.593c0.499,0.1,0.499,0.1,0.499,0.1L290.053,252.386
					z"/>
				
					<path id="XMLID_377_" style="fill:#FFFFFF;stroke:#263238;stroke-linecap:round;stroke-linejoin:round;stroke-miterlimit:10;" d="
					M304.725,255.081c0.1-1.797-0.599-2.994-0.599-2.994l-0.599,4.791C303.528,256.878,304.626,256.878,304.725,255.081z"/>
			</g>
		</g>
	</g>
</g>
<g id="Character_3">
	<g>
		<path style="opacity:0.4;" d="M271.235,357.238c0,3.8-9.017,6.881-20.139,6.881c-11.122,0-20.139-3.081-20.139-6.881
			s9.017-6.881,20.139-6.881C262.218,350.357,271.235,353.438,271.235,357.238z"/>
		<g id="XMLID_403_">
			<g id="XMLID_408_">
				
					<path id="XMLID_391_" style="fill:#FFFFFF;stroke:#263238;stroke-width:0.9215;stroke-linecap:round;stroke-linejoin:round;stroke-miterlimit:10;" d="
					M260.142,291.676c0,0-0.275,2.884-0.549,3.708c-0.275,0.824,0.412,1.786,0.412,2.61c0,0.824-0.275,1.511,0.275,1.648
					c0.549,0.137,1.236-1.099,1.236-1.099s-1.648,2.61-1.236,3.022c0.412,0.412,1.785,0,2.747-1.236
					c0.961-1.236,1.374-1.099,1.511-3.159c0.137-2.06,0-6.318,0-6.318L260.142,291.676z"/>
				
					<path id="XMLID_390_" style="fill:#C6FF00;stroke:#263238;stroke-width:0.9215;stroke-linecap:round;stroke-linejoin:round;stroke-miterlimit:10;" d="
					M260.142,288.929v2.747c0,0,1.511,0.687,2.61,0.687c1.099,0,2.06,0,2.06,0v-4.67L260.142,288.929z"/>
				
					<path id="XMLID_389_" style="fill:#C6FF00;stroke:#263238;stroke-width:0.9215;stroke-linecap:round;stroke-linejoin:round;stroke-miterlimit:10;" d="
					M254.648,244.29c0,0,4.883,2.753,5.669,4.33c0.786,1.576,2.297,10.916,3.258,18.058c0.961,7.142,2.335,15.795,2.06,18.405
					c-0.275,2.61,0,4.533-2.61,4.67c-2.61,0.137-3.434,0.412-3.983-1.511c-0.549-1.923-1.236-3.296-2.198-9.614
					c-0.961-6.318-2.747-9.477-2.472-13.46c0.275-3.983,2.335-11.812,2.335-15.383C256.708,246.213,254.648,244.29,254.648,244.29z"
					/>
				
					<path id="XMLID_404_" style="fill:none;stroke:#263238;stroke-width:0.9215;stroke-linecap:round;stroke-linejoin:round;stroke-miterlimit:10;" d="
					M256.571,267.64c0,0,2.335-0.137,4.807-1.374"/>
				
					<path id="XMLID_405_" style="fill:none;stroke:#263238;stroke-width:0.9215;stroke-linecap:round;stroke-linejoin:round;stroke-miterlimit:10;" d="
					M256.433,268.464c0,0,1.099,2.335,4.945,2.472"/>
			</g>
			<g id="XMLID_402_">
				
					<path id="XMLID_400_" style="fill:#FFFFFF;stroke:#263238;stroke-width:0.9215;stroke-linecap:round;stroke-linejoin:round;stroke-miterlimit:10;" d="
					M240.089,352.384c0,0-0.687,0.412-2.472,0.549c-1.786,0.137-2.61,0.412-1.374,1.923c1.236,1.511,3.983,4.807,5.906,4.807
					c1.923,0,2.335-0.412,2.335-2.198c0-1.786,0.275-4.533,0.275-4.533L240.089,352.384z"/>
				
					<path id="XMLID_406_" style="fill:#263238;stroke:#263238;stroke-width:0.9215;stroke-linecap:round;stroke-linejoin:round;stroke-miterlimit:10;" d="
					M243.111,355.405c-1.648,0.549-2.884-0.412-3.571-0.961c-0.687-0.549-0.137-1.648-0.137-1.648l-0.254-0.089
					c-0.379,0.09-0.882,0.176-1.532,0.226c-1.786,0.137-2.61,0.412-1.374,1.923c1.236,1.511,3.983,4.807,5.906,4.807
					c1.923,0,2.335-0.412,2.335-2.198c0-0.827,0.059-1.859,0.122-2.73C244.221,354.959,243.723,355.201,243.111,355.405z"/>
			</g>
			<g>
				
					<path id="XMLID_392_" style="fill:#FFFFFF;stroke:#263238;stroke-width:0.9215;stroke-linecap:round;stroke-linejoin:round;stroke-miterlimit:10;" d="
					M258.082,279.589c0,0,0.824,3.983,0.824,11.125c0,7.142-4.12,22.113-4.807,24.723c-0.687,2.61,1.099,5.082,1.511,8.79
					c0.412,3.708-0.687,11.263-1.786,15.246c-1.099,3.983-0.687,7.417-0.687,7.417l-3.296,0.412c0,0,0.137-1.786-1.236-6.456
					c-1.373-4.67-2.472-10.713-2.472-10.713s-1.099,9.202-1.236,14.147c-0.137,4.945-0.137,8.241-0.137,8.653
					c0,0.412-0.275,0.961-1.923,0.961c-1.648,0-3.434-1.099-3.434-1.099s-0.824-8.378-1.511-14.422
					c-0.687-6.043-2.198-11.675-2.06-15.383c0.137-3.708,1.786-5.494,0.961-9.477c-0.824-3.983-3.571-12.911-3.983-17.443
					c-0.412-4.533-0.824-7.966-0.275-11.125c0.549-3.159,2.747-8.79,2.747-8.79s4.807,3.846,11.263,3.983
					C253,280.276,258.082,279.589,258.082,279.589z"/>
				
					<path id="XMLID_398_" style="fill:none;stroke:#263238;stroke-width:0.9215;stroke-linecap:round;stroke-linejoin:round;stroke-miterlimit:10;" d="
					M240.501,290.577c0,0,3.571,1.099,7.554,1.374c3.983,0.275,5.631-1.648,5.631-1.648"/>
				
					<path id="XMLID_399_" style="fill:none;stroke:#263238;stroke-width:0.9215;stroke-linecap:round;stroke-linejoin:round;stroke-miterlimit:10;" d="
					M246.544,291.95c0,0-0.549,13.323-0.275,18.954c0.275,5.631,0.412,12.636,0.137,15.932"/>
			</g>
			<g>
				
					<path id="XMLID_388_" style="fill:#C6FF00;stroke:#263238;stroke-width:0.9215;stroke-linecap:round;stroke-linejoin:round;stroke-miterlimit:10;" d="
					M240.089,241.818c0,0-7.417,2.06-8.241,3.571c-0.824,1.511-2.198,7.691-3.983,11.675c-1.786,3.983-6.73,8.79-5.631,10.438
					c1.099,1.648,4.533,4.533,5.357,5.357c0.824,0.824,6.455,1.099,6.455,1.099s-0.961,5.357-0.137,7.554
					c0.824,2.198,6.593,6.043,13.323,4.67c6.73-1.374,12.371-1.101,12.371-1.101l-0.902-7.818c0,0-2.129-6.602-2.129-9.624
					c0-3.022,2.61-9.615,2.61-9.615s2.61-7.142-3.571-12.911C249.429,239.346,240.089,241.818,240.089,241.818z"/>
				
					<path id="XMLID_394_" style="fill:none;stroke:#263238;stroke-width:0.9215;stroke-linecap:round;stroke-linejoin:round;stroke-miterlimit:10;" d="
					M230.475,265.442c0,0-2.884,1.374-5.357,0.549"/>
				
					<path id="XMLID_395_" style="fill:none;stroke:#263238;stroke-width:0.9215;stroke-linecap:round;stroke-linejoin:round;stroke-miterlimit:10;" d="
					M256.433,267.09c0,0-5.494,5.219-10.576,6.455"/>
				
					<path id="XMLID_396_" style="fill:none;stroke:#263238;stroke-width:0.9215;stroke-linecap:round;stroke-linejoin:round;stroke-miterlimit:10;" d="
					M254.373,269.563c0,0-1.786,4.12-5.082,6.043"/>
			</g>
			
				<path id="XMLID_385_" style="fill:#263238;stroke:#263238;stroke-width:0.9215;stroke-linecap:round;stroke-linejoin:round;stroke-miterlimit:10;" d="
				M248.395,221.576c0,0-5.075-0.383-7.24,4.516c-2.166,4.899-1.296,9.177-1.638,12.329c-0.342,3.152-2.411,3.52-1.786,6.419
				c0.625,2.898,2.524,4.038,2.492,5.548c-0.032,1.511-3.366,3.225-2.639,7.774c0.727,4.549,7.794,8.135,13.704,7.987
				c5.911-0.148,11.909-4.416,12.003-8.81c0.094-4.394-3.987-6.267-2.973-8.719c1.014-2.451,2.601-5.989,1.135-8.081
				c-1.466-2.092-4.078-2.011-5.103-5.467c-1.025-3.456-0.779-8.534-2.648-11.047C251.831,221.512,248.395,221.576,248.395,221.576z
				"/>
			
				<path id="XMLID_387_" style="fill:#263238;stroke:#263238;stroke-width:0.9215;stroke-linecap:round;stroke-linejoin:round;stroke-miterlimit:10;" d="
				M233.908,244.153c0,0,0,2.472,0,9.34c0,6.867,0,10.438,0,10.438l0.824-0.412c0,0,0.275-9.889,0.275-13.186s0-6.867,0-6.867
				L233.908,244.153z"/>
			
				<path id="XMLID_393_" style="fill:#263238;stroke:#263238;stroke-width:0.9215;stroke-linecap:round;stroke-linejoin:round;stroke-miterlimit:10;" d="
				M237.891,269.837c0,0-1.099-7.142-2.198-7.829c-1.099-0.687-2.472-1.099-3.983,1.236c-1.511,2.335-3.159,3.983-4.258,7.005
				c-1.099,3.022-3.434,14.422-3.571,17.031c-0.137,2.61,5.494,3.296,8.104,2.884c2.61-0.412,7.142-6.181,7.142-9.614
				C239.127,277.117,237.891,269.837,237.891,269.837z"/>
			
				<path id="XMLID_397_" style="fill:#8A8A8A;stroke:#263238;stroke-width:0.9215;stroke-linecap:round;stroke-linejoin:round;stroke-miterlimit:10;" d="
				M239.027,278.46c-0.555-0.62-1.359-0.931-2.372-0.931c-2.335,0-5.219,2.884-9.065,7.966c-1.706,2.254-2.681,2.94-3.275,3.006
				c1.352,1.599,5.528,2.002,7.671,1.664c2.61-0.412,7.142-6.181,7.142-9.614C239.127,279.951,239.089,279.234,239.027,278.46z"/>
			
				<path id="XMLID_401_" style="fill:#263238;stroke:#263238;stroke-width:0.9215;stroke-linecap:round;stroke-linejoin:round;stroke-miterlimit:10;" d="
				M253.824,347.027c0,0-0.824-3.571-2.61-3.022c-1.785,0.549-0.961,0.824-1.373,3.296c-0.412,2.472,0.275,1.511-0.549,4.12
				c-0.824,2.61-2.06,3.571-0.687,5.219c1.374,1.648,3.709,2.335,4.533,1.374c0.824-0.961,1.373-3.022,1.373-5.357
				C254.511,350.324,253.824,347.027,253.824,347.027z"/>
		</g>
	</g>
</g>
<g id="Character_2">
	<g>
		<ellipse style="opacity:0.4;" cx="198.66" cy="372.068" rx="21.854" ry="7.467"/>
		<g id="XMLID_348_">
			
				<path id="XMLID_340_" style="fill:#FFFFFF;stroke:#263238;stroke-linecap:round;stroke-linejoin:round;stroke-miterlimit:10;" d="
				M166.735,299.053c0,0,0.21,5.773,0.21,6.717c0,0.945,5.038,2.939,5.773,3.254c0.735,0.315,1.679-0.105,1.784-0.735
				c0.105-0.63-0.315-1.155-0.735-1.994c-0.42-0.84-0.42-3.044-0.42-3.044s0.21,2.624,0.84,2.204c0.63-0.42,0.42-0.21,0.42-2.729
				c0-2.519-1.784-4.513-1.994-5.038c-0.21-0.525-0.21-0.525-0.21-0.525S167.47,297.163,166.735,299.053z"/>
			
				<path id="XMLID_345_" style="fill:#FFFFFF;stroke:#263238;stroke-linecap:round;stroke-linejoin:round;stroke-miterlimit:10;" d="
				M211.761,292.86c0,0-1.574,0.84-2.099,1.469c-0.525,0.63-0.42,1.574-0.84,3.254c-0.42,1.679,0.315,2.099,0.315,2.099
				s0.21,1.994,0.21,2.729c0,0.735,0.63,1.05,0.945,0.735c0.315-0.315,0.525-0.525,1.26-1.05c0.735-0.525,2.414-0.63,3.358-2.939
				c0.945-2.309,1.05-5.773,1.05-5.773L211.761,292.86z"/>
			
				<path id="XMLID_344_" style="fill:#FFFFFF;stroke:#263238;stroke-linecap:round;stroke-linejoin:round;stroke-miterlimit:10;" d="
				M211.971,290.131l-0.21,2.729c0,0,0.21,0.42,1.049,0.84c0.84,0.42,3.149-0.315,3.149-0.315l0.84-2.519
				C216.799,290.866,214.07,291.181,211.971,290.131z"/>
			<g>
				
					<path id="XMLID_347_" style="fill:#263238;stroke:#263238;stroke-linecap:round;stroke-linejoin:round;stroke-miterlimit:10;" d="
					M204.414,283.519c0,0,0.735,1.364,1.049,7.662c0.315,6.297,0.42,18.577-1.574,27.184c-1.994,8.606-1.994,10.496-1.994,10.496
					s1.784,9.551,0.735,17.213c-1.049,7.662-2.519,14.484-2.519,15.638c0,1.155,0.63,3.673,0.63,3.673s2.204,0.735,2.519,2.099
					c0.315,1.365-0.63,2.624-2.414,3.673c-1.784,1.049-4.828,1.469-6.612,1.155c-1.784-0.315-1.574-1.784-1.574-2.729
					c0-0.945,0.42-3.673,0.42-4.933c0,0-1.05,3.044-2.834,4.828c-1.784,1.784-3.674,3.359-6.402,2.834
					c-2.729-0.525-2.729-0.63-1.469-2.624c1.259-1.994,3.568-4.933,3.568-4.933s-1.049-1.994-0.945-2.834
					c0.105-0.84,0.525-1.784,0.525-1.784s-4.513-11.23-5.668-17.528c-1.154-6.297-0.525-7.452-0.42-9.866
					c0.105-2.414-2.204-7.557-2.204-14.799c0-7.242-1.469-27.498-1.469-30.122s0.21-3.254,0.21-3.254s7.347,2.624,14.589,1.365
					C197.802,284.674,204.414,283.519,204.414,283.519z"/>
				
					<path id="XMLID_343_" style="fill:none;stroke:#FFFFFF;stroke-width:0.5;stroke-linecap:round;stroke-linejoin:round;stroke-miterlimit:10;" d="
					M195.178,294.959c0,0-3.568,5.038-3.673,10.496c-0.105,5.458-2.729,22.985-2.519,25.609s2.099,20.991,2.624,24.979
					c0.525,3.988,0.42,4.198,0.945,5.668"/>
				
					<path id="XMLID_349_" style="fill:none;stroke:#FFFFFF;stroke-width:0.5;stroke-linecap:round;stroke-linejoin:round;stroke-miterlimit:10;" d="
					M196.018,291.916c0,0,4.198-2.834,7.032-0.84"/>
			</g>
			
				<path id="XMLID_334_" style="fill:#FFFFFF;stroke:#263238;stroke-linecap:round;stroke-linejoin:round;stroke-miterlimit:10;" d="
				M184.053,222.12c0,0-1.784-0.735-1.784,0.525c0,1.259,0.315,3.358,1.049,3.988c0.735,0.63,1.784,0.21,1.784,0.21L184.053,222.12z
				"/>
			
				<path id="XMLID_335_" style="fill:#FFFFFF;stroke:#263238;stroke-linecap:round;stroke-linejoin:round;stroke-miterlimit:10;" d="
				M197.382,221.281c0,0,2.204-0.945,2.099,0.84c-0.105,1.784-0.21,4.093-0.945,4.513c-0.735,0.42-0.735,0.42-0.735,0.42
				L197.382,221.281z"/>
			<g>
				
					<path id="XMLID_338_" style="fill:#FFFFFF;stroke:#263238;stroke-linecap:round;stroke-linejoin:round;stroke-miterlimit:10;" d="
					M186.362,236.814c0,0-9.761,4.093-12.07,4.933c-2.309,0.84-5.772,1.259-5.982,2.834c-0.21,1.574-1.889,18.052-2.204,19.732
					c-0.315,1.679-1.784,13.015-1.889,19.417c-0.105,6.402-1.154,9.656-0.525,10.81c0.63,1.155,3.254,1.679,3.778,1.679
					s3.883-0.945,4.303-1.784c0.42-0.84,1.155-2.834,1.155-6.087c0-3.254-0.105-6.717,0.105-8.291
					c0.21-1.574,0.735-11.23,1.154-14.589c0.42-3.358,1.049-6.507,1.049-6.507s0.735,18.157,0.525,21.831
					c-0.21,3.673-0.42,4.408,0.21,5.458c0.63,1.05,1.889,1.155,3.464,1.469c1.574,0.315,12.28,1.259,16.793,0.105
					c4.513-1.154,7.557-1.574,8.501-3.149c0.945-1.574,1.364-9.446,1.364-10.496c0-1.049,0-3.044,0-3.044s4.093,11.125,4.513,13.749
					c0.42,2.624-0.63,4.723,0.84,5.878c1.469,1.154,4.933,1.994,6.087-0.105c1.155-2.099,1.889-4.408,0.84-7.662
					c-1.05-3.254-3.359-10.495-4.618-16.688c-1.259-6.192-2.309-12.805-2.309-14.904s0.525-5.353-0.42-6.507
					c-0.945-1.154-7.767-3.988-11.125-5.248c-3.359-1.259-4.513-1.574-4.513-1.574S193.499,235.974,186.362,236.814z"/>
				<path id="XMLID_341_" style="fill:none;stroke:#263238;stroke-linecap:round;stroke-linejoin:round;stroke-miterlimit:10;" d="
					M206.093,271.134l1.364-15.114c0,0-6.254,12.848-7.427,14.607"/>
			</g>
			
				<path id="XMLID_339_" style="fill:#263238;stroke:#263238;stroke-linecap:round;stroke-linejoin:round;stroke-miterlimit:10;" d="
				M189.091,241.012l1.784,3.568l-6.297,32.011l1.784,8.501l5.038-8.921c0,0,1.05-14.694,1.05-22.355
				c0-7.662-0.105-9.341-0.105-9.341l2.414-4.408l-2.519-2.834L189.091,241.012z"/>
			
				<path id="XMLID_337_" style="fill:#FFFFFF;stroke:#263238;stroke-linecap:round;stroke-linejoin:round;stroke-miterlimit:10;" d="
				M187.306,234.295l-2.099,3.254l2.309,7.767l3.988-6.297l4.933,6.087l1.679-6.297c0,0-0.84-3.988-1.155-4.303
				c-0.315-0.315-1.679-0.42-2.834-0.63C192.974,233.665,187.306,234.295,187.306,234.295z"/>
			
				<path id="XMLID_336_" style="fill:#FFFFFF;stroke:#263238;stroke-linecap:round;stroke-linejoin:round;stroke-miterlimit:10;" d="
				M185.942,228.103c0,0,1.05,6.192,1.26,7.347c0.21,1.155,4.303,4.828,5.248,4.303c0.945-0.525,3.883-4.198,3.883-4.198l0.21-7.872
				c0,0-2.519,4.828-5.458,3.778C188.146,230.412,185.942,228.103,185.942,228.103z"/>
			<g>
				
					<path id="XMLID_262_" style="fill:#FFFFFF;stroke:#263238;stroke-linecap:round;stroke-linejoin:round;stroke-miterlimit:10;" d="
					M183.633,217.817c0,0,0.315,7.347,1.574,10.181c1.259,2.834,5.353,6.612,6.822,6.612c1.469,0,3.254-1.154,3.988-2.414
					c0.735-1.259,1.784-4.618,1.994-5.878c0.21-1.26-0.21-8.606-0.315-10.706c-0.105-2.099-3.149-4.723-6.717-5.038
					c-3.568-0.315-6.717,2.414-7.242,3.883C183.213,215.928,183.633,217.817,183.633,217.817z"/>
				<path style="fill:#C6FF00;stroke:#263238;stroke-linecap:round;stroke-linejoin:round;stroke-miterlimit:10;" d="
					M197.697,215.613c-0.105-2.099-3.149-4.723-6.717-5.038c-3.568-0.315-6.717,2.414-7.242,3.883
					c-0.525,1.469-0.105,3.359-0.105,3.359s0.087,1.985,0.345,4.287l0.075,0.017c0,0,0.799,0.333,0.799-0.817
					c0-1.15,0-1.643,0-2.794c0-1.15,1.643-0.986,1.643-2.794c0-1.808-1.15-1.972,1.15-2.301c2.301-0.329,6.409-0.822,7.56,0.493
					c1.15,1.315-0.329,1.972,0.493,3.122c0.822,1.15,1.808,2.629,1.808,2.629v2.301c0,0,0.221,0.048,0.492-0.015
					C197.907,219.503,197.755,216.766,197.697,215.613z"/>
			</g>
			
				<path id="XMLID_342_" style="fill:#FFFFFF;stroke:#263238;stroke-linecap:round;stroke-linejoin:round;stroke-miterlimit:10;" d="
				M165.476,295.064l1.259,3.988c0,0,1.05-0.84,2.519-1.364c1.469-0.525,3.149-0.525,3.149-0.525l-0.84-4.303
				C171.563,292.86,167.889,291.811,165.476,295.064z"/>
			
				<line id="XMLID_346_" style="fill:none;stroke:#263238;stroke-linecap:round;stroke-linejoin:round;stroke-miterlimit:10;" x1="209.137" y1="299.682" x2="209.977" y2="296.953"/>
			
				<path id="XMLID_352_" style="fill:#878787;stroke:#263238;stroke-linecap:round;stroke-linejoin:round;stroke-miterlimit:10;" d="
				M200.741,365.384c0,0-0.263-1.054-0.449-2.111l-0.076,0.012c0,0-2.309-0.945-3.988-0.525c-1.679,0.42-1.574,2.624-1.574,2.624
				l-1.741,1.451c-0.117,1.094-0.253,2.21-0.253,2.747c0,0.945-0.21,2.414,1.574,2.729c1.784,0.315,4.828-0.105,6.612-1.155
				c1.784-1.05,2.729-2.309,2.414-3.673C202.945,366.119,200.741,365.384,200.741,365.384z"/>
			
				<path id="XMLID_353_" style="fill:#263238;stroke:#263238;stroke-linecap:round;stroke-linejoin:round;stroke-miterlimit:10;" d="
				M202.884,369.276L202.884,369.276c-0.001-0.001,0.422-1.585-3.909-1.057c-4.331,0.528-5.07,1.69-4.964,2.218
				s-0.211,0.739-1.056,1.268c-0.009,0.006-0.014,0.013-0.022,0.019c0.236,0.288,0.604,0.512,1.184,0.615
				c1.796,0.317,4.859-0.106,6.655-1.162C201.75,370.6,202.476,369.961,202.884,369.276z"/>
			
				<path id="XMLID_354_" style="fill:#878787;stroke:#263238;stroke-linecap:round;stroke-linejoin:round;stroke-miterlimit:10;" d="
				M193.079,364.65c0,0-1.574,1.679-4.618,1.155c-2.817-0.486-2.578-0.971-2.526-1.04c-0.078,0.1-2.324,2.964-3.561,4.924
				c-1.26,1.994-1.26,2.099,1.469,2.624c2.729,0.525,4.618-1.05,6.402-2.834C192.029,367.694,193.079,364.65,193.079,364.65z"/>
		</g>
	</g>
</g>
<g id="Character_1">
	<g>
		<ellipse style="opacity:0.4;" cx="137.674" cy="405.336" rx="21.854" ry="7.467"/>
		<g id="XMLID_350_">
			
				<path id="XMLID_263_" style="fill:#C6FF00;stroke:#263238;stroke-linecap:round;stroke-linejoin:round;stroke-miterlimit:10;" d="
				M118.452,394.715c0,0,2.297,5.847,2.193,6.578c-0.104,0.731-2.193,3.237-4.072,5.743c-1.88,2.506-0.418,3.55,1.044,3.759
				c1.462,0.209,4.281-0.522,5.012-1.462c0.731-0.94,0.626-0.626,1.566-0.626c0.94,0,1.775-0.835,1.775-2.297
				s-0.418-3.55,0.104-5.743c0.522-2.193,1.775-6.891,1.775-6.891S122.315,395.968,118.452,394.715z"/>
			
				<path id="XMLID_264_" style="fill:#C6FF00;stroke:#263238;stroke-linecap:round;stroke-linejoin:round;stroke-miterlimit:10;" d="
				M139.648,382.707c0,0,2.297,4.699,3.132,6.891c0.835,2.193,0.94,3.341,1.148,7.309c0.209,3.968,1.88,6.16,3.446,6.265
				c1.566,0.104,2.402-0.626,2.297-4.699s-2.193-6.369-2.193-8.458c0-2.088,0.313-9.084,0.313-9.084
				S143.825,384.273,139.648,382.707z"/>
			
				<path id="XMLID_261_" style="fill:#263238;stroke:#263238;stroke-linecap:round;stroke-linejoin:round;stroke-miterlimit:10;" d="
				M116.886,339.897c0,0,1.566,23.598,1.566,25.268c0,1.671-1.253,12.53-1.253,19.212c0,6.683,1.566,10.755,1.566,10.755
				s3.759,1.462,6.056,0.731c2.297-0.731,3.132-1.88,3.132-3.133s-1.253-15.245-1.148-19.526c0.104-4.281,1.357-11.799,2.402-15.975
				c1.044-4.177,2.506-13.574,2.506-13.887c0-0.313,0.626-0.731,0.626-0.731s1.566,6.682,1.566,13.47
				c0,6.787,0.209,9.815,1.775,13.574c1.566,3.759,3.759,11.694,3.863,12.53s2.819,4.281,5.012,3.759
				c2.193-0.522,3.028-1.566,3.341-5.534c0.313-3.968-0.522-8.875-1.566-11.799c-1.044-2.924-1.357-9.084-1.357-9.084
				s3.132-17.124,3.132-19.526c0-2.402-1.253-2.61-3.759-2.819c-2.506-0.209-23.285,0-25.164,0.104
				C117.303,337.391,116.886,339.897,116.886,339.897z"/>
			
				<path id="XMLID_256_" style="fill:#263238;stroke:#263238;stroke-linecap:round;stroke-linejoin:round;stroke-miterlimit:10;" d="
				M117.199,329.142l-2.819,11.695l11.277,4.803c0,0,13.156,0.522,18.586-1.88c5.43-2.401,8.04-3.132,8.04-3.132
				s-3.446-8.98-3.655-10.755c-0.209-1.775-0.209-1.775-0.209-1.775s-16.498-0.209-22.867-0.209
				C119.183,327.889,117.199,329.142,117.199,329.142z"/>
			
				<path id="XMLID_259_" style="fill:#FFFFFF;stroke:#263238;stroke-linecap:round;stroke-linejoin:round;stroke-miterlimit:10;" d="
				M116.468,327.785c0,0-0.209,1.566,0.522,2.088c0.731,0.522,5.534,2.402,13.887,2.297c8.353-0.104,16.289-1.148,17.75-2.297
				c1.462-1.149,0.313-3.341,0.313-3.341s-1.984,1.984-13.992,1.566c-12.008-0.418-15.767-0.731-16.706-0.94
				C117.303,326.949,116.364,327.367,116.468,327.785z"/>
			
				<path id="XMLID_248_" style="fill:#C6FF00;stroke:#263238;stroke-linecap:round;stroke-linejoin:round;stroke-miterlimit:10;" d="
				M128.893,280.589c0,0-10.755,5.638-12.425,6.578c-1.671,0.94-1.88,1.149-1.984,3.133c-0.104,1.984-3.55,15.036-5.012,18.795
				c-1.462,3.759,3.028,5.43,4.385,5.743c1.357,0.313,3.863-0.104,3.863-0.104s-0.626,5.325-1.879,8.04
				c-1.253,2.715-0.313,4.908,0.731,5.43c1.044,0.522,8.458,2.297,17.437,1.879c8.98-0.418,13.365-0.94,14.827-2.506
				c1.462-1.566,1.879-2.819,1.253-5.847c-0.627-3.028-1.253-7.1-1.253-8.458s-0.105,0.209,3.759-0.313
				c3.863-0.522,5.325-4.699,5.325-4.699s-2.924-15.453-3.237-18.064c-0.313-2.61-1.775-3.446-4.908-5.534
				c-3.133-2.088-6.891-4.385-8.144-4.385c-1.253,0-5.847,0-8.353,0S128.893,280.589,128.893,280.589z"/>
			
				<path id="XMLID_247_" style="fill:#263238;stroke:#263238;stroke-linecap:round;stroke-linejoin:round;stroke-miterlimit:10;" d="
				M144.242,268.164c0,0,3.341,5.325,2.401,8.771c-0.94,3.446-4.699,5.534-4.49,7.1c0.209,1.566,2.924,3.55,6.16,2.088
				c3.237-1.462,6.161-6.683,3.446-12.217s-7.727-6.474-7.727-6.474L144.242,268.164z"/>
			
				<path id="XMLID_249_" style="fill:#FFFFFF;stroke:#263238;stroke-linecap:round;stroke-linejoin:round;stroke-miterlimit:10;" d="
				M131.817,277.143c0,0-3.237,0.522-3.863,2.819c-0.627,2.297,1.462,5.638,3.028,7.727c1.566,2.088,1.357,3.341,2.402,2.715
				c1.044-0.627,5.743-6.891,7.727-8.353c1.984-1.462,3.341-1.775,2.61-4.281c-0.731-2.506-2.506-2.924-5.743-2.924
				C134.741,274.846,131.817,277.143,131.817,277.143z"/>
			
				<path id="XMLID_223_" style="fill:#FFFFFF;stroke:#263238;stroke-linecap:round;stroke-linejoin:round;stroke-miterlimit:10;" d="
				M128.162,258.244c0,0-2.506,3.863-2.61,4.803c-0.104,0.94,0.209,3.133-0.418,3.655c-0.627,0.522-2.297,2.401-1.984,2.819
				c0.313,0.418,1.253,1.253,1.253,1.253s0.418,7.518,2.088,7.727c1.671,0.209,4.281-1.044,4.281-1.044s1.775,10.024,2.193,9.919
				c0.418-0.104,6.787-11.903,6.787-11.903l0.731-1.984c0,0,2.297-3.968,1.88-8.771c-0.418-4.803-5.638-7.518-8.875-8.04
				C130.251,256.156,128.58,257.827,128.162,258.244z"/>
			
				<path id="XMLID_239_" style="fill:#263238;stroke:#263238;stroke-linecap:round;stroke-linejoin:round;stroke-miterlimit:10;" d="
				M126.596,256.469c0,0,0.94,3.55,4.072,6.682c3.133,3.133,4.072,4.281,4.072,4.281s-0.104,1.148,0,1.566s1.357-0.731,1.357-0.731
				s2.61,4.908,3.968,5.325c1.357,0.418,4.594-5.43,5.847-9.606c1.253-4.177-6.16-9.084-10.546-10.024
				C130.982,253.023,125.656,251.979,126.596,256.469z"/>
			
				<path id="XMLID_250_" style="fill:#FFFFFF;stroke:#263238;stroke-linecap:round;stroke-linejoin:round;stroke-miterlimit:10;" d="
				M135.158,269.939c0,0,0.104-3.341,2.402-3.341c2.297,0,1.044,3.968,0,4.908c-1.044,0.94-1.984,0.731-1.984,0.731"/>
			
				<path id="XMLID_252_" style="fill:#C6FF00;stroke:#263238;stroke-linecap:round;stroke-linejoin:round;stroke-miterlimit:10;" d="
				M114.38,308.886l6.16,9.711l-3.341,5.534c0,0-1.671-0.731-4.908-3.655c-3.237-2.924-4.49-5.325-4.072-7.935
				c0.418-2.61,1.775-5.012,1.775-5.012"/>
			
				<polygon id="XMLID_251_" style="fill:#FFFFFF;stroke:#263238;stroke-linecap:round;stroke-linejoin:round;stroke-miterlimit:10;" points="
				121.48,317.03 116.155,325.174 117.616,326.219 122.837,317.761 			"/>
			
				<path id="XMLID_254_" style="fill:#C6FF00;stroke:#263238;stroke-linecap:round;stroke-linejoin:round;stroke-miterlimit:10;" d="
				M151.447,308.155l-9.919,9.606l3.654,6.265c0,0,6.996-4.385,9.815-6.578c2.819-2.193,4.699-5.221,4.699-7.205
				c0-1.984-2.715-7.309-2.715-7.309"/>
			
				<polygon id="XMLID_409_" style="fill:#FFFFFF;stroke:#263238;stroke-linecap:round;stroke-linejoin:round;stroke-miterlimit:10;" points="
				140.953,316.687 146.278,324.831 144.817,325.875 139.596,317.418 			"/>
			
				<line id="XMLID_255_" style="fill:#FFFFFF;stroke:#263238;stroke-linecap:round;stroke-linejoin:round;stroke-miterlimit:10;" x1="148.21" y1="311.078" x2="145.809" y2="301.368"/>
			
				<path id="XMLID_253_" style="fill:#FFFFFF;stroke:#263238;stroke-linecap:round;stroke-linejoin:round;stroke-miterlimit:10;" d="
				M117.512,313.48c0,0,1.357-7.727,1.357-8.144c0-0.418-0.209-7.205-0.209-7.205"/>
		</g>
	</g>
</g>
<text x="400" y="470" fill="#636363" font-size="5"> storyset  Freepik</text>
</svg>
