<?xml version="1.0" encoding="utf-8"?>
<!-- Generator: Adobe Illustrator 27.5.0, SVG Export Plug-In . SVG Version: 6.00 Build 0)  -->
<svg version="1.1" xmlns="http://www.w3.org/2000/svg" xmlns:xlink="http://www.w3.org/1999/xlink" x="0px" y="0px"
	 viewBox="0 10 500 450" style="enable-background:new 0 0 500 500;" xml:space="preserve">
<g id="Background_Simple">
	<g>
		<path style="fill:#92E3A9;" d="M474.697,232.512c-4.958,41.983-24.127,90.797-62.412,113.222
			c-57.846,33.888-53.004,86.011-165.913,108.671c-17.604,3.535-34.31,5.022-50.063,4.728c-8.468-0.157-16.666-0.84-24.571-2.003
			c-71.76-10.483-120.052-60.363-137.769-120.575c-23.315-79.189,23.24-131.032,54.097-162.268
			c30.858-31.236,53.458-128.562,164.28-151.71c16.898-3.522,34.177-5.319,51.452-4.888c39.43,0.968,82.438,13.915,112.197,40.939
			c2.234,2.031,4.407,4.136,6.526,6.305C463.883,107.388,481.459,175.275,474.697,232.512z"/>
		<path style="opacity:0.7;fill:#FFFFFF;" d="M474.697,232.512c-4.958,41.983-24.127,90.797-62.412,113.222
			c-57.846,33.888-53.004,86.011-165.913,108.671c-17.604,3.535-34.31,5.022-50.063,4.728c-8.468-0.157-16.666-0.84-24.571-2.003
			c-71.76-10.483-120.052-60.363-137.769-120.575c-23.315-79.189,23.24-131.032,54.097-162.268
			c30.858-31.236,53.458-128.562,164.28-151.71c16.898-3.522,34.177-5.319,51.452-4.888c39.43,0.968,82.438,13.915,112.197,40.939
			c2.234,2.031,4.407,4.136,6.526,6.305C463.883,107.388,481.459,175.275,474.697,232.512z"/>
	</g>
</g>
<g id="Clouds">
	<path style="opacity:0.3;fill:none;stroke:#000000;stroke-miterlimit:10;" d="M151.814,186.214
		c-0.398-1.589-1.444-4.059-4.202-6.064c-4.447-3.234-11.32-1.213-11.32-1.213c0.404-10.511-6.873-24.256-21.831-24.256
		s-18.597,12.128-18.597,12.128s-5.66-6.873-14.958-3.234c-9.298,3.638-9.703,15.767-9.703,15.767s-6.064-6.468-12.532-4.447
		c-5.357,1.674-7.108,8.887-7.552,11.32H151.814z"/>
	<path style="opacity:0.3;fill:none;stroke:#000000;stroke-miterlimit:10;" d="M153.89,109.239
		c-0.263-1.052-0.956-2.686-2.781-4.014c-2.943-2.141-7.492-0.803-7.492-0.803c0.268-6.957-4.549-16.055-14.449-16.055
		c-9.9,0-12.309,8.027-12.309,8.027s-3.746-4.549-9.9-2.141c-6.154,2.408-6.422,10.436-6.422,10.436s-4.014-4.281-8.295-2.943
		c-3.545,1.108-4.704,5.882-4.998,7.492H153.89z"/>
	<path style="opacity:0.3;fill:none;stroke:#000000;stroke-miterlimit:10;" d="M476.652,315.054
		c-0.652-2.604-2.367-6.653-6.887-9.94c-7.289-5.301-18.554-1.988-18.554-1.988c0.663-17.229-11.265-39.759-35.783-39.759
		c-24.518,0-30.482,19.879-30.482,19.879s-9.277-11.265-24.518-5.301c-15.241,5.964-15.904,25.843-15.904,25.843
		s-9.94-10.602-20.542-7.289c-8.78,2.744-11.65,14.568-12.378,18.554H476.652z"/>
	<path style="opacity:0.3;fill:none;stroke:#000000;stroke-miterlimit:10;" d="M388.61,219.55c-0.263-1.051-0.956-2.686-2.781-4.014
		c-2.943-2.141-7.492-0.803-7.492-0.803c0.267-6.957-4.549-16.055-14.449-16.055c-9.9,0-12.309,8.027-12.309,8.027
		s-3.746-4.549-9.901-2.141c-6.154,2.408-6.422,10.436-6.422,10.436s-4.014-4.281-8.295-2.943c-3.545,1.108-4.704,5.882-4.998,7.492
		H388.61z"/>
	<path style="opacity:0.3;fill:none;stroke:#000000;stroke-miterlimit:10;" d="M326.586,72.872
		c-0.428-1.707-1.552-4.361-4.514-6.515c-4.778-3.475-12.162-1.303-12.162-1.303c0.434-11.293-7.384-26.061-23.455-26.061
		c-16.071,0-19.98,13.03-19.98,13.03s-6.081-7.384-16.071-3.475c-9.99,3.909-10.424,16.94-10.424,16.94s-6.515-6.95-13.465-4.778
		c-5.755,1.798-7.636,9.549-8.114,12.162H326.586z"/>
</g>
<g id="Character_3">
	<g>
		<g>
			<path style="fill:#FFFFFF;stroke:#263238;stroke-linecap:round;stroke-linejoin:round;stroke-miterlimit:10;" d="
				M424.548,310.204c0,0,1.243-4.97,2.331-7.089c1.088-2.119,6.009-2.112,8.908,0.92c2.898,3.032,4.658,8.587,4.658,8.587
				s3.882,3.362,4.709,8.183c0.827,4.822,1.075,7.724-0.338,7.546c-1.413-0.178-5.544-6.443-8.973-8.517
				c-3.43-2.074-4.868-2.051-4.868-2.051L424.548,310.204z"/>
			<path style="fill:#FFFFFF;stroke:#263238;stroke-linecap:round;stroke-linejoin:round;stroke-miterlimit:10;" d="
				M430.254,301.636c1.821,0.016,3.97,0.765,5.533,2.4c2.898,3.032,4.658,8.587,4.658,8.587s3.882,3.362,4.709,8.183
				c0.827,4.822,1.075,7.724-0.338,7.546c-0.06-0.008-0.131-0.041-0.2-0.069c-0.065-1.533-0.209-3.51-0.524-5.56
				c-0.676-4.392-5.189-7.629-8.31-13.766C433.784,305.032,431.584,302.765,430.254,301.636z"/>
		</g>
		<path style="fill:#263238;stroke:#263238;stroke-linecap:round;stroke-linejoin:round;stroke-miterlimit:10;" d="M367.915,261.458
			c0,0-0.396,3.394,2.101,4.735c2.497,1.341,7.643,2.811,7.643,2.811l-0.563-13.402
			C377.097,255.602,369.775,257.839,367.915,261.458z"/>
		<path style="fill:#92E3A9;stroke:#263238;stroke-linecap:round;stroke-linejoin:round;stroke-miterlimit:10;" d="M374.322,254.842
			l0.892,12.418c0,0-7.368,17.733-9.412,37.163c-2.045,19.431-1.169,25.489-0.668,28.013c0.501,2.525,5.14,6.392,8.774,6.851
			c3.634,0.459,5.905,0.336,17.393-2.93c11.488-3.266,19.418-7.596,27.348-11.927c7.931-4.331,12.325-6.647,12.325-6.647
			s-3.852-6.845-6.426-7.58s-5.555,1.759-5.555,1.759s-0.529-0.682-2.499,0.3c-1.97,0.982-3.863,1.358-3.863,1.358l-24.435,3.476
			c0,0,24.192-48.627,26.85-55.059c2.658-6.432-0.593-9.919-0.593-9.919L374.322,254.842z"/>
		
			<line style="fill:none;stroke:#263238;stroke-linecap:round;stroke-linejoin:round;stroke-miterlimit:10;" x1="386.54" y1="271.767" x2="381.825" y2="268.505"/>
		<g>
			<path style="fill:#FFFFFF;stroke:#263238;stroke-linecap:round;stroke-linejoin:round;stroke-miterlimit:10;" d="
				M422.131,363.428c0,0,12.614,4.055,12.663,5.291c0.049,1.237-2.892,11.53-4.136,16.5c-1.243,4.97-6.526,11.071-7.965,11.094
				c-1.439,0.023-2.346-0.912-2.495-2.981c-0.149-2.07,1.092-5.4,0.642-8.328c-0.45-2.928-4.324-12.852-4.324-12.852
				S422.027,365.876,422.131,363.428z"/>
			<path style="fill:#FFFFFF;stroke:#263238;stroke-linecap:round;stroke-linejoin:round;stroke-miterlimit:10;" d="M434.793,368.72
				c0.049,1.237-2.892,11.53-4.136,16.5c-1.243,4.97-6.526,11.071-7.965,11.094c-0.089,0.001-0.17-0.012-0.255-0.018
				c1.742-2.555,5.295-8.329,7.291-15.09c1.576-5.337,2.196-10.792,2.44-14.116C433.694,367.759,434.779,368.359,434.793,368.72z"/>
		</g>
		<path style="fill:#92E3A9;stroke:#263238;stroke-linecap:round;stroke-linejoin:round;stroke-miterlimit:10;" d="M396.294,262.745
			c-10.023,3.041-12.111,16.313-14.289,22.191c-2.178,5.878-8.452,36.054-8.53,38.3c-0.079,2.246,4.05,10.151,5.512,11.566
			c1.462,1.415,22.987,22.593,25.078,25.523c2.091,2.93,10.51,10.967,10.51,10.967l1.942,0.861c4.924-1.634,5.436-7.312,5.614-8.725
			c0.178-1.413-2.898-3.032-4.233-5.457c-1.334-2.425-8.759-18.334-11.629-23.209c-2.871-4.875-11.143-9.201-12.301-11.399
			c-1.158-2.197-1.536-2.45-1.536-2.45s9.712-15.18,17.772-22.161c8.06-6.98,14.059-20.374,14.876-30.164
			s-3.207-15.123-3.207-15.123l-21.63,0.754"/>
		<g>
			<g>
				<path style="fill:none;stroke:#263238;stroke-linecap:round;stroke-linejoin:round;stroke-miterlimit:10;" d="M403.724,76.062
					c0,0-0.208,0.073-0.536,0.192c-1.132,0.411-3.691,1.369-4.017,1.746c-0.42,0.485-1.261,1.456-0.424,3.357
					c0.837,1.901,0.837,1.901,0.837,1.901l3.385-4.06L403.724,76.062z"/>
				<path style="fill:#FFFFFF;stroke:#263238;stroke-linecap:round;stroke-linejoin:round;stroke-miterlimit:10;" d="
					M418.773,205.594c0,0-10.604,17.15-10.738,18.21c-0.134,1.06,15.424,29.96,16.238,32.03c0,0-35.412,1.809-44.204,1.775
					c-8.792-0.034-12.154,3.85-12.154,3.85s4.81-12.497,4.78-23.63c-0.029-11.133-5.596-28.172-4.106-35.702
					c1.49-7.531,6.72-20.513,6.72-20.513s-0.117-11.862,2.48-21.048c2.597-9.186,5.348-18.173,6.084-24.004
					c0.737-5.831,5.796-23.143,8.21-28.043c2.414-4.901,7.449-20.6,7.449-20.6s-0.902-2.807,0.05-4.661s3.385-4.06,3.385-4.06
					s0.867-4.019,2.305-5.453c1.438-1.434,2.165-0.086,1.854,0.952c-0.311,1.038-0.311,1.038-0.311,1.038s2.622,4.819,3.083,6.852
					c0.461,2.033-6.328,7.458-6.328,7.458s-2.443,26.438-3.224,32.622c-0.781,6.184-4.327,14.353-4.327,14.353l-0.426,4.793
					l-4.719,27.407c0,0,13.823,4.26,17.619,6.893c3.796,2.634,13.925,10.555,15.087,16.985
					C424.745,199.527,418.773,205.594,418.773,205.594z"/>
				<path style="fill:none;stroke:#263238;stroke-linecap:round;stroke-linejoin:round;stroke-miterlimit:10;" d="M406.817,75.734
					c0,0-0.534,2.805-0.603,4.771"/>
			</g>
			<path style="fill:#ADADAD;stroke:#263238;stroke-linecap:round;stroke-linejoin:round;stroke-miterlimit:10;" d="M368.59,202.126
				c1.49-7.531,6.72-20.513,6.72-20.513s-0.117-11.862,2.48-21.048c0.256-0.905,0.513-1.807,0.77-2.706l15.472-6.956l-3.154,18.316
				c0,0,13.823,4.26,17.618,6.893c3.796,2.634,13.925,10.555,15.087,16.985c1.162,6.43-4.81,12.496-4.81,12.496
				s-10.604,17.15-10.738,18.21c-0.134,1.06,15.424,29.96,16.238,32.03c0,0-35.412,1.809-44.204,1.775
				c-8.792-0.034-12.154,3.85-12.154,3.85s4.81-12.497,4.78-23.63C372.666,226.695,367.1,209.656,368.59,202.126z"/>
			<g>
				<path style="fill:none;stroke:#263238;stroke-linecap:round;stroke-linejoin:round;stroke-miterlimit:10;" d="M397.436,221.029
					c0,0-17.04-10.051-20.064-11.69"/>
				<path style="fill:none;stroke:#263238;stroke-linecap:round;stroke-linejoin:round;stroke-miterlimit:10;" d="M371.411,206.79
					c0,0,7.568,6.88,11.01,9.469"/>
				<path style="fill:none;stroke:#263238;stroke-linecap:round;stroke-linejoin:round;stroke-miterlimit:10;" d="M406.728,227.049
					c0,0-10.352,10.899-19.103,13.383"/>
				<path style="fill:none;stroke:#263238;stroke-linecap:round;stroke-linejoin:round;stroke-miterlimit:10;" d="M406.832,231.909
					c0,0-4.447,5.362-6.039,6.597"/>
			</g>
		</g>
		<path style="fill:#263238;stroke:#263238;stroke-linecap:round;stroke-linejoin:round;stroke-miterlimit:10;" d="M401.709,135.097
			c-0.099,0.782,0.72-2.557,5.901-2.697c5.181-0.14,10.896,1.774,13.841,4.661c2.945,2.887,12.904,11.03,12.381,24.6
			c-0.523,13.57-6.923,11.835-7.758,15.303c-0.835,3.469,2.764,4.321,2.764,4.321s-1.879,4.396-11.799,3.275
			c-9.92-1.121-7.348-12.049-6.352-13.644c0.996-1.595-0.533-15.689-2.858-19.292c-2.325-3.603-5.957-4.195-5.957-4.195
			s-9.267,10.479-10.009,17.402c-0.742,6.923,1.228,8.098,1.077,11.389c-0.151,3.291-4.602,6.038-8.445,5.023
			c-3.843-1.015-4.167-2.645-4.167-2.645s4.857-1.769,3.931-3.872c-0.926-2.103-6.375-8.219-5.127-16.005
			c1.248-7.785,4.043-14.184,11.037-18.199c6.994-4.015,10.187-4.141,10.187-4.141L401.709,135.097z"/>
		<path style="fill:#FFFFFF;stroke:#263238;stroke-linecap:round;stroke-linejoin:round;stroke-miterlimit:10;" d="M394.065,174.641
			c0,0-0.578,5.62-1.296,7.118c-0.719,1.498-3.524,3.791-2.661,4.297c0.863,0.506,9.908-1.926,14.553-4.119
			c4.646-2.193,3.739-6.544,3.985-7.44C408.891,173.602,400.154,177.794,394.065,174.641z"/>
		<g>
			<path style="fill:#FFFFFF;stroke:#263238;stroke-linecap:round;stroke-linejoin:round;stroke-miterlimit:10;" d="
				M403.686,142.496c0,0,5.968,8.3,8.407,12.05c2.439,3.75,5.477,10.091,5.477,10.091s-0.444,3.518-1.863,4.266
				c-1.418,0.748-3.389,0.631-3.389,0.631s-1.228,4.479-7.178,7.566c-5.058,2.624-8.768,2.334-12.201-0.879
				c-3.433-3.214-5.294-12.584-3.608-18.593c1.686-6.009,9.057-11.962,10.215-12.742
				C400.703,144.105,403.686,142.496,403.686,142.496z"/>
			<path style="fill:none;stroke:#263238;stroke-linecap:round;stroke-linejoin:round;stroke-miterlimit:10;" d="M402.418,165.106
				c0,0-2.527,1.137-3.356,0.37c-0.83-0.767-1.497-1.778-1.497-1.778"/>
			<path style="fill:none;stroke:#263238;stroke-linecap:round;stroke-linejoin:round;stroke-miterlimit:10;" d="M403.163,168.642
				c0,0-1.24,1.432-4.074,0.809c-2.834-0.623-3.677-3.377-3.677-3.377"/>
			<path style="fill:none;stroke:#263238;stroke-linecap:round;stroke-linejoin:round;stroke-miterlimit:10;" d="M409.868,161.678
				c0,0-1.855-2.088-4.756-1.13"/>
			<path style="fill:none;stroke:#263238;stroke-linecap:round;stroke-linejoin:round;stroke-miterlimit:10;" d="M397.556,158.534
				c0,0-1.609-2.983-4.917-1.945"/>
			<path style="fill:none;stroke:#263238;stroke-linecap:round;stroke-linejoin:round;stroke-miterlimit:10;" d="M411.893,158.227
				c0,0-2.391-3.082-6.432-2.534"/>
			<path style="fill:none;stroke:#263238;stroke-linecap:round;stroke-linejoin:round;stroke-miterlimit:10;" d="M399.582,154.024
				c0,0-3.352-2.807-6.027-0.497"/>
			<path style="fill:none;stroke:#263238;stroke-linecap:round;stroke-linejoin:round;stroke-miterlimit:10;" d="M416.139,162.338
				c0,0-1.649,2.572-1.892,1.35c-0.243-1.222-0.009-5.164-0.009-5.164L416.139,162.338z"/>
		</g>
		<g>
			<polygon style="fill:#FFFFFF;stroke:#263238;stroke-linecap:round;stroke-linejoin:round;stroke-miterlimit:10;" points="
				436.098,284.433 405.895,289.054 401.56,259.426 433.195,257.678 			"/>
			<polygon style="fill:#FFFFFF;stroke:#263238;stroke-linecap:round;stroke-linejoin:round;stroke-miterlimit:10;" points="
				405.895,289.054 398.998,259.82 401.56,259.426 			"/>
		</g>
		<g>
			<g>
				<path style="fill:#ADADAD;stroke:#263238;stroke-linecap:round;stroke-linejoin:round;stroke-miterlimit:10;" d="
					M411.585,195.71l10.671,32.044c0,0,0.301,6.141,0.229,10.979c-0.073,4.835,2.278,13.205,2.603,19.169
					c0.186,3.417,0.531,7.285-0.009,10.686c-0.402,2.536-2.804,4.431-4.461,6.514c-1.777,2.234-1.606,5.171-3.293,7.318
					c-0.642,0.816,0.043,1.082,1.081,1.393c1.038,0.311,2.077-0.815,2.077-0.815s-0.487,1.015-0.865,2.583s-1.086,2.914-1.086,2.914
					s1.523,0.731,2.76,0.887c1.237,0.156,2.343-1.499,2.343-1.499s1.237,0.156,1.767,0.223c0.53,0.067,1.503-0.528,1.503-0.528
					s1.568,0.378,2.585-0.571c1.017-0.948,1.549-2.317,1.817-4.438c0.268-2.12,3.588-24.139,4.794-33.681
					c1.205-9.541-0.66-18.932-1.229-22.953c-0.569-4.021-1.796-11.357-3.676-26.314c-1.88-14.957-5.631-17.944-5.631-17.944
					s-3.617-4.047-8.5-3.766c-4.882,0.281-7.983,6.351-7.983,6.351"/>
			</g>
			<path style="fill:#FFFFFF;stroke:#263238;stroke-linecap:round;stroke-linejoin:round;stroke-miterlimit:10;" d="
				M422.485,238.733c0.073-4.838-0.229-10.979-0.229-10.979l-5.439-16.332l15.597-2.449c1.201,8.868,2.022,13.891,2.457,16.964
				c0.569,4.021,2.434,13.412,1.229,22.953c-1.206,9.541-4.526,31.56-4.794,33.681c-0.268,2.12-0.8,3.489-1.817,4.438
				c-1.017,0.949-2.585,0.571-2.585,0.571s-0.973,0.595-1.503,0.528c-0.53-0.067-1.767-0.223-1.767-0.223s-1.107,1.655-2.343,1.499
				c-1.237-0.156-2.76-0.887-2.76-0.887s0.709-1.346,1.086-2.914s0.865-2.583,0.865-2.583s-1.04,1.125-2.078,0.815
				c-1.038-0.311-1.722-0.577-1.08-1.393c1.687-2.146,1.516-5.084,3.293-7.318c1.657-2.082,4.059-3.978,4.461-6.514
				c0.539-3.401,0.195-7.269,0.009-10.686C424.763,251.939,422.412,243.569,422.485,238.733z"/>
			
				<line style="fill:none;stroke:#263238;stroke-linecap:round;stroke-linejoin:round;stroke-miterlimit:10;" x1="420.482" y1="282.999" x2="421.989" y2="279.599"/>
		</g>
	</g>
</g>
<g id="Character_2">
	<g>
		<g>
			<path style="fill:#FFFFFF;stroke:#263238;stroke-linecap:round;stroke-linejoin:round;stroke-miterlimit:10;" d="
				M291.832,374.573c0,0,3.33,10.158,4.829,13.155c1.499,2.997,5.162,10.158,5.662,11.657c0.5,1.499,0,2.498-2.165,2.997
				c-2.165,0.5-6.827-0.166-9.991-3.83c-3.164-3.664-4.996-7.993-6.161-9.325c-1.166-1.332-4.496-1.832-3.996-6.328
				c0.499-4.496,3.33-8.659,3.33-8.659L291.832,374.573z"/>
			<path style="fill:#FFFFFF;stroke:#263238;stroke-linecap:round;stroke-linejoin:round;stroke-miterlimit:10;" d="
				M300.158,402.382c1.652-0.381,2.329-1.056,2.338-2.019c-3.748,0.29-9.686-1.498-11.829-4.641
				c-2.498-3.664-4.829-8.326-6.994-9.825c-0.981-0.679-2.404-1.835-3.67-2.898c-0.437,4.4,2.846,4.907,4.003,6.229
				c1.166,1.332,2.997,5.662,6.161,9.325C293.331,402.216,297.994,402.882,300.158,402.382z"/>
		</g>
		<path style="fill:#263238;stroke:#263238;stroke-linecap:round;stroke-linejoin:round;stroke-miterlimit:10;" d="M243.641,202.673
			l-3.726,30.504h-5.123c0,0-4.424,41.216-3.726,41.449c0.699,0.233,50.996,11.643,50.996,11.643l4.89-51.694l-42.38-2.329
			l3.726-30.039L243.641,202.673z"/>
		<g>
			<path style="fill:#FFFFFF;stroke:#263238;stroke-linecap:round;stroke-linejoin:round;stroke-miterlimit:10;" d="
				M223.059,255.343c0,0,1.332-8.16,0.333-10.324c-0.999-2.165-11.157-3.83-17.485-2.498c-6.328,1.332-14.487,5.329-14.987,7.66
				s1.665,2.165,4.829,2.498c3.164,0.333,9.492,0.666,11.823,1.499c2.331,0.833,4.496,3.497,4.496,3.497
				S215.898,252.013,223.059,255.343z"/>
			<path style="fill:#FFFFFF;stroke:#263238;stroke-linecap:round;stroke-linejoin:round;stroke-miterlimit:10;" d="
				M219.895,246.351c1.46,0.584,2.771,1.043,3.865,1.395c-0.005-1.153-0.104-2.153-0.369-2.727
				c-0.999-2.165-11.157-3.83-17.485-2.498c-6.328,1.332-14.488,5.329-14.987,7.66c-0.219,1.02,0.073,1.562,0.735,1.877
				c1.039-1.488,3.135-3.686,7.091-5.207C205.241,244.353,215.732,244.686,219.895,246.351z"/>
		</g>
		<g>
			<path style="fill:#263238;stroke:#263238;stroke-linecap:round;stroke-linejoin:round;stroke-miterlimit:10;" d="
				M243.041,250.181c0,0-4.829,10.491-5.329,16.319c-0.5,5.828-1.332,12.323-1.332,12.323l-2.498,12.323
				c0,0-9.825-30.973-10.324-33.637c-0.499-2.664-1.998-3.997-4.163-4.496c-2.165-0.5-6.827-0.167-7.66,1.499
				c-0.833,1.665,0.333,3.164,0.333,3.164s-0.833,0.333-0.167,2.331c0.666,1.998,2.498,3.83,2.498,3.83s6.161,33.138,7.993,40.631
				c1.832,7.493,13.155,21.148,14.82,19.816c1.665-1.332,26.977-40.465,27.476-40.798c0.499-0.333,3.996-5.662,3.996-5.662
				s2.997,24.479,5.662,34.303c2.664,9.825,5.495,21.814,5.495,21.814s-2.831,7.66-2.498,13.821
				c0.333,6.161,6.328,25.311,6.328,25.311s-1.166,1.665-0.999,2.331c0.167,0.666,0.5,1.665,0.5,1.665s0.5,0.167,2.331,0.333
				c1.832,0.167,4.33-0.999,4.33-0.999l1.998-0.666c0,0,0.5-3.33,0.5-4.996c0-1.665,2.997-38.799,3.164-41.964
				c0.167-3.164,4.496-28.309,2.664-40.798c-1.832-12.489-4.496-26.144-4.496-26.144l0.167-6.161l-49.124-7.827L243.041,250.181z"/>
			<path style="fill:#FFFFFF;stroke:#263238;stroke-linecap:round;stroke-linejoin:round;stroke-miterlimit:10;" d="
				M233.716,292.644c0,0-2.498,10.491-2.997,18.651"/>
		</g>
		<path style="fill:#FFFFFF;stroke:#263238;stroke-linecap:round;stroke-linejoin:round;stroke-miterlimit:10;" d="M255.864,170.084
			c0,0-9.658,10.324-13.322,13.821c-3.663,3.497-27.143,33.97-27.476,34.803c-0.333,0.833-0.666,9.492,6.494,7.66
			c7.16-1.832,23.146-17.152,23.146-17.152s8.826,4.496,10.657,7.16c1.832,2.664,1.499,5.495,0.833,7.66
			c-0.666,2.165-12.656,23.313-13.155,26.144c0,0,4.996,9.825,23.48,10.324c18.484,0.499,26.81-3.331,27.31-4.829
			c0.5-1.499,0.5-4.33,0.5-4.33s0.833-22.48,0.333-31.473c-0.5-8.992,0.333-16.652-2.165-30.473
			c-2.498-13.821-2.831-15.986-2.831-15.986s9.159-17.651,16.153-31.306c6.994-13.655,8.493-21.315,6.661-23.646
			s-8.659-2.997-13.155,3.996c-4.496,6.994-10.324,21.315-12.656,24.479c-2.331,3.164-7.16,7.826-11.157,10.491
			c-3.996,2.664-9.492,5.495-9.492,5.495S257.362,166.754,255.864,170.084z"/>
		<path style="fill:#92E3A9;stroke:#263238;stroke-linecap:round;stroke-linejoin:round;stroke-miterlimit:10;" d="M293.831,255.676
			c0.5-1.499,0.5-4.33,0.5-4.33s0.833-22.48,0.333-31.473c-0.5-8.992,0.333-16.652-2.165-30.473
			c-2.498-13.821-2.831-15.986-2.831-15.986s4.147-7.993,8.991-17.381l-9.551-13.491c-0.991,1.999-1.832,3.574-2.437,4.395
			c-2.331,3.164-7.16,7.826-11.157,10.491c-3.996,2.664-9.492,5.495-9.492,5.495s-8.659,3.83-10.158,7.16
			c0,0-9.658,10.324-13.322,13.821c-2.288,2.184-12.305,14.89-19.586,24.326l15.947,6.249c3.379-2.942,5.804-5.264,5.804-5.264
			s8.826,4.496,10.657,7.16c1.832,2.664,1.499,5.495,0.833,7.66c-0.666,2.165-12.656,23.313-13.155,26.144
			c0,0,4.996,9.825,23.48,10.324C285.005,261.005,293.331,257.175,293.831,255.676z"/>
		<polyline style="fill:none;stroke:#263238;stroke-linecap:round;stroke-linejoin:round;stroke-miterlimit:10;" points="
			252.034,203.389 244.707,209.217 256.696,205.054 		"/>
		<polyline style="fill:none;stroke:#263238;stroke-linecap:round;stroke-linejoin:round;stroke-miterlimit:10;" points="
			289.168,159.26 289.667,173.415 291.666,155.93 		"/>
		<path style="fill:#FFFFFF;stroke:#263238;stroke-linecap:round;stroke-linejoin:round;stroke-miterlimit:10;" d="M312.957,123.944
			c0,0,0.785-3.768-0.476-5.481s-5.332-2.211-10.355-0.17c-5.023,2.041-30.297,14.285-32.652,16.64
			c-2.355,2.355-8.163,10.204-8.163,10.204l9.733,8.32c0,0,1.884-3.454,2.512-5.808c0.628-2.355-0.471-8.948-0.471-8.948
			s16.797-6.122,21.192-6.122c4.396,0,13.5-3.768,15.384-5.651"/>
		<path style="fill:#FFFFFF;stroke:#263238;stroke-linecap:round;stroke-linejoin:round;stroke-miterlimit:10;" d="M250.363,168.107
			c0,0,4.271,4.129,5.267,5.837c0.997,1.708,5.695,5.837,11.816,4.129c6.122-1.708,3.274-10.25,2.847-10.677
			c-0.427-0.427-6.834,3.274-10.82,2.705C255.488,169.531,250.363,168.107,250.363,168.107z"/>
		<path style="fill:#263238;stroke:#263238;stroke-linecap:round;stroke-linejoin:round;stroke-miterlimit:10;" d="M237.692,141.484
			c0,0-2.42,7.545-4.983,9.254c-2.563,1.708-12.386-4.271-21.07-1.851c-8.684,2.42-10.678,10.962-10.393,13.24
			c0.285,2.278,1.139,3.559,1.139,3.559s0.142-3.132,1.851-5.552c1.708-2.42,4.698-3.702,4.698-3.702s-7.545,10.108-2.278,16.942
			c5.268,6.834,12.955,5.552,12.528,5.552c-0.427,0-2.847-1.851-2.42-3.702c0.427-1.851,3.417-4.129,3.417-4.129
			s-1.851,5.979,0.712,7.83c2.563,1.851,11.959,6.264,19.362,3.844c7.403-2.42,13.382-12.955,11.816-16.514
			c-1.566-3.559-7.688-12.955-5.552-16.372c2.135-3.417,2.278-6.122,2.278-6.122s-1.851-3.702-5.41-4.129
			C239.828,139.207,237.692,141.484,237.692,141.484z"/>
		<g>
			<path style="fill:#FFFFFF;stroke:#263238;stroke-linecap:round;stroke-linejoin:round;stroke-miterlimit:10;" d="
				M265.644,154.433c1.841,3.113,4.459,4.971,5.848,4.15c1.389-0.821,1.023-4.011-0.817-7.125c-1.841-3.113-4.459-4.972-5.848-4.15
				C263.437,148.129,263.803,151.319,265.644,154.433z"/>
		</g>
		<g>
			<path style="fill:#FFFFFF;stroke:#263238;stroke-linecap:round;stroke-linejoin:round;stroke-miterlimit:10;" d="
				M245.807,142.624c0,0-5.41,6.406-4.84,9.396c0.57,2.99,2.135,2.563,2.135,3.986c0,1.424-0.285,3.701-0.285,3.701
				s7.545,7.973,9.538,9.966c1.993,1.993,14.094,4.983,17.511,2.42c3.417-2.563,0.427-13.952-0.854-17.084
				c-1.281-3.132-5.837-9.966-7.261-11.816C260.328,141.342,247.658,139.064,245.807,142.624z"/>
			<path style="fill:none;stroke:#263238;stroke-linecap:round;stroke-linejoin:round;stroke-miterlimit:10;" d="M249.936,157.145
				c0,0,0.854-2.42,3.274-2.99"/>
			<path style="fill:none;stroke:#263238;stroke-linecap:round;stroke-linejoin:round;stroke-miterlimit:10;" d="M250.932,150.311
				c0,0-3.559,0.997-3.702,4.983"/>
			<path style="fill:none;stroke:#263238;stroke-linecap:round;stroke-linejoin:round;stroke-miterlimit:10;" d="M262.891,154.582
				c0,0,0.712,1.139-0.712,2.42"/>
			<path style="fill:none;stroke:#263238;stroke-linecap:round;stroke-linejoin:round;stroke-miterlimit:10;" d="M265.311,160.135
				c0,0-5.41,3.132-9.396,1.566c0,0,3.701,3.417,5.979,3.132C264.172,164.548,265.311,160.135,265.311,160.135z"/>
			<path style="fill:none;stroke:#263238;stroke-linecap:round;stroke-linejoin:round;stroke-miterlimit:10;" d="M261.325,150.311
				c0,0,1.281-1.424,3.417-0.997"/>
			<path style="fill:none;stroke:#263238;stroke-linecap:round;stroke-linejoin:round;stroke-miterlimit:10;" d="M258.193,147.179
				c0,0,1.993-1.993,5.125-0.712"/>
		</g>
		<path style="fill:#263238;stroke:#263238;stroke-linecap:round;stroke-linejoin:round;stroke-miterlimit:10;" d="M242.39,145.755
			c0,0,4.413-4.129,9.966-2.135c5.552,1.993,9.966,3.132,11.959,1.424c1.993-1.708,1.708-5.268,0.712-4.983
			c-0.997,0.285-1.281,0.854-2.135-0.427c-0.854-1.281-5.41-4.983-12.813-5.41c-7.403-0.427-12.528,3.559-12.386,7.261
			c0.142,3.702,2.563,4.271,2.563,4.271"/>
		<path style="fill:#FFFFFF;stroke:#263238;stroke-linecap:round;stroke-linejoin:round;stroke-miterlimit:10;" d="M239.079,163.05
			c0,0-2.811-5.62-4.519-11.6s2.99-11.389,2.99-11.389s-1.281,3.559,0.57,9.966c1.851,6.406,5.41,12.955,5.41,12.955L239.079,163.05
			z"/>
		<path style="fill:#FFFFFF;stroke:#263238;stroke-linecap:round;stroke-linejoin:round;stroke-miterlimit:10;" d="M237.135,160.991
			c0,0-5.18,8.163-5.337,10.832c-0.157,2.669-0.471,8.32-0.471,8.32s-11.931,23.704-15.541,32.024
			c-3.611,8.32-1.256,13.186,1.884,14.285c3.14,1.099,8.948-2.198,10.204-4.866c1.256-2.669,8.948-38.774,9.262-39.559
			c0.314-0.785,5.18-2.198,5.651-3.297c0.471-1.099,3.297-4.553,3.768-5.023c0.471-0.471-0.942-1.256-2.355-0.785
			c-1.413,0.471-1.884,0.942-2.512,1.099c-0.628,0.157-0.734-3.217-0.734-3.217s-0.365-8.871-0.836-11.068
			C239.647,157.538,237.135,160.991,237.135,160.991z"/>
		<g>
			<path style="fill:#FFFFFF;stroke:#263238;stroke-linecap:round;stroke-linejoin:round;stroke-miterlimit:10;" d="
				M247.001,163.988c2.705,2.4,3.545,5.872,1.875,7.754c-1.67,1.882-5.217,1.462-7.922-0.939c-2.705-2.4-3.545-5.872-1.875-7.754
				C240.749,161.168,244.296,161.588,247.001,163.988z"/>
			<path style="fill:#FFFFFF;stroke:#263238;stroke-linecap:round;stroke-linejoin:round;stroke-miterlimit:10;" d="
				M245.458,166.265c2.053,1.821,2.69,4.455,1.423,5.883c-1.267,1.428-3.958,1.109-6.011-0.712c-2.053-1.821-2.69-4.455-1.423-5.883
				C240.714,164.125,243.405,164.443,245.458,166.265z"/>
		</g>
		<path style="fill:none;stroke:#263238;stroke-linecap:round;stroke-linejoin:round;stroke-miterlimit:10;" d="M273.015,166.088
			c0,0,4.663,8.326,6.827,16.819"/>
		<path style="fill:none;stroke:#263238;stroke-linecap:round;stroke-linejoin:round;stroke-miterlimit:10;" d="M272.849,162.924
			c0,0,4.496,6.161,6.328,10.657"/>
		<path style="fill:#263238;stroke:#263238;stroke-linecap:round;stroke-linejoin:round;stroke-miterlimit:10;" d="M246.538,179.909
			c0,0,32.305,30.473,47.792,57.117v-8.659c0,0-21.981-27.809-28.309-35.802c-6.328-7.993-15.487-16.985-15.487-16.985
			L246.538,179.909z"/>
		<path style="fill:#FFFFFF;stroke:#263238;stroke-linecap:round;stroke-linejoin:round;stroke-miterlimit:10;" d="M233.211,171.98
			c0,0,1.099-3.924,1.727-4.396c0.628-0.471,5.965-6.593,6.279-4.395c0.314,2.198-1.099,3.297-1.884,4.082
			c-0.785,0.785-2.669,2.826-2.669,2.826s0,1.413-0.314,3.611c-0.314,2.198-1.727,5.337-1.727,5.337"/>
	</g>
</g>
<g id="Character_1">
	<g>
		<path style="fill:#263238;stroke:#263238;stroke-linecap:round;stroke-linejoin:round;stroke-miterlimit:10;" d="M81.124,227.537
			c0,0-4.832,41.277-2.013,45.103c2.819,3.826,12.484-0.403,16.712-3.02c4.228-2.618,9.866-5.638,9.866-5.638l2.224-5.808
			c0,0-5.446-47.35-5.647-48.558s-19.129,7.047-20.538,8.859C80.319,220.288,81.124,227.537,81.124,227.537z"/>
		<g>
			<path style="fill:#FFFFFF;stroke:#263238;stroke-linecap:round;stroke-linejoin:round;stroke-miterlimit:10;" d="M59.177,354.59
				c0,0-4.228,6.242-5.839,9.866c-1.611,3.624-3.222,9.262-3.826,11.477c-0.604,2.215-1.007,2.618-3.02,0.201
				c-2.014-2.416-4.43-7.853-3.222-16.712c1.208-8.859,6.041-18.323,7.047-17.92c1.007,0.403,9.665,5.839,9.665,5.839L59.177,354.59
				z"/>
			<path style="fill:#FFFFFF;stroke:#263238;stroke-linecap:round;stroke-linejoin:round;stroke-miterlimit:10;" d="M51.33,342.045
				c-0.483-0.277-0.852-0.479-1.012-0.543c-1.007-0.403-5.839,9.061-7.047,17.92c-1.208,8.86,1.208,14.296,3.222,16.712
				c1.071,1.285,1.685,1.766,2.117,1.608c-1.245-3.083-3.628-10.11-2.721-16.911C46.795,354.027,49.86,345.747,51.33,342.045z"/>
		</g>
		<g>
			<path style="fill:#FFFFFF;stroke:#263238;stroke-linecap:round;stroke-linejoin:round;stroke-miterlimit:10;" d="
				M108.307,256.129c0,0-3.02,12.887-2.618,20.337c0.403,7.45,1.611,16.31,1.611,16.31l-1.812,33.827c0,0-15.101,1.208-17.719,3.222
				c-2.618,2.013-21.142,14.497-24.766,15.907c-1.73,0.673-5.437,2.416-5.437,2.416s-3.624,1.812-0.805,5.839
				c2.819,4.027,53.157-11.074,54.768-11.276c1.611-0.201,11.276-3.624,12.887-5.638c1.611-2.014,12.685-39.666,12.685-39.666
				l23.76,34.23c0,0-0.403,9.866,5.437,16.914c5.839,7.047,17.115,26.78,17.115,26.78l-0.403,3.423c0,0-4.027,4.027-3.222,7.249
				c0.805,3.222,5.235,2.618,8.054,4.43c2.819,1.812,9.665,5.638,9.665,5.638s10.47,4.027,9.262,0
				c-0.441-1.469-5.42-7.378-7.249-10.068c-3.423-5.034-6.443-10.47-8.255-15.504c-1.812-5.034-11.074-40.27-12.283-44.902
				s-7.047-28.189-11.477-41.68c-4.43-13.491-7.45-18.927-7.45-18.927l-3.423-9.262L108.307,256.129z"/>
			<g>
				<path style="fill:none;stroke:#263238;stroke-linecap:round;stroke-linejoin:round;stroke-miterlimit:10;" d="M167.505,283.915
					c-4.43-13.491-7.45-18.927-7.45-18.927l-3.423-9.262l-48.325,0.403c0,0-3.02,12.887-2.618,20.337
					c0.403,7.45,1.611,16.31,1.611,16.31l-1.538,28.707l21.789,7.102c3.816-11.685,9.55-31.178,9.55-31.178l21.27,30.643
					c6.039-1.757,12.678-4.431,19.069-8.483C175.106,310.443,170.894,294.237,167.505,283.915z"/>
				
					<line style="fill:none;stroke:#263238;stroke-linecap:round;stroke-linejoin:round;stroke-miterlimit:10;" x1="137.1" y1="297.406" x2="138.711" y2="285.123"/>
				
					<line style="fill:none;stroke:#263238;stroke-linecap:round;stroke-linejoin:round;stroke-miterlimit:10;" x1="139.718" y1="294.386" x2="145.96" y2="289.151"/>
				<path style="fill:none;stroke:#263238;stroke-linecap:round;stroke-linejoin:round;stroke-miterlimit:10;" d="M109.314,302.641
					l19.934,5.638c0,0-0.403-3.02,0.201-3.222c0.604-0.201-16.31-4.228-16.31-4.228"/>
				<path style="fill:none;stroke:#263238;stroke-linecap:round;stroke-linejoin:round;stroke-miterlimit:10;" d="M114.79,321.053
					c4.53,1.624,9.515,3.277,9.625,2.73c0.201-1.007,4.027-11.88,4.027-11.88"/>
				<path style="fill:none;stroke:#263238;stroke-linecap:round;stroke-linejoin:round;stroke-miterlimit:10;" d="M108.71,306.064
					l-1.208,12.283c0,0,2.232,0.861,5.074,1.903"/>
				<path style="fill:none;stroke:#263238;stroke-linecap:round;stroke-linejoin:round;stroke-miterlimit:10;" d="M120.59,264.787
					c0,0-1.208,3.423-3.423,6.041c-2.215,2.618-4.833,3.02-5.437,3.222"/>
				<path style="fill:none;stroke:#263238;stroke-linecap:round;stroke-linejoin:round;stroke-miterlimit:10;" d="M110.758,295.511
					c-0.133,1.567-0.236,2.499-0.236,2.499"/>
				<path style="fill:none;stroke:#263238;stroke-linecap:round;stroke-linejoin:round;stroke-miterlimit:10;" d="M112.334,263.579
					c0,0-3.423,12.685-2.416,18.122c1.007,5.436,1.208,8.859,1.007,11.678"/>
				<path style="fill:none;stroke:#263238;stroke-linecap:round;stroke-linejoin:round;stroke-miterlimit:10;" d="M144.349,267.807
					l-3.624,7.45c0,0,5.235-1.007,4.631,1.208c-0.604,2.215-1.409,4.43-1.409,4.43"/>
				
					<line style="fill:none;stroke:#263238;stroke-linecap:round;stroke-linejoin:round;stroke-miterlimit:10;" x1="155.622" y1="319.689" x2="158.444" y2="323.984"/>
				
					<line style="fill:none;stroke:#263238;stroke-linecap:round;stroke-linejoin:round;stroke-miterlimit:10;" x1="140.322" y1="296.399" x2="154.12" y2="317.402"/>
			</g>
		</g>
		<g>
			<path style="fill:#FFFFFF;stroke:#263238;stroke-linecap:round;stroke-linejoin:round;stroke-miterlimit:10;" d="
				M108.307,256.129c0,0-3.02,12.887-2.618,20.337c0.403,7.45,1.611,16.31,1.611,16.31l-1.812,33.827c0,0-15.101,1.208-17.719,3.222
				c-2.618,2.013-21.142,14.497-24.766,15.907c-1.73,0.673-5.437,2.416-5.437,2.416s-3.624,1.812-0.805,5.839
				c2.819,4.027,53.157-11.074,54.768-11.276c1.611-0.201,11.276-3.624,12.887-5.638c1.611-2.014,12.685-39.666,12.685-39.666
				l23.76,34.23c0,0-0.403,9.866,5.437,16.914c5.839,7.047,17.115,26.78,17.115,26.78l-0.403,3.423c0,0-4.027,4.027-3.222,7.249
				c0.805,3.222,5.235,2.618,8.054,4.43c2.819,1.812,9.665,5.638,9.665,5.638s10.47,4.027,9.262,0
				c-0.441-1.469-5.42-7.378-7.249-10.068c-3.423-5.034-6.443-10.47-8.255-15.504c-1.812-5.034-11.074-40.27-12.283-44.902
				s-7.047-28.189-11.477-41.68c-4.43-13.491-7.45-18.927-7.45-18.927l-3.423-9.262L108.307,256.129z"/>
			<path style="fill:#FFFFFF;stroke:#263238;stroke-linecap:round;stroke-linejoin:round;stroke-miterlimit:10;" d="
				M206.768,396.069c-0.441-1.469-5.419-7.378-7.249-10.068c-1.305-1.919-2.55-3.897-3.693-5.888
				c-5.63,2.089-12.818-1.361-12.818-1.361s-4.027,4.027-3.222,7.249c0.805,3.222,5.235,2.618,8.054,4.43
				c2.819,1.812,9.665,5.638,9.665,5.638S207.977,400.096,206.768,396.069z"/>
			<path style="fill:#FFFFFF;stroke:#263238;stroke-linecap:round;stroke-linejoin:round;stroke-miterlimit:10;" d="M190.66,389.223
				c-3.012-2.41-8.388-4.143-10.907-4.864c-0.091,0.555-0.099,1.109,0.034,1.642c0.805,3.222,5.235,2.618,8.054,4.43
				c2.819,1.812,9.665,5.638,9.665,5.638s4.789,1.84,7.515,1.786C201.147,395.782,193.735,391.682,190.66,389.223z"/>
			<g>
				<path style="fill:#92E3A9;stroke:#263238;stroke-linecap:round;stroke-linejoin:round;stroke-miterlimit:10;" d="
					M167.505,283.915c-4.43-13.491-7.45-18.927-7.45-18.927l-3.423-9.262l-48.325,0.403c0,0-3.02,12.887-2.618,20.337
					c0.403,7.45,1.611,16.31,1.611,16.31l-1.538,28.707l21.789,7.102c3.816-11.685,9.55-31.178,9.55-31.178l21.27,30.643
					c6.039-1.757,12.678-4.431,19.069-8.483C175.106,310.443,170.894,294.237,167.505,283.915z"/>
				
					<line style="fill:none;stroke:#263238;stroke-linecap:round;stroke-linejoin:round;stroke-miterlimit:10;" x1="137.1" y1="297.406" x2="138.711" y2="285.123"/>
				
					<line style="fill:none;stroke:#263238;stroke-linecap:round;stroke-linejoin:round;stroke-miterlimit:10;" x1="139.718" y1="294.386" x2="145.96" y2="289.151"/>
				<path style="fill:none;stroke:#263238;stroke-linecap:round;stroke-linejoin:round;stroke-miterlimit:10;" d="M109.314,302.641
					l19.934,5.638c0,0-0.403-3.02,0.201-3.222c0.604-0.201-16.31-4.228-16.31-4.228"/>
				<path style="fill:none;stroke:#263238;stroke-linecap:round;stroke-linejoin:round;stroke-miterlimit:10;" d="M114.79,321.053
					c4.53,1.624,9.515,3.277,9.625,2.73c0.201-1.007,4.027-11.88,4.027-11.88"/>
				<path style="fill:none;stroke:#263238;stroke-linecap:round;stroke-linejoin:round;stroke-miterlimit:10;" d="M108.71,306.064
					l-1.208,12.283c0,0,2.232,0.861,5.074,1.903"/>
				<path style="fill:none;stroke:#263238;stroke-linecap:round;stroke-linejoin:round;stroke-miterlimit:10;" d="M120.59,264.787
					c0,0-1.208,3.423-3.423,6.041c-2.215,2.618-4.833,3.02-5.437,3.222"/>
				<path style="fill:none;stroke:#263238;stroke-linecap:round;stroke-linejoin:round;stroke-miterlimit:10;" d="M110.758,295.511
					c-0.133,1.567-0.236,2.499-0.236,2.499"/>
				<path style="fill:none;stroke:#263238;stroke-linecap:round;stroke-linejoin:round;stroke-miterlimit:10;" d="M112.334,263.579
					c0,0-3.423,12.685-2.416,18.122c1.007,5.436,1.208,8.859,1.007,11.678"/>
				<path style="fill:none;stroke:#263238;stroke-linecap:round;stroke-linejoin:round;stroke-miterlimit:10;" d="M144.349,267.807
					l-3.624,7.45c0,0,5.235-1.007,4.631,1.208c-0.604,2.215-1.409,4.43-1.409,4.43"/>
				
					<line style="fill:none;stroke:#263238;stroke-linecap:round;stroke-linejoin:round;stroke-miterlimit:10;" x1="155.622" y1="319.689" x2="158.444" y2="323.984"/>
				
					<line style="fill:none;stroke:#263238;stroke-linecap:round;stroke-linejoin:round;stroke-miterlimit:10;" x1="140.322" y1="296.399" x2="154.12" y2="317.402"/>
			</g>
		</g>
		<g>
			<path style="fill:#ADADAD;stroke:#263238;stroke-linecap:round;stroke-linejoin:round;stroke-miterlimit:10;" d="
				M112.411,183.165c0,0-7.544,1.306-8.415,1.306s-8.705-0.725-9.866,0.29c-1.161,1.016-28.437,30.758-28.437,30.758l10.301,7.689
				l22.053-10.881l2.902,0.145l8.705,39.753c0,0-2.176,4.788-1.741,5.948c0.435,1.161,1.886,2.176,1.886,2.176
				s22.198,6.094,28.146,5.949c5.949-0.145,16.395-3.047,17.7-3.772c1.306-0.725,4.498-3.482,3.917-6.094
				c-0.58-2.611-2.176-7.834-2.176-7.834l-4.207-58.614l16.104-34.53l-11.752-8.415l-17.991,21.327c0,0-13.058,7.254-13.783,8.56
				C125.034,178.232,112.411,183.165,112.411,183.165z"/>
			<polyline style="fill:none;stroke:#263238;stroke-linecap:round;stroke-linejoin:round;stroke-miterlimit:10;" points="
				152.165,173.59 153.18,189.984 154.921,169.237 			"/>
			<polyline style="fill:none;stroke:#263238;stroke-linecap:round;stroke-linejoin:round;stroke-miterlimit:10;" points="
				110.525,213.488 100.95,212.472 107.624,216.97 			"/>
			<path style="fill:none;stroke:#263238;stroke-linecap:round;stroke-linejoin:round;stroke-miterlimit:10;" d="M141.085,181.106
				c0,0,7.002,23.913,7.395,33.881"/>
			<path style="fill:none;stroke:#263238;stroke-linecap:round;stroke-linejoin:round;stroke-miterlimit:10;" d="M143.493,197.273
				c0,0,0.172,11.695-2.752,26.313"/>
		</g>
		<path style="fill:#263238;stroke:#263238;stroke-linecap:round;stroke-linejoin:round;stroke-miterlimit:10;" d="M134.547,173.37
			c0,0,6.581,4.432,3.158,29.199c-3.423,24.766-36.646,58.795-36.646,58.795l4.631,2.618c0,0,19.531-20.538,27.585-38.257
			c8.054-17.719,9.464-32.82,9.061-37.653c-0.403-4.833-3.826-16.31-3.826-16.31L134.547,173.37z"/>
		<path style="fill:#ADADAD;stroke:#263238;stroke-linecap:round;stroke-linejoin:round;stroke-miterlimit:10;" d="M115.296,175.162
			c0,0-3.005,0.876-3.63,2.754c-0.626,1.878-2.253,5.633-2.253,5.633s4.131,7.136,6.635,10.516c2.504,3.38,5.383,9.514,6.259,8.137
			c0.876-1.377,5.258-9.389,5.383-10.015c0.125-0.626,1.002-1.753,1.502-1.878c0.501-0.125,9.264,3.255,10.891,3.63
			c1.627,0.376,0.876-0.876,0.125-2.879c-0.751-2.003-7.386-10.641-9.139-12.644C129.317,176.414,116.923,173.91,115.296,175.162z"
			/>
		<g>
			<path style="fill:#263238;stroke:#263238;stroke-linecap:round;stroke-linejoin:round;stroke-miterlimit:10;" d="M106.56,159.377
				c0,0-2.999-5.123-3.998-11.494c-1-6.372,3.498-13.368,4.998-13.618c1.499-0.25,1.874,2.749,1.874,2.749
				s11.494-12.119,15.742-10.62c4.248,1.499,0.625,5.372,0.625,5.372s9.62-2.499,8.746,2.624c-0.875,5.122-2.624,5.622-2.624,5.622
				s-4.748-0.5-10.87,2.499c-6.122,2.999-6.622,3.498-5.997,4.748c0.625,1.249,0.875,0.5-0.625,5.247
				c-1.499,4.748-1.999,5.622-0.625,8.371c1.374,2.749,1.499,2.874-0.125,3.123c-1.624,0.25-4.623-2.499-4.623-2.499L106.56,159.377
				z"/>
			<g>
				<path style="fill:#FFFFFF;stroke:#263238;stroke-linecap:round;stroke-linejoin:round;stroke-miterlimit:10;" d="
					M114.557,144.009c0,0-5.248,7.122-4.123,6.872c1.124-0.25,3.248-2.499,3.123-0.25c-0.125,2.249-2.874,5.747-2.499,6.497
					c0.375,0.75,2.499,4.498,1.624,4.998c-0.875,0.5-1.374,0.625-1.749,0.25c-0.375-0.375-2.249-2.499-4.373-2.999
					c-2.124-0.5-3.498,3.123-2.374,5.747c1.124,2.624,7.121,3.998,7.121,3.998l2.749,0.75l0.5,7.996c0,0,9.12,11.12,10.87,13.119
					c1.749,1.999,4.123,4.248,4.623,2.874c0.5-1.374,4.498-20.49,4.498-20.49s6.497-1.249,6.872-5.622
					c0.375-4.373-0.625-14.118-3.873-20.115c-3.248-5.997-4.623-7.871-9.62-8.121C122.927,139.262,115.806,142.01,114.557,144.009z"
					/>
				<polygon style="fill:#263238;stroke:#263238;stroke-linecap:round;stroke-linejoin:round;stroke-miterlimit:10;" points="
					134.547,173.37 122.553,173.245 133.173,179.867 				"/>
				<path style="fill:none;stroke:#263238;stroke-linecap:round;stroke-linejoin:round;stroke-miterlimit:10;" d="M131.673,148.632
					c0,0,6.997,0.625,7.496,1.624c0.5,1-3.373,4.373-3.373,4.373"/>
				<path style="fill:none;stroke:#263238;stroke-linecap:round;stroke-linejoin:round;stroke-miterlimit:10;" d="M134.297,160.127
					c0,0-6.497,1.999-10.495-2.499c0,0,0.25,6.997,3.248,7.746C130.049,166.124,134.297,160.127,134.297,160.127z"/>
				<path style="fill:none;stroke:#263238;stroke-linecap:round;stroke-linejoin:round;stroke-miterlimit:10;" d="M120.679,152.38
					c0,0,1.374-3.124,4.748-2.124"/>
				<path style="fill:none;stroke:#263238;stroke-linecap:round;stroke-linejoin:round;stroke-miterlimit:10;" d="M133.422,148.257
					c0,0,0.625-1.374,2.374-1"/>
				<path style="fill:none;stroke:#263238;stroke-linecap:round;stroke-linejoin:round;stroke-miterlimit:10;" d="M118.357,148.385
					c0,0,0.439-3.074,4.654-3.162"/>
				<path style="fill:none;stroke:#263238;stroke-linecap:round;stroke-linejoin:round;stroke-miterlimit:10;" d="M130.389,143.73
					c0,0,1.581-1.581,3.601-0.439"/>
			</g>
		</g>
		<path style="fill:#ADADAD;stroke:#263238;stroke-linecap:round;stroke-linejoin:round;stroke-miterlimit:10;" d="M66.444,223.758
			c0,0-4.988-2.58-6.019-3.44c-1.032-0.86,4.3-12.555,4.816-12.899c0.516-0.344,12.727,0.688,14.447,1.72
			c1.72,1.032,4.644,9.287,3.956,11.523c-0.688,2.236-4.815,3.784-5.675,4.128C77.107,225.134,66.444,223.758,66.444,223.758z"/>
		<g>
			<path style="fill:#FFFFFF;stroke:#263238;stroke-linecap:round;stroke-linejoin:round;stroke-miterlimit:10;" d="M90.694,233.217
				c0,0-8.771-13.759-10.491-16.166c-1.72-2.408-9.115-4.3-12.727-2.752c-3.612,1.548-6.363,6.535-5.503,8.427
				c0.86,1.892,18.746,12.555,18.746,12.555s-2.064,9.975-1.204,10.835s4.644,3.612,6.019,4.128c1.376,0.516,3.44-1.376,3.44-1.376
				s1.548,0.172,2.408,0c0.86-0.172,1.892-1.548,1.892-1.548s1.032,1.72,2.064,0.172c1.032-1.548,1.204-2.752,0.344-3.268
				c-0.86-0.516-1.548-3.956-1.548-3.956s1.032-2.752,0.172-4.644C93.446,233.733,90.694,233.217,90.694,233.217z"/>
			
				<line style="fill:#FFFFFF;stroke:#263238;stroke-linecap:round;stroke-linejoin:round;stroke-miterlimit:10;" x1="93.274" y1="247.32" x2="92.07" y2="239.408"/>
		</g>
		<g>
			<path style="fill:#FFFFFF;stroke:#263238;stroke-linecap:round;stroke-linejoin:round;stroke-miterlimit:10;" d="M176.686,84.795
				c0,0,1.548-5.848,2.408-4.472c0.86,1.376-1.032,7.567-1.032,7.567s2.408-4.644,2.58-2.236c0.172,2.408-3.784,7.567-3.784,7.567
				L176.686,84.795z"/>
			<path style="fill:#FFFFFF;stroke:#263238;stroke-linecap:round;stroke-linejoin:round;stroke-miterlimit:10;" d="
				M160.003,145.505c0,0,15.822-38.524,16.166-39.728c0.344-1.204-4.816-13.587-5.16-16.166c-0.344-2.58-1.548-9.975,0-9.975
				c1.548,0,1.032,1.376,1.032,2.236c0,0.86,1.72,7.911,1.72,7.911s1.032-8.255,1.204-9.115c0.172-0.86,1.032-2.236,1.892-1.204
				c0.86,1.032,0.344,2.236,0.344,3.096s0.172,7.739,0.172,8.255c0,0.516,2.236,5.332,2.236,5.332s2.408-4.816,2.752-7.051
				c0.344-2.236,1.72-5.504,2.236-2.408c0.516,3.096-0.172,6.019-0.516,6.879c-0.344,0.86,2.236,6.535,1.376,8.255
				c-0.86,1.72-3.44,5.16-3.44,5.847c0,0.688-10.491,44.2-10.491,44.2L160.003,145.505z"/>
		</g>
		<path style="fill:#ADADAD;stroke:#263238;stroke-linecap:round;stroke-linejoin:round;stroke-miterlimit:10;" d="M152.092,149.289
			c0,0,5.16,6.02,7.051,7.567c1.892,1.548,9.803,4.988,9.803,4.988l4.988-10.147c0,0-5.331-4.472-8.943-6.019
			c-3.612-1.548-6.879-3.268-6.879-3.268L152.092,149.289z"/>
	</g>
</g>
<text x="400" y="470" fill="#636363" font-size="5">작가 storyset 출처 Freepik</text>
</svg>
