<svg width="18" height="18" viewBox="0 0 28 29" fill="none" xmlns="http://www.w3.org/2000/svg">
<path d="M11.1226 1.0112C10.4085 1.06896 9.7627 1.16347 9.1799 1.29473C5.00577 2.24506 1.88174 5.22208 1.14143 8.95517C0.931408 10.0105 0.957661 11.4701 1.20443 12.7093C1.57722 14.5732 2.47505 16.2323 3.83492 17.5764L4.34947 18.0857L4.35997 20.4432L4.37572 22.8059L6.72793 21.4408L9.08539 20.0809L9.54218 20.1387C10.335 20.2384 11.9101 20.3119 12.5139 20.2804C15.8585 20.0862 18.6518 18.5425 20.3739 15.9435C21.8073 13.7803 22.3271 11.0133 21.7495 8.59288C20.8727 4.89655 17.3759 1.76727 13.3803 1.10571C12.934 1.0322 11.5636 0.974449 11.1226 1.0112ZM13.3803 2.81736C16.8036 3.51043 19.5443 6.15666 20.1901 9.39095C20.3109 9.98951 20.3109 11.3914 20.1901 12.0319C19.8751 13.7593 19.1295 15.198 17.9692 16.3163C16.5043 17.7235 14.6876 18.469 12.3827 18.6003C11.7421 18.6318 10.1145 18.5583 9.34791 18.4585L8.88587 18.3955L7.45774 19.3511L6.02962 20.3014V18.8313V17.3612L5.2788 16.6104C4.40722 15.744 3.95568 15.1402 3.51464 14.2371C2.92659 13.0505 2.70082 12.0844 2.70082 10.7456C2.69557 9.83724 2.75332 9.38045 2.95809 8.67164C3.87167 5.45835 6.97995 3.10614 10.8338 2.71236C11.5689 2.63885 12.745 2.6861 13.3803 2.81736Z" fill="black" stroke="black" stroke-width="0.4"/>
<path d="M5.95135 9.50666C4.94851 9.97921 4.94851 11.3023 5.95135 11.7749C6.10361 11.8484 6.30838 11.9009 6.45014 11.9009C6.73367 11.9009 7.15371 11.7119 7.35322 11.5018C7.71026 11.1186 7.79951 10.5935 7.58425 10.142C7.27447 9.48566 6.5709 9.21264 5.95135 9.50666Z" fill="black" stroke="black" stroke-width="0.4"/>
<path d="M10.9914 9.50666C9.98855 9.97921 9.98855 11.3023 10.9914 11.7749C11.1437 11.8484 11.3484 11.9009 11.4902 11.9009C11.7737 11.9009 12.1937 11.7119 12.3933 11.5018C12.7503 11.1186 12.8396 10.5935 12.6243 10.142C12.3145 9.48566 11.6109 9.21264 10.9914 9.50666Z" fill="black" stroke="black" stroke-width="0.4"/>
<path d="M16.0315 9.50666C15.7165 9.65368 15.5222 9.85319 15.3805 10.1682C15.1862 10.5988 15.286 11.1343 15.6272 11.5018C15.8268 11.7119 16.2468 11.9009 16.5303 11.9009C16.8139 11.9009 17.2339 11.7119 17.4334 11.5018C17.7904 11.1186 17.8797 10.5935 17.6644 10.142C17.3547 9.48566 16.6511 9.21264 16.0315 9.50666Z" fill="black" stroke="black" stroke-width="0.4"/>
<path d="M23.6554 9.118C23.6712 9.34902 23.6554 9.85832 23.6187 10.2469L23.5557 10.9557L23.7657 11.2339C24.338 11.9848 24.695 12.6516 24.9838 13.5231C25.8344 16.0749 25.1518 18.7841 23.1461 20.8266C22.6631 21.3201 21.907 21.9187 21.403 22.2127L21.151 22.3597V23.8508V25.342L19.7281 24.3916L18.3 23.4413L17.7434 23.5305C16.5883 23.7091 15.2704 23.6881 14.3516 23.478C13.459 23.268 12.4877 22.806 11.4901 22.1182L11.2538 21.9554H10.062H8.87012L9.09064 22.1864C9.73119 22.8427 10.9073 23.6986 11.8366 24.1711C13.2858 24.9167 15.0184 25.2265 16.8823 25.0847C17.3706 25.0479 17.8484 25.0059 17.9482 24.9954C18.1162 24.9692 18.3472 25.1004 20.4684 26.4078L22.8049 27.8464L22.8311 25.4627L22.8574 23.079L23.1566 22.8585C24.8368 21.6036 26.0077 20.018 26.601 18.2013C26.916 17.2457 26.9947 16.7049 27 15.6023C27 14.4787 26.9422 14.0534 26.6325 13.0559C26.2439 11.8167 25.6086 10.7194 24.6898 9.69556C24.3433 9.31227 23.7079 8.69797 23.6554 8.69797C23.6344 8.69797 23.6344 8.88698 23.6554 9.118Z" fill="black" stroke="black" stroke-width="0.4"/>
</svg>
