<svg width="12" height="18" viewBox="0 0 24 16" fill="none" xmlns="http://www.w3.org/2000/svg">
<path d="M0.128841 1.73954C0.404853 2.21833 10.2455 15.2698 10.4596 15.4444C11.3946 16.1823 12.6001 16.1823 13.5351 15.4444C13.8337 15.2078 23.8433 1.86346 23.9391 1.57618C24.1926 0.798845 23.6236 0.0046068 22.8125 0.0046068C22.1647 0.0046068 22.5196 -0.423493 17.0275 6.89364C14.2956 10.5325 12.0311 13.5123 11.9973 13.5123C11.9636 13.5123 9.69913 10.5325 6.96717 6.89364C1.48074 -0.41786 1.82997 0.0046068 1.18782 0.0046068C0.844218 0.0046068 0.511878 0.139796 0.297828 0.370745C-0.0176146 0.708719 -0.0964751 1.34524 0.128841 1.73954Z" fill="#7ED287"/>
</svg>
