<svg width="18" height="18" viewBox="0 0 30 30" fill="none" xmlns="http://www.w3.org/2000/svg">
<path d="M13.8393 1.07708C10.2174 1.56949 7.31773 4.34883 6.64477 7.97074C6.50252 8.73123 6.50252 10.2194 6.64477 10.9799C6.91833 12.4461 7.39979 13.4802 8.57609 15.0832C9.446 16.276 10.2229 18.065 10.5293 19.5751L10.6223 20.0237L10.4582 20.2754C9.96576 21.0577 10.0259 22.2559 10.6059 23.0164C10.7864 23.2517 11.1256 23.5581 11.3554 23.6839C11.4211 23.7222 11.4156 23.7824 11.3281 24.0778C11.0381 24.9915 11.3226 26.0365 12.0284 26.6547C12.4606 27.0377 12.8764 27.2073 13.5658 27.273L14.1731 27.3332V27.842C14.1731 28.4712 14.2825 28.7283 14.6108 28.8979C14.8843 29.0347 15.1032 29.0347 15.3767 28.8979C15.705 28.7283 15.8144 28.4712 15.8144 27.842V27.3332L16.4163 27.273C17.1056 27.2073 17.5378 27.0322 17.9536 26.6657C18.6649 26.031 18.9494 24.997 18.6594 24.0723C18.5883 23.8426 18.5719 23.7222 18.6102 23.7058C18.7689 23.6565 19.2558 23.197 19.4418 22.9343C19.9725 22.1739 19.9999 20.9647 19.502 20.2371L19.3597 20.0292L19.4473 19.5969C19.5731 18.9787 19.8138 18.169 20.0546 17.5726C20.4704 16.5276 20.8424 15.882 21.9476 14.3173C22.626 13.3598 23.1075 12.2164 23.3482 10.9799C23.4959 10.2303 23.4795 8.59992 23.3209 7.85584C23.1458 7.04611 22.9652 6.52635 22.5713 5.72756C21.7889 4.13546 20.454 2.77861 18.8673 1.95247C17.3135 1.14821 15.5682 0.841823 13.8393 1.07708ZM15.995 2.71843C17.7676 2.98652 19.409 3.98227 20.4977 5.45401C21.3239 6.57559 21.7561 7.80113 21.8163 9.20175C21.8819 10.8212 21.4497 12.2218 20.4813 13.5513C19.1847 15.3404 18.364 17.0146 17.9755 18.6778L17.8716 19.1045H14.9938H12.1105L11.9846 18.5957C11.6071 17.0583 10.7481 15.2419 9.79069 13.9617C9.28734 13.2887 8.89889 12.6486 8.7074 12.1945C7.91408 10.285 7.97974 8.17317 8.89342 6.3841C10.2339 3.76342 13.1007 2.28074 15.995 2.71843ZM17.981 20.9757C18.353 21.3422 18.2819 21.966 17.8442 22.234L17.6473 22.3599H14.9938H12.3402L12.1433 22.234C11.8697 22.0699 11.7439 21.7909 11.7822 21.4407C11.8041 21.2 11.8369 21.1343 12.0339 20.9538L12.2582 20.7404L15.0211 20.7568L17.784 20.7732L17.981 20.9757ZM16.8868 24.2584C17.2588 24.6249 17.1877 25.2486 16.75 25.5167C16.5585 25.6426 16.5202 25.6426 14.9938 25.6426C13.4673 25.6426 13.429 25.6426 13.2375 25.5167C12.964 25.3526 12.8381 25.0736 12.8764 24.7234C12.8983 24.4827 12.9311 24.417 13.1281 24.2365L13.3524 24.0231L15.0211 24.0395L16.6898 24.0559L16.8868 24.2584Z" fill="black" stroke="black" stroke-width="0.3"/>
<path d="M14.5785 5.78208C14.1572 6.03375 14.1681 5.95716 14.1846 9.13043C14.201 11.8605 14.2064 11.9317 14.3159 12.0794C14.5183 12.3529 14.6988 12.4514 14.9943 12.4514C15.2897 12.4514 15.4703 12.3529 15.6727 12.0794C15.7821 11.9317 15.7876 11.8605 15.804 9.11401C15.815 6.37843 15.815 6.29637 15.7055 6.08299C15.5797 5.83679 15.2678 5.6453 14.9833 5.6453C14.8849 5.6453 14.7043 5.70548 14.5785 5.78208Z" fill="black" stroke="black" stroke-width="0.3"/>
<path d="M14.5886 14.2024C14.1947 14.4376 14.0743 14.8698 14.2822 15.2747C14.408 15.5209 14.7199 15.7124 14.9935 15.7124C15.4093 15.7124 15.8141 15.3075 15.8141 14.8863C15.8141 14.6346 15.6008 14.2954 15.3655 14.175C15.0919 14.0382 14.8457 14.0437 14.5886 14.2024Z" fill="black" stroke="black" stroke-width="0.3"/>
<path d="M2.90261 2.56513C2.4102 2.82227 2.30625 3.54446 2.71659 3.90009C2.90261 4.05875 4.93788 5.10921 5.1239 5.13657C5.37557 5.18034 5.55065 5.12016 5.77496 4.92867C6.12512 4.62228 6.147 4.08611 5.81873 3.77425C5.73119 3.69218 5.18955 3.37486 4.60414 3.06847C3.44425 2.46117 3.23088 2.39552 2.90261 2.56513Z" fill="black" stroke="black" stroke-width="0.3"/>
<path d="M26.4016 2.54864C25.9475 2.7456 24.3006 3.64834 24.1693 3.77418C23.8356 4.08603 23.8575 4.61126 24.2131 4.92859C24.4374 5.12555 24.6125 5.18026 24.8696 5.13649C25.0557 5.10367 27.0855 4.06415 27.2715 3.90001C27.4302 3.75776 27.5232 3.53344 27.5232 3.2763C27.5232 2.70183 26.9268 2.31885 26.4016 2.54864Z" fill="black" stroke="black" stroke-width="0.3"/>
<path d="M1.44727 8.76422C0.850911 9.05966 0.850911 9.9241 1.44727 10.2086C1.60046 10.2797 1.84666 10.2961 2.92448 10.2961C4.10625 10.2961 4.23756 10.2852 4.42905 10.1867C4.65336 10.0718 4.87221 9.72167 4.87221 9.47547C4.87221 9.21285 4.65883 8.88458 4.41263 8.76969C4.19926 8.66574 4.07889 8.6548 2.92448 8.6548C1.77554 8.6548 1.65517 8.66574 1.44727 8.76422Z" fill="black" stroke="black" stroke-width="0.3"/>
<path d="M25.5698 8.76969C25.3236 8.89006 25.1157 9.21833 25.1157 9.48094C25.1212 9.74356 25.3127 10.0664 25.5479 10.1812C25.7504 10.2852 25.8653 10.2961 27.0689 10.2961C28.2343 10.2961 28.3929 10.2852 28.5625 10.1922C28.7923 10.0718 29.0002 9.73808 29.0002 9.48094C29.0002 9.20738 28.7978 8.89006 28.5352 8.76422C28.3273 8.66574 28.196 8.6548 27.0525 8.6548C25.8926 8.6548 25.7832 8.66574 25.5698 8.76969Z" fill="black" stroke="black" stroke-width="0.3"/>
<path d="M3.95252 14.3775C3.32881 14.7003 2.77623 15.0012 2.71604 15.0504C2.53002 15.2145 2.45343 15.4389 2.47531 15.7507C2.50267 16.0626 2.6285 16.2541 2.913 16.4018C3.23033 16.5659 3.41635 16.5112 4.64736 15.8601C5.79083 15.2638 5.82913 15.2419 5.95497 14.9902C6.05892 14.7878 6.0808 14.6893 6.04798 14.5088C5.98232 14.1258 5.60481 13.7975 5.2273 13.7975C5.14524 13.7975 4.57624 14.0601 3.95252 14.3775Z" fill="black" stroke="black" stroke-width="0.3"/>
<path d="M24.4318 13.8741C24.1911 13.9781 23.9832 14.2516 23.9394 14.5088C23.9066 14.6893 23.9285 14.7878 24.0324 14.9902C24.1582 15.2419 24.1965 15.2638 25.34 15.8601C26.571 16.5112 26.757 16.5659 27.0744 16.4018C27.3643 16.2486 27.4847 16.0626 27.5121 15.7234C27.5449 15.2638 27.4136 15.1051 26.7297 14.7386C24.9516 13.792 24.7601 13.7209 24.4318 13.8741Z" fill="black" stroke="black" stroke-width="0.3"/>
</svg>
