<svg width="84" height="21" viewBox="0 0 84 21" fill="none" xmlns="http://www.w3.org/2000/svg">
<path d="M2.276 20.252C1.716 20.252 1.268 20.1027 0.932 19.804C0.596 19.5053 0.428 19.0947 0.428 18.572V8.772C0.428 6.06533 1.20267 3.94667 2.752 2.416C4.30133 0.885332 6.45733 0.119999 9.22 0.119999C11.0307 0.119999 12.5987 0.465332 13.924 1.156C15.2493 1.84667 16.2573 2.84533 16.948 4.152C17.6573 5.45867 18.012 6.99867 18.012 8.772V18.572C18.012 19.0947 17.844 19.5053 17.508 19.804C17.172 20.1027 16.724 20.252 16.164 20.252C15.604 20.252 15.1467 20.1027 14.792 19.804C14.456 19.4867 14.288 19.076 14.288 18.572V14.008H4.152V18.572C4.152 19.076 3.97467 19.4867 3.62 19.804C3.284 20.1027 2.836 20.252 2.276 20.252ZM14.288 11.124V8.688C14.288 6.82133 13.8587 5.42133 13 4.488C12.16 3.536 10.9 3.06 9.22 3.06C5.84133 3.06 4.152 4.936 4.152 8.688V11.124H14.288ZM22.7291 20.28C22.1691 20.28 21.7211 20.1307 21.3851 19.832C21.0491 19.5333 20.8811 19.1227 20.8811 18.6V8.044C20.8811 5.56133 21.6558 3.62 23.2051 2.22C24.7545 0.819999 26.9011 0.119999 29.6451 0.119999C32.3891 0.119999 34.5358 0.819999 36.0851 2.22C37.6345 3.62 38.4091 5.56133 38.4091 8.044V18.6C38.4091 19.1227 38.2411 19.5333 37.9051 19.832C37.5691 20.1307 37.1211 20.28 36.5611 20.28C36.0011 20.28 35.5438 20.1307 35.1891 19.832C34.8531 19.5147 34.6851 19.104 34.6851 18.6V7.96C34.6851 6.37333 34.2558 5.16 33.3971 4.32C32.5385 3.48 31.2878 3.06 29.6451 3.06C28.0025 3.06 26.7518 3.48 25.8931 4.32C25.0345 5.16 24.6051 6.37333 24.6051 7.96V18.6C24.6051 19.104 24.4278 19.5147 24.0731 19.832C23.7371 20.1307 23.2891 20.28 22.7291 20.28ZM51.1148 20.28C49.0054 20.28 47.1761 19.8787 45.6268 19.076C44.0774 18.2733 42.8921 17.116 42.0708 15.604C41.2494 14.092 40.8388 12.3 40.8388 10.228C40.8388 8.156 41.2494 6.364 42.0708 4.852C42.8921 3.32133 44.0681 2.15467 45.5988 1.352C47.1481 0.530666 48.9681 0.119999 51.0588 0.119999C52.7948 0.119999 54.4001 0.418666 55.8748 1.016C57.3494 1.61333 58.4414 2.40667 59.1508 3.396C59.3748 3.69467 59.4868 4.00267 59.4868 4.32C59.4868 4.78667 59.2348 5.20667 58.7308 5.58C58.5068 5.748 58.2268 5.832 57.8908 5.832C57.6108 5.832 57.3308 5.776 57.0508 5.664C56.7708 5.53333 56.5374 5.356 56.3508 5.132C55.7161 4.404 54.9788 3.88133 54.1388 3.564C53.2988 3.228 52.2721 3.06 51.0588 3.06C49.0241 3.06 47.4374 3.69467 46.2988 4.964C45.1601 6.21467 44.5908 7.96933 44.5908 10.228C44.5908 12.468 45.1601 14.2133 46.2988 15.464C47.4561 16.7147 49.0614 17.34 51.1148 17.34C52.8134 17.34 54.1388 17.0133 55.0908 16.36C56.0614 15.7067 56.5468 14.8013 56.5468 13.644V13.028C56.5468 12.636 56.4534 12.3653 56.2668 12.216C56.0988 12.0667 55.8001 11.992 55.3708 11.992H51.7028C51.1801 11.992 50.7694 11.8707 50.4708 11.628C50.1721 11.3667 50.0228 11.012 50.0228 10.564C50.0228 10.0973 50.1628 9.74267 50.4428 9.5C50.7414 9.23867 51.1614 9.108 51.7028 9.108H57.1348C58.2174 9.108 59.0108 9.34133 59.5148 9.808C60.0188 10.256 60.2708 10.9747 60.2708 11.964V13.056C60.2708 14.4747 59.8881 15.7347 59.1228 16.836C58.3574 17.9187 57.2748 18.768 55.8748 19.384C54.4934 19.9813 52.9068 20.28 51.1148 20.28ZM73.3225 20.28C71.1385 20.28 69.2532 19.86 67.6665 19.02C66.0985 18.1613 64.9038 16.976 64.0825 15.464C63.2612 13.9333 62.8505 12.1787 62.8505 10.2C62.8505 8.22133 63.2612 6.476 64.0825 4.964C64.9038 3.43333 66.0985 2.248 67.6665 1.408C69.2532 0.549332 71.1385 0.119999 73.3225 0.119999C75.5065 0.119999 77.3825 0.549332 78.9505 1.408C80.5372 2.248 81.7412 3.43333 82.5625 4.964C83.3838 6.476 83.7945 8.22133 83.7945 10.2C83.7945 12.1787 83.3838 13.9333 82.5625 15.464C81.7412 16.976 80.5372 18.1613 78.9505 19.02C77.3825 19.86 75.5065 20.28 73.3225 20.28ZM73.3225 17.34C75.4505 17.34 77.1025 16.7053 78.2785 15.436C79.4545 14.148 80.0425 12.4027 80.0425 10.2C80.0425 7.97867 79.4265 6.23333 78.1945 4.964C76.9812 3.69467 75.2638 3.06 73.0425 3.06C71.0078 3.06 69.4212 3.71333 68.2825 5.02C67.1625 6.308 66.6025 8.03467 66.6025 10.2C66.6025 12.4027 67.1905 14.148 68.3665 15.436C69.5425 16.7053 71.1945 17.34 73.3225 17.34Z" fill="white"/>
</svg>
