<svg width="60" height="32" viewBox="0 0 60 32" fill="none" xmlns="http://www.w3.org/2000/svg">
<path class="start" d="M0 6C0 2.68629 2.68629 0 6 0H30V28.125H6C2.68629 28.125 0 25.4387 0 22.125V6Z" fill="#44494C"/>
<path class="end" d="M30 0H54C57.3137 0 60 2.68629 60 6V22.125C60 25.4387 57.3137 28.125 54 28.125H30V0Z" fill="#44494C"/>
<path class="start" d="M13.3686 5.22829C13.3343 5.32018 13.3314 5.38234 13.3613 5.47832C13.3911 5.57148 13.4727 5.66169 13.56 5.69822C13.5954 5.71227 14.388 5.72038 15.4248 5.71806C16.4167 5.71443 17.2311 5.71684 17.2365 5.72248C17.2434 5.72953 15.9103 7.11818 14.2765 8.80977L11.3056 11.8858L11.2754 11.9791C11.1861 12.2604 11.4339 12.5169 11.7042 12.4231L11.7957 12.3932L14.7666 9.31717C16.4004 7.62558 17.7416 6.24539 17.747 6.25103C17.7525 6.25667 17.7507 7.08722 17.7445 8.1C17.735 9.41223 17.7406 9.9645 17.7623 10.0294C17.8003 10.1423 17.8833 10.2311 17.9842 10.2648C18.0783 10.2971 18.1383 10.2941 18.2312 10.2544C18.3199 10.216 18.3773 10.1566 18.4157 10.0633C18.4555 9.96008 18.4679 5.34965 18.4272 5.22827C18.3933 5.12523 18.3361 5.06321 18.2407 5.02105C18.1412 4.98031 13.6883 4.98745 13.5709 5.03009C13.4726 5.06421 13.4056 5.13074 13.3686 5.22829Z" fill="#B5B6B8" stroke="#B3B4B6" stroke-width="0.5"/>
<path class="end" d="M46.0269 12.211C46.0612 12.1192 46.0641 12.057 46.0343 11.961C46.0044 11.8679 45.9228 11.7776 45.8355 11.7411C45.8001 11.7271 45.0075 11.7189 43.9707 11.7213C42.9789 11.7249 42.1644 11.7225 42.159 11.7168C42.1522 11.7098 43.4852 10.3212 45.119 8.62956L48.0899 5.55355L48.1201 5.46026C48.2094 5.17897 47.9616 4.92245 47.6913 5.01628L47.5998 5.04614L44.6289 8.12216C42.9951 9.81375 41.6539 11.1939 41.6485 11.1883C41.643 11.1827 41.6448 10.3521 41.651 9.33934C41.6605 8.0271 41.6549 7.47483 41.6332 7.4099C41.5952 7.29698 41.5122 7.20818 41.4113 7.17451C41.3172 7.14223 41.2572 7.14519 41.1643 7.18495C41.0756 7.22329 41.0182 7.28274 40.9798 7.37605C40.94 7.47925 40.9276 12.0897 40.9683 12.2111C41.0022 12.3141 41.0594 12.3761 41.1548 12.4183C41.2543 12.459 45.7072 12.4519 45.8246 12.4092C45.9229 12.3751 45.9899 12.3086 46.0269 12.211Z" fill="#B5B6B8" stroke="#B3B4B6" stroke-width="0.5"/>
<path class="start" d="M11.246 20.369H11.744V21.191H11.246V20.369ZM9.05 20.075H13.946V20.459H9.05V20.075ZM11.252 17.633H11.744V18.293H11.252V17.633ZM11.228 18.341H11.666V18.425C11.666 19.277 10.652 19.733 9.452 19.835L9.308 19.451C10.376 19.385 11.228 19.007 11.228 18.425V18.341ZM11.33 18.341H11.768V18.425C11.768 19.007 12.62 19.385 13.682 19.451L13.538 19.835C12.338 19.733 11.33 19.277 11.33 18.425V18.341ZM9.548 18.143H13.448V18.521H9.548V18.143ZM9.638 20.951H13.322V22.145H10.142V22.799H9.65V21.791H12.83V21.329H9.638V20.951ZM9.65 22.655H13.484V23.033H9.65V22.655ZM14.7915 17.891H15.2835V18.671H16.8135V17.891H17.2995V20.261H14.7915V17.891ZM15.2835 19.061V19.859H16.8135V19.061H15.2835ZM18.2775 17.669H18.7755V20.465H18.2775V17.669ZM18.5595 18.833H19.5735V19.247H18.5595V18.833ZM15.3315 20.729H18.7755V22.043H15.8355V22.859H15.3435V21.671H18.2895V21.125H15.3315V20.729ZM15.3435 22.637H18.9735V23.033H15.3435V22.637Z" fill="#F8F9FA"/>
<path class="end" d="M39.043 20.201H42.769V20.609H39.043V20.201ZM38.425 21.995H43.339V22.415H38.425V21.995ZM40.621 20.375H41.119V22.163H40.621V20.375ZM39.043 18.101H42.715V18.509H39.541V20.381H39.043V18.101ZM45.2945 18.617H45.7025V18.845C45.7025 19.793 45.0965 20.561 44.1905 20.867L43.9505 20.477C44.7545 20.225 45.2945 19.577 45.2945 18.845V18.617ZM45.3845 18.617H45.7925V18.845C45.7925 19.517 46.3205 20.135 47.1125 20.375L46.8725 20.765C45.9725 20.477 45.3845 19.733 45.3845 18.845V18.617ZM44.0945 18.335H46.9865V18.737H44.0945V18.335ZM45.2945 17.645H45.7925V18.533H45.2945V17.645ZM47.6525 17.669H48.1505V20.975H47.6525V17.669ZM48.0125 19.115H48.9545V19.529H48.0125V19.115ZM44.6285 21.263H48.1505V23.099H47.6525V21.671H44.6285V21.263Z" fill="#F8F9FA"/>
<path d="M29.9351 31.25L25.4358 26.6393L34.4343 26.6393L29.9351 31.25Z" fill="#44494C"/>
<line x1="30.1875" y1="2.48474e-08" x2="30.1875" y2="30.7377" stroke="#393A3E"/>
</svg>
