<svg width="120" height="61" viewBox="0 0 120 61" fill="none" xmlns="http://www.w3.org/2000/svg">
<rect width="120" height="52" rx="7" fill="#44494C"/>
<path d="M27.0185 10.2056C26.9492 10.385 26.9434 10.5063 27.0037 10.6937C27.064 10.8755 27.229 11.0517 27.4053 11.123C27.4769 11.1504 29.0788 11.1662 31.1743 11.1617C33.1788 11.1546 34.8249 11.1593 34.8359 11.1703C34.8496 11.1841 32.1555 13.8947 28.8535 17.1967L22.8491 23.2011L22.7881 23.3832C22.6077 23.9323 23.1084 24.433 23.6547 24.2498L23.8396 24.1915L29.844 18.1871C33.146 14.8852 35.8566 12.191 35.8676 12.202C35.8786 12.213 35.8751 13.8343 35.8625 15.8112C35.8432 18.3727 35.8547 19.4507 35.8985 19.5775C35.9752 19.7979 36.1431 19.9712 36.347 20.037C36.5371 20.1 36.6584 20.0942 36.846 20.0166C37.0254 19.9417 37.1415 19.8257 37.2191 19.6436C37.2995 19.4421 37.3244 10.4425 37.2422 10.2056C37.1737 10.0045 37.0582 9.88341 36.8654 9.80111C36.6643 9.72159 27.6647 9.73553 27.4274 9.81876C27.2288 9.88536 27.0934 10.0152 27.0185 10.2056Z" fill="#B5B6B8" stroke="#B3B4B6" stroke-width="0.5"/>
<path d="M93.023 23.836C93.0923 23.6566 93.0981 23.5353 93.0378 23.3479C92.9775 23.1661 92.8125 22.99 92.6362 22.9187C92.5646 22.8912 90.9627 22.8754 88.8672 22.8799C86.8627 22.887 85.2166 22.8823 85.2056 22.8713C85.1919 22.8576 87.886 20.1469 91.188 16.8449L97.1924 10.8406L97.2534 10.6584C97.4338 10.1094 96.9331 9.60864 96.3868 9.7918L96.2019 9.8501L90.1975 15.8545C86.8956 19.1565 84.1849 21.8506 84.1739 21.8396C84.1629 21.8286 84.1664 20.2073 84.179 18.2304C84.1983 15.6689 84.1868 14.5909 84.143 14.4641C84.0663 14.2437 83.8984 14.0704 83.6946 14.0047C83.5044 13.9417 83.3831 13.9474 83.1955 14.025C83.0161 14.0999 82.9 14.2159 82.8224 14.3981C82.742 14.5995 82.7171 23.5991 82.7993 23.836C82.8678 24.0371 82.9833 24.1582 83.1761 24.2405C83.3772 24.32 92.3768 24.3061 92.6141 24.2229C92.8127 24.1563 92.9481 24.0264 93.023 23.836Z" fill="#B5B6B8" stroke="#B3B4B6" stroke-width="0.5"/>
<path d="M20.44 35.42L20.152 34.676C22.144 34.544 23.788 33.884 23.956 32.816H20.632V32.072H24.016V31.052H25V32.072H28.372V32.816H25.06C25.228 33.884 26.848 34.544 28.852 34.676L28.552 35.42C26.752 35.276 25.168 34.724 24.508 33.728C23.848 34.724 22.252 35.276 20.44 35.42ZM29.356 36.656H25V37.652H28.12V40.004H21.796V41.024H28.444V41.768H20.836V39.296H27.148V38.384H20.8V37.652H24.004V36.656H19.648V35.9H29.356V36.656ZM35.1391 35.48V33.872H32.0911V35.48H35.1391ZM36.0991 31.568V36.272H31.1191V31.568H32.0911V33.116H35.1391V31.568H36.0991ZM33.1831 39.812V40.988H39.4231V41.768H32.2231V39.08H38.0551V37.976H32.1871V37.196H39.0271V39.812H33.1831ZM39.0271 33.44H40.6231V34.256H39.0271V36.692H38.0431V31.136H39.0271V33.44Z" fill="#F8F9FA"/>
<path d="M84 39.716H88.404V40.532H78.624V39.716H83.004V36.956H79.872V31.988H87.168V32.792H80.856V36.164H87.276V36.956H84V39.716ZM95.9631 36.5L95.4831 37.268C94.2711 36.884 93.3351 36.068 92.8671 35.024C92.3991 36.164 91.4271 37.04 90.1791 37.472L89.6871 36.692C91.2831 36.188 92.3631 34.916 92.3631 33.452V33.236H89.9751V32.444H92.3631V31.064H93.3471V32.444H95.7231V33.236H93.3471V33.452C93.3471 34.796 94.3911 36.02 95.9631 36.5ZM91.0311 39.056V38.252H98.0271V41.888H97.0431V39.056H91.0311ZM99.6231 33.992V34.82H98.0271V37.688H97.0431V31.136H98.0271V33.992H99.6231Z" fill="#F8F9FA"/>
<path d="M60.5 61L51.4067 52L69.5933 52L60.5 61Z" fill="#44494C"/>
<line x1="60.5" y1="2.18557e-08" x2="60.5" y2="60" stroke="#393A3E"/>
</svg>
